<?xml version="1.0" encoding="UTF-8" standalone="no"?>
<!DOCTYPE svg  PUBLIC '-//W3C//DTD SVG 1.1//EN'  'http://www.w3.org/Graphics/SVG/1.1/DTD/svg11.dtd'>
<svg xmlns="http://www.w3.org/2000/svg">
<defs>
<font id="BookmanOldStyle-Regular" horiz-adv-x="1270">
<font-face underline-position="-195" font-weight="300" descent="-410" panose-1="2 5 6 4 5 5 5 2 2 4" units-per-em="2048" unicode-range="U+0020-F003" bbox="-381 -473 2549 1869" x-height="965" underline-thickness="123" font-family="BookmanOldStyle" ascent="1638" cap-height="1395"/>
<missing-glyph horiz-adv-x="2048"/>
<glyph glyph-name=".notdef" horiz-adv-x="2048"/>
<glyph glyph-name="glyph1" horiz-adv-x="0"/>
<glyph glyph-name="glyph2" horiz-adv-x="2048"/>
<glyph glyph-name="space" horiz-adv-x="655" unicode=" "/>
<glyph glyph-name="exclam" horiz-adv-x="614" unicode="!" d="M307 233q53 0 89.5 -36.5t36.5 -88.5t-37 -88.5t-89 -36.5q-51 0 -88 36.5t-37 88.5t36.5 88.5t88.5 36.5zM264 335l-76 894q-4 38 -4 48q0 73 32 107.5t94 34.5q54 0 87.5 -33t33.5 -89q0 -18 -5 -60l-80 -902h-82z"/>
<glyph glyph-name="quotedbl" horiz-adv-x="778" unicode='&quot;' d="M526 905l-47 350q-4 26 -4 54q0 57 21.5 83.5t57.5 26.5q34 0 54 -24t20 -69q0 -28 -6 -68l-55 -353h-41zM201 905l-48 350q-3 26 -3 55q0 56 21.5 82.5t57.5 26.5q33 0 53.5 -24t20.5 -71q0 -27 -7 -66l-54 -353h-41z"/>
<glyph glyph-name="numbersign" horiz-adv-x="1229" unicode="#" d="M781 829h-273l-40 -270h271zM1061 559v-117h-219l-65 -443h-119l65 443h-273l-62 -443h-122l67 443h-218v117h236l37 271h-217v116h239l62 417h115l-61 -417h272l61 417h118l-61 -417h196v-117h-213l-40 -270h202z"/>
<glyph glyph-name="dollar" d="M676 99h6q74 0 133 22q86 32 133.5 93.5t47.5 139.5q0 91 -67 156.5t-253 116.5v-528zM580 1302h-8q-72 0 -122 -18q-74 -27 -118 -79.5t-44 -120.5q0 -52 24.5 -95t81 -77t186.5 -77v467zM580 1620h96v-237q70 -9 122.5 -32t107.5 -69l44 88h70l103 -405l-90 -31 q-53 118 -108 190t-111.5 110.5t-137.5 58.5v-487q28 -10 132 -46q117 -41 138 -51q62 -30 116 -80.5t81.5 -113t27.5 -132.5q0 -101 -56.5 -186t-172 -140t-266.5 -57v-240h-96v250q-80 19 -148.5 55.5t-138.5 99.5l-48 -138h-70l-90 482l90 19q63 -140 116.5 -212 t123 -122.5t165.5 -83.5v549q-28 10 -100 33q-94 31 -123 45q-74 35 -131.5 88t-82.5 106.5t-25 114.5q0 92 53 171.5t160 128t249 49.5v225z" unicode="$"/>
<glyph glyph-name="percent" horiz-adv-x="1843" unicode="%" d="M1445 663q-52 0 -92.5 -30.5t-68 -108t-27.5 -181.5q0 -102 25.5 -170.5t68 -100.5t91.5 -32q52 0 95.5 32.5t69.5 103t26 175.5q0 141 -47 226.5t-141 85.5zM1448 726q147 0 231 -95q92 -104 92 -286q0 -170 -92.5 -269.5t-239.5 -99.5q-153 0 -243 116q-75 97 -75 260 q0 179 89.5 276.5t237.5 97.5zM1446 1419l-929 -1443h-120l928 1443h121zM397 1355q-53 0 -93 -30.5t-67.5 -108t-27.5 -181.5q0 -102 25 -170t67.5 -100.5t92.5 -32.5q51 0 95 32.5t70 103.5t26 176q0 140 -47.5 225.5t-140.5 85.5zM399 1419q147 0 231 -95 q93 -105 93 -286q0 -171 -92.5 -270.5t-239.5 -99.5q-153 0 -244 117q-75 97 -75 259q0 179 90 277t237 98z"/>
<glyph glyph-name="ampersand" horiz-adv-x="1638" unicode="&amp;" d="M586 806q-123 -61 -151 -82q-46 -33 -82 -81.5t-53 -98t-17 -103.5q0 -126 84 -227q107 -129 271 -129q81 0 157 35q105 50 172 118q-8 13 -25 47l-157 308q-20 40 -55 93q-22 33 -56.5 63t-87.5 57zM627 1327q-81 0 -136 -58t-55 -151q0 -91 55.5 -150t135.5 -59 q78 0 134.5 59t56.5 147q0 94 -55.5 153t-135.5 59zM1020 881h466v-85h-56q-61 0 -82 -8.5t-37 -29.5t-23 -64q-37 -213 -151 -393q20 -55 67 -115t82 -80t75 -20q51 0 85 31.5t34 73.5q0 35 -13 55q-14 20 -59 42q-36 18 -51 41t-15 51q0 40 25.5 65t67.5 25 q71 0 123.5 -61.5t52.5 -155.5q0 -112 -85 -194.5t-205 -82.5q-82 0 -155.5 41t-145.5 140q-102 -91 -180 -128q-112 -53 -243 -53q-145 0 -260 58.5t-177.5 157.5t-62.5 216q0 110 52.5 200t157.5 160q77 51 190 87q-83 34 -126 72t-66 88t-23 108q0 121 93 203 q105 93 252 93q145 0 240 -85t95 -201q0 -78 -39 -144.5t-109 -109.5q-44 -29 -116 -46q87 -28 147 -73.5t123.5 -132.5t123.5 -221q97 215 97 322q0 36 -22 52t-88 16h-59v85z"/>
<glyph glyph-name="quotesingle" horiz-adv-x="451" unicode="&apos;" d="M200 905l-48 350q-3 26 -3 55q0 56 21.5 82.5t57.5 26.5q33 0 53.5 -24t20.5 -71q0 -27 -7 -66l-54 -353h-41z"/>
<glyph glyph-name="parenleft" horiz-adv-x="614" unicode="(" d="M493 1457l63 -62q-54 -57 -90 -140q-53 -125 -76.5 -293.5t-23.5 -475.5q0 -316 22 -474t75 -281q36 -86 93 -147l-63 -57q-97 86 -169.5 217t-108 302.5t-35.5 459.5q0 287 39.5 459.5t128.5 322.5q67 113 145 169z"/>
<glyph glyph-name="parenright" horiz-adv-x="614" unicode=")" d="M122 -473l-63 63q55 56 90 140q53 124 76.5 292.5t23.5 476.5q0 315 -22 473t-74 281q-37 86 -94 147l63 57q97 -85 169.5 -216.5t108 -302.5t35.5 -460q0 -287 -39 -459t-128 -322q-68 -114 -146 -170z"/>
<glyph glyph-name="asterisk" horiz-adv-x="901" unicode="*" d="M428 1116l-43 153q-9 29 -9 58q0 45 20.5 68.5t54.5 23.5t50 -21q23 -29 23 -75q0 -24 -8 -54l-40 -153l40 -30l129 90q48 35 89 35q39 0 60 -22t21 -59q0 -33 -35 -59.5t-90 -26.5h-159l-15 -52l129 -97q62 -47 62 -107q0 -26 -24.5 -48.5t-54.5 -22.5q-18 0 -48 21.5 t-49 74.5l-55 152h-48l-55 -152q-18 -49 -45.5 -73.5t-51.5 -24.5q-30 0 -54.5 23.5t-24.5 46.5q0 59 64 110l124 97l-12 52h-161q-57 0 -91.5 25.5t-34.5 58.5q0 34 20.5 56.5t51.5 22.5q53 0 96 -31l131 -90z"/>
<glyph glyph-name="plus" horiz-adv-x="1229" unicode="+" d="M1102 759v-123h-426v-426h-123v426h-426v123h426v426h123v-426h426z"/>
<glyph glyph-name="comma" horiz-adv-x="655" unicode="," d="M221 -362l-54 66q205 167 205 279q0 13 -2 32q-17 -7 -33 -11t-30 -4q-48 0 -77 31t-29 79q0 47 35 82t84 35q68 0 116.5 -54.5t48.5 -140.5q0 -56 -23 -117.5t-67 -114t-174 -162.5z"/>
<glyph glyph-name="hyphen" horiz-adv-x="819" unicode="-" d="M112 571h594v-124h-594v124z"/>
<glyph glyph-name="hyphen" horiz-adv-x="819" unicode="­" d="M112 571h594v-124h-594v124z"/>
<glyph glyph-name="period" horiz-adv-x="655" unicode="." d="M327 233q53 0 89.5 -36.5t36.5 -88.5t-37 -88.5t-89 -36.5q-51 0 -88 36.5t-37 88.5t36.5 88.5t88.5 36.5z"/>
<glyph glyph-name="slash" horiz-adv-x="1229" unicode="/" d="M1001 1467l-683 -1913h-148l679 1913h152z"/>
<glyph glyph-name="zero" d="M633 1320q-104 0 -183 -76q-69 -66 -109 -208q-46 -162 -46 -358q0 -152 28.5 -275.5t75.5 -192t106.5 -101.5t125.5 -33q99 0 185 77q69 63 109 188q48 152 48 357q0 212 -49 360t-120.5 205t-170.5 57zM638 1419q154 0 269 -78.5t187 -246.5t72 -407q0 -354 -177 -551 q-144 -160 -364 -160q-149 0 -264 79.5t-186 238.5t-71 404q0 247 69.5 403t189.5 237t275 81z" unicode="0"/>
<glyph glyph-name="one" d="M688 1395h75v-1158q0 -82 10.5 -105.5t34.5 -35.5t95 -12h98v-84h-659v84h109q71 0 94.5 12.5t36.5 40t13 100.5v952h-253v86q207 29 346 120z" unicode="1"/>
<glyph glyph-name="two" d="M232 869l-97 -12q-8 71 -8 116q0 118 64 223t178.5 164t262.5 59q143 0 251 -55.5t165.5 -152t57.5 -220.5q0 -105 -37.5 -194.5t-120.5 -180.5q-62 -68 -251 -208q-238 -178 -365 -258h520q92 0 120 17q39 22 53 102l9 57h85l-68 -376h-64l-11 50h-874v84l160 121 q182 135 267 207q161 136 242.5 232.5t112 174t30.5 162.5q0 141 -90.5 231t-235.5 90q-104 0 -185.5 -45t-128.5 -126t-47 -175q0 -35 5 -87z" unicode="2"/>
<glyph glyph-name="three" d="M271 1022l-96 15q13 108 56 179q57 96 161 149.5t239 53.5q133 0 234 -47.5t152.5 -126t51.5 -169.5q0 -80 -39 -143t-116 -113q-54 -35 -141 -61q93 -13 152 -43q96 -49 151 -135t55 -189q0 -165 -145 -290.5t-375 -125.5q-227 0 -382 121q-130 103 -130 207 q0 41 26.5 68.5t66.5 27.5q44 0 75 -34q17 -19 39 -91q31 -101 105 -154t184 -53q98 0 175.5 43t122.5 122t45 173q0 76 -32.5 136.5t-92.5 102.5q-46 33 -117.5 46t-128.5 13h-93v97h59q88 0 168 20.5t128 84.5t48 145q0 70 -33.5 126t-98.5 89t-150 33q-83 0 -152.5 -34 t-111.5 -91t-60 -152z" unicode="3"/>
<glyph glyph-name="four" d="M742 584v656l-566 -656h566zM742 1395h169v-811h262v-125h-262v-459h-169v459h-657v176z" unicode="4"/>
<glyph glyph-name="five" d="M275 1395h622q57 0 69 6q17 10 20 43h73v-211h-691l-17 -352q43 12 109 20q85 10 152 10q167 0 291 -60t188.5 -164.5t64.5 -233.5q0 -200 -150 -338.5t-382 -138.5q-134 0 -242.5 48t-169.5 126.5t-61 137.5q0 39 26 67.5t67 28.5q42 0 74 -35q18 -18 43 -88 q34 -98 101 -144q66 -47 166 -47t178 43.5t123 125t45 181.5q0 105 -48.5 187t-139 127t-220.5 45q-79 0 -169.5 -17t-155.5 -43z" unicode="5"/>
<glyph glyph-name="six" d="M671 819q-144 0 -236.5 -109t-92.5 -262q0 -108 45 -199.5t116 -136t160 -44.5q138 0 229.5 104.5t91.5 280.5q0 168 -89 267t-224 99zM1036 1421v-91q-247 -3 -399.5 -72t-224.5 -206.5t-81 -338.5q51 78 104.5 121.5t125 67t156.5 23.5q136 0 242 -60t165 -162.5 t59 -241.5q0 -221 -133 -347q-147 -138 -381 -138q-169 0 -285 70t-184.5 214t-68.5 356q0 213 72.5 378t200.5 265t280.5 131t273.5 31h78z" unicode="6"/>
<glyph glyph-name="seven" d="M222 1446h66l12 -51h874v-85q-157 -181 -284.5 -412.5t-197.5 -471.5q-51 -173 -83 -426h-205q30 223 98.5 417t198 405.5t314.5 422.5h-623q-68 0 -93 -7t-39 -22t-24 -53l-5 -19l-34 -118l-85 18z" unicode="7"/>
<glyph glyph-name="eight" d="M560 683q-141 -62 -223 -161q-64 -78 -64 -162q0 -114 101 -202.5t261 -88.5q163 0 272 101q89 82 89 176q0 74 -58.5 141.5t-217.5 131.5zM701 811q114 86 148 120t52.5 77.5t18.5 84.5q0 59 -35 112.5t-102.5 86.5t-151.5 33q-124 0 -206 -68.5t-82 -158.5 q0 -72 51 -129t190 -112zM792 774q118 -45 180 -85q91 -58 137 -136.5t46 -170.5q0 -165 -142 -285.5t-383 -120.5q-255 0 -400 136q-115 109 -115 247q0 111 78 199q94 105 268 164q-136 64 -196 130q-77 87 -77 209q0 151 114 244q140 114 350 114q192 0 310.5 -98.5 t118.5 -225.5q0 -63 -29.5 -120.5t-90.5 -107t-169 -93.5z" unicode="8"/>
<glyph glyph-name="nine" d="M601 580q143 0 235.5 108.5t92.5 261.5q0 108 -45 199.5t-115.5 136t-160.5 44.5q-137 0 -229 -104.5t-92 -280.5q0 -168 89.5 -266.5t224.5 -98.5zM235 -24v93q248 3 400.5 71.5t224 206.5t80.5 338q-51 -78 -104.5 -121t-125 -67t-155.5 -24q-136 0 -242.5 60 t-165.5 162t-59 240q0 220 133 346q147 138 382 138q169 0 285 -70t184 -214t68 -354t-71 -375t-198.5 -264.5t-280.5 -132.5t-277 -33h-78z" unicode="9"/>
<glyph glyph-name="colon" horiz-adv-x="655" unicode=":" d="M327 233q53 0 89.5 -36.5t36.5 -88.5t-37 -88.5t-89 -36.5q-51 0 -88 36.5t-37 88.5t36.5 88.5t88.5 36.5zM327 989q52 0 89 -37t37 -89q0 -53 -37 -90t-89 -37q-51 0 -88 36.5t-37 88.5t38 90t87 38z"/>
<glyph glyph-name="less" horiz-adv-x="1229" unicode="&lt;" d="M1047 181l-901 400v100l901 401v-144l-718 -307l718 -307v-143z"/>
<glyph glyph-name="equal" horiz-adv-x="1229" unicode="=" d="M1102 602v-123h-975v123h975zM1102 916v-123h-975v123h975z"/>
<glyph glyph-name="greater" horiz-adv-x="1229" unicode="&gt;" d="M182 1082l901 -401v-100l-901 -400v143l718 307l-718 307v144z"/>
<glyph glyph-name="question" horiz-adv-x="1106" unicode="?" d="M406 233q52 0 88.5 -36.5t36.5 -88.5t-37 -88.5t-88 -36.5q-52 0 -89 36.5t-37 88.5t36.5 88.5t89.5 36.5zM355 335v355h21q183 0 278 34t146.5 106.5t51.5 162.5q0 82 -45.5 161.5t-120.5 123.5t-160 44q-68 0 -117 -25.5t-92 -86.5q-42 -61 -60 -75q-35 -27 -70 -27 q-24 0 -47.5 12.5t-32.5 28.5q-13 24 -13 48q0 79 92 139q128 83 308 83q162 0 286 -60.5t188 -160.5t64 -226q0 -197 -156.5 -306t-416.5 -110v-221h-104z"/>
<glyph glyph-name="at" horiz-adv-x="1679" unicode="@" d="M917 917q-44 0 -100.5 -35.5t-129.5 -140t-123.5 -237t-50.5 -208.5q0 -64 35 -104.5t81 -40.5q57 0 130 50.5t158 173.5q43 63 70 140q55 159 55 255q0 68 -36 107.5t-89 39.5zM1268 958l-117 -399l-67 -239q-16 -56 -22 -96q-4 -27 -4 -43q0 -34 21 -56t55 -22 q80 0 181.5 78.5t171.5 238t70 335.5q0 175 -82.5 316.5t-230 220.5t-335.5 79q-231 0 -424 -119.5t-313.5 -346t-120.5 -487.5q0 -234 100 -416t279 -282.5t404 -100.5q178 0 332 64t274.5 186t197.5 303h58q-33 -102 -75 -172q-75 -128 -196.5 -229.5t-275 -157 t-320.5 -55.5q-247 0 -446 115t-312.5 316.5t-113.5 454.5q0 272 126 496.5t345.5 353t474.5 128.5q214 0 374 -85.5t250 -244.5t90 -355q0 -202 -89.5 -379t-209.5 -252t-251 -75q-77 0 -116 36t-39 103q0 54 18 145q-142 -172 -231.5 -228.5t-161.5 -56.5q-49 0 -89.5 28 t-66.5 84.5t-26 122.5q0 134 84 303t221.5 282.5t245.5 113.5q43 0 81 -17.5t58.5 -43.5t32.5 -77l33 110z"/>
<glyph glyph-name="A" horiz-adv-x="1393" unicode="A" d="M441 615h431l-216 600zM616 1395h165l433 -1166q32 -88 64.5 -116.5t87.5 -28.5h22v-84h-497v84q24 2 47 2q48 0 63 10q29 19 29 48q0 21 -28 103l-92 270h-506l-108 -302q-17 -47 -17 -65q0 -20 10.5 -35t28.5 -22.5t58 -7.5q27 0 44 -1v-84h-417v84q58 0 83.5 11.5 t44.5 37t50 107.5z"/>
<glyph glyph-name="B" horiz-adv-x="1515" unicode="B" d="M446 677v-458q0 -69 6 -82q8 -18 32 -25q17 -5 96 -5h136q202 0 288.5 22.5t147.5 95t61 174.5q0 86 -49.5 152.5t-137 96t-310.5 29.5h-270zM446 1284v-511h255q179 0 245 17q103 27 157.5 92t54.5 167q0 86 -49.5 143.5t-132.5 78.5q-54 13 -224 13h-306zM83 1395h663 q243 0 333 -22q133 -32 210.5 -116t77.5 -202q0 -85 -41 -152.5t-119 -115.5q-50 -31 -136 -53q109 -20 166 -48q86 -42 136 -120t50 -176q0 -95 -49 -176t-138.5 -133t-208.5 -66.5t-245 -14.5h-699v84h47q68 0 93 21q36 29 36 96v969q0 68 -11 93t-33 36t-85 11h-47v85z "/>
<glyph glyph-name="C" horiz-adv-x="1515" unicode="C" d="M1208 1395h72l127 -465l-93 -26q-75 161 -114 216q-64 89 -159.5 141t-210.5 52q-135 0 -248.5 -72.5t-184 -212.5t-70.5 -315q0 -180 71.5 -321t193.5 -217t263 -76q133 0 272 76t241 213l80 -55q-62 -92 -134 -156q-114 -103 -237 -152t-270 -49q-325 0 -528 241 q-168 200 -168 476q0 203 93 367.5t256.5 261.5t352.5 97q101 0 187.5 -27.5t175.5 -88.5z"/>
<glyph glyph-name="D" horiz-adv-x="1638" unicode="D" d="M461 108h302q45 0 149.5 16t149.5 39q66 34 128 109.5t95.5 181t33.5 241.5q0 135 -33.5 234t-101 178t-150 120.5t-184.5 52.5q-55 5 -184 5h-205v-1177zM97 1310v85h498q342 0 477 -43q199 -63 323 -235q137 -190 137 -437q0 -168 -67.5 -312.5t-177.5 -232.5 q-91 -74 -219 -104.5t-258 -30.5h-713v84h58l19 -1q37 0 60.5 15t33.5 40q7 19 7 88v933q0 79 -10 102q-14 31 -45 43q-18 6 -123 6z"/>
<glyph glyph-name="E" horiz-adv-x="1475" unicode="E" d="M98 1395h1134l131 -367l-88 -33q-33 90 -72 141.5t-93.5 87.5t-110 48t-200.5 12h-338v-511h168q93 0 140.5 31.5t65.5 78.5q14 35 14 122v23h98v-612h-98v53q0 70 -10.5 101t-38.5 58.5t-60.5 37.5t-110.5 10h-168v-454q0 -71 6.5 -86.5t21.5 -22.5t82 -7h209 q175 0 273.5 42t173.5 129q59 68 113 192l91 -32l-156 -437h-1177v84h40q70 0 87 9q26 13 40 42q10 20 10 87v960q0 65 -13 87t-45 34q-17 7 -119 7v85z"/>
<glyph glyph-name="F" horiz-adv-x="1311" unicode="F" d="M109 1395h1067l129 -366l-87 -33q-55 128 -108 184t-123 80t-220 24h-301v-536h137q108 0 155 21t72 66.5t25 129.5v37h98v-612h-98v54q0 79 -24 123t-65.5 63.5t-147.5 19.5h-152v-434q0 -60 12.5 -83.5t37 -36t87.5 -12.5h37v-84h-531v84h34q64 0 88.5 12t36 37.5 t11.5 92.5v949q0 62 -11 87t-33.5 36.5t-78.5 11.5h-47v85z"/>
<glyph glyph-name="G" horiz-adv-x="1638" unicode="G" d="M1197 1395h73l114 -430l-90 -31q-90 204 -207 291t-265 87q-213 0 -357 -177t-144 -422q0 -176 73.5 -323t196.5 -224t261 -77q89 0 169.5 32.5t130.5 77.5q37 34 49.5 73.5t12.5 105.5v10v66q0 79 -18.5 112t-52.5 47q-26 11 -140 11v84h566v-84h-46q-59 0 -80.5 -11.5 t-31.5 -35.5t-10 -94v-483h-99l-53 122q-84 -61 -179 -95q-142 -51 -281 -51q-281 0 -481.5 206.5t-200.5 514.5q0 306 203 514t486 208q71 0 140 -14t126 -40q43 -19 100 -62z"/>
<glyph glyph-name="H" horiz-adv-x="1638" unicode="H" d="M97 1395h538v-85h-37q-64 0 -91.5 -12t-38.5 -42q-9 -22 -9 -93v-389h723v379q0 77 -5 93q-8 32 -34.5 48t-80.5 16h-55v85h534v-85h-48q-56 0 -79.5 -12.5t-33 -34t-9.5 -92.5v-950q0 -79 10 -100.5t40 -30.5q18 -6 120 -6v-84h-534v84h39q74 0 98.5 10t31.5 32 q6 17 6 107v433h-723v-445q0 -79 10.5 -101t40.5 -30q22 -6 125 -6v-84h-538v84h34q78 0 97.5 8.5t31 32.5t11.5 85v961q0 65 -10.5 90t-33 37t-74.5 12h-56v85z"/>
<glyph glyph-name="I" horiz-adv-x="696" unicode="I" d="M81 1395h534v-85h-41q-58 0 -84 -16t-38 -45.5t-12 -114.5v-899q0 -68 13 -96.5t36.5 -41.5t84.5 -13h41v-84h-534v84h44q59 0 83.5 13.5t35.5 39t11 98.5v920q0 77 -11 103.5t-35.5 39t-83.5 12.5h-44v85z"/>
<glyph glyph-name="J" horiz-adv-x="1229" unicode="J" d="M614 1395h534v-85h-53q-54 0 -76.5 -11t-34.5 -35t-12 -72v-737q0 -167 -54 -261.5t-172.5 -156t-278.5 -61.5q-213 0 -342.5 113t-129.5 263q0 75 34 116t85 41q40 0 66.5 -30t26.5 -78q0 -14 -8 -57q-9 -45 -9 -63q0 -74 75.5 -134.5t195.5 -60.5q99 0 178 44 t113.5 110t34.5 191v729q0 74 -11.5 99.5t-36.5 38t-92 12.5h-33v85z"/>
<glyph glyph-name="K" horiz-adv-x="1475" unicode="K" d="M103 1395h538v-85h-38q-66 0 -93 -16t-38 -50q-9 -25 -9 -82v-527l524 555q41 44 48.5 57t7.5 27q0 18 -17.5 27t-75.5 9h-32v85h500v-85h-8q-54 0 -99 -13q-48 -14 -76 -35q-61 -45 -87 -72l-374 -383l427 -566q58 -77 92 -105.5t70 -40t112 -11.5v-84h-592v84h35 q59 0 70 3q17 4 27 16t10 25q0 26 -69 119l-315 428l-178 -184v-267q0 -69 14 -94t43 -37q23 -9 121 -9v-84h-538v84h42q63 0 86 12.5t35.5 41.5t12.5 103v921q0 73 -12 99.5t-35 37.5t-98 11h-31v85z"/>
<glyph glyph-name="L" horiz-adv-x="1229" unicode="L" d="M94 1395h541v-85h-50q-58 0 -82 -11t-35 -32t-11 -75v-973q0 -67 5 -80q6 -18 26 -26q14 -6 81 -6h75q129 0 224 37.5t164 109t133 213.5l89 -30l-156 -437h-1004v84h44q64 0 86 11t34 36.5t12 87.5v949q0 72 -11 96.5t-32 35t-89 10.5h-44v85z"/>
<glyph glyph-name="M" horiz-adv-x="1884" unicode="M" d="M96 1395h441l412 -1105l401 1105h426v-85h-36q-65 0 -87.5 -11t-35.5 -38.5t-13 -90.5v-920q0 -87 10.5 -113t35 -39.5t90.5 -13.5h36v-84h-533v84h38q51 0 74.5 8t39 26.5t17.5 38.5q5 41 5 64v1027l-455 -1248h-99l-459 1230v-989q0 -75 13 -101.5t40.5 -41t98.5 -14.5 h32v-84h-492v84h28q71 0 101.5 15t43.5 42.5t13 108.5v911q0 76 -11 100.5t-36.5 36.5t-90.5 12h-48v85z"/>
<glyph glyph-name="N" horiz-adv-x="1515" unicode="N" d="M88 1395h428l635 -1046v796q0 71 -14 102t-42 47t-83 16h-36v85h467v-85h-25q-62 0 -84 -10q-31 -14 -46.5 -51t-15.5 -104v-1145h-121l-765 1257v-996q0 -83 5 -101q7 -23 25.5 -42t43.5 -26t101 -8v-84h-473v84h25q72 0 97.5 14t39.5 48t14 115v884q0 83 -4 101 q-9 34 -34.5 49t-101.5 15h-36v85z"/>
<glyph glyph-name="O" horiz-adv-x="1638" unicode="O" d="M839 1311q-156 0 -268 -71.5t-179.5 -210.5t-67.5 -343q0 -195 66.5 -330.5t178.5 -207.5t252 -72q139 0 246 70.5t177 222t70 336.5q0 188 -70 344q-60 134 -159 198t-246 64zM839 1419q191 0 345 -92q167 -99 256.5 -257t89.5 -366q0 -322 -200 -525t-510 -203 q-346 0 -548 244q-165 199 -165 476q0 206 93 369.5t264 258.5t375 95z"/>
<glyph glyph-name="P" d="M457 1286v-585h215q163 0 228.5 29t108.5 100.5t43 167.5q0 105 -50 175.5t-136 95.5q-60 17 -234 17h-175zM92 1395h551q251 0 346 -32q119 -38 196.5 -130t77.5 -234q0 -121 -59 -209q-71 -106 -172.5 -150.5t-319.5 -44.5h-255v-358q0 -80 9 -101q12 -29 33 -40.5 t85 -11.5h48v-84h-540v84h33q69 0 94 11.5t36.5 36t11.5 92.5v954q0 66 -10.5 88.5t-35 33t-96.5 10.5h-33v85z" unicode="P"/>
<glyph glyph-name="Q" horiz-adv-x="1638" unicode="Q" d="M839 1311q-156 0 -268 -71.5t-179.5 -210.5t-67.5 -343q0 -195 66.5 -330.5t178.5 -207.5t252 -72q139 0 246 70.5t177 222t70 336.5q0 188 -70 344q-60 134 -159 198t-246 64zM916 -19q-2 -22 -2 -37q0 -81 61 -134.5t159 -53.5q57 0 115 17.5t132 60.5l54 -80 q-198 -120 -352 -120q-105 0 -201 44q-72 34 -113.5 101t-41.5 150q0 16 3 52q-272 27 -447.5 227t-175.5 489q0 206 93 369.5t262.5 258t372.5 94.5q194 0 348 -91q167 -99 257 -257.5t90 -367.5q0 -295 -170 -491.5t-444 -230.5z"/>
<glyph glyph-name="R" horiz-adv-x="1475" unicode="R" d="M462 1286v-525h287q146 0 205 18q84 24 132.5 88t48.5 163q0 84 -35 141.5t-95.5 86t-180.5 28.5h-362zM99 1395h720q205 0 310 -42.5t161.5 -123t56.5 -186.5q0 -109 -55 -193.5t-158.5 -133t-274.5 -50.5l368 -450q45 -56 59 -69q35 -31 73.5 -47t86.5 -16h25v-84h-318 l-512 666h-179v-430q0 -72 5 -90q11 -34 35.5 -48t95.5 -14h36v-84h-535v84h48q54 0 72.5 7t33 24.5t20.5 44.5q2 11 3 101v914q0 60 -12 86t-33.5 37.5t-74.5 11.5h-57v85z"/>
<glyph glyph-name="S" horiz-adv-x="1352" unicode="S" d="M1036 1395h72l107 -430l-92 -28q-88 181 -234 285q-120 87 -266 87q-88 0 -158 -31.5t-105 -81.5t-35 -102q0 -47 27 -91t82 -77.5t180 -70.5l261 -77q48 -14 139.5 -54t142.5 -84.5t80 -109t29 -139.5q0 -166 -145.5 -290.5t-376.5 -124.5q-119 0 -213 34.5t-203 122.5 l-46 -133h-70l-93 501l93 19q51 -139 135.5 -236t187 -146.5t208.5 -49.5q144 0 252 87q90 73 90 172q0 91 -65 149q-66 58 -236 108l-250 72q-210 61 -296 156t-86 218q0 96 56 177.5t172 136.5t254 55q116 0 222 -40q75 -28 138 -80z"/>
<glyph glyph-name="T" d="M125 1442h70l10 -47h856l8 47h73l147 -410l-90 -32q-65 164 -154 230.5t-228 66.5q-58 0 -69 -4.5t-15.5 -15.5t-4.5 -70v-968q0 -69 7.5 -93t21.5 -37t38.5 -18.5t109.5 -6.5v-84h-538v84q89 1 109 6q35 10 50 38t15 103v989q0 46 -4.5 56t-17 15.5t-51.5 5.5 q-109 0 -174.5 -28t-123.5 -95t-99 -174l-90 32z" unicode="T"/>
<glyph glyph-name="U" horiz-adv-x="1597" unicode="U" d="M78 1395h539v-85h-36q-66 0 -94 -13q-22 -10 -33 -34t-11 -96v-628q0 -168 40.5 -249t135 -136t207.5 -55q114 0 216 59t143 140t41 256v604q0 66 -13 95t-39.5 43t-82.5 14h-39v85h467v-85h-32q-79 0 -108.5 -30t-29.5 -113v-643q0 -176 -66 -293.5t-192 -186 t-293 -68.5q-158 0 -289 70t-192.5 174.5t-61.5 262.5v684q0 66 -12 92.5t-35 38.5t-80 12h-50v85z"/>
<glyph glyph-name="V" horiz-adv-x="1434" unicode="V" d="M2 1395h509v-85h-39q-54 0 -68 -4q-20 -6 -30.5 -19.5t-10.5 -30.5q0 -27 20 -78l370 -966l374 966q20 51 20 77q0 29 -20 42t-82 13h-46v85h433v-85h-9q-49 0 -74.5 -10.5t-42.5 -30.5q-21 -27 -47 -91l-474 -1178h-142l-469 1178q-23 58 -32 72q-14 21 -31.5 34 t-41.5 19.5t-67 6.5v85z"/>
<glyph glyph-name="W" horiz-adv-x="1966" unicode="W" d="M26 1395h500v-85h-53q-52 0 -71 -10q-29 -16 -29 -48q0 -23 16 -73l286 -930l248 764l-58 185q-21 66 -64 95q-26 17 -91 17v85h496v-85h-47q-61 0 -82 -15t-21 -41q0 -22 16 -75l287 -936l289 936q15 49 15 74q0 29 -20 43t-79 14h-50v85h426v-85h-8q-48 0 -73.5 -11 t-42.5 -32.5t-37 -87.5l-385 -1179h-145l-269 834l-270 -834h-144l-378 1179q-27 85 -67 112q-30 19 -95 19v85z"/>
<glyph glyph-name="X" horiz-adv-x="1475" unicode="X" d="M66 1395h533v-85h-42q-60 0 -76 -8t-16 -26q0 -12 6 -24t36 -52l261 -356l285 356q40 50 40 76q0 16 -15.5 25t-65.5 9h-51v85h453v-85q-81 0 -116.5 -17t-98.5 -93l-364 -437l429 -563q41 -54 69 -76.5t54 -31t86 -8.5v-84h-535v84h42q62 0 78.5 8.5t16.5 27.5 q0 11 -6 23q-2 5 -40 57l-319 426l-349 -439q-32 -39 -36 -48q-6 -11 -6 -21q0 -19 23 -28q15 -6 71 -6h42v-84h-452v84q62 0 90.5 8.5t57.5 30.5t74 77l421 507l-374 493q-56 74 -91.5 92t-114.5 18v85z"/>
<glyph glyph-name="Y" horiz-adv-x="1311" unicode="Y" d="M5 1395h522v-85h-59q-54 0 -69.5 -10t-15.5 -33q0 -20 19 -54q5 -8 13 -23l272 -504l301 523q18 32 21.5 41.5t3.5 19.5q0 14 -7.5 23.5t-23.5 14.5q-10 2 -56 2h-52v85h431v-85h-12q-49 0 -73 -7q-28 -8 -45 -24.5t-49 -69.5l-378 -630v-351q0 -77 12.5 -100t39.5 -33.5 t126 -10.5v-84h-545v84h42q67 0 89.5 12t35.5 39q9 19 9 93v314l-369 656q-44 79 -73.5 94.5t-109.5 17.5v85z"/>
<glyph glyph-name="Z" horiz-adv-x="1311" unicode="Z" d="M245 1395h971v-85l-911 -1202h335q228 0 347.5 76.5t213.5 279.5l92 -31l-161 -433h-1079v84l913 1203h-290q-146 0 -231 -28t-149 -87.5t-134 -186.5l-86 42z"/>
<glyph glyph-name="bracketleft" horiz-adv-x="614" unicode="[" d="M208 1457h310v-95h-165v-1739h165v-96h-310v1930z"/>
<glyph glyph-name="backslash" horiz-adv-x="1229" unicode="\" d="M392 1467l667 -1913h-149l-670 1913h152z"/>
<glyph glyph-name="bracketright" horiz-adv-x="614" unicode="]" d="M406 -473h-310v96h165v1739h-165v95h310v-1930z"/>
<glyph glyph-name="asciicircum" horiz-adv-x="1229" unicode="^" d="M246 595h-142l442 824h135l443 -824h-142l-368 662z"/>
<glyph glyph-name="underscore" horiz-adv-x="1024" unicode="_" d="M-12 -154h1048v-102h-1048v102z"/>
<glyph glyph-name="grave" horiz-adv-x="696" unicode="`" d="M557 1170l-286 60q-75 16 -103 41.5t-28 62.5q0 34 20.5 55.5t52.5 21.5q64 0 159 -70l185 -136v-35z"/>
<glyph glyph-name="a" horiz-adv-x="1188" unicode="a" d="M793 492q-232 -34 -287 -47q-109 -25 -156 -55t-67 -64.5t-20 -73.5t22.5 -75.5t63.5 -57.5t87 -21q65 0 147 31t210 121v242zM793 579v109q0 111 -62 158.5t-175 47.5q-56 0 -98 -13.5t-67.5 -37t-37.5 -53.5q-5 -11 -24 -85q-23 -90 -93 -90q-40 0 -64.5 26.5 t-24.5 71.5q0 66 49 129.5t149.5 105t237.5 41.5q128 0 219 -39.5t134 -113.5q30 -51 30 -186v-385q0 -82 5 -107q11 -43 38.5 -64.5t71.5 -21.5q46 0 110 22v-87q-83 -24 -149 -24q-71 0 -119.5 20t-79.5 58.5t-40 91.5q-120 -94 -217 -132t-196 -38q-138 0 -224 75 t-86 176q0 61 31.5 116t96 97t202.5 74t383 58z"/>
<glyph glyph-name="b" d="M395 758v-385q0 -91 13 -127.5t53.5 -75t95 -61t112.5 -22.5q89 0 162 47t115 139t42 221q0 181 -89 290q-71 90 -199 90q-66 0 -134 -24.5t-171 -91.5zM57 1300v83q66 5 127.5 24t137.5 60h73v-610q88 66 181 99t190 33q112 0 207 -60t149.5 -169.5t54.5 -258.5 q0 -234 -137 -385q-127 -140 -322 -140q-117 0 -209 49q-68 36 -132 111l-55 -136h-93v1300h-172z" unicode="b"/>
<glyph glyph-name="c" horiz-adv-x="1065" unicode="c" d="M958 279l64 -52q-188 -251 -451 -251q-205 0 -346 146t-141 363q0 145 65.5 260.5t182 179.5t267.5 64q172 0 287 -84.5t115 -170.5q0 -46 -27 -71t-61 -25q-18 0 -35 9t-35 29q-8 9 -29 56q-27 58 -42 78q-31 40 -76.5 63t-101.5 23q-85 0 -157.5 -47t-115 -138.5 t-42.5 -218.5q0 -197 105 -313q91 -100 217 -100q58 0 117.5 19.5t112.5 57.5q39 27 127 123z"/>
<glyph glyph-name="d" d="M865 242v378q0 81 -30.5 132.5t-100 89.5t-142.5 38q-87 0 -160.5 -47.5t-115 -137t-41.5 -216.5q0 -120 38.5 -207.5t103.5 -133t133 -45.5q67 0 152 38.5t163 110.5zM697 1298v85q68 6 124.5 23.5t141.5 60.5h75v-1213q0 -84 4 -102q10 -38 34 -53t93 -15h43v-84 l-347 -16v159q-100 -91 -187.5 -129t-175.5 -38q-181 0 -300.5 145.5t-119.5 350.5q0 146 63.5 267.5t167.5 185.5t228 64q95 0 176 -33t148 -99v441h-168z" unicode="d"/>
<glyph glyph-name="e" horiz-adv-x="1065" unicode="e" d="M802 662q-15 92 -42.5 136t-78 70t-113.5 26t-118 -26t-91.5 -72t-63.5 -134h507zM930 258l64 -52q-73 -87 -141.5 -138t-129.5 -71.5t-143 -20.5q-147 0 -250 60q-118 69 -181 180t-63 262q0 158 61 270t170.5 176.5t253.5 64.5q107 0 186 -33.5t134 -101t80 -154.5 q14 -51 16 -132h-707q-3 -49 -3 -73q0 -126 44 -224.5t116.5 -145t164.5 -46.5q78 0 151 36.5t177 142.5z"/>
<glyph glyph-name="f" horiz-adv-x="655" unicode="f" d="M68 965h171v150q0 155 102.5 253.5t267.5 98.5q110 0 171.5 -46t61.5 -100q0 -36 -24.5 -60.5t-61.5 -24.5q-33 0 -57 12t-74 60q-53 50 -101 50q-33 0 -59.5 -20.5t-41 -60t-14.5 -121.5v-191h188v-102h-188v-649q0 -67 10 -89.5t30 -31.5t93 -9h41v-84h-515v84h31 q79 0 100.5 10t30.5 31.5t9 88.5v15v634h-171v102z"/>
<glyph glyph-name="g" horiz-adv-x="1106" unicode="g" d="M384 28q-96 -82 -127.5 -133t-31.5 -98q0 -40 31.5 -77.5t107.5 -61.5t191 -24q136 0 233.5 29.5t139.5 75.5q31 36 31 85q0 42 -25.5 71t-96 50.5t-131.5 31.5zM543 896q-98 0 -166 -71t-68 -176q0 -70 31 -126.5t87 -89t118 -32.5t118.5 33t87 89t30.5 126 q0 110 -66.5 178.5t-171.5 68.5zM847 886q45 53 91.5 78t85.5 25q36 0 60.5 -21.5t24.5 -52.5q0 -32 -22 -54t-56 -22q-14 0 -38 5q-28 7 -47 7q-25 0 -52 -23q62 -75 62 -176q0 -138 -116 -239t-293 -101q-98 0 -197 41q-66 -47 -75 -58q-14 -17 -14 -36q0 -29 30 -48 q38 -25 150 -42l289 -43q96 -15 193 -50t140.5 -91t43.5 -134q0 -132 -122 -211q-155 -101 -460 -101q-160 0 -260 34t-155 96q-40 45 -40 93q0 62 40.5 121t187.5 168q-95 24 -136 56q-52 41 -52 93q0 26 9.5 48.5t31 45t78.5 62.5q36 25 51 37q-73 52 -110 116.5 t-37 141.5q0 127 98 222q119 116 321 116q90 0 157 -22.5t138 -80.5z"/>
<glyph glyph-name="h" horiz-adv-x="1352" unicode="h" d="M74 1297v86q97 13 151 30.5t113 53.5h78v-661q113 95 214 139t193 44q134 0 221 -80q86 -80 86 -195v-491q0 -73 11.5 -95.5t38.5 -33t121 -10.5v-84h-516v84h38q73 0 96 11.5t33.5 38t10.5 109.5v341q0 113 -8 147q-15 58 -62 93t-120 35q-82 0 -171.5 -40.5 t-185.5 -121.5v-501q0 -56 10 -75t33 -28t92 -9h41v-84h-518v84h31q73 0 106 18q18 9 26 35t8 144v1016h-171z"/>
<glyph glyph-name="i" horiz-adv-x="614" unicode="i" d="M66 821v83q83 10 139.5 28t128.5 57h73v-802q0 -42 12 -63t33.5 -30.5t78.5 -9.5h47v-84h-512v84h41q67 0 90 12t32.5 34t9.5 103v588h-173zM321 1440q48 0 82 -33.5t34 -81.5t-34 -82t-82 -34t-82 34t-34 82t34 81.5t82 33.5z"/>
<glyph glyph-name="j" horiz-adv-x="614" unicode="j" d="M78 821v82q75 7 129 24t140 62h73v-1089q0 -118 -45 -198t-126 -127t-193 -47q-108 0 -172 45t-64 93q0 40 25.5 66t66.5 26q24 0 41.5 -9t49.5 -41q48 -48 77 -64q21 -12 47 -12q62 0 98 60q27 44 27 143v986h-174zM333 1440q48 0 82 -33.5t34 -81.5t-34 -82t-82 -34 t-81.5 34t-33.5 82t33.5 81.5t81.5 33.5z"/>
<glyph glyph-name="k" d="M60 1301v82q128 10 265 84h77v-998l367 292q88 70 88 93q0 14 -19 22q-12 5 -59 5h-53v84h507v-84q-85 0 -136 -17.5t-118 -68.5l-290 -221l342 -374q49 -54 80 -76t62 -30.5t97 -9.5v-84h-532v84h41q61 0 77 9.5t16 25.5t-30 46q-5 5 -11 12l-266 306l-163 -125v-131 q0 -73 11 -96t34.5 -35t90.5 -12h37v-84h-515v84q87 1 107 7q35 11 50.5 39t15.5 108v1063h-173z" unicode="k"/>
<glyph glyph-name="l" horiz-adv-x="614" unicode="l" d="M63 1301v82q136 10 265 84h74v-1231q0 -78 10 -98q13 -28 38 -41t96 -13h32v-84h-515v84h52q49 0 73.5 15t35 41t10.5 104v1057h-171z"/>
<glyph glyph-name="m" horiz-adv-x="1925" unicode="m" d="M72 821v85q75 7 131 24.5t128 58.5h74v-168q114 90 178 121q98 47 187 47q61 0 119.5 -22.5t94 -55.5t60.5 -90q105 93 194.5 130.5t181.5 37.5q88 0 155.5 -36.5t98 -91.5t30.5 -161v-464q0 -73 3 -85q5 -19 21.5 -36t37.5 -24t78 -7h32v-84h-503v84q86 1 111.5 12.5 t38 37.5t12.5 102v441q0 84 -15 116t-53.5 53.5t-95.5 21.5q-71 0 -149 -38q-104 -52 -164 -117v-477q0 -69 6.5 -90.5t22 -36t36 -20t99.5 -5.5v-84h-493v84h28q59 0 83.5 14t38.5 43q10 23 10 95v426q0 94 -14.5 127t-55.5 56t-96 23q-65 0 -131 -32q-98 -47 -180 -123 v-514q0 -46 12.5 -67.5t39.5 -34.5t74 -13h37v-84h-503v84h27q69 0 91 11q32 15 46 48q8 18 8 93v585h-172z"/>
<glyph glyph-name="n" horiz-adv-x="1352" unicode="n" d="M75 821v84q89 10 133 24t127 60h72v-190q132 111 225.5 150.5t189.5 39.5q82 0 145 -27.5t102.5 -74.5t52.5 -107q8 -37 8 -112v-440q0 -79 11.5 -101.5t36.5 -32.5t123 -10v-84h-515v84h28q72 0 98 13t37.5 38t11.5 102v368q0 114 -18.5 158t-63 71.5t-112.5 27.5 q-81 0 -173 -41.5t-178 -122.5v-461q0 -78 11.5 -104t37.5 -39q18 -10 96 -10h29v-84h-515v84h25q74 0 101 12.5t38 44.5q6 16 6 110v570h-170z"/>
<glyph glyph-name="o" horiz-adv-x="1147" unicode="o" d="M571 892q-114 0 -193 -90q-100 -112 -100 -326q0 -206 85 -314q77 -96 209 -96q85 0 151.5 45t107.5 143.5t41 231.5q0 130 -44 233q-34 82 -102.5 127.5t-154.5 45.5zM579 989q147 0 254.5 -61t169.5 -178t62 -267t-63.5 -267t-173 -178.5t-261.5 -61.5 q-242 0 -363.5 151t-121.5 355q0 149 63 264.5t176.5 179t257.5 63.5z"/>
<glyph glyph-name="p" d="M403 719v-344q0 -68 8 -101q12 -51 46.5 -92t94 -70t124.5 -29q130 0 225.5 98t95.5 297q0 186 -79 287.5t-187 101.5q-70 0 -152 -37t-176 -111zM64 822v82q75 0 133 19t127 66h79v-167q125 99 208 133t166 34q171 0 291.5 -134t120.5 -349q0 -238 -137 -390 q-125 -140 -322 -140q-98 0 -184 37q-62 26 -143 93v-329q0 -74 4 -87q5 -19 20 -32t38 -17q17 -3 114 -3v-84h-515v84h45q69 0 89.5 10.5t30.5 32.5q6 17 6 104v1037h-171z" unicode="p"/>
<glyph glyph-name="q" horiz-adv-x="1188" unicode="q" d="M854 217v376q0 104 -28.5 156.5t-99 91t-146.5 38.5q-85 0 -158.5 -47.5t-116 -137.5t-42.5 -214q0 -176 87 -283t204 -107q63 0 135.5 28.5t164.5 98.5zM916 965h109v-1180q0 -74 9 -95q13 -28 37 -40t87 -12h44v-84h-517v84h44q58 0 80 11t33.5 33.5t11.5 80.5v356 q-42 -40 -106 -74t-133 -54q-52 -15 -111 -15q-117 0 -215.5 61t-158 178.5t-59.5 261.5q0 202 119 348q134 164 349 164q93 0 166.5 -31.5t168.5 -120.5z"/>
<glyph glyph-name="r" horiz-adv-x="901" unicode="r" d="M72 822v82q73 6 130 24.5t130 60.5h75v-189q71 87 165 138t169 51q74 0 117 -35t43 -85q0 -36 -28.5 -63.5t-68.5 -27.5q-18 0 -31 5t-38 22q-55 36 -92 36q-50 0 -110 -42q-76 -54 -119 -106v-461q0 -60 6.5 -81.5t21.5 -37t37 -22.5t77 -7h33v-84h-517v84h43 q61 0 80 11q26 15 38.5 41.5t12.5 95.5v590h-174z"/>
<glyph glyph-name="s" horiz-adv-x="1065" unicode="s" d="M751 965h70l90 -306l-90 -30q-54 123 -151.5 193.5t-197.5 70.5q-77 0 -125 -37.5t-48 -86.5q0 -46 35 -79q34 -34 153 -77l195 -69q165 -59 225 -126q59 -68 59 -154q0 -73 -44 -140.5t-127.5 -107.5t-191.5 -40q-168 0 -288 96l-21 -72h-71l-125 327l91 36 q91 -144 172 -204q113 -85 244 -85q87 0 143 46.5t56 103.5q0 47 -35 86q-36 38 -138 74l-231 84q-149 54 -207 118t-58 147q0 101 94.5 178.5t240.5 77.5q76 0 136 -19.5t118 -64.5z"/>
<glyph glyph-name="t" horiz-adv-x="778" unicode="t" d="M337 1305h71v-340h297v-100h-297v-603q0 -77 13.5 -110t46 -54t72.5 -21q95 0 210 85v-97q-131 -89 -265 -89q-76 0 -137.5 34t-84 80t-22.5 160v615h-175v84q84 19 135.5 59t83.5 104t52 193z"/>
<glyph glyph-name="u" horiz-adv-x="1393" unicode="u" d="M20 965l379 15v-644q0 -85 23.5 -135t72 -77.5t113.5 -27.5q80 0 181.5 43t202.5 128v466q0 74 -11 97t-39 37t-88 14h-73v84l379 15v-746q0 -72 12 -99.5t35.5 -39t94.5 -11.5h31v-84l-332 -17v185q-137 -109 -239 -150.5t-207 -41.5q-78 0 -135.5 21t-101 63t-66.5 101 t-23 126v455q0 61 -11 85.5t-36.5 39t-69.5 14.5h-92v84z"/>
<glyph glyph-name="v" horiz-adv-x="1065" unicode="v" d="M0 965h458v-84h-28q-57 0 -71 -4q-20 -6 -30 -19t-10 -31q0 -25 22 -81l228 -569l221 569q21 55 21 80q0 26 -20 40.5t-72 14.5h-48v84h395v-84q-41 -1 -68.5 -13t-43 -31t-46.5 -91l-319 -746h-120l-321 763q-20 47 -44 77q-16 19 -42.5 30t-61.5 11v84z"/>
<glyph glyph-name="w" horiz-adv-x="1597" unicode="w" d="M-1 965h460v-84h-32q-59 0 -78 -9q-30 -14 -30 -44q0 -28 23 -90l207 -547l202 508l-18 47q-31 81 -72 112q-27 20 -80 23v84h458v-84h-39q-55 0 -71 -9q-28 -16 -28 -51q0 -30 21 -83l207 -547l202 555q16 45 17 51q3 11 3 23q0 28 -22 44.5t-81 16.5h-37v84h388v-84 q-43 -2 -70 -15t-43 -34t-45 -94l-292 -738h-120l-231 576l-228 -576h-119l-295 738q-28 71 -46 94t-44.5 36t-66.5 13v84z"/>
<glyph glyph-name="x" horiz-adv-x="1147" unicode="x" d="M37 965h503v-84h-35q-30 0 -55 -7q-15 -4 -24.5 -15.5t-9.5 -21.5q0 -23 38 -69l143 -180l167 180q46 50 46 75q0 18 -16 28t-69 10h-38v84h427v-84q-63 -3 -108.5 -26t-107.5 -87l-229 -238l285 -325l11 -14q42 -54 94 -87q29 -19 90 -20v-84h-491v84h42q48 0 61 6 q22 10 22 34q0 22 -48 81l-182 223l-203 -223l-20 -24l-11 -12q-25 -27 -25 -48q0 -19 15.5 -28t69.5 -9h40v-84h-421v84q49 1 77 10.5t54 29.5q45 36 65 57l293 301l-249 286q-47 53 -74.5 74.5t-53.5 30t-73 8.5v84z"/>
<glyph glyph-name="y" horiz-adv-x="1106" unicode="y" d="M-11 965h486v-84h-40q-57 0 -68 -3q-13 -4 -22 -16.5t-9 -31.5q0 -27 27 -91l232 -545l215 521q38 92 38 122q0 23 -17 33.5t-77 10.5h-47v84h409v-84h-24q-60 0 -78 -8t-35 -32.5t-54 -111.5l-367 -855q-40 -92 -89 -170.5t-123 -121.5t-163 -43q-103 0 -165 47 q-53 40 -53 100q0 37 23 61.5t54 24.5q24 0 45 -10q13 -5 54 -42q50 -44 70.5 -54t40.5 -10q41 0 81 28t68 79q40 73 66 137l41 100l-330 739q-35 78 -59 105t-48 33q-13 4 -82 4v84z"/>
<glyph glyph-name="z" horiz-adv-x="983" unicode="z" d="M205 965h729v-84l-674 -788h166q195 0 280 47q117 66 174 223l89 -32l-123 -331h-810v84l674 781h-197q-137 0 -213.5 -49t-141.5 -186l-86 41z"/>
<glyph glyph-name="braceleft" horiz-adv-x="573" unicode="{" d="M637 -407v-35q-98 14 -170 56q-97 56 -151.5 144t-54.5 189q0 67 21 156q25 104 25 153q0 76 -61.5 138t-166.5 76v41q105 14 166.5 75.5t61.5 139.5q0 48 -25 152q-21 89 -21 157q0 102 58 192t155 144q69 39 163 51v-35q-116 -28 -171 -90.5t-55 -146.5q0 -52 24 -157 q21 -91 21 -156q0 -104 -75.5 -198.5t-219.5 -145.5q141 -52 218 -148t77 -201q0 -66 -21 -156q-24 -105 -24 -158q0 -82 55 -145t171 -92z"/>
<glyph glyph-name="bar" horiz-adv-x="1229" unicode="|" d="M543 1467h146v-1913h-146v1913z"/>
<glyph glyph-name="braceright" horiz-adv-x="573" unicode="}" d="M-27 1387v35q97 -13 170 -55q97 -56 151.5 -144t54.5 -189q0 -68 -21 -156q-25 -104 -25 -153q0 -76 61.5 -138t166.5 -76v-41q-105 -14 -166.5 -75.5t-61.5 -139.5q0 -48 25 -152q21 -89 21 -157q0 -102 -58 -192t-155 -144q-69 -39 -163 -52v35q116 29 171 91.5 t55 146.5q0 52 -24 157q-22 90 -22 156q0 104 76 198.5t220 145.5q-141 52 -218.5 148t-77.5 201q0 65 22 156q24 105 24 158q0 82 -55 145t-171 91z"/>
<glyph glyph-name="asciitilde" horiz-adv-x="1229" unicode="~" d="M981 841l87 -97q-31 -78 -70.5 -122.5t-87.5 -67.5t-102 -23q-40 0 -81 15q-20 7 -122 59l-133 64q-25 10 -51 10q-48 0 -77.5 -34t-88.5 -146l-95 98q40 80 80.5 122.5t86.5 64.5t93 22q35 0 75 -13t146 -67q96 -49 120.5 -58.5t40.5 -9.5q47 0 88 41q28 28 91 142z"/>
<glyph glyph-name="nbspace" horiz-adv-x="696" unicode=" "/>
<glyph glyph-name="exclamdown" horiz-adv-x="614" unicode="¡" d="M351 623l76 -894q4 -38 4 -48q0 -73 -32 -107.5t-94 -34.5q-54 0 -87.5 33t-33.5 88q0 19 5 61l79 902h83zM307 725q-52 0 -88.5 36.5t-36.5 88.5q0 51 37 88t88 37q52 0 89 -36.5t37 -88.5t-37 -88.5t-89 -36.5z"/>
<glyph glyph-name="cent" d="M634 1085q-56 -11 -97 -39t-75 -75t-50.5 -110t-16.5 -149q0 -103 33 -180.5t99 -130.5q40 -34 107 -55v739zM634 1395h96v-215q120 -16 198.5 -56.5t116.5 -92t38 -96.5q0 -38 -27 -64.5t-66 -26.5q-37 0 -62.5 20.5t-49.5 84.5q-24 66 -59.5 98t-88.5 42v-749 q89 16 151.5 52.5t151.5 132.5l65 -55q-92 -115 -182 -170t-186 -65v-235h-96v235q-124 11 -222 74t-151.5 166.5t-53.5 234.5t51.5 231t151.5 164t224 75v215z" unicode="¢"/>
<glyph glyph-name="sterling" d="M498 220q-16 13 -49 43q-44 40 -62 50q-32 18 -62 27t-56 9q-56 0 -98.5 -41.5t-42.5 -96.5q0 -60 44 -101.5t112 -41.5q66 0 125 40.5t89 111.5zM57 823h265q-45 104 -45 206q0 103 56.5 191.5t167 143.5t242.5 55q124 0 215 -47.5t144.5 -137t65.5 -228.5l-97 -14 q-24 129 -62.5 188.5t-103.5 94.5t-146 35q-123 0 -205.5 -77t-82.5 -184t53 -226h366v-97h-334q38 -114 51.5 -189t13.5 -147q0 -58 -13 -116q214 -116 341 -116q55 0 104 33.5t83.5 109.5t45.5 189l93 -7v-5q0 -147 -53 -272.5t-124 -177.5t-165 -52q-78 0 -161.5 39 t-199.5 144q-48 -92 -119 -134q-82 -49 -177 -49q-75 0 -134 31t-90.5 84.5t-31.5 118.5q0 64 32 119t88 85.5t124 30.5q128 0 234 -109q-7 62 -24 111q-26 82 -82 202q-24 54 -32 77h-303v97z" unicode="£"/>
<glyph glyph-name="currency" horiz-adv-x="1229" unicode="¤" d="M615 1035q-134 0 -229.5 -95t-95.5 -230q0 -134 95.5 -229.5t229.5 -95.5q135 0 230 95.5t95 229.5q0 135 -95 230t-230 95zM126 1109l89 91l129 -129q61 46 128 69t140 23q148 0 273 -92l129 129l88 -91l-128 -128q92 -130 92 -275q0 -147 -92 -265l128 -128l-88 -88 l-129 127q-64 -46 -133 -69.5t-142 -23.5q-146 0 -266 93l-128 -127l-90 88l129 128q-91 141 -91 276q0 138 91 264z"/>
<glyph glyph-name="yen" d="M791 685h374v-97h-432l-5 -9v-127h437v-97h-437v-127q0 -77 12.5 -100t39.5 -33.5t126 -10.5v-84h-545v84h42q67 0 89.5 12t35.5 39q9 19 9 93v127h-431v97h431v90l-26 46h-405v97h350l-288 513q-44 79 -73.5 94.5t-109.5 17.5v85h522v-85h-59q-54 0 -69.5 -10t-15.5 -33 q0 -20 19 -54q5 -8 13 -23l272 -504l301 523q18 32 21.5 41.5t3.5 19.5q0 14 -7.5 23.5t-23.5 14.5q-10 2 -56 2h-52v85h431v-85h-12q-48 0 -74 -7.5t-43.5 -24t-49.5 -69.5z" unicode="¥"/>
<glyph glyph-name="brokenbar" horiz-adv-x="1229" unicode="¦" d="M543 387l146 82v-915h-146v833zM543 1467h146v-834l-146 -82v916z"/>
<glyph glyph-name="section" horiz-adv-x="1065" unicode="§" d="M370 793q-72 -62 -103 -119.5t-31 -105.5q0 -51 33 -101.5t101.5 -83.5t228.5 -71q106 -24 144 -38q45 45 70 100.5t25 107.5q0 59 -26.5 106t-81.5 81.5t-190.5 73.5t-169.5 50zM290 825q-97 48 -145.5 115.5t-48.5 153.5q0 135 118.5 230t323.5 95q207 0 328 -94 q95 -74 95 -172q0 -52 -27.5 -81t-72.5 -29q-24 0 -44 12t-32.5 34.5t-22.5 72.5q-10 53 -23.5 75.5t-42 43t-71 32t-93.5 11.5q-123 0 -194.5 -56t-71.5 -137q0 -58 31 -97t111 -73q32 -14 200 -62q153 -44 228 -93.5t111 -113.5t36 -140q0 -73 -41.5 -155t-120.5 -157 q79 -35 122 -94q56 -76 56 -169q0 -92 -55.5 -174.5t-161.5 -131.5t-253 -49q-144 0 -247.5 43t-159.5 118t-56 143q0 44 29.5 78t64.5 34q26 0 49.5 -14t33 -32t15.5 -69q7 -61 23 -91q26 -51 91.5 -84t159.5 -33q93 0 163 30.5t103 81t33 111.5q0 41 -18 75t-54 61t-94 48 q-19 7 -111 29q-125 30 -177 47q-105 36 -167 80t-95 106t-33 128q0 75 45.5 150t162.5 163z"/>
<glyph glyph-name="dieresis" horiz-adv-x="860" unicode="¨" d="M597 1378q50 0 86 -36t36 -87q0 -50 -36 -86t-86 -36q-51 0 -86.5 36t-35.5 86q0 51 35.5 87t86.5 36zM263 1378q50 0 86 -36t36 -87q0 -50 -36 -86t-86 -36t-86 36t-36 86q0 51 35.5 87t86.5 36z"/>
<glyph glyph-name="copyright" horiz-adv-x="1516" unicode="©" d="M1149 1134l20 -280h-39q-26 84 -66 132t-102 76t-135 28q-94 0 -167.5 -46.5t-108.5 -122.5q-45 -96 -45 -220q0 -141 39 -229t116 -136t176 -48q63 0 121.5 19t103 51.5t87.5 91.5l37 -19q-62 -91 -141 -138q-106 -65 -242 -65q-132 0 -237 58.5t-165.5 161.5t-60.5 224 q0 125 64 232t177.5 169t256.5 62q46 0 76.5 -6t108.5 -32q25 -8 37 -8q17 0 27.5 9t21.5 36h40zM798 1326q-173 0 -323.5 -87t-237 -237t-86.5 -324t86.5 -324t237 -237t323.5 -87q174 0 324.5 87t237 237t86.5 324t-86.5 324t-237 237t-324.5 87zM798 1387q190 0 355 -95 t260 -259.5t95 -354.5t-95 -354.5t-260 -259.5t-355 -95t-354.5 95t-259.5 259.5t-95 354.5t95 354.5t259.5 259.5t354.5 95z"/>
<glyph glyph-name="ordfeminine" horiz-adv-x="860" unicode="ª" d="M548 1106q-155 -22 -189 -30q-75 -18 -103.5 -45.5t-28.5 -59.5q0 -37 28.5 -62t72.5 -25q39 0 90 18t130 68v136zM548 1172v59q0 61 -33.5 89.5t-108.5 28.5q-40 0 -67 -10t-40 -26t-24 -54q-14 -48 -30.5 -63t-46.5 -15q-33 0 -52 18t-19 47q0 65 78.5 119t215.5 54 q94 0 154.5 -27t87.5 -69q21 -33 21 -115v-230q0 -53 6 -72t19.5 -28.5t37.5 -9.5q27 0 83 18v-67q-63 -17 -111 -17t-74 10q-38 15 -63 39q-16 15 -24 43q-65 -46 -130 -69t-130 -23q-97 0 -155.5 47.5t-58.5 110.5q0 76 83 128.5t381 83.5z"/>
<glyph glyph-name="guillemotleft" horiz-adv-x="737" unicode="«" d="M520 851l77 -36l-107 -319l107 -311l-77 -38l-184 349zM275 851l76 -36l-107 -319l107 -311l-76 -38l-185 349z"/>
<glyph glyph-name="logicalnot" horiz-adv-x="1229" unicode="¬" d="M127 718h975v-737h-117v620h-858v117z"/>
<glyph glyph-name="registered" horiz-adv-x="1516" unicode="®" d="M643 697q113 0 168.5 21t86 64t30.5 97q0 81 -56.5 136t-144.5 55q-38 0 -84 -16v-357zM406 1114h386q142 0 219.5 -64t77.5 -160q0 -83 -56 -138.5t-166 -83.5l209 -298q36 -51 66 -71q19 -14 55 -17v-33h-184l-294 405h-76v-309q7 -34 30 -48.5t88 -14.5v-33h-367v33 q49 0 70.5 13t30.5 41q3 12 3 84v523q0 71 -2 82q-6 26 -25 39.5t-65 13.5v36zM798 1326q-173 0 -323.5 -87t-237 -237t-86.5 -324t86.5 -324t237 -237t323.5 -87q174 0 324.5 87t237 237t86.5 324t-86.5 324t-237 237t-324.5 87zM798 1387q190 0 355 -95t260 -259.5 t95 -354.5t-95 -354.5t-260 -259.5t-355 -95t-354.5 95t-259.5 259.5t-95 354.5t95 354.5t259.5 259.5t354.5 95z"/>
<glyph glyph-name="overscore" horiz-adv-x="1024" unicode="¯" d="M-12 1596h1048v-102h-1048v102z"/>
<glyph glyph-name="degree" horiz-adv-x="819" unicode="°" d="M409 1320q-73 0 -125 -51t-52 -124q0 -72 52 -123.5t125 -51.5q74 0 126 51.5t52 123.5q0 73 -52 124t-126 51zM409 1419q114 0 194 -80t80 -194q0 -113 -80 -193t-194 -80q-113 0 -193 80t-80 193q0 114 80 194t193 80z"/>
<glyph glyph-name="plusminus" horiz-adv-x="1124" unicode="±" d="M1050 251v-123h-975v123h975zM1050 875v-123h-426v-426h-123v426h-426v123h426v425h123v-425h426z"/>
<glyph glyph-name="twosuperior" horiz-adv-x="762" unicode="²" d="M155 1126l-80 -9q-6 43 -6 67q0 59 37 114t108.5 88t164.5 33q135 0 213 -64.5t78 -160.5q0 -58 -28.5 -113t-94.5 -106t-317 -204h278q48 0 60.5 5t19 17t17.5 67h75l-43 -205h-59l-7 26h-517v51l102 67q173 112 249.5 178t106.5 122q21 40 21 87q0 71 -48.5 115.5 t-131.5 44.5q-91 0 -146 -49.5t-55 -120.5q0 -15 3 -50z"/>
<glyph glyph-name="threesuperior" horiz-adv-x="762" unicode="³" d="M176 1202l-80 10q8 54 26 86q31 52 97 86.5t159 34.5q127 0 198.5 -54.5t71.5 -130.5q0 -46 -34 -84q-47 -50 -118 -73q88 -17 138.5 -70.5t50.5 -119.5q0 -83 -87.5 -151t-231.5 -68q-139 0 -226.5 60t-87.5 115q0 23 18.5 39t48.5 16q28 0 46.5 -14t31.5 -52 q36 -103 159 -103q86 0 138.5 47.5t52.5 118.5q0 32 -12.5 57.5t-39 47.5t-55.5 29q-47 12 -100 12h-67v62h47q102 0 146.5 33t44.5 89q0 52 -40.5 85.5t-113.5 33.5q-49 0 -87.5 -17t-60.5 -45t-33 -80z"/>
<glyph glyph-name="acute" horiz-adv-x="696" unicode="´" d="M140 1170v35l185 136q95 70 159 70q30 0 50.5 -21.5t20.5 -53.5q0 -39 -28 -64.5t-101 -41.5z"/>
<glyph glyph-name="mu1" horiz-adv-x="1180" unicode="µ" d="M203 965h171v-623q0 -99 18.5 -148t56.5 -75.5t85 -26.5q52 0 117 40t142 119v714h167v-732q0 -72 10 -91q15 -28 51 -28q29 0 83 24v-54q-90 -65 -130.5 -83t-65.5 -18q-31 0 -57.5 18.5t-40 52.5t-17.5 106q-116 -121 -180.5 -156t-132.5 -35q-53 0 -100.5 20t-77.5 53 t-60 106q-3 -39 -3 -59q0 -82 39 -241q22 -89 22 -116q0 -41 -26 -69t-64 -28q-42 0 -67.5 29t-25.5 82q0 38 21 153q36 190 50.5 356.5t14.5 398.5v311z"/>
<glyph glyph-name="paragraph" horiz-adv-x="1229" unicode="¶" d="M854 1262h-151v-1706h-95v1071q-21 -1 -32 -1q-147 0 -243 44t-144 121.5t-48 184.5q0 79 29 147.5t81.5 118.5t109.5 72.5t149 32.5q45 5 157 5h416v-72q-72 -6 -93.5 -18.5t-31.5 -41t-10 -115.5v-1549h-94v1706z"/>
<glyph glyph-name="middot" horiz-adv-x="533" unicode="·" d="M266 855q51 0 87 -35.5t36 -85.5q0 -51 -36 -86.5t-87 -35.5t-87 35.5t-36 86.5q0 50 36 85.5t87 35.5z"/>
<glyph glyph-name="cedilla" horiz-adv-x="655" unicode="¸" d="M317 0l-26 -87q41 3 49 3q56 0 104 -22q36 -16 56.5 -49.5t20.5 -79.5q0 -78 -51.5 -126.5t-138.5 -48.5t-150 43q-47 31 -47 72q0 22 14.5 37t37.5 15t38 -10.5t26 -39.5q15 -34 25 -43q23 -18 54 -18q40 0 68 30.5t28 79.5q0 51 -30 78t-93 27q-41 0 -98 -20l51 159h62 z"/>
<glyph glyph-name="onesuperior" horiz-adv-x="762" unicode="¹" d="M469 1406v-598q0 -50 10.5 -60.5t59.5 -10.5h70v-56h-413v56h76q40 0 50.5 5t16.5 18t6 48v480h-149v56q57 7 137 28q49 13 56 23.5t18 10.5h62z"/>
<glyph glyph-name="ordmasculine" horiz-adv-x="860" unicode="º" d="M428 1347q-76 0 -127 -63.5t-51 -179.5q0 -119 48.5 -179t129.5 -60q91 0 137.5 69.5t46.5 174.5q0 76 -24 130.5t-65.5 81t-94.5 26.5zM433 1419q156 0 242 -89t86 -222q0 -130 -86.5 -220t-251.5 -90q-162 0 -243.5 92.5t-81.5 217.5q0 136 92 223.5t243 87.5z"/>
<glyph glyph-name="guillemotright" horiz-adv-x="737" unicode="»" d="M217 147l-76 36l107 319l-107 311l76 38l185 -349zM463 147l-76 36l107 319l-107 311l76 38l185 -349z"/>
<glyph glyph-name="onequarter" horiz-adv-x="1905" unicode="¼" d="M516 1406v-598q0 -50 10.5 -60.5t59.5 -10.5h70v-56h-413v56h76q40 0 50.5 5t16.5 18t6 48v480h-149v56q57 7 137 28q49 13 56 23.5t18 10.5h62zM1501 1419l-930 -1443h-119l928 1443h121zM1528 311v304l-303 -304h303zM1533 725h118v-414h155v-77h-155v-234h-123v234 h-388v98z"/>
<glyph glyph-name="onehalf" horiz-adv-x="1905" unicode="½" d="M516 1406v-598q0 -50 10.5 -60.5t59.5 -10.5h70v-56h-413v56h76q40 0 50.5 5t16.5 18t6 48v480h-149v56q57 7 137 28q49 13 56 23.5t18 10.5h62zM1477 1419l-930 -1443h-119l928 1443h121zM1251 446l-80 -9q-6 43 -6 67q0 59 37 114t108.5 88t164.5 33q135 0 213 -64.5 t78 -160.5q0 -58 -28.5 -113t-94.5 -106t-317 -204h278q48 0 60.5 5t19 17t17.5 67h75l-43 -205h-59l-7 26h-517v51l102 67q173 112 249.5 178t106.5 122q21 40 21 87q0 71 -48.5 115.5t-131.5 44.5q-91 0 -146 -49.5t-55 -120.5q0 -15 3 -50z"/>
<glyph glyph-name="threequarters" horiz-adv-x="1905" unicode="¾" d="M224 1202l-80 10q8 54 26 86q31 52 97 86.5t159 34.5q127 0 198.5 -54.5t71.5 -130.5q0 -46 -34 -84q-47 -50 -118 -73q88 -17 138.5 -70.5t50.5 -119.5q0 -83 -87.5 -151t-231.5 -68q-139 0 -226.5 60t-87.5 115q0 23 18.5 39t48.5 16q28 0 46.5 -14t31.5 -52 q36 -103 159 -103q86 0 138.5 47.5t52.5 118.5q0 32 -12.5 57.5t-39 47.5t-55.5 29q-47 12 -100 12h-67v62h47q102 0 146.5 33t44.5 89q0 52 -40.5 85.5t-113.5 33.5q-49 0 -87.5 -17t-60.5 -45t-33 -80zM1526 1419l-930 -1443h-119l928 1443h121zM1529 311v304l-303 -304 h303zM1534 725h118v-414h155v-77h-155v-234h-123v234h-388v98z"/>
<glyph glyph-name="questiondown" horiz-adv-x="1106" unicode="¿" d="M752 623v-355h-11q-192 0 -288 -34t-147.5 -106.5t-51.5 -162.5q0 -82 46 -162t120.5 -124t159.5 -44q68 0 117.5 26t91.5 87t60 75q35 27 70 27q24 0 47.5 -12.5t32.5 -28.5q13 -24 13 -48q0 -79 -92 -139q-128 -83 -308 -83q-161 0 -285.5 60.5t-188.5 160.5t-64 225 q0 198 156.5 307t416.5 109v222h105zM701 725q-52 0 -89 36.5t-37 88.5q0 51 37 88t89 37t88.5 -36.5t36.5 -88.5t-36.5 -88.5t-88.5 -36.5z"/>
<glyph glyph-name="Agrave" horiz-adv-x="1393" unicode="À" d="M441 615h431l-216 600zM616 1395h165l433 -1166q32 -88 64.5 -116.5t87.5 -28.5h22v-84h-497v84q24 2 47 2q48 0 63 10q29 19 29 48q0 21 -28 103l-92 270h-506l-108 -302q-17 -47 -17 -65q0 -20 10.5 -35t28.5 -22.5t58 -7.5q27 0 44 -1v-84h-417v84q58 0 83.5 11.5 t44.5 37t50 107.5zM844 1501l-286 60q-75 16 -103 41.5t-28 62.5q0 34 20.5 55.5t52.5 21.5q64 0 159 -70l185 -136v-35z"/>
<glyph glyph-name="Aacute" horiz-adv-x="1393" unicode="Á" d="M441 615h431l-216 600zM616 1395h165l433 -1166q32 -88 64.5 -116.5t87.5 -28.5h22v-84h-497v84q24 2 47 2q48 0 63 10q29 19 29 48q0 21 -28 103l-92 270h-506l-108 -302q-17 -47 -17 -65q0 -20 10.5 -35t28.5 -22.5t58 -7.5q27 0 44 -1v-84h-417v84q58 0 83.5 11.5 t44.5 37t50 107.5zM549 1501v35l185 136q95 70 159 70q30 0 50.5 -21.5t20.5 -53.5q0 -39 -28 -64.5t-101 -41.5z"/>
<glyph glyph-name="Acircumflex" horiz-adv-x="1393" unicode="Â" d="M441 615h431l-216 600zM616 1395h165l433 -1166q32 -88 64.5 -116.5t87.5 -28.5h22v-84h-497v84q24 2 47 2q48 0 63 10q29 19 29 48q0 21 -28 103l-92 270h-506l-108 -302q-17 -47 -17 -65q0 -20 10.5 -35t28.5 -22.5t58 -7.5q27 0 44 -1v-84h-417v84q58 0 83.5 11.5 t44.5 37t50 107.5zM695 1736l291 -191l-27 -51l-264 93l-263 -93l-27 51z"/>
<glyph glyph-name="Atilde" horiz-adv-x="1393" unicode="Ã" d="M441 615h431l-216 600zM616 1395h165l433 -1166q32 -88 64.5 -116.5t87.5 -28.5h22v-84h-497v84q24 2 47 2q48 0 63 10q29 19 29 48q0 21 -28 103l-92 270h-506l-108 -302q-17 -47 -17 -65q0 -20 10.5 -35t28.5 -22.5t58 -7.5q27 0 44 -1v-84h-417v84q58 0 83.5 11.5 t44.5 37t50 107.5zM1011 1657q-17 -66 -74.5 -110t-128.5 -44q-23 0 -42 4t-90 26q-109 34 -155 34q-44 0 -81 -41l-59 20q19 63 68.5 101.5t108.5 38.5q60 0 194 -38q66 -18 101 -18q64 0 98 45z"/>
<glyph glyph-name="Adieresis" horiz-adv-x="1393" unicode="Ä" d="M441 615h431l-216 600zM616 1395h165l433 -1166q32 -88 64.5 -116.5t87.5 -28.5h22v-84h-497v84q24 2 47 2q48 0 63 10q29 19 29 48q0 21 -28 103l-92 270h-506l-108 -302q-17 -47 -17 -65q0 -20 10.5 -35t28.5 -22.5t58 -7.5q27 0 44 -1v-84h-417v84q58 0 83.5 11.5 t44.5 37t50 107.5zM863 1709q50 0 86 -36t36 -87q0 -50 -36 -86t-86 -36q-51 0 -86.5 36t-35.5 86q0 51 35.5 87t86.5 36zM529 1709q50 0 86 -36t36 -87q0 -50 -36 -86t-86 -36t-86 36t-36 86q0 51 35.5 87t86.5 36z"/>
<glyph glyph-name="Aring" horiz-adv-x="1393" unicode="Å" d="M441 615h431l-216 600zM616 1395h165l433 -1166q32 -88 64.5 -116.5t87.5 -28.5h22v-84h-497v84q24 2 47 2q48 0 63 10q29 19 29 48q0 21 -28 103l-92 270h-506l-108 -302q-17 -47 -17 -65q0 -20 10.5 -35t28.5 -22.5t58 -7.5q27 0 44 -1v-84h-417v84q58 0 83.5 11.5 t44.5 37t50 107.5zM696 1761q-49 0 -83.5 -35t-34.5 -84q0 -50 34.5 -85t83.5 -35t84 35t35 85q0 49 -35 84t-84 35zM696 1831q79 0 134 -55.5t55 -133.5q0 -79 -55.5 -134.5t-133.5 -55.5t-133 55.5t-55 134.5q0 78 55 133.5t133 55.5z"/>
<glyph glyph-name="AE" horiz-adv-x="2580" unicode="Æ" d="M1047 1290l-321 -515h604v515h-283zM738 1395h1600l131 -363l-88 -31q-67 161 -150 221q-94 68 -290 68h-428v-515h204q96 0 141 21.5t71.5 65.5t26.5 109v61h96v-614h-96v57q0 80 -24 121t-67.5 61t-147.5 20h-204v-490l1 -24q0 -24 4 -31q8 -13 22 -19q10 -4 47 -4h323 q143 0 236.5 35.5t162.5 106.5t136 218l91 -30l-155 -439h-1230v84h55q71 0 100 33q24 27 24 97v463h-665l-280 -451l-8 -11q-35 -46 -35 -82q0 -23 19.5 -36t76.5 -13h43v-84h-479v84q55 1 82 10.5t48 28.5q34 32 67 82l641 983q34 52 34 79q0 21 -18 32t-71 11h-47v85z "/>
<glyph glyph-name="Ccedilla" horiz-adv-x="1515" unicode="Ç" d="M1208 1395h72l127 -465l-93 -26q-75 161 -114 216q-64 89 -159.5 141t-210.5 52q-135 0 -248.5 -72.5t-184 -212.5t-70.5 -315q0 -180 71.5 -321t193.5 -217t263 -76q133 0 272 76t241 213l80 -55q-62 -92 -134 -156q-114 -103 -237 -152t-270 -49q-325 0 -528 241 q-168 200 -168 476q0 203 93 367.5t256.5 261.5t352.5 97q101 0 187.5 -27.5t175.5 -88.5zM748 0l-26 -87q41 3 49 3q56 0 104 -22q36 -16 56.5 -49.5t20.5 -79.5q0 -78 -51.5 -126.5t-138.5 -48.5t-150 43q-47 31 -47 72q0 22 14.5 37t37.5 15t38 -10.5t26 -39.5 q15 -34 25 -43q23 -18 54 -18q40 0 68 30.5t28 79.5q0 51 -30 78t-93 27q-41 0 -98 -20l51 159h62z"/>
<glyph glyph-name="Egrave" horiz-adv-x="1475" unicode="È" d="M98 1395h1134l131 -367l-88 -33q-33 90 -72 141.5t-93.5 87.5t-110 48t-200.5 12h-338v-511h168q93 0 140.5 31.5t65.5 78.5q14 35 14 122v23h98v-612h-98v53q0 70 -10.5 101t-38.5 58.5t-60.5 37.5t-110.5 10h-168v-454q0 -71 6.5 -86.5t21.5 -22.5t82 -7h209 q175 0 273.5 42t173.5 129q59 68 113 192l91 -32l-156 -437h-1177v84h40q70 0 87 9q26 13 40 42q10 20 10 87v960q0 65 -13 87t-45 34q-17 7 -119 7v85zM945 1501l-286 60q-75 16 -103 41.5t-28 62.5q0 34 20.5 55.5t52.5 21.5q64 0 159 -70l185 -136v-35z"/>
<glyph glyph-name="Eacute" horiz-adv-x="1475" unicode="É" d="M98 1395h1134l131 -367l-88 -33q-33 90 -72 141.5t-93.5 87.5t-110 48t-200.5 12h-338v-511h168q93 0 140.5 31.5t65.5 78.5q14 35 14 122v23h98v-612h-98v53q0 70 -10.5 101t-38.5 58.5t-60.5 37.5t-110.5 10h-168v-454q0 -71 6.5 -86.5t21.5 -22.5t82 -7h209 q175 0 273.5 42t173.5 129q59 68 113 192l91 -32l-156 -437h-1177v84h40q70 0 87 9q26 13 40 42q10 20 10 87v960q0 65 -13 87t-45 34q-17 7 -119 7v85zM529 1501v35l185 136q95 70 159 70q30 0 50.5 -21.5t20.5 -53.5q0 -39 -28 -64.5t-101 -41.5z"/>
<glyph glyph-name="Ecircumflex" horiz-adv-x="1475" unicode="Ê" d="M98 1395h1134l131 -367l-88 -33q-33 90 -72 141.5t-93.5 87.5t-110 48t-200.5 12h-338v-511h168q93 0 140.5 31.5t65.5 78.5q14 35 14 122v23h98v-612h-98v53q0 70 -10.5 101t-38.5 58.5t-60.5 37.5t-110.5 10h-168v-454q0 -71 6.5 -86.5t21.5 -22.5t82 -7h209 q175 0 273.5 42t173.5 129q59 68 113 192l91 -32l-156 -437h-1177v84h40q70 0 87 9q26 13 40 42q10 20 10 87v960q0 65 -13 87t-45 34q-17 7 -119 7v85zM736 1736l291 -191l-27 -51l-264 93l-263 -93l-27 51z"/>
<glyph glyph-name="Edieresis" horiz-adv-x="1475" unicode="Ë" d="M98 1395h1134l131 -367l-88 -33q-33 90 -72 141.5t-93.5 87.5t-110 48t-200.5 12h-338v-511h168q93 0 140.5 31.5t65.5 78.5q14 35 14 122v23h98v-612h-98v53q0 70 -10.5 101t-38.5 58.5t-60.5 37.5t-110.5 10h-168v-454q0 -71 6.5 -86.5t21.5 -22.5t82 -7h209 q175 0 273.5 42t173.5 129q59 68 113 192l91 -32l-156 -437h-1177v84h40q70 0 87 9q26 13 40 42q10 20 10 87v960q0 65 -13 87t-45 34q-17 7 -119 7v85zM904 1709q50 0 86 -36t36 -87q0 -50 -36 -86t-86 -36q-51 0 -86.5 36t-35.5 86q0 51 35.5 87t86.5 36zM570 1709 q50 0 86 -36t36 -87q0 -50 -36 -86t-86 -36t-86 36t-36 86q0 51 35.5 87t86.5 36z"/>
<glyph glyph-name="Igrave" horiz-adv-x="696" unicode="Ì" d="M81 1395h534v-85h-41q-58 0 -84 -16t-38 -45.5t-12 -114.5v-899q0 -68 13 -96.5t36.5 -41.5t84.5 -13h41v-84h-534v84h44q59 0 83.5 13.5t35.5 39t11 98.5v920q0 77 -11 103.5t-35.5 39t-83.5 12.5h-44v85zM496 1501l-286 60q-75 16 -103 41.5t-28 62.5q0 34 20.5 55.5 t52.5 21.5q64 0 159 -70l185 -136v-35z"/>
<glyph glyph-name="Iacute" horiz-adv-x="696" unicode="Í" d="M81 1395h534v-85h-41q-58 0 -84 -16t-38 -45.5t-12 -114.5v-899q0 -68 13 -96.5t36.5 -41.5t84.5 -13h41v-84h-534v84h44q59 0 83.5 13.5t35.5 39t11 98.5v920q0 77 -11 103.5t-35.5 39t-83.5 12.5h-44v85zM201 1501v35l185 136q95 70 159 70q30 0 50.5 -21.5t20.5 -53.5 q0 -39 -28 -64.5t-101 -41.5z"/>
<glyph glyph-name="Icircumflex" horiz-adv-x="696" unicode="Î" d="M81 1395h534v-85h-41q-58 0 -84 -16t-38 -45.5t-12 -114.5v-899q0 -68 13 -96.5t36.5 -41.5t84.5 -13h41v-84h-534v84h44q59 0 83.5 13.5t35.5 39t11 98.5v920q0 77 -11 103.5t-35.5 39t-83.5 12.5h-44v85zM347 1736l291 -191l-27 -51l-264 93l-263 -93l-27 51z"/>
<glyph glyph-name="Idieresis" horiz-adv-x="696" unicode="Ï" d="M81 1395h534v-85h-41q-58 0 -84 -16t-38 -45.5t-12 -114.5v-899q0 -68 13 -96.5t36.5 -41.5t84.5 -13h41v-84h-534v84h44q59 0 83.5 13.5t35.5 39t11 98.5v920q0 77 -11 103.5t-35.5 39t-83.5 12.5h-44v85zM515 1709q50 0 86 -36t36 -87q0 -50 -36 -86t-86 -36 q-51 0 -86.5 36t-35.5 86q0 51 35.5 87t86.5 36zM181 1709q50 0 86 -36t36 -87q0 -50 -36 -86t-86 -36t-86 36t-36 86q0 51 35.5 87t86.5 36z"/>
<glyph glyph-name="Eth" horiz-adv-x="1638" unicode="Ð" d="M461 649v-541h302q45 0 149.5 16t149.5 39q66 34 128 109.5t95.5 181t33.5 241.5q0 135 -33.5 234t-101 178t-150 120.5t-184.5 52.5q-55 5 -184 5h-205v-539h429v-97h-429zM275 649h-178v97h178v413q0 79 -10 102q-14 31 -45 43q-18 6 -123 6v85h498q342 0 477 -43 q199 -63 323 -235q137 -190 137 -437q0 -168 -67.5 -312.5t-177.5 -232.5q-91 -74 -219 -104.5t-258 -30.5h-713v84h58l19 -1q37 0 60.5 15t33.5 40q7 19 7 88v423z"/>
<glyph glyph-name="Ntilde" horiz-adv-x="1515" unicode="Ñ" d="M88 1395h428l635 -1046v796q0 71 -14 102t-42 47t-83 16h-36v85h467v-85h-25q-62 0 -84 -10q-31 -14 -46.5 -51t-15.5 -104v-1145h-121l-765 1257v-996q0 -83 5 -101q7 -23 25.5 -42t43.5 -26t101 -8v-84h-473v84h25q72 0 97.5 14t39.5 48t14 115v884q0 83 -4 101 q-9 34 -34.5 49t-101.5 15h-36v85zM1073 1657q-17 -66 -74.5 -110t-128.5 -44q-23 0 -42 4t-90 26q-109 34 -155 34q-44 0 -81 -41l-59 20q19 63 68.5 101.5t108.5 38.5q60 0 194 -38q66 -18 101 -18q64 0 98 45z"/>
<glyph glyph-name="Ograve" horiz-adv-x="1638" unicode="Ò" d="M839 1311q-156 0 -268 -71.5t-179.5 -210.5t-67.5 -343q0 -195 66.5 -330.5t178.5 -207.5t252 -72q139 0 246 70.5t177 222t70 336.5q0 188 -70 344q-60 134 -159 198t-246 64zM839 1419q191 0 345 -92q167 -99 256.5 -257t89.5 -366q0 -322 -200 -525t-510 -203 q-346 0 -548 244q-165 199 -165 476q0 206 93 369.5t264 258.5t375 95zM967 1501l-286 60q-75 16 -103 41.5t-28 62.5q0 34 20.5 55.5t52.5 21.5q64 0 159 -70l185 -136v-35z"/>
<glyph glyph-name="Oacute" horiz-adv-x="1638" unicode="Ó" d="M839 1311q-156 0 -268 -71.5t-179.5 -210.5t-67.5 -343q0 -195 66.5 -330.5t178.5 -207.5t252 -72q139 0 246 70.5t177 222t70 336.5q0 188 -70 344q-60 134 -159 198t-246 64zM839 1419q191 0 345 -92q167 -99 256.5 -257t89.5 -366q0 -322 -200 -525t-510 -203 q-346 0 -548 244q-165 199 -165 476q0 206 93 369.5t264 258.5t375 95zM671 1501v35l185 136q95 70 159 70q30 0 50.5 -21.5t20.5 -53.5q0 -39 -28 -64.5t-101 -41.5z"/>
<glyph glyph-name="Ocircumflex" horiz-adv-x="1638" unicode="Ô" d="M839 1311q-156 0 -268 -71.5t-179.5 -210.5t-67.5 -343q0 -195 66.5 -330.5t178.5 -207.5t252 -72q139 0 246 70.5t177 222t70 336.5q0 188 -70 344q-60 134 -159 198t-246 64zM839 1419q191 0 345 -92q167 -99 256.5 -257t89.5 -366q0 -322 -200 -525t-510 -203 q-346 0 -548 244q-165 199 -165 476q0 206 93 369.5t264 258.5t375 95zM818 1736l291 -191l-27 -51l-264 93l-263 -93l-27 51z"/>
<glyph glyph-name="Otilde" horiz-adv-x="1638" unicode="Õ" d="M839 1311q-156 0 -268 -71.5t-179.5 -210.5t-67.5 -343q0 -195 66.5 -330.5t178.5 -207.5t252 -72q139 0 246 70.5t177 222t70 336.5q0 188 -70 344q-60 134 -159 198t-246 64zM839 1419q191 0 345 -92q167 -99 256.5 -257t89.5 -366q0 -322 -200 -525t-510 -203 q-346 0 -548 244q-165 199 -165 476q0 206 93 369.5t264 258.5t375 95zM1134 1657q-17 -66 -74.5 -110t-128.5 -44q-23 0 -42 4t-90 26q-109 34 -155 34q-44 0 -81 -41l-59 20q19 63 68.5 101.5t108.5 38.5q60 0 194 -38q66 -18 101 -18q64 0 98 45z"/>
<glyph glyph-name="Odieresis" horiz-adv-x="1638" unicode="Ö" d="M839 1311q-156 0 -268 -71.5t-179.5 -210.5t-67.5 -343q0 -195 66.5 -330.5t178.5 -207.5t252 -72q139 0 246 70.5t177 222t70 336.5q0 188 -70 344q-60 134 -159 198t-246 64zM839 1419q191 0 345 -92q167 -99 256.5 -257t89.5 -366q0 -322 -200 -525t-510 -203 q-346 0 -548 244q-165 199 -165 476q0 206 93 369.5t264 258.5t375 95zM986 1709q50 0 86 -36t36 -87q0 -50 -36 -86t-86 -36q-51 0 -86.5 36t-35.5 86q0 51 35.5 87t86.5 36zM652 1709q50 0 86 -36t36 -87q0 -50 -36 -86t-86 -36t-86 36t-36 86q0 51 35.5 87t86.5 36z"/>
<glyph glyph-name="multiply" horiz-adv-x="1229" unicode="×" d="M1035 364l-87 -87l-334 333l-333 -333l-87 87l334 333l-334 334l87 87l333 -334l334 334l87 -87l-334 -334z"/>
<glyph glyph-name="Oslash" horiz-adv-x="1638" unicode="Ø" d="M1228 1081l-758 -846q138 -159 351 -159q139 0 246.5 70.5t177 222t69.5 338.5q0 207 -86 374zM1175 1167q-59 73 -141.5 108.5t-196.5 35.5q-155 0 -266.5 -71.5t-179 -210.5t-67.5 -341q0 -227 88 -372zM1267 1270l133 149h130l-192 -215q99 -104 145.5 -224t46.5 -276 q0 -322 -200 -525t-510 -203q-265 0 -450 148l-133 -148h-130l192 214q-192 208 -192 506q0 206 93 369.5t263.5 258.5t373.5 95q243 0 430 -149z"/>
<glyph glyph-name="Ugrave" horiz-adv-x="1597" unicode="Ù" d="M78 1395h539v-85h-36q-66 0 -94 -13q-22 -10 -33 -34t-11 -96v-628q0 -168 40.5 -249t135 -136t207.5 -55q114 0 216 59t143 140t41 256v604q0 66 -13 95t-39.5 43t-82.5 14h-39v85h467v-85h-32q-79 0 -108.5 -30t-29.5 -113v-643q0 -176 -66 -293.5t-192 -186 t-293 -68.5q-158 0 -289 70t-192.5 174.5t-61.5 262.5v684q0 66 -12 92.5t-35 38.5t-80 12h-50v85zM947 1501l-286 60q-75 16 -103 41.5t-28 62.5q0 34 20.5 55.5t52.5 21.5q64 0 159 -70l185 -136v-35z"/>
<glyph glyph-name="Uacute" horiz-adv-x="1597" unicode="Ú" d="M78 1395h539v-85h-36q-66 0 -94 -13q-22 -10 -33 -34t-11 -96v-628q0 -168 40.5 -249t135 -136t207.5 -55q114 0 216 59t143 140t41 256v604q0 66 -13 95t-39.5 43t-82.5 14h-39v85h467v-85h-32q-79 0 -108.5 -30t-29.5 -113v-643q0 -176 -66 -293.5t-192 -186 t-293 -68.5q-158 0 -289 70t-192.5 174.5t-61.5 262.5v684q0 66 -12 92.5t-35 38.5t-80 12h-50v85zM651 1501v35l185 136q95 70 159 70q30 0 50.5 -21.5t20.5 -53.5q0 -39 -28 -64.5t-101 -41.5z"/>
<glyph glyph-name="Ucircumflex" horiz-adv-x="1597" unicode="Û" d="M78 1395h539v-85h-36q-66 0 -94 -13q-22 -10 -33 -34t-11 -96v-628q0 -168 40.5 -249t135 -136t207.5 -55q114 0 216 59t143 140t41 256v604q0 66 -13 95t-39.5 43t-82.5 14h-39v85h467v-85h-32q-79 0 -108.5 -30t-29.5 -113v-643q0 -176 -66 -293.5t-192 -186 t-293 -68.5q-158 0 -289 70t-192.5 174.5t-61.5 262.5v684q0 66 -12 92.5t-35 38.5t-80 12h-50v85zM798 1736l291 -191l-27 -51l-264 93l-263 -93l-27 51z"/>
<glyph glyph-name="Udieresis" horiz-adv-x="1597" unicode="Ü" d="M78 1395h539v-85h-36q-66 0 -94 -13q-22 -10 -33 -34t-11 -96v-628q0 -168 40.5 -249t135 -136t207.5 -55q114 0 216 59t143 140t41 256v604q0 66 -13 95t-39.5 43t-82.5 14h-39v85h467v-85h-32q-79 0 -108.5 -30t-29.5 -113v-643q0 -176 -66 -293.5t-192 -186 t-293 -68.5q-158 0 -289 70t-192.5 174.5t-61.5 262.5v684q0 66 -12 92.5t-35 38.5t-80 12h-50v85zM966 1709q50 0 86 -36t36 -87q0 -50 -36 -86t-86 -36q-51 0 -86.5 36t-35.5 86q0 51 35.5 87t86.5 36zM632 1709q50 0 86 -36t36 -87q0 -50 -36 -86t-86 -36t-86 36t-36 86 q0 51 35.5 87t86.5 36z"/>
<glyph glyph-name="Yacute" horiz-adv-x="1311" unicode="Ý" d="M5 1395h522v-85h-59q-54 0 -69.5 -10t-15.5 -33q0 -20 19 -54q5 -8 13 -23l272 -504l301 523q18 32 21.5 41.5t3.5 19.5q0 14 -7.5 23.5t-23.5 14.5q-10 2 -56 2h-52v85h431v-85h-12q-49 0 -73 -7q-28 -8 -45 -24.5t-49 -69.5l-378 -630v-351q0 -77 12.5 -100t39.5 -33.5 t126 -10.5v-84h-545v84h42q67 0 89.5 12t35.5 39q9 19 9 93v314l-369 656q-44 79 -73.5 94.5t-109.5 17.5v85zM508 1501v35l185 136q95 70 159 70q30 0 50.5 -21.5t20.5 -53.5q0 -39 -28 -64.5t-101 -41.5z"/>
<glyph glyph-name="Thorn" d="M457 990v-585h215q163 0 228.5 29t108.5 100.5t43 167.5q0 105 -50 175.5t-136 94.5q-60 18 -234 18h-175zM92 1395h540v-85h-29q-82 0 -111.5 -19.5t-29.5 -82.5l-1 -30l-4 -81h186q249 0 344 -30q120 -38 198 -131t78 -234q0 -122 -59 -209q-71 -106 -172.5 -150.5 t-319.5 -44.5h-255v-61q0 -80 9 -101q12 -29 33 -40.5t85 -11.5h48v-84h-540v84h33q69 0 94 11.5t36.5 36t11.5 92.5v954q0 66 -10.5 88.5t-35 33t-96.5 10.5h-33v85z" unicode="Þ"/>
<glyph glyph-name="germandbls" horiz-adv-x="1352" unicode="ß" d="M71 965h172v45q0 62 14.5 146t70.5 155.5t145.5 113.5t207.5 42q114 0 193 -39t124.5 -108.5t45.5 -147.5q0 -40 -15 -72q-11 -22 -32 -35t-78 -22q-126 -20 -165 -49q-39 -30 -39 -76q0 -47 42 -84t179 -101t196 -114.5t90.5 -120t31.5 -142.5q0 -97 -56 -187.5 t-155 -141.5t-221 -51q-100 0 -186 35.5t-125 85t-39 96.5q0 32 25.5 58t57.5 26q30 0 57.5 -18.5t55.5 -66.5q41 -69 81.5 -93.5t99.5 -24.5q101 0 177.5 72.5t76.5 164.5q0 64 -32 118t-98 98q-46 30 -151 77q-74 33 -94 44q-54 32 -93.5 72.5t-54 74.5t-14.5 81 q0 62 34 114t108.5 87.5t189.5 45.5q-14 16 -17 27q-6 23 -9 74q-2 25 -10 43q-11 26 -29 46.5t-41.5 34.5t-53.5 21t-65 7q-132 0 -206 -94q-57 -73 -57 -231v-1051h-339v84h56q52 0 71 12q24 14 36 43q9 21 9 96v629h-172v101z"/>
<glyph glyph-name="agrave" horiz-adv-x="1188" unicode="à" d="M793 492q-232 -34 -287 -47q-109 -25 -156 -55t-67 -64.5t-20 -73.5t22.5 -75.5t63.5 -57.5t87 -21q65 0 147 31t210 121v242zM793 579v109q0 111 -62 158.5t-175 47.5q-56 0 -98 -13.5t-67.5 -37t-37.5 -53.5q-5 -11 -24 -85q-23 -90 -93 -90q-40 0 -64.5 26.5 t-24.5 71.5q0 66 49 129.5t149.5 105t237.5 41.5q128 0 219 -39.5t134 -113.5q30 -51 30 -186v-385q0 -82 5 -107q11 -43 38.5 -64.5t71.5 -21.5q46 0 110 22v-87q-83 -24 -149 -24q-71 0 -119.5 20t-79.5 58.5t-40 91.5q-120 -94 -217 -132t-196 -38q-138 0 -224 75 t-86 176q0 61 31.5 116t96 97t202.5 74t383 58zM782 1170l-286 60q-75 16 -103 41.5t-28 62.5q0 34 20.5 55.5t52.5 21.5q64 0 159 -70l185 -136v-35z"/>
<glyph glyph-name="aacute" horiz-adv-x="1188" unicode="á" d="M793 492q-232 -34 -287 -47q-109 -25 -156 -55t-67 -64.5t-20 -73.5t22.5 -75.5t63.5 -57.5t87 -21q65 0 147 31t210 121v242zM793 579v109q0 111 -62 158.5t-175 47.5q-56 0 -98 -13.5t-67.5 -37t-37.5 -53.5q-5 -11 -24 -85q-23 -90 -93 -90q-40 0 -64.5 26.5 t-24.5 71.5q0 66 49 129.5t149.5 105t237.5 41.5q128 0 219 -39.5t134 -113.5q30 -51 30 -186v-385q0 -82 5 -107q11 -43 38.5 -64.5t71.5 -21.5q46 0 110 22v-87q-83 -24 -149 -24q-71 0 -119.5 20t-79.5 58.5t-40 91.5q-120 -94 -217 -132t-196 -38q-138 0 -224 75 t-86 176q0 61 31.5 116t96 97t202.5 74t383 58zM386 1170v35l185 136q95 70 159 70q30 0 50.5 -21.5t20.5 -53.5q0 -39 -28 -64.5t-101 -41.5z"/>
<glyph glyph-name="acircumflex" horiz-adv-x="1188" unicode="â" d="M793 492q-232 -34 -287 -47q-109 -25 -156 -55t-67 -64.5t-20 -73.5t22.5 -75.5t63.5 -57.5t87 -21q65 0 147 31t210 121v242zM793 579v109q0 111 -62 158.5t-175 47.5q-56 0 -98 -13.5t-67.5 -37t-37.5 -53.5q-5 -11 -24 -85q-23 -90 -93 -90q-40 0 -64.5 26.5 t-24.5 71.5q0 66 49 129.5t149.5 105t237.5 41.5q128 0 219 -39.5t134 -113.5q30 -51 30 -186v-385q0 -82 5 -107q11 -43 38.5 -64.5t71.5 -21.5q46 0 110 22v-87q-83 -24 -149 -24q-71 0 -119.5 20t-79.5 58.5t-40 91.5q-120 -94 -217 -132t-196 -38q-138 0 -224 75 t-86 176q0 61 31.5 116t96 97t202.5 74t383 58zM593 1404l291 -191l-27 -51l-264 93l-263 -93l-27 51z"/>
<glyph glyph-name="atilde" horiz-adv-x="1188" unicode="ã" d="M793 492q-232 -34 -287 -47q-109 -25 -156 -55t-67 -64.5t-20 -73.5t22.5 -75.5t63.5 -57.5t87 -21q65 0 147 31t210 121v242zM793 579v109q0 111 -62 158.5t-175 47.5q-56 0 -98 -13.5t-67.5 -37t-37.5 -53.5q-5 -11 -24 -85q-23 -90 -93 -90q-40 0 -64.5 26.5 t-24.5 71.5q0 66 49 129.5t149.5 105t237.5 41.5q128 0 219 -39.5t134 -113.5q30 -51 30 -186v-385q0 -82 5 -107q11 -43 38.5 -64.5t71.5 -21.5q46 0 110 22v-87q-83 -24 -149 -24q-71 0 -119.5 20t-79.5 58.5t-40 91.5q-120 -94 -217 -132t-196 -38q-138 0 -224 75 t-86 176q0 61 31.5 116t96 97t202.5 74t383 58zM909 1325q-17 -66 -74.5 -110t-128.5 -44q-23 0 -42 4t-90 26q-109 34 -155 34q-44 0 -81 -41l-59 20q19 63 68.5 101.5t108.5 38.5q60 0 194 -38q66 -18 101 -18q64 0 98 45z"/>
<glyph glyph-name="adieresis" horiz-adv-x="1188" unicode="ä" d="M793 492q-232 -34 -287 -47q-109 -25 -156 -55t-67 -64.5t-20 -73.5t22.5 -75.5t63.5 -57.5t87 -21q65 0 147 31t210 121v242zM793 579v109q0 111 -62 158.5t-175 47.5q-56 0 -98 -13.5t-67.5 -37t-37.5 -53.5q-5 -11 -24 -85q-23 -90 -93 -90q-40 0 -64.5 26.5 t-24.5 71.5q0 66 49 129.5t149.5 105t237.5 41.5q128 0 219 -39.5t134 -113.5q30 -51 30 -186v-385q0 -82 5 -107q11 -43 38.5 -64.5t71.5 -21.5q46 0 110 22v-87q-83 -24 -149 -24q-71 0 -119.5 20t-79.5 58.5t-40 91.5q-120 -94 -217 -132t-196 -38q-138 0 -224 75 t-86 176q0 61 31.5 116t96 97t202.5 74t383 58zM761 1378q50 0 86 -36t36 -87q0 -50 -36 -86t-86 -36q-51 0 -86.5 36t-35.5 86q0 51 35.5 87t86.5 36zM427 1378q50 0 86 -36t36 -87q0 -50 -36 -86t-86 -36t-86 36t-36 86q0 51 35.5 87t86.5 36z"/>
<glyph glyph-name="aring" horiz-adv-x="1188" unicode="å" d="M793 492q-232 -34 -287 -47q-109 -25 -156 -55t-67 -64.5t-20 -73.5t22.5 -75.5t63.5 -57.5t87 -21q65 0 147 31t210 121v242zM793 579v109q0 111 -62 158.5t-175 47.5q-56 0 -98 -13.5t-67.5 -37t-37.5 -53.5q-5 -11 -24 -85q-23 -90 -93 -90q-40 0 -64.5 26.5 t-24.5 71.5q0 66 49 129.5t149.5 105t237.5 41.5q128 0 219 -39.5t134 -113.5q30 -51 30 -186v-385q0 -82 5 -107q11 -43 38.5 -64.5t71.5 -21.5q46 0 110 22v-87q-83 -24 -149 -24q-71 0 -119.5 20t-79.5 58.5t-40 91.5q-120 -94 -217 -132t-196 -38q-138 0 -224 75 t-86 176q0 61 31.5 116t96 97t202.5 74t383 58zM593 1429q-49 0 -83.5 -35t-34.5 -84q0 -50 34.5 -85t83.5 -35t84 35t35 85q0 49 -35 84t-84 35zM593 1499q79 0 134 -55.5t55 -133.5q0 -79 -55.5 -134.5t-133.5 -55.5t-133 55.5t-55 134.5q0 78 55 133.5t133 55.5z"/>
<glyph glyph-name="ae" horiz-adv-x="1761" unicode="æ" d="M798 490q-156 -17 -273.5 -43.5t-166.5 -56t-69 -63.5t-20 -72q0 -40 21.5 -77.5t64 -59.5t87.5 -22q61 0 156.5 38t199.5 116v240zM1498 662q-8 105 -73.5 169t-160.5 64t-170.5 -61.5t-104.5 -171.5h509zM1625 259l66 -52q-92 -120 -197 -175.5t-234 -55.5 q-126 0 -223.5 55t-165.5 165q-94 -92 -256 -169q-108 -51 -218 -51q-140 0 -225.5 75t-85.5 179q0 65 31 119.5t99 98t212 77t370 54.5v83q0 91 -23 134.5t-78 70.5t-136 27q-65 0 -112 -19t-71.5 -50t-38.5 -96q-12 -53 -24 -73.5t-31 -31.5t-42 -11q-41 0 -65 25.5 t-24 74.5q0 105 117 190.5t313 85.5q89 0 155 -18.5t116 -53.5q38 -26 70 -76q148 148 337 148q188 0 301.5 -112.5t118.5 -306.5h-707q-4 -51 -4 -76q0 -121 47 -218.5t121.5 -146.5t161.5 -49q80 0 164 43.5t161 135.5z"/>
<glyph glyph-name="ccedilla" horiz-adv-x="1065" unicode="ç" d="M958 279l64 -52q-188 -251 -451 -251q-205 0 -346 146t-141 363q0 145 65.5 260.5t182 179.5t267.5 64q172 0 287 -84.5t115 -170.5q0 -46 -27 -71t-61 -25q-18 0 -35 9t-35 29q-8 9 -29 56q-27 58 -42 78q-31 40 -76.5 63t-101.5 23q-85 0 -157.5 -47t-115 -138.5 t-42.5 -218.5q0 -197 105 -313q91 -100 217 -100q58 0 117.5 19.5t112.5 57.5q39 27 127 123zM522 0l-26 -87q41 3 49 3q56 0 104 -22q36 -16 56.5 -49.5t20.5 -79.5q0 -78 -51.5 -126.5t-138.5 -48.5t-150 43q-47 31 -47 72q0 22 14.5 37t37.5 15t38 -10.5t26 -39.5 q15 -34 25 -43q23 -18 54 -18q40 0 68 30.5t28 79.5q0 51 -30 78t-93 27q-41 0 -98 -20l51 159h62z"/>
<glyph glyph-name="egrave" horiz-adv-x="1065" unicode="è" d="M802 662q-15 92 -42.5 136t-78 70t-113.5 26t-118 -26t-91.5 -72t-63.5 -134h507zM930 258l64 -52q-73 -87 -141.5 -138t-129.5 -71.5t-143 -20.5q-147 0 -250 60q-118 69 -181 180t-63 262q0 158 61 270t170.5 176.5t253.5 64.5q107 0 186 -33.5t134 -101t80 -154.5 q14 -51 16 -132h-707q-3 -49 -3 -73q0 -126 44 -224.5t116.5 -145t164.5 -46.5q78 0 151 36.5t177 142.5zM741 1170l-286 60q-75 16 -103 41.5t-28 62.5q0 34 20.5 55.5t52.5 21.5q64 0 159 -70l185 -136v-35z"/>
<glyph glyph-name="eacute" horiz-adv-x="1065" unicode="é" d="M802 662q-15 92 -42.5 136t-78 70t-113.5 26t-118 -26t-91.5 -72t-63.5 -134h507zM930 258l64 -52q-73 -87 -141.5 -138t-129.5 -71.5t-143 -20.5q-147 0 -250 60q-118 69 -181 180t-63 262q0 158 61 270t170.5 176.5t253.5 64.5q107 0 186 -33.5t134 -101t80 -154.5 q14 -51 16 -132h-707q-3 -49 -3 -73q0 -126 44 -224.5t116.5 -145t164.5 -46.5q78 0 151 36.5t177 142.5zM355 1170v35l185 136q95 70 159 70q30 0 50.5 -21.5t20.5 -53.5q0 -39 -28 -64.5t-101 -41.5z"/>
<glyph glyph-name="ecircumflex" horiz-adv-x="1065" unicode="ê" d="M802 662q-15 92 -42.5 136t-78 70t-113.5 26t-118 -26t-91.5 -72t-63.5 -134h507zM930 258l64 -52q-73 -87 -141.5 -138t-129.5 -71.5t-143 -20.5q-147 0 -250 60q-118 69 -181 180t-63 262q0 158 61 270t170.5 176.5t253.5 64.5q107 0 186 -33.5t134 -101t80 -154.5 q14 -51 16 -132h-707q-3 -49 -3 -73q0 -126 44 -224.5t116.5 -145t164.5 -46.5q78 0 151 36.5t177 142.5zM612 1404l291 -191l-27 -51l-264 93l-263 -93l-27 51z"/>
<glyph glyph-name="edieresis" horiz-adv-x="1065" unicode="ë" d="M802 662q-15 92 -42.5 136t-78 70t-113.5 26t-118 -26t-91.5 -72t-63.5 -134h507zM930 258l64 -52q-73 -87 -141.5 -138t-129.5 -71.5t-143 -20.5q-147 0 -250 60q-118 69 -181 180t-63 262q0 158 61 270t170.5 176.5t253.5 64.5q107 0 186 -33.5t134 -101t80 -154.5 q14 -51 16 -132h-707q-3 -49 -3 -73q0 -126 44 -224.5t116.5 -145t164.5 -46.5q78 0 151 36.5t177 142.5zM730 1378q50 0 86 -36t36 -87q0 -50 -36 -86t-86 -36q-51 0 -86.5 36t-35.5 86q0 51 35.5 87t86.5 36zM396 1378q50 0 86 -36t36 -87q0 -50 -36 -86t-86 -36t-86 36 t-36 86q0 51 35.5 87t86.5 36z"/>
<glyph glyph-name="igrave" horiz-adv-x="614" unicode="ì" d="M61 821v83q83 10 139.5 28t128.5 57h73v-756q0 -77 5 -93q9 -30 36 -44q21 -12 83 -12h47v-84h-512v84h41q67 0 90 12t32.5 34t9.5 103v588h-173zM476 1170l-286 60q-75 16 -103 41.5t-28 62.5q0 34 20.5 55.5t52.5 21.5q64 0 159 -70l185 -136v-35z"/>
<glyph glyph-name="iacute" horiz-adv-x="614" unicode="í" d="M61 821v83q83 10 139.5 28t128.5 57h73v-756q0 -77 5 -93q9 -30 36 -44q21 -12 83 -12h47v-84h-512v84h41q67 0 90 12t32.5 34t9.5 103v588h-173zM99 1170v35l185 136q95 70 159 70q30 0 50.5 -21.5t20.5 -53.5q0 -39 -28 -64.5t-101 -41.5z"/>
<glyph glyph-name="icircumflex" horiz-adv-x="614" unicode="î" d="M61 821v83q83 10 139.5 28t128.5 57h73v-756q0 -77 5 -93q9 -30 36 -44q21 -12 83 -12h47v-84h-512v84h41q67 0 90 12t32.5 34t9.5 103v588h-173zM307 1404l291 -191l-27 -51l-264 93l-263 -93l-27 51z"/>
<glyph glyph-name="idieresis" horiz-adv-x="614" unicode="ï" d="M61 821v83q83 10 139.5 28t128.5 57h73v-756q0 -77 5 -93q9 -30 36 -44q21 -12 83 -12h47v-84h-512v84h41q67 0 90 12t32.5 34t9.5 103v588h-173zM474 1378q50 0 86 -36t36 -87q0 -50 -36 -86t-86 -36q-51 0 -86.5 36t-35.5 86q0 51 35.5 87t86.5 36zM140 1378 q50 0 86 -36t36 -87q0 -50 -36 -86t-86 -36t-86 36t-36 86q0 51 35.5 87t86.5 36z"/>
<glyph glyph-name="eth" horiz-adv-x="1147" unicode="ð" d="M573 893q-78 0 -148 -48t-108.5 -140.5t-38.5 -231.5q0 -196 89 -310q74 -95 201 -95q87 0 153 44.5t107.5 140t41.5 228.5q0 132 -40 227.5t-106 140t-151 44.5zM995 1444l22 -80l-255 -70q91 -102 165 -235.5t105.5 -251.5t31.5 -243q0 -183 -67.5 -317t-177 -202.5 t-262.5 -68.5q-228 0 -351.5 150t-123.5 357q0 148 61.5 264.5t168.5 179t242 62.5q66 0 125.5 -16.5t97 -43t73.5 -77.5q-40 197 -201 415l-296 -80l-23 80l260 70q-24 31 -44 51l-81 79h133q52 -47 99 -103z"/>
<glyph glyph-name="ntilde" horiz-adv-x="1352" unicode="ñ" d="M75 821v84q89 10 133 24t127 60h72v-190q132 111 225.5 150.5t189.5 39.5q82 0 145 -27.5t102.5 -74.5t52.5 -107q8 -37 8 -112v-440q0 -79 11.5 -101.5t36.5 -32.5t123 -10v-84h-515v84h28q72 0 98 13t37.5 38t11.5 102v368q0 114 -18.5 158t-63 71.5t-112.5 27.5 q-81 0 -173 -41.5t-178 -122.5v-461q0 -78 11.5 -104t37.5 -39q18 -10 96 -10h29v-84h-515v84h25q74 0 101 12.5t38 44.5q6 16 6 110v570h-170zM991 1325q-17 -66 -74.5 -110t-128.5 -44q-23 0 -42 4t-90 26q-109 34 -155 34q-44 0 -81 -41l-59 20q19 63 68.5 101.5 t108.5 38.5q60 0 194 -38q66 -18 101 -18q64 0 98 45z"/>
<glyph glyph-name="ograve" horiz-adv-x="1147" unicode="ò" d="M571 892q-114 0 -193 -90q-100 -112 -100 -326q0 -206 85 -314q77 -96 209 -96q85 0 151.5 45t107.5 143.5t41 231.5q0 130 -44 233q-34 82 -102.5 127.5t-154.5 45.5zM579 989q147 0 254.5 -61t169.5 -178t62 -267t-63.5 -267t-173 -178.5t-261.5 -61.5 q-242 0 -363.5 151t-121.5 355q0 149 63 264.5t176.5 179t257.5 63.5zM782 1170l-286 60q-75 16 -103 41.5t-28 62.5q0 34 20.5 55.5t52.5 21.5q64 0 159 -70l185 -136v-35z"/>
<glyph glyph-name="oacute" horiz-adv-x="1147" unicode="ó" d="M571 892q-114 0 -193 -90q-100 -112 -100 -326q0 -206 85 -314q77 -96 209 -96q85 0 151.5 45t107.5 143.5t41 231.5q0 130 -44 233q-34 82 -102.5 127.5t-154.5 45.5zM579 989q147 0 254.5 -61t169.5 -178t62 -267t-63.5 -267t-173 -178.5t-261.5 -61.5 q-242 0 -363.5 151t-121.5 355q0 149 63 264.5t176.5 179t257.5 63.5zM410 1170v35l185 136q95 70 159 70q30 0 50.5 -21.5t20.5 -53.5q0 -39 -28 -64.5t-101 -41.5z"/>
<glyph glyph-name="ocircumflex" horiz-adv-x="1147" unicode="ô" d="M571 892q-114 0 -193 -90q-100 -112 -100 -326q0 -206 85 -314q77 -96 209 -96q85 0 151.5 45t107.5 143.5t41 231.5q0 130 -44 233q-34 82 -102.5 127.5t-154.5 45.5zM579 989q147 0 254.5 -61t169.5 -178t62 -267t-63.5 -267t-173 -178.5t-261.5 -61.5 q-242 0 -363.5 151t-121.5 355q0 149 63 264.5t176.5 179t257.5 63.5zM573 1404l291 -191l-27 -51l-264 93l-263 -93l-27 51z"/>
<glyph glyph-name="otilde" horiz-adv-x="1147" unicode="õ" d="M571 892q-114 0 -193 -90q-100 -112 -100 -326q0 -206 85 -314q77 -96 209 -96q85 0 151.5 45t107.5 143.5t41 231.5q0 130 -44 233q-34 82 -102.5 127.5t-154.5 45.5zM579 989q147 0 254.5 -61t169.5 -178t62 -267t-63.5 -267t-173 -178.5t-261.5 -61.5 q-242 0 -363.5 151t-121.5 355q0 149 63 264.5t176.5 179t257.5 63.5zM889 1325q-17 -66 -74.5 -110t-128.5 -44q-23 0 -42 4t-90 26q-109 34 -155 34q-44 0 -81 -41l-59 20q19 63 68.5 101.5t108.5 38.5q60 0 194 -38q66 -18 101 -18q64 0 98 45z"/>
<glyph glyph-name="odieresis" horiz-adv-x="1147" unicode="ö" d="M571 892q-114 0 -193 -90q-100 -112 -100 -326q0 -206 85 -314q77 -96 209 -96q85 0 151.5 45t107.5 143.5t41 231.5q0 130 -44 233q-34 82 -102.5 127.5t-154.5 45.5zM579 989q147 0 254.5 -61t169.5 -178t62 -267t-63.5 -267t-173 -178.5t-261.5 -61.5 q-242 0 -363.5 151t-121.5 355q0 149 63 264.5t176.5 179t257.5 63.5zM741 1378q50 0 86 -36t36 -87q0 -50 -36 -86t-86 -36q-51 0 -86.5 36t-35.5 86q0 51 35.5 87t86.5 36zM407 1378q50 0 86 -36t36 -87q0 -50 -36 -86t-86 -36t-86 36t-36 86q0 51 35.5 87t86.5 36z"/>
<glyph glyph-name="divide" horiz-adv-x="1124" unicode="÷" d="M562 467q41 0 70 -28.5t29 -69.5q0 -43 -29.5 -73t-71.5 -30q-41 0 -70.5 30t-29.5 73q0 41 29.5 69.5t72.5 28.5zM1050 759v-123h-975v123h975zM564 1128q41 0 70 -28.5t29 -69.5q0 -42 -30 -72t-71 -30t-70.5 30t-29.5 72q0 41 29.5 69.5t72.5 28.5z"/>
<glyph glyph-name="oslash" horiz-adv-x="1147" unicode="ø" d="M829 716l-472 -546q78 -104 215 -104q85 0 152 45t107.5 143.5t40.5 231.5q0 131 -43 230zM787 791q-36 46 -94 73.5t-120 27.5q-119 0 -198 -93q-97 -113 -97 -325q0 -128 38 -227zM880 898l79 91h106l-126 -146q59 -65 92.5 -159.5t33.5 -200.5q0 -150 -63.5 -267.5 t-173 -178.5t-263.5 -61q-182 0 -299 90l-77 -90h-107l126 146q-126 153 -126 359q0 150 63 265.5t176.5 179t258.5 63.5q179 0 300 -91z"/>
<glyph glyph-name="ugrave" horiz-adv-x="1393" unicode="ù" d="M20 965l379 15v-644q0 -85 23.5 -135t72 -77.5t113.5 -27.5q80 0 181.5 43t202.5 128v466q0 74 -11 97t-39 37t-88 14h-73v84l379 15v-746q0 -72 12 -99.5t35.5 -39t94.5 -11.5h31v-84l-332 -17v185q-137 -109 -239 -150.5t-207 -41.5q-78 0 -135.5 21t-101 63t-66.5 101 t-23 126v455q0 61 -11 85.5t-36.5 39t-69.5 14.5h-92v84zM905 1170l-286 60q-75 16 -103 41.5t-28 62.5q0 34 20.5 55.5t52.5 21.5q64 0 159 -70l185 -136v-35z"/>
<glyph glyph-name="uacute" horiz-adv-x="1393" unicode="ú" d="M20 965l379 15v-644q0 -85 23.5 -135t72 -77.5t113.5 -27.5q80 0 181.5 43t202.5 128v466q0 74 -11 97t-39 37t-88 14h-73v84l379 15v-746q0 -72 12 -99.5t35.5 -39t94.5 -11.5h31v-84l-332 -17v185q-137 -109 -239 -150.5t-207 -41.5q-78 0 -135.5 21t-101 63t-66.5 101 t-23 126v455q0 61 -11 85.5t-36.5 39t-69.5 14.5h-92v84zM489 1170v35l185 136q95 70 159 70q30 0 50.5 -21.5t20.5 -53.5q0 -39 -28 -64.5t-101 -41.5z"/>
<glyph glyph-name="ucircumflex" horiz-adv-x="1393" unicode="û" d="M20 965l379 15v-644q0 -85 23.5 -135t72 -77.5t113.5 -27.5q80 0 181.5 43t202.5 128v466q0 74 -11 97t-39 37t-88 14h-73v84l379 15v-746q0 -72 12 -99.5t35.5 -39t94.5 -11.5h31v-84l-332 -17v185q-137 -109 -239 -150.5t-207 -41.5q-78 0 -135.5 21t-101 63t-66.5 101 t-23 126v455q0 61 -11 85.5t-36.5 39t-69.5 14.5h-92v84zM696 1404l291 -191l-27 -51l-264 93l-263 -93l-27 51z"/>
<glyph glyph-name="udieresis" horiz-adv-x="1393" unicode="ü" d="M20 965l379 15v-644q0 -85 23.5 -135t72 -77.5t113.5 -27.5q80 0 181.5 43t202.5 128v466q0 74 -11 97t-39 37t-88 14h-73v84l379 15v-746q0 -72 12 -99.5t35.5 -39t94.5 -11.5h31v-84l-332 -17v185q-137 -109 -239 -150.5t-207 -41.5q-78 0 -135.5 21t-101 63t-66.5 101 t-23 126v455q0 61 -11 85.5t-36.5 39t-69.5 14.5h-92v84zM864 1378q50 0 86 -36t36 -87q0 -50 -36 -86t-86 -36q-51 0 -86.5 36t-35.5 86q0 51 35.5 87t86.5 36zM530 1378q50 0 86 -36t36 -87q0 -50 -36 -86t-86 -36t-86 36t-36 86q0 51 35.5 87t86.5 36z"/>
<glyph glyph-name="yacute" horiz-adv-x="1106" unicode="ý" d="M-11 965h486v-84h-40q-57 0 -68 -3q-13 -4 -22 -16.5t-9 -31.5q0 -27 27 -91l232 -545l215 521q38 92 38 122q0 23 -17 33.5t-77 10.5h-47v84h409v-84h-24q-60 0 -78 -8t-35 -32.5t-54 -111.5l-367 -855q-40 -92 -89 -170.5t-123 -121.5t-163 -43q-103 0 -165 47 q-53 40 -53 100q0 37 23 61.5t54 24.5q24 0 45 -10q13 -5 54 -42q50 -44 70.5 -54t40.5 -10q41 0 81 28t68 79q40 73 66 137l41 100l-330 739q-35 78 -59 105t-48 33q-13 4 -82 4v84zM385 1170v35l185 136q95 70 159 70q30 0 50.5 -21.5t20.5 -53.5q0 -39 -28 -64.5 t-101 -41.5z"/>
<glyph glyph-name="thorn" d="M403 719v-344q0 -68 8 -101q12 -51 46.5 -92t94 -70t124.5 -29q130 0 225.5 98t95.5 297q0 186 -79 287.5t-187 101.5q-70 0 -152 -37t-176 -111zM64 1299v83q75 0 133 18.5t127 66.5h79v-645q125 99 208 133t166 34q171 0 291.5 -134t120.5 -349q0 -238 -137 -390 q-125 -140 -322 -140q-98 0 -184 37q-62 26 -143 93v-329q0 -74 4 -87q5 -19 20 -32t38 -17q17 -3 114 -3v-84h-515v84h45q69 0 89.5 10.5t30.5 32.5q6 17 6 104v1514h-171z" unicode="þ"/>
<glyph glyph-name="dotlessi" horiz-adv-x="614" unicode="ı" d="M61 821v83q83 10 139.5 28t128.5 57h73v-756q0 -77 5 -93q9 -30 36 -44q21 -12 83 -12h47v-84h-512v84h41q67 0 90 12t32.5 34t9.5 103v588h-173z"/>
<glyph glyph-name="OE" horiz-adv-x="2539" unicode="Œ" d="M828 1317q-211 0 -346 -159q-150 -177 -150 -463q0 -194 64.5 -333t176 -210t249.5 -71q218 0 359 173.5t141 445.5q0 282 -153 464q-128 153 -341 153zM2280 1395l130 -367l-87 -33q-34 90 -72.5 141.5t-93.5 87.5t-110.5 48t-199.5 12h-338v-511h167q93 0 140.5 31.5 t66.5 78.5q14 35 14 122v23h97v-612h-97v53q0 70 -11 101t-39 58.5t-60.5 37.5t-110.5 10h-167v-456q0 -70 6 -85t21.5 -22t81.5 -7h209q175 0 273.5 42t174.5 129q59 68 112 192l91 -32l-155 -437h-1001v220q-50 -69 -98 -107q-84 -68 -182.5 -102.5t-225.5 -34.5 q-207 0 -355 86q-162 95 -254 258.5t-92 369.5q0 213 92 378.5t253 258t364 92.5q178 0 316 -74q97 -52 182 -155v205h958z"/>
<glyph glyph-name="oe" horiz-adv-x="1843" unicode="œ" d="M576 894q-80 0 -148.5 -46.5t-109 -141t-40.5 -230.5q0 -135 39 -227t103.5 -135.5t151.5 -43.5q129 0 215 108t86 306q0 216 -101 325q-79 85 -196 85zM1580 665q-10 104 -77 168t-160 64q-104 0 -183 -76q-56 -54 -88 -156h508zM1710 261l63 -50q-168 -235 -435 -235 q-88 0 -152.5 23t-119.5 70.5t-99 122.5q-49 -79 -104.5 -123t-132 -68.5t-167.5 -24.5q-214 0 -346.5 137.5t-132.5 366.5q0 232 135.5 370.5t358.5 138.5q104 0 183 -28.5t137 -81.5q34 -30 69 -87q139 197 378 197q133 0 231 -57.5t150 -168.5q38 -82 39 -191h-707 q-5 -56 -5 -84q0 -115 46.5 -211.5t121 -145.5t155.5 -49q170 0 334 179z"/>
<glyph glyph-name="Scaron" horiz-adv-x="1352" unicode="Š" d="M1036 1395h72l107 -430l-92 -28q-88 181 -234 285q-120 87 -266 87q-88 0 -158 -31.5t-105 -81.5t-35 -102q0 -47 27 -91t82 -77.5t180 -70.5l261 -77q48 -14 139.5 -54t142.5 -84.5t80 -109t29 -139.5q0 -166 -145.5 -290.5t-376.5 -124.5q-119 0 -213 34.5t-203 122.5 l-46 -133h-70l-93 501l93 19q51 -139 135.5 -236t187 -146.5t208.5 -49.5q144 0 252 87q90 73 90 172q0 91 -65 149q-66 58 -236 108l-250 72q-210 61 -296 156t-86 218q0 96 56 177.5t172 136.5t254 55q116 0 222 -40q75 -28 138 -80zM675 1466l-290 191l27 51l263 -93 l264 93l27 -51z"/>
<glyph glyph-name="scaron" horiz-adv-x="1065" unicode="š" d="M751 965h70l90 -306l-90 -30q-54 123 -151.5 193.5t-197.5 70.5q-77 0 -125 -37.5t-48 -86.5q0 -46 35 -79q34 -34 153 -77l195 -69q165 -59 225 -126q59 -68 59 -154q0 -73 -44 -140.5t-127.5 -107.5t-191.5 -40q-168 0 -288 96l-21 -72h-71l-125 327l91 36 q91 -144 172 -204q113 -85 244 -85q87 0 143 46.5t56 103.5q0 47 -35 86q-36 38 -138 74l-231 84q-149 54 -207 118t-58 147q0 101 94.5 178.5t240.5 77.5q76 0 136 -19.5t118 -64.5zM532 1134l-290 191l27 51l263 -93l264 93l27 -51z"/>
<glyph glyph-name="Ydieresis" horiz-adv-x="1311" unicode="Ÿ" d="M5 1395h522v-85h-59q-54 0 -69.5 -10t-15.5 -33q0 -20 19 -54q5 -8 13 -23l272 -504l301 523q18 32 21.5 41.5t3.5 19.5q0 14 -7.5 23.5t-23.5 14.5q-10 2 -56 2h-52v85h431v-85h-12q-49 0 -73 -7q-28 -8 -45 -24.5t-49 -69.5l-378 -630v-351q0 -77 12.5 -100t39.5 -33.5 t126 -10.5v-84h-545v84h42q67 0 89.5 12t35.5 39q9 19 9 93v314l-369 656q-44 79 -73.5 94.5t-109.5 17.5v85zM822 1709q50 0 86 -36t36 -87q0 -50 -36 -86t-86 -36q-51 0 -86.5 36t-35.5 86q0 51 35.5 87t86.5 36zM488 1709q50 0 86 -36t36 -87q0 -50 -36 -86t-86 -36 t-86 36t-36 86q0 51 35.5 87t86.5 36z"/>
<glyph glyph-name="circumflex" horiz-adv-x="860" unicode="ˆ" d="M429 1404l291 -191l-27 -51l-264 93l-263 -93l-27 51z"/>
<glyph glyph-name="caron" horiz-adv-x="860" unicode="ˇ" d="M429 1134l-290 191l27 51l263 -93l264 93l27 -51z"/>
<glyph glyph-name="ring" horiz-adv-x="655" unicode="˚" d="M327 1429q-49 0 -83.5 -35t-34.5 -84q0 -50 34.5 -85t83.5 -35t84 35t35 85q0 49 -35 84t-84 35zM327 1499q79 0 134 -55.5t55 -133.5q0 -79 -55.5 -134.5t-133.5 -55.5t-133 55.5t-55 134.5q0 78 55 133.5t133 55.5z"/>
<glyph glyph-name="tilde" horiz-adv-x="901" unicode="˜" d="M766 1325q-17 -66 -74.5 -110t-128.5 -44q-23 0 -42 4t-90 26q-109 34 -155 34q-44 0 -81 -41l-59 20q19 63 68.5 101.5t108.5 38.5q60 0 194 -38q66 -18 101 -18q64 0 98 45z"/>
<glyph glyph-name="Alpha" horiz-adv-x="1393" unicode="Α" d="M441 615h431l-216 600zM616 1395h165l433 -1166q32 -88 64.5 -116.5t87.5 -28.5h22v-84h-497v84q24 2 47 2q48 0 63 10q29 19 29 48q0 21 -28 103l-92 270h-506l-108 -302q-17 -47 -17 -65q0 -20 10.5 -35t28.5 -22.5t58 -7.5q27 0 44 -1v-84h-417v84q58 0 83.5 11.5 t44.5 37t50 107.5z"/>
<glyph glyph-name="Beta" horiz-adv-x="1515" unicode="Β" d="M446 677v-458q0 -69 6 -82q8 -18 32 -25q17 -5 96 -5h136q202 0 288.5 22.5t147.5 95t61 174.5q0 86 -49.5 152.5t-137 96t-310.5 29.5h-270zM446 1284v-511h255q179 0 245 17q103 27 157.5 92t54.5 167q0 86 -49.5 143.5t-132.5 78.5q-54 13 -224 13h-306zM83 1395h663 q243 0 333 -22q133 -32 210.5 -116t77.5 -202q0 -85 -41 -152.5t-119 -115.5q-50 -31 -136 -53q109 -20 166 -48q86 -42 136 -120t50 -176q0 -95 -49 -176t-138.5 -133t-208.5 -66.5t-245 -14.5h-699v84h47q68 0 93 21q36 29 36 96v969q0 68 -11 93t-33 36t-85 11h-47v85z "/>
<glyph glyph-name="Gamma" horiz-adv-x="1188" unicode="Γ" d="M111 1395h978l129 -366l-87 -33q-75 174 -163 231t-288 57h-212v-1068q0 -81 28 -106.5t109 -25.5h37v-84h-531v84h34q84 0 110 27.5t26 114.5v949q0 90 -27.5 112.5t-95.5 22.5h-47v85z"/>
<glyph glyph-name="Delta" horiz-adv-x="1229" unicode="Δ" d="M148 106h855l-429 1109zM535 1395h164l511 -1311v-84h-1192v84z"/>
<glyph glyph-name="Epsilon" horiz-adv-x="1475" unicode="Ε" d="M98 1395h1134l131 -367l-88 -33q-33 90 -72 141.5t-93.5 87.5t-110 48t-200.5 12h-338v-511h168q93 0 140.5 31.5t65.5 78.5q14 35 14 122v23h98v-612h-98v53q0 70 -10.5 101t-38.5 58.5t-60.5 37.5t-110.5 10h-168v-454q0 -71 6.5 -86.5t21.5 -22.5t82 -7h209 q175 0 273.5 42t173.5 129q59 68 113 192l91 -32l-156 -437h-1177v84h40q70 0 87 9q26 13 40 42q10 20 10 87v960q0 65 -13 87t-45 34q-17 7 -119 7v85z"/>
<glyph glyph-name="Zeta" horiz-adv-x="1311" unicode="Ζ" d="M245 1395h971v-85l-911 -1202h335q228 0 347.5 76.5t213.5 279.5l92 -31l-161 -433h-1079v84l913 1203h-290q-146 0 -231 -28t-149 -87.5t-134 -186.5l-86 42z"/>
<glyph glyph-name="Eta" horiz-adv-x="1638" unicode="Η" d="M97 1395h538v-85h-37q-64 0 -91.5 -12t-38.5 -42q-9 -22 -9 -93v-389h723v379q0 77 -5 93q-8 32 -34.5 48t-80.5 16h-55v85h534v-85h-48q-56 0 -79.5 -12.5t-33 -34t-9.5 -92.5v-950q0 -79 10 -100.5t40 -30.5q18 -6 120 -6v-84h-534v84h39q74 0 98.5 10t31.5 32 q6 17 6 107v433h-723v-445q0 -79 10.5 -101t40.5 -30q22 -6 125 -6v-84h-538v84h34q78 0 97.5 8.5t31 32.5t11.5 85v961q0 65 -10.5 90t-33 37t-74.5 12h-56v85z"/>
<glyph glyph-name="Theta" horiz-adv-x="1638" unicode="Θ" d="M501 1004h97v-41q0 -106 50 -134.5t122 -28.5h97q68 0 120.5 28t52.5 135v41h97v-564h-97v71q0 76 -37.5 107t-135.5 31h-97q-83 0 -127.5 -33.5t-44.5 -131.5v-44h-97v564zM839 1311q-191 0 -306 -99.5t-162 -231t-47 -294.5q0 -281 141.5 -445.5t355.5 -164.5 q233 0 363 186.5t130 442.5q0 238 -112 422t-363 184zM837 1419q282 0 487.5 -200t205.5 -515q0 -321 -200 -524.5t-510 -203.5q-320 0 -516.5 209t-196.5 511q0 210 99.5 380.5t274 256.5t356.5 86z"/>
<glyph glyph-name="Iota" horiz-adv-x="696" unicode="Ι" d="M81 1395h534v-85h-41q-58 0 -84 -16t-38 -45.5t-12 -114.5v-899q0 -68 13 -96.5t36.5 -41.5t84.5 -13h41v-84h-534v84h44q59 0 83.5 13.5t35.5 39t11 98.5v920q0 77 -11 103.5t-35.5 39t-83.5 12.5h-44v85z"/>
<glyph glyph-name="Kappa" horiz-adv-x="1475" unicode="Κ" d="M103 1395h538v-85h-38q-66 0 -93 -16t-38 -50q-9 -25 -9 -82v-527l524 555q41 44 48.5 57t7.5 27q0 18 -17.5 27t-75.5 9h-32v85h500v-85h-8q-54 0 -99 -13q-48 -14 -76 -35q-61 -45 -87 -72l-374 -383l427 -566q58 -77 92 -105.5t70 -40t112 -11.5v-84h-592v84h35 q59 0 70 3q17 4 27 16t10 25q0 26 -69 119l-315 428l-178 -184v-267q0 -69 14 -94t43 -37q23 -9 121 -9v-84h-538v84h42q63 0 86 12.5t35.5 41.5t12.5 103v921q0 73 -12 99.5t-35 37.5t-98 11h-31v85z"/>
<glyph glyph-name="Lambda" horiz-adv-x="1393" unicode="Λ" d="M657 1215l-360 -1000q-17 -47 -17 -65q0 -27 16.5 -43.5t30.5 -18.5t94 -4v-84h-417v84q82 0 111 27.5t67 128.5l435 1155h165l433 -1166q30 -82 61.5 -113.5t89.5 -31.5h23v-84h-497v84q21 2 63 2q76 1 76 58q0 25 -28 103z"/>
<glyph glyph-name="Mu" horiz-adv-x="1884" unicode="Μ" d="M96 1395h441l412 -1105l401 1105h426v-85h-36q-65 0 -87.5 -11t-35.5 -38.5t-13 -90.5v-920q0 -87 10.5 -113t35 -39.5t90.5 -13.5h36v-84h-533v84h38q51 0 74.5 8t39 26.5t17.5 38.5q5 41 5 64v1027l-455 -1248h-99l-459 1230v-989q0 -75 13 -101.5t40.5 -41t98.5 -14.5 h32v-84h-492v84h28q71 0 101.5 15t43.5 42.5t13 108.5v911q0 76 -11 100.5t-36.5 36.5t-90.5 12h-48v85z"/>
<glyph glyph-name="Nu" horiz-adv-x="1515" unicode="Ν" d="M88 1395h428l635 -1046v796q0 71 -14 102t-42 47t-83 16h-36v85h467v-85h-25q-62 0 -84 -10q-31 -14 -46.5 -51t-15.5 -104v-1145h-121l-765 1257v-996q0 -83 5 -101q7 -23 25.5 -42t43.5 -26t101 -8v-84h-473v84h25q72 0 97.5 14t39.5 48t14 115v884q0 83 -4 101 q-9 34 -34.5 49t-101.5 15h-36v85z"/>
<glyph glyph-name="Xi" horiz-adv-x="1468" unicode="Ξ" d="M41 469l91 32q52 -127 113.5 -194.5t145.5 -112t265 -44.5h157q140 0 222 26t163 102.5t139 222.5l91 -32l-119 -469h-1149zM393 1028h97v-23q0 -131 55.5 -168t140.5 -37h97q81 0 128 27.5t58 65.5t11 112v23h97v-612h-97v53q0 120 -57.5 150t-139.5 30h-97 q-110 0 -153 -50t-43 -157v-26h-97v612zM197 966l-88 33l95 396h1062l94 -396l-87 -33q-41 122 -109.5 185t-126.5 78t-204 15h-197q-149 0 -217.5 -21.5t-126 -85t-95.5 -171.5z"/>
<glyph glyph-name="Omicron" horiz-adv-x="1638" unicode="Ο" d="M839 1311q-156 0 -268 -71.5t-179.5 -210.5t-67.5 -343q0 -195 66.5 -330.5t178.5 -207.5t252 -72q139 0 246 70.5t177 222t70 336.5q0 188 -70 344q-60 134 -159 198t-246 64zM839 1419q191 0 345 -92q167 -99 256.5 -257t89.5 -366q0 -322 -200 -525t-510 -203 q-346 0 -548 244q-165 199 -165 476q0 206 93 369.5t264 258.5t375 95z"/>
<glyph glyph-name="Pi" horiz-adv-x="1618" unicode="Π" d="M1161 1287h-702v-1066q0 -94 21.5 -115t117.5 -21h37v-85h-538v85h34q89 0 114.5 18.5t25.5 106.5v961q0 87 -24 113t-94 26h-56v85h1423v-85h-48q-75 0 -98 -27t-23 -112v-950q0 -95 21 -115.5t118 -20.5h30v-85h-533v85h39q74 0 98 9t30.5 29t6.5 110v1054z"/>
<glyph glyph-name="Rho" d="M457 1286v-585h215q163 0 228.5 29t108.5 100.5t43 167.5q0 105 -50 175.5t-136 95.5q-60 17 -234 17h-175zM92 1395h551q251 0 346 -32q119 -38 196.5 -130t77.5 -234q0 -121 -59 -209q-71 -106 -172.5 -150.5t-319.5 -44.5h-255v-358q0 -80 9 -101q12 -29 33 -40.5 t85 -11.5h48v-84h-540v84h33q69 0 94 11.5t36.5 36t11.5 92.5v954q0 66 -10.5 88.5t-35 33t-96.5 10.5h-33v85z" unicode="Ρ"/>
<glyph glyph-name="Sigma" horiz-adv-x="1311" unicode="Σ" d="M683 753l-437 -603h394q243 0 360.5 82t200.5 263l92 -32l-160 -463h-1092v84l463 633l-439 593v85h927l169 -368l-86 -42q-89 167 -194 234.5t-319 67.5h-278z"/>
<glyph glyph-name="Tau" d="M125 1442h70l10 -47h856l8 47h73l147 -410l-90 -32q-65 164 -154 230.5t-228 66.5q-58 0 -69 -4.5t-15.5 -15.5t-4.5 -70v-968q0 -69 7.5 -93t21.5 -37t38.5 -18.5t109.5 -6.5v-84h-538v84q89 1 109 6q35 10 50 38t15 103v989q0 46 -4.5 56t-17 15.5t-51.5 5.5 q-109 0 -174.5 -28t-123.5 -95t-99 -174l-90 32z" unicode="Τ"/>
<glyph glyph-name="Upsilon" horiz-adv-x="1311" unicode="Υ" d="M5 1395h522v-85h-59q-54 0 -69.5 -10t-15.5 -33q0 -20 19 -54q5 -8 13 -23l272 -504l301 523q18 32 21.5 41.5t3.5 19.5q0 14 -7.5 23.5t-23.5 14.5q-10 2 -56 2h-52v85h431v-85h-12q-49 0 -73 -7q-28 -8 -45 -24.5t-49 -69.5l-378 -630v-351q0 -77 12.5 -100t39.5 -33.5 t126 -10.5v-84h-545v84h42q67 0 89.5 12t35.5 39q9 19 9 93v314l-369 656q-44 79 -73.5 94.5t-109.5 17.5v85z"/>
<glyph glyph-name="Phi" horiz-adv-x="1651" unicode="Φ" d="M730 358v678q-290 -9 -380.5 -96.5t-90.5 -248.5q0 -160 96.5 -243t374.5 -90zM920 358q282 2 376.5 86.5t94.5 253.5q0 165 -94 250t-377 88v-678zM730 1142v35q0 85 -24.5 109t-117.5 24h-33v85h540v-85h-33q-93 0 -117.5 -24t-24.5 -109v-35q410 -7 546 -129.5 t136 -321.5q0 -206 -147 -322t-535 -116v-36q0 -85 24.5 -109t117.5 -24h33v-84h-540v84h33q93 0 117.5 24.5t24.5 108.5v36q-418 11 -550 130.5t-132 313.5q0 197 133 315t549 130z"/>
<glyph glyph-name="Chi" horiz-adv-x="1475" unicode="Χ" d="M66 1395h533v-85h-42q-60 0 -76 -8t-16 -26q0 -12 6 -24t36 -52l261 -356l285 356q40 50 40 76q0 16 -15.5 25t-65.5 9h-51v85h453v-85q-81 0 -116.5 -17t-98.5 -93l-364 -437l429 -563q41 -54 69 -76.5t54 -31t86 -8.5v-84h-535v84h42q62 0 78.5 8.5t16.5 27.5 q0 11 -6 23q-2 5 -40 57l-319 426l-349 -439q-32 -39 -36 -48q-6 -11 -6 -21q0 -19 23 -28q15 -6 71 -6h42v-84h-452v84q62 0 90.5 8.5t57.5 30.5t74 77l421 507l-374 493q-56 74 -91.5 92t-114.5 18v85z"/>
<glyph glyph-name="Psi" horiz-adv-x="1798" unicode="Ψ" d="M668 1310v85h459v-85q-78 0 -105.5 -19.5t-27.5 -119.5v-594h86q148 0 216 46t91 130.5t23 276.5v365h362v-85h-56q-71 0 -94.5 -28t-23.5 -111v-141q0 -268 -34 -348t-135.5 -146.5t-307.5 -66.5h-127v-248q0 -95 21 -115.5t118 -20.5h30v-85h-532v85h39q74 0 98 9 t30.5 29t6.5 110v236h-127q-207 0 -309.5 66t-135 159.5t-32.5 335.5v141q0 87 -24 113t-94 26h-56v85h362v-365q0 -223 22 -283.5t81.5 -115t226.5 -54.5h86v576q0 82 -9 107.5t-37 37.5t-91 12z"/>
<glyph glyph-name="alpha" d="M865 242v358q0 143 -89.5 211.5t-184.5 68.5q-134 0 -225 -106t-91 -295q0 -179 83 -282.5t192 -103.5q153 0 315 149zM1038 965v-711q0 -84 7.5 -112.5t31.5 -43t92 -14.5h43v-84l-347 -16v159q-176 -167 -363 -167q-182 0 -301 145.5t-119 350.5q0 216 131 366.5 t328 150.5q189 0 324 -152l64 128h109z" unicode="α"/>
<glyph glyph-name="beta" horiz-adv-x="1255" unicode="β" d="M500 801q124 8 179.5 30.5t90 90t34.5 184.5q0 271 -228 271q-88 0 -147 -52t-75 -122.5t-16 -213.5v-525q0 -208 89.5 -295.5t228.5 -87.5q283 0 283 311q0 120 -40.5 185.5t-119 94t-279.5 28.5v101zM338 122v-568h-167v1411q0 169 34 261t139.5 166.5t258.5 74.5 q173 0 285 -89.5t112 -249.5q0 -232 -231 -356q366 -51 366 -370q0 -182 -120.5 -304t-340.5 -122q-224 0 -336 146z"/>
<glyph glyph-name="gamma" horiz-adv-x="1030" unicode="γ" d="M629 -13q33 -149 33 -244q0 -214 -127 -214q-44 0 -77 34t-33 110q0 78 67 244l-326 832q-29 74 -63 96t-109 22v84l289 15l304 -847l169 392q51 117 51 173q0 27 -19 61q-45 77 -45 127q0 60 35 88.5t82 28.5q56 0 95 -36t39 -107q0 -63 -27 -134t-107 -239z"/>
<glyph glyph-name="delta" horiz-adv-x="1147" unicode="δ" d="M574 892q-118 0 -207 -102t-89 -314q0 -196 78 -303t216 -107q144 0 222 117.5t78 302.5q0 189 -81 297.5t-217 108.5zM429 949q-241 70 -241 230q0 114 103 201t294 87q152 0 252 -57t100 -132q0 -35 -23.5 -62t-64.5 -27t-64.5 18t-52.5 67q-28 48 -62 69.5t-93 21.5 q-81 0 -138.5 -51.5t-57.5 -130.5q0 -78 51.5 -116t173.5 -68q190 -45 273 -98t134.5 -166t51.5 -252q0 -221 -132.5 -364t-363.5 -143q-245 0 -366 151.5t-121 348.5q0 322 347 473z"/>
<glyph glyph-name="epsilon" horiz-adv-x="963" unicode="ε" d="M618 537v-84h-32q-180 0 -247 -49t-67 -139q0 -85 64.5 -136.5t184.5 -51.5q225 0 380 204l64 -52q-103 -140 -211 -196.5t-265 -56.5q-197 0 -303.5 78t-106.5 200q0 197 276 253q-149 46 -197 100.5t-48 128.5q0 107 95.5 180t272.5 73q160 0 260 -56t100 -130 q0 -35 -23.5 -62t-65.5 -27q-40 0 -63 17t-54 66t-62.5 70t-88.5 21q-89 0 -137 -45.5t-48 -119.5q0 -75 58 -130.5t235 -55.5h29z"/>
<glyph glyph-name="zeta" horiz-adv-x="780" unicode="ζ" d="M552 1267q-79 -18 -184 -18q-303 0 -303 132q0 36 26 61t74 25q60 0 123 -43q89 -61 186 -61q173 0 371 80l8 -24l-38 -61q-244 -164 -403 -423.5t-159 -456.5q0 -96 43 -141t197 -116q160 -74 223 -110.5t96 -89.5t33 -131q0 -152 -111.5 -256t-302.5 -104 q-125 0 -208 39.5t-83 100.5q0 83 91 83q49 0 91 -53q46 -58 129 -58q92 0 150 53.5t58 145.5q0 75 -47.5 113.5t-211.5 111.5q-152 68 -213 111.5t-95.5 113.5t-34.5 156q0 164 118 375t377 445z"/>
<glyph glyph-name="eta" horiz-adv-x="1296" unicode="η" d="M75 821v84q136 11 260 84h70v-190q218 190 415 190q107 0 180.5 -46t100.5 -107t27 -168v-1114h-169v1051q0 110 -17 155t-62.5 73.5t-115.5 28.5q-175 0 -350 -164v-461q0 -70 9.5 -99t33.5 -41.5t102 -12.5h28v-84h-512v84h25q73 0 100 12.5t36 36t9 118.5v570h-170z "/>
<glyph glyph-name="theta" horiz-adv-x="1178" unicode="θ" d="M273 690q1 -319 89.5 -466.5t221.5 -147.5q128 0 220.5 138.5t97.5 475.5h-629zM900 798q-32 571 -313 571q-123 0 -207 -134.5t-103 -436.5h623zM591 1467q243 0 374 -217t131 -559q0 -334 -145 -524.5t-372 -190.5q-212 0 -354.5 185.5t-142.5 536.5q0 384 145.5 576.5 t363.5 192.5z"/>
<glyph glyph-name="iota" horiz-adv-x="655" unicode="ι" d="M252 821h-173v83q144 15 268 85h73l-1 -727q0 -113 21.5 -149t80.5 -36q42 0 103 37v-98q-75 -40 -154 -40q-78 0 -131 32t-70 80.5t-17 161.5v571z"/>
<glyph glyph-name="kappa" d="M60 824v81q126 8 265 84h77v-520l367 292q87 69 87 94q0 26 -77 26h-53v84h507v-84q-85 0 -135 -17t-119 -69l-290 -221l342 -374q70 -77 114 -96.5t125 -19.5v-84h-290l-415 483l-163 -125v-131q0 -95 26 -119t110 -24h37v-84h-515v84q87 1 114.5 9.5t43 36.5t15.5 108 v586h-173z" unicode="κ"/>
<glyph glyph-name="lambda" horiz-adv-x="1106" unicode="λ" d="M340 1297h-219v86q166 19 264 84h76l440 -1233q30 -83 63.5 -116t98.5 -34v-84h-459v84h28q63 0 86.5 11t23.5 38q0 28 -21 86l-203 565l-236 -542q-30 -69 -30 -109q0 -49 92 -49h48v-84h-395v84q64 3 91 24.5t81 135.5l309 646z"/>
<glyph glyph-name="mu" horiz-adv-x="1393" unicode="μ" d="M396 24v-470h-167v1188q0 90 -30.5 114.5t-109.5 24.5h-69v84l379 15v-644q0 -240 209 -240q177 0 384 171v466q0 81 -11 99.5t-37.5 33.5t-89.5 15h-73v84l379 15v-746q0 -92 22.5 -121t119.5 -29h31v-84l-332 -17v185q-236 -192 -437 -192q-88 0 -168 48z"/>
<glyph glyph-name="nu" horiz-adv-x="1030" unicode="ν" d="M-6 881v84l289 15l304 -803l169 358q51 106 51 165q0 25 -19 59q-45 77 -45 126q0 54 35 79t82 25q55 0 94.5 -32t39.5 -98q0 -51 -20 -114.5t-114 -247.5l-253 -497h-120l-321 763q-32 75 -64.5 96.5t-107.5 21.5z"/>
<glyph glyph-name="xi" horiz-adv-x="860" unicode="ξ" d="M469 901q-202 54 -268.5 117.5t-66.5 155.5q0 126 112 209.5t300 83.5q128 0 226.5 -36t98.5 -94q0 -30 -22.5 -58.5t-66.5 -28.5q-52 0 -91 44q-59 65 -163 65q-100 0 -160 -56.5t-60 -135.5q0 -93 86.5 -144t249.5 -82q126 -24 159 -40.5t33 -58.5q0 -32 -21 -54 t-53 -22q-26 0 -69 21q-80 41 -152 41q-133 0 -210 -96t-77 -226q0 -108 53 -167t190 -126q224 -102 286 -158t62 -165q0 -152 -111.5 -256t-302.5 -104q-125 0 -208 39.5t-83 100.5q0 83 91 83q50 0 91 -53q47 -58 129 -58q93 0 150.5 54t57.5 142q0 70 -37.5 105 t-160.5 92q-174 81 -247.5 129.5t-119 124.5t-45.5 173q0 144 103.5 271.5t316.5 167.5z"/>
<glyph glyph-name="omicron" horiz-adv-x="1147" unicode="ο" d="M571 892q-114 0 -193 -90q-100 -112 -100 -326q0 -206 85 -314q77 -96 209 -96q85 0 151.5 45t107.5 143.5t41 231.5q0 130 -44 233q-34 82 -102.5 127.5t-154.5 45.5zM579 989q147 0 254.5 -61t169.5 -178t62 -267t-63.5 -267t-173 -178.5t-261.5 -61.5 q-242 0 -363.5 151t-121.5 355q0 149 63 264.5t176.5 179t257.5 63.5z"/>
<glyph glyph-name="pi" horiz-adv-x="1372" unicode="π" d="M71 865v100h1227v-100h-62q-72 0 -90 -20.5t-18 -109.5v-481q0 -107 21.5 -142t80.5 -35q41 0 102 37v-98q-75 -40 -155 -40q-83 0 -133 32t-67.5 81t-17.5 172v488q0 76 -19 96t-90 20h-328q-72 0 -90 -20.5t-18 -109.5v-534q0 -77 19 -97t90 -20h65v-84h-513v84h62 q72 0 90 21t18 109v535q0 76 -19.5 96t-89.5 20h-65z"/>
<glyph glyph-name="rho" horiz-adv-x="1186" unicode="ρ" d="M613 892q-118 0 -207 -102t-89 -314q0 -196 78 -303t216 -107q144 0 222 117.5t78 302.5q0 189 -81 297.5t-217 108.5zM288 -446h-167v785q0 231 37 350.5t161 209.5t299 90q236 0 361 -146.5t125 -359.5q0 -221 -132.5 -364t-362.5 -143q-216 0 -321 140v-562z"/>
<glyph glyph-name="sigma1" horiz-adv-x="989" unicode="ς" d="M893 -109q0 -155 -129 -258.5t-341 -103.5q-122 0 -208.5 38.5t-86.5 102.5q0 83 91 83q49 0 91 -53q46 -58 133 -58q111 0 187.5 53t76.5 145q0 51 -29.5 87.5t-119.5 75.5q-237 103 -326.5 154t-139 128t-49.5 185q0 210 140 364.5t380 154.5q171 0 285 -81t114 -162 q0 -41 -23 -68.5t-64 -27.5q-36 0 -58.5 19t-49.5 70q-28 55 -52 82.5t-75 51t-106 23.5q-133 0 -213.5 -121t-80.5 -285q0 -121 82.5 -183.5t261 -130.5t244 -127.5t65.5 -157.5z"/>
<glyph glyph-name="sigma" horiz-adv-x="1165" unicode="σ" d="M574 892q-118 0 -207 -102t-89 -314q0 -196 78 -303t216 -107q144 0 222 117.5t78 302.5q0 189 -81 297.5t-217 108.5zM734 965h431v-100h-283q183 -149 183 -391q0 -207 -131 -352.5t-365 -145.5q-242 0 -364.5 150t-122.5 356q0 225 138.5 366t358.5 141q72 0 155 -24z "/>
<glyph glyph-name="tau" horiz-adv-x="821" unicode="τ" d="M449 865v-603q0 -112 27 -148.5t106 -36.5q85 0 209 85v-97q-127 -89 -260 -89q-90 0 -150 32t-80 80t-20 162v615h-275v100h752v-100h-309z"/>
<glyph glyph-name="upsilon" horiz-adv-x="1257" unicode="υ" d="M19 881v84l379 15v-524q0 -216 72 -285t199 -69q83 0 148 32.5t95.5 100.5t30.5 221v286q0 87 -26.5 113t-113.5 26h-69v84l379 15v-472q0 -199 -32.5 -302t-130 -166.5t-265.5 -63.5q-191 0 -288.5 59t-133 157.5t-35.5 315.5v234q0 84 -28.5 111.5t-111.5 27.5h-69z "/>
<glyph glyph-name="phi" horiz-adv-x="1393" unicode="φ" d="M781 77q176 2 258.5 96t82.5 368q0 156 -45.5 251t-136.5 95q-71 0 -115 -53.5t-44 -276.5v-480zM612 -24q-234 3 -336.5 72t-149.5 188t-47 257q0 245 137 370t364 126v-98q-308 -9 -308 -406q0 -203 72 -305t268 -103v467q0 164 24.5 250t103.5 140.5t201 54.5 q179 0 276 -122t97 -336q0 -263 -117 -407.5t-416 -147.5v-422h-169v422z"/>
<glyph glyph-name="chi" horiz-adv-x="1212" unicode="χ" d="M27 965l298 15l308 -387l157 175q46 52 46 75q0 38 -85 38h-20v84h427v-84q-75 -2 -121 -24.5t-113 -88.5l-239 -234l295 -329q77 -86 108 -103.5t99 -17.5v-84h-280l-331 423l-200 -218q-57 -62 -57 -89q0 -32 68 -32h40v-84h-403v84q76 0 110 21t154 144l228 230 l-252 289q-72 82 -110 97.5t-127 15.5v84z"/>
<glyph glyph-name="psi" horiz-adv-x="1571" unicode="ψ" d="M715 965h170v-881q164 2 233.5 42t94.5 127t25 321v196q0 73 -19 92t-96 19h-40v84l324 15v-406q0 -248 -37.5 -364t-145 -172.5t-339.5 -61.5v-422h-170v422q-195 4 -292.5 41.5t-149 106.5t-66.5 162t-15 288v204q0 63 -15 83t-79 20h-59v84l323 15v-406 q0 -238 26.5 -322.5t97 -122.5t229.5 -45v881z"/>
<glyph glyph-name="endash" horiz-adv-x="1024" unicode="–" d="M1036 592v-117h-1048v117h1048z"/>
<glyph glyph-name="emdash" horiz-adv-x="2048" unicode="—" d="M2060 592v-117h-2072v117h2072z"/>
<glyph glyph-name="quoteleft" horiz-adv-x="451" unicode="‘" d="M434 1467l54 -66q-205 -167 -205 -279q0 -13 2 -32q18 8 34 11.5t30 3.5q47 0 76.5 -31t29.5 -79q0 -47 -35.5 -82t-84.5 -35q-67 0 -116 54.5t-49 140.5q0 56 23 117.5t67 114t174 162.5z"/>
<glyph glyph-name="quotesinglbase" horiz-adv-x="451" unicode="‚" d="M221 -362l-54 66q205 167 205 279q0 13 -2 32q-17 -7 -33 -11t-30 -4q-48 0 -77 31t-29 79q0 47 35 82t84 35q68 0 116.5 -54.5t48.5 -140.5q0 -56 -23 -117.5t-67 -114t-174 -162.5z"/>
<glyph glyph-name="quotedblleft" horiz-adv-x="819" unicode="“" d="M338 1467l54 -66q-205 -167 -205 -279q0 -13 2 -32q18 8 34 11.5t30 3.5q47 0 76.5 -31t29.5 -79q0 -47 -35.5 -82t-84.5 -35q-67 0 -116 54.5t-49 140.5q0 56 23 117.5t67 114t174 162.5zM695 1467l54 -66q-205 -167 -205 -279q0 -13 2 -32q18 8 34 11.5t30 3.5 q47 0 76 -31t29 -79q0 -47 -35 -82t-84 -35q-67 0 -116 54.5t-49 140.5q0 56 23 117.5t67 114t174 162.5z"/>
<glyph glyph-name="quotedblright" horiz-adv-x="819" unicode="”" d="M481 878l-54 66q205 167 205 279q0 13 -2 32q-17 -7 -33 -11t-31 -4q-47 0 -76 31t-29 79q0 47 35 82t84 35q68 0 116.5 -54.5t48.5 -140.5q0 -56 -23 -117.5t-67 -114t-174 -162.5zM124 878l-54 66q205 167 205 279q0 13 -2 32q-17 -7 -33 -11t-30 -4q-48 0 -77 31 t-29 79q0 47 35 82t84 35q68 0 116.5 -54.5t48.5 -140.5q0 -56 -23 -117.5t-67 -114t-174 -162.5z"/>
<glyph glyph-name="dagger" horiz-adv-x="1106" unicode="†" d="M601 -333h-94v417q0 344 -87 542q53 77 65.5 102t36.5 104l-158 -44q-71 -20 -113 -20q-43 0 -66.5 26.5t-23.5 75.5q0 43 26.5 68t72.5 25q22 0 42 -4q7 -1 45 -13l175 -46q-8 67 -18 117t-38 152q-19 71 -22 90q-5 28 -5 56q0 48 30 76t84 28q55 0 85 -28.5t30 -79.5 t-33 -176l-26 -103l-25 -132l164 46q61 17 102 17q40 0 68 -27.5t28 -67.5q0 -45 -24.5 -72t-65.5 -27q-47 0 -116 19l-156 44q14 -60 29 -93q10 -22 65 -113q-77 -229 -77 -542v-417z"/>
<glyph glyph-name="daggerdbl" horiz-adv-x="1106" unicode="‡" d="M435 543q40 61 57.5 114.5t31.5 167.5l-183 -51q-44 -12 -80 -12q-51 0 -75 23.5t-24 69.5q0 37 11 58t30 29q32 15 65 15q27 0 60 -9l196 -53q-20 135 -54 260q-31 112 -31 151q0 55 29 84t85 29t85.5 -28.5t29.5 -83.5q0 -23 -5 -51.5t-34 -140.5q-40 -175 -46 -220 l196 53q33 9 65 9q48 0 74 -24.5t26 -69.5q0 -52 -23 -76.5t-68 -24.5q-43 0 -87 12l-183 51q12 -104 28 -158.5t53 -123.5q-37 -70 -53 -125t-28 -158l183 51q41 11 78 11q53 0 76.5 -23t23.5 -69q0 -37 -11 -58t-29 -29q-32 -15 -66 -15q-26 0 -59 9l-196 53 q11 -88 56 -260q29 -112 29 -151q0 -54 -29.5 -83t-83.5 -29q-58 0 -87 28t-29 82q0 42 31 153q14 51 27 116q21 99 27 144l-196 -53q-33 -9 -65 -9q-48 0 -74.5 25t-26.5 69q0 53 23.5 77.5t69.5 24.5q37 0 86 -13l183 -51q-18 123 -34.5 173.5t-54.5 109.5z"/>
<glyph glyph-name="ellipsis" horiz-adv-x="2048" unicode="…" d="M341 233q53 0 89.5 -36.5t36.5 -88.5t-37 -88.5t-89 -36.5q-51 0 -88 36.5t-37 88.5t36.5 88.5t88.5 36.5zM1024 236q52 0 89 -37t37 -89q0 -53 -37 -90t-89 -37t-88.5 37t-36.5 89t38 89.5t87 37.5zM1707 236q52 0 88.5 -37t36.5 -89q0 -53 -37 -90t-88 -37 q-52 0 -89 37t-37 89t38.5 89.5t87.5 37.5z"/>
<glyph glyph-name="perthousand" horiz-adv-x="2621" unicode="‰" d="M2223 663q-52 0 -92.5 -30.5t-68 -108t-27.5 -181.5q0 -102 25.5 -170.5t68 -100.5t92.5 -32q51 0 94.5 32.5t69.5 103t26 175.5q0 141 -47 226.5t-141 85.5zM2226 726q147 0 231 -95q92 -104 92 -286q0 -170 -92.5 -269.5t-238.5 -99.5q-154 0 -244 116q-75 97 -75 260 q0 179 89.5 276.5t237.5 97.5zM1385 663q-53 0 -93 -30.5t-67.5 -108t-27.5 -181.5q0 -102 25.5 -170.5t67.5 -100.5t92 -32q51 0 95 32.5t70 103t26 175.5q0 141 -47.5 226.5t-140.5 85.5zM1387 726q148 0 231 -95q93 -104 93 -286q0 -170 -92.5 -269.5t-239.5 -99.5 q-153 0 -243 116q-76 97 -76 260q0 179 90 276.5t237 97.5zM1416 1419l-929 -1443h-120l928 1443h121zM397 1355q-53 0 -93 -30.5t-67.5 -108t-27.5 -181.5q0 -102 25 -170t67.5 -100.5t92.5 -32.5q51 0 95 32.5t70 103.5t26 176q0 140 -47.5 225.5t-140.5 85.5zM399 1419 q147 0 231 -95q93 -105 93 -286q0 -171 -92.5 -270.5t-239.5 -99.5q-153 0 -244 117q-75 97 -75 259q0 179 90 277t237 98z"/>
<glyph glyph-name="minute" horiz-adv-x="451" unicode="′" d="M131 905l34 350q15 164 111 164q58 0 58 -60q0 -34 -26 -101l-136 -353h-41z"/>
<glyph glyph-name="second" horiz-adv-x="778" unicode="″" d="M133 905l34 350q15 164 111 164q58 0 58 -60q0 -34 -26 -101l-136 -353h-41zM458 905l34 350q16 164 111 164q58 0 58 -60q0 -34 -25 -101l-136 -353h-42z"/>
<glyph glyph-name="guilsinglleft" horiz-adv-x="491" unicode="‹" d="M275 851l76 -36l-107 -319l107 -311l-76 -38l-185 349z"/>
<glyph glyph-name="guilsinglright" horiz-adv-x="491" unicode="›" d="M217 147l-76 36l107 319l-107 311l76 38l185 -349z"/>
<glyph glyph-name="radicalex" d="M-42 1869h1354v-74h-1354v74z" unicode="‾"/>
<glyph glyph-name="fraction" horiz-adv-x="287" unicode="⁄" d="M668 1419l-930 -1443h-119l928 1443h121z"/>
<glyph glyph-name="fraction" horiz-adv-x="287" unicode="∕" d="M668 1419l-930 -1443h-119l928 1443h121z"/>
<glyph glyph-name="Euro" d="M355 840h565l-14 -95h-557v-36q0 -45 2 -60h542l-14 -94h-518q38 -217 141.5 -337t241.5 -120q190 0 356 258l80 -53q-104 -168 -220 -248t-267 -80q-203 0 -356 155.5t-195 424.5h-137l14 94h115q-2 18 -2 45q0 33 2 51h-129l14 95h123q42 253 197.5 416t359.5 163 q142 0 252 -96l18 72h72l110 -424l-94 -25q-73 217 -157 292t-181 75q-134 0 -232.5 -124t-131.5 -349z" unicode="€"/>
<glyph glyph-name="trademark" horiz-adv-x="2007" unicode="™" d="M1116 1356l273 -572l265 572h279v-37q-57 -1 -75 -11.5t-27 -32t-9 -91.5v-468q0 -69 7.5 -88t27.5 -29.5t76 -13.5v-36h-398v36q59 1 79.5 12t30 32t9.5 86v492l-307 -658h-32l-308 649v-482q0 -66 7 -84q9 -25 28 -36t58 -11h36v-36h-306v36q57 0 76 10.5t28 31.5t9 89 v466q0 74 -8 95t-29 31.5t-76 10.5v37h286zM11 1356h728l22 -201h-34q-10 73 -53 107t-141 34h-75v-579q0 -65 8.5 -86.5t27.5 -32.5t70 -13v-36h-374v36q53 5 69 15t23.5 30.5t7.5 85.5v580h-76q-94 0 -134.5 -31t-55.5 -110h-34z"/>
<glyph glyph-name="arrowleft" horiz-adv-x="2048" unicode="←" d="M492 876h76q-81 -170 -195 -309h1595v-101h-1595q102 -102 198 -309h-78q-223 253 -414 341v45q177 71 413 333z"/>
<glyph glyph-name="arrowup" horiz-adv-x="1024" unicode="↑" d="M153 1050q262 236 333 413h46q87 -192 340 -415v-77q-207 96 -309 197v-1597h-101v1597q-139 -114 -309 -195v77z"/>
<glyph glyph-name="arrowright" horiz-adv-x="2048" unicode="→" d="M1555 876q237 -262 413 -333v-45q-191 -88 -414 -341h-77q95 207 197 309h-1595v101h1595q-114 139 -195 309h76z"/>
<glyph glyph-name="arrowdown" horiz-adv-x="1024" unicode="↓" d="M153 -16v76q170 -81 309 -195v1598h101v-1598q102 102 309 197v-77q-253 -223 -340 -414h-46q-71 176 -333 413z"/>
<glyph glyph-name="partialdiff" horiz-adv-x="1012" unicode="∂" d="M913 628q-27 77 -68 124t-100 74t-119 27q-108 0 -202 -82q-79 -69 -134.5 -221.5t-55.5 -286.5q0 -72 26 -127.5t69.5 -82.5t99.5 -27q87 0 193.5 79.5t192.5 244.5q61 115 98 278zM930 717q12 113 12 186q0 178 -94 277.5t-252 99.5q-66 0 -121 -17.5t-96 -49 t-84 -92.5h-46q59 121 112 179.5t124.5 90t144.5 31.5q114 0 202 -66.5t126 -177t38 -258.5q0 -203 -56 -394.5t-147 -321.5t-186.5 -182.5t-202.5 -52.5q-135 0 -227 73q-112 88 -112 262q0 155 78.5 299t207.5 224.5t266 80.5q68 0 128.5 -23t112.5 -69q39 -34 72 -99z "/>
<glyph glyph-name="product" horiz-adv-x="1685" unicode="∏" d="M1240 1342h-795v-1591q0 -56 20 -95q13 -28 39 -39q48 -21 103 -21h36v-38h-597v38h35q58 0 100 19q30 14 42 39q21 42 21 97v1477q0 56 -20 95q-14 27 -39 38q-48 22 -104 22h-35v37h1594v-37h-35q-58 0 -100 -20q-30 -14 -42 -38q-20 -43 -20 -97v-1477q0 -56 19 -95 q14 -28 39 -39q48 -21 104 -21h35v-38h-597v38h35q58 0 100 19q30 14 42 39q20 42 20 97v1591z"/>
<glyph glyph-name="summation" horiz-adv-x="1460" unicode="∑" d="M1356 -442h-1313v37l669 901l-669 887v37h1278l27 -337h-40q-8 72 -28.5 120.5t-48.5 76.5t-69.5 43.5t-102.5 15.5h-740l562 -757l-629 -847h818q65 0 137 22t110 71t63 153l40 -8z"/>
<glyph glyph-name="minus" horiz-adv-x="1229" unicode="−" d="M1102 759v-123h-975v123h975z"/>
<glyph glyph-name="radical" horiz-adv-x="1124" unicode="√" d="M1050 1869h74l-312 -1947l-496 1021l-198 -91l-34 64l301 151l405 -823z"/>
<glyph glyph-name="infinity" horiz-adv-x="1460" unicode="∞" d="M624 590q-53 119 -118 166.5t-149 47.5q-106 0 -177.5 -75t-71.5 -199q0 -130 69.5 -211t160.5 -81q87 0 158 74q55 58 117 244zM749 464q73 -152 145.5 -207.5t166.5 -55.5q135 0 211.5 95.5t76.5 230.5q0 145 -86 242t-196 97q-64 0 -112.5 -29.5t-91.5 -99.5 q-29 -49 -114 -273zM653 667q51 118 98 170.5t113.5 79.5t158.5 27q109 0 196 -53.5t137 -146.5t50 -217q0 -204 -133 -327q-101 -93 -216 -93q-98 0 -183 72q-57 48 -154 214q-47 -91 -93.5 -138t-104 -71t-126.5 -24q-145 0 -244 103.5t-99 265.5t91 264.5t216 102.5 q94 0 164 -54q58 -44 129 -175z"/>
<glyph glyph-name="intersection" horiz-adv-x="1472" unicode="∩" d="M302 0h-110v560q1 118 2.5 227.5t19.5 192t59.5 151t114.5 128.5t163.5 92.5t184.5 32.5q144 0 268.5 -70.5t186 -168t76 -206t14.5 -379.5v-560h-109v566q0 232 -12 333.5t-60 183t-149.5 138.5t-214.5 57q-114 0 -215.5 -58t-148 -137t-58.5 -181.5t-12 -335.5v-566z "/>
<glyph glyph-name="approxequal" horiz-adv-x="1124" unicode="≈" d="M929 661l87 -97q-31 -79 -70.5 -123.5t-87.5 -67.5t-102 -23q-40 0 -81 15q-20 7 -122 59l-133 64q-25 10 -51 10q-48 0 -77.5 -34t-88.5 -146l-95 98q40 80 80.5 122.5t86.5 64.5t93 22q35 0 75 -13t146 -67q96 -49 120.5 -58.5t40.5 -9.5q47 0 88 41q28 28 91 143z M929 1022l87 -97q-31 -78 -70.5 -122.5t-87.5 -67.5t-102 -23q-40 0 -81 15q-20 7 -122 59l-133 64q-25 10 -51 10q-48 0 -77.5 -34t-88.5 -146l-95 98q40 80 80.5 122.5t86.5 64.5t93 22q35 0 75 -13t146 -68q96 -48 120.5 -57.5t40.5 -9.5q47 0 88 41q28 28 91 142z"/>
<glyph glyph-name="notequal" horiz-adv-x="1124" unicode="≠" d="M773 916h277v-123h-359l-128 -191h487v-123h-569l-247 -369h-129l246 369h-276v123h358l128 191h-486v123h568l247 369h130z"/>
<glyph glyph-name="equivalence" horiz-adv-x="1229" unicode="≡" d="M1102 517v-123h-975v123h975zM1102 759v-123h-975v123h975zM1102 1000v-123h-975v123h975z"/>
<glyph glyph-name="lessequal" horiz-adv-x="1124" unicode="≤" d="M994 201v-123h-901v123h901zM994 283l-901 401v100l901 401v-144l-718 -307l718 -307v-144z"/>
<glyph glyph-name="greaterequal" horiz-adv-x="1124" unicode="≥" d="M1031 201v-123h-901v123h901zM130 1185l901 -401v-100l-901 -401v144l718 307l-718 307v144z"/>
<glyph glyph-name="lozenge" horiz-adv-x="1012" unicode="◊" d="M495 1325l-340 -616l340 -615l359 615zM549 1422l418 -713l-418 -709h-111l-391 709l391 713h111z"/>
<glyph glyph-name="spade" horiz-adv-x="1085" unicode="♠" d="M544 1231q18 -82 64 -169t204 -230q122 -111 170 -181t47 -155q0 -93 -65 -157t-154 -64q-155 0 -255 190q-1 -229 101 -325t277 -103l7 -37h-792l7 37q177 0 281 102t103 293q0 11 -1 33q-90 -190 -261 -190q-91 0 -155 65t-65 155q1 92 53 165t136 141q261 215 298 430 z"/>
<glyph glyph-name="club" horiz-adv-x="1352" unicode="♣" d="M1102 0h-848l8 34q154 32 220 68t124 139t59 228l-1 42q-54 -116 -143 -177t-185 -61q-114 1 -196 81t-81 199q1 111 73 193t169 82q63 0 163 -51q-67 107 -67 182q0 113 79 193t197 79q115 0 197 -78t82 -189q0 -94 -69 -187q106 53 162 53q105 0 176 -81t71 -192 q0 -119 -81 -201t-193 -82q-78 0 -167 50t-165 187q4 -157 48 -251t122 -144q78 -51 238 -82z"/>
<glyph glyph-name="heart" horiz-adv-x="1208" unicode="♥" d="M606 -24q-32 122 -92 228t-276 390q-101 133 -140 212t-39 163q0 109 74 185t183 76q206 0 290 -251q34 127 113 189t172 63q109 0 183 -75t75 -175q-1 -88 -41 -183t-173 -262q-285 -360 -329 -560z"/>
<glyph glyph-name="diamond" horiz-adv-x="1045" unicode="♦" d="M520 1231q193 -323 461 -627q-52 -52 -214 -265t-247 -363q-101 190 -457 628q324 383 457 627z"/>
<glyph glyph-name="foursuperior" horiz-adv-x="762" unicode="" d="M433 992v304l-303 -304h303zM438 1406h118v-414h155v-77h-155v-234h-123v234h-388v98z"/>
</font>
</defs>
</svg>
