<?xml version="1.0" encoding="UTF-8" standalone="no"?>
<!DOCTYPE svg  PUBLIC '-//W3C//DTD SVG 1.1//EN'  'http://www.w3.org/Graphics/SVG/1.1/DTD/svg11.dtd'>
<svg xmlns="http://www.w3.org/2000/svg">
<defs>
<font id="EPISODEI-Regular" horiz-adv-x="682">
<font-face underline-position="-122" font-weight="400" descent="-410" panose-1="2 2 5 0 0 0 0 0 0 0" units-per-em="2048" unicode-range="U+0020-2212" bbox="-3625 -691 8520 3202" x-height="1581" underline-thickness="38" font-family="EPISODEI" ascent="1638" cap-height="2012"/>
<missing-glyph horiz-adv-x="2048"/>
<glyph glyph-name=".notdef" horiz-adv-x="2048"/>
<glyph glyph-name=".null" horiz-adv-x="0"/>
<glyph glyph-name="nonmarkingreturn" horiz-adv-x="0"/>
<glyph glyph-name="space" horiz-adv-x="277" unicode=" "/>
<glyph glyph-name="exclam" horiz-adv-x="461" unicode="!" d="M430 158q-2 -75 -57 -129t-129 -54q-76 4 -126 59t-50 130q0 50 24 92t64 68t90 26t92 -26t67 -70t25 -96zM129 371v1020q0 20 -3 57t-15 68q-5 16 -17 36t-18 29h325q-5 0 -32 -59q-11 -28 -17 -69t-6 -62v-801z"/>
<glyph glyph-name="quotedbl" horiz-adv-x="475" unicode='&quot;' d="M367 1155h-86l-23 426h156zM166 1155h-86l-21 426h156z"/>
<glyph glyph-name="numbersign" horiz-adv-x="0" unicode="#" d="M6618 2529q107 8 107 173q0 13 -1 27h1796v-200h-1902zM6734 3202l-1 -201h-181q-14 1 -26 1q-52 0 -52 -19q0 -17 38 -48q166 -131 166 -253q-2 -128 -166 -153h-702l-239 223v-223h-273v673h493q91 -7 149 -43t84 -95q11 -47 11 -83q0 -31 -9 -55q-19 -50 -66 -82 t-134 -50l57 -66h387h20q66 0 65 21q0 18 -47 53q-159 131 -159 243q-1 17 3 33q28 124 172 124h410zM2573 3037v-123h191q14 0 32 10t19 49q-3 40 -21 52t-31 12h-190zM2300 2529v670h491q92 -8 150 -42t85 -93q12 -49 12 -85q0 -31 -9 -54q-19 -48 -66 -81t-134 -51 l56 -64h607l92 -200h-771l-239 221v-221h-274zM1772 3022l-109 -267h208zM1333 2529l249 670h375l252 -670h-286l-47 121h-224l-48 -121h-271zM3625 3200l133 -289l70 289h247l105 -289l109 289h266l-249 -671h-245l-90 283l-87 -283h-245l-303 671h289zM5571 3037v-123h191 q14 0 32 10t19 49q-3 40 -21 52t-31 12h-190zM4800 3022l-109 -267h208zM4367 2529l249 670h375l252 -670h-286l-47 121h-224l-48 -121h-271zM4 2529v200h360h20q65 0 65 21q0 18 -48 52q-157 129 -157 240q0 17 4 33q28 124 170 124h1008v-197h-239v-473h-246v473h-294 q-13 1 -24 1q-56 0 -56 -20q0 -17 39 -48q167 -130 167 -252q-1 -3 -1 -5q-4 -124 -166 -149h-602z"/>
<glyph glyph-name="dollar" horiz-adv-x="0" unicode="$" d="M4 2529h-3626v200h3626v-200z"/>
<glyph glyph-name="percent" horiz-adv-x="0" unicode="%" d="M1 -691v200h3626v-200h-3626z"/>
<glyph glyph-name="ampersand" horiz-adv-x="0" unicode="&amp;" d="M1 -691h-3626v200h3626v-200z"/>
<glyph glyph-name="quotesingle" horiz-adv-x="279" unicode="&apos;" d="M166 1155h-86l-21 426h156z"/>
<glyph glyph-name="parenleft" horiz-adv-x="737" unicode="(" d="M599 -165q-114 15 -208 106t-164 244t-110 346t-48 413q-1 32 -1 97q0 293 70 524t188 365q119 134 262 159l43 8v-234l-44 3q-78 0 -143 -64q-64 -64 -112 -176q-48 -113 -74 -265t-25 -322q0 -60 1 -90q6 -153 34 -292t74 -255q48 -116 114 -197t147 -111l42 -14v-254z "/>
<glyph glyph-name="parenright" horiz-adv-x="737" unicode=")" d="M114 -165l-46 -9v254l42 14q81 30 147 111q65 81 113 197t76 255t33 292q1 30 1 90q0 170 -26 322t-72 265q-48 112 -113 176t-143 64l-44 -3v234l43 -8q143 -25 262 -159t189 -365t69 -524q0 -65 -1 -97q-8 -220 -48 -413t-110 -346t-164 -244t-208 -106z"/>
<glyph glyph-name="asterisk" horiz-adv-x="604" unicode="*" d="M332 1419l16 -12l117 100l59 -98l-129 -68v-22l142 -49l-60 -101l-129 93l-16 -13l26 -157h-116l14 147l-18 10l-113 -90l-66 103l127 61v16l-131 70l64 94l119 -96l14 10l-19 164h111z"/>
<glyph glyph-name="plus" horiz-adv-x="1255" unicode="+" d="M559 1137h133v-502h498v-139h-502v-500h-129v500h-498l2 141h496v500z"/>
<glyph glyph-name="comma" horiz-adv-x="500" unicode="," d="M377 143q-56 -122 -144 -247h-178q18 20 40 64t39 95t20 78q0 43 -10 105t-29 100h331q-20 -86 -69 -195z"/>
<glyph glyph-name="hyphen" horiz-adv-x="649" unicode="-" d="M307 465q-87 -1 -127 -7t-121 -26v254q75 -12 136 -18t124 -6q132 0 269 24v-254q-110 27 -281 33z"/>
<glyph glyph-name="period" horiz-adv-x="494" unicode="." d="M436 170q0 -78 -58 -133t-145 -55q-73 4 -123 60t-49 128q0 50 25 91t67 65t91 26q50 0 94 -24t71 -67q26 -42 27 -91z"/>
<glyph glyph-name="slash" horiz-adv-x="1096" unicode="/" d="M285 0h-226l750 1581h219z"/>
<glyph glyph-name="zero" horiz-adv-x="1681" unicode="0" d="M293 807q1 -167 87 -316t232 -239q144 -90 308 -90q108 8 191 58t140 131t86 181t29 211q0 55 -10 123q-17 119 -73 222t-138 178q-83 75 -177 115t-192 40q-51 0 -104 -12q-123 -29 -209 -118t-128 -215t-42 -269zM1604 836q2 -12 2 -22v-26q0 -206 -100 -388t-274 -292 q-176 -110 -386 -114q-164 0 -308 64t-252 182t-166 268t-57 317q7 161 65 297t158 238t230 162q132 60 285 69q18 2 53 2q164 0 300 -59t234 -164q98 -106 154 -244t62 -290z"/>
<glyph glyph-name="one" horiz-adv-x="539" unicode="1" d="M186 1307h-123v28l310 246h59l8 -1457q6 -43 19 -79q2 -5 8 -19t8 -18q2 -5 4 -8h-338q5 10 15 34t12 38q11 36 14 68t4 50v1117z"/>
<glyph glyph-name="two" horiz-adv-x="1235" unicode="2" d="M381 1178q7 -76 59 -130t129 -61q98 -1 164 63t66 160q-3 54 -33 97t-80 67t-108 25q-84 -5 -140 -68t-57 -153zM336 360q18 28 78 118t104 159q43 68 94 156l-86 4q-94 4 -174 55q-80 50 -128 134t-50 181q0 86 35 165q35 78 95 136t136 90q75 32 160 35q111 1 205 -47 q93 -48 147 -134t54 -191q0 -78 -18 -144q-18 -67 -51 -131q-34 -64 -85 -143l-387 -613q102 -8 268 -8q135 2 198 8t128 24t133 36l-18 -254h-1123q91 106 154 185t131 179z"/>
<glyph glyph-name="three" horiz-adv-x="1214" unicode="3" d="M954 1313q-79 -129 -132 -227t-115 -224l75 -35q112 -47 170 -151t58 -256q-6 -120 -75 -216t-177 -150t-232 -56q-70 0 -132 6t-126 26q-65 20 -125 62l-96 66l193 274l18 -65q26 -89 94 -149t160 -62q81 0 148 38q68 38 108 102t41 140q-1 80 -45 152t-114 115 q-70 44 -134 47l-133 8q75 108 184 278q97 155 209 357l-139 16q-51 0 -109 2q-156 0 -204 -10q-62 -13 -112 -36t-114 -67l-14 295h1055q-57 -81 -98 -143t-87 -137z"/>
<glyph glyph-name="four" horiz-adv-x="1307" unicode="4" d="M993 629v-439q1 -21 7 -60t16 -75q2 -7 6 -15t8 -18t6 -14q2 -6 2 -8h-336q3 0 19 47q13 37 19 79t8 64v439h-668l-19 35l875 917h57v-754h84q25 1 59 3t107 12l-2 -232q-15 4 -85 13t-89 10q-16 0 -74 -4zM483 866l-6 -39h271v312z"/>
<glyph glyph-name="five" horiz-adv-x="1149" unicode="5" d="M987 1337q-104 54 -186 70q-71 14 -111 16t-168 4h-61v-503l49 4q68 0 108 -6q110 -18 194 -79t130 -156q47 -95 47 -204q-3 -155 -78 -265t-191 -166t-243 -56q-226 13 -344 96l-78 55l133 224l56 -70q47 -57 97 -83t114 -32q81 0 145 36t98 98t35 135q-1 85 -35 156 t-98 113t-151 42q-25 0 -53 -5t-58 -15t-62 -17l-61 -16v680q0 21 -2 59t-8 74q-1 6 -7 26t-8 29h908z"/>
<glyph glyph-name="six" horiz-adv-x="1130" unicode="6" d="M461 946l47 -14q18 0 66 4t85 4q111 -18 199 -78t142 -150t65 -200q-1 -146 -69 -264t-188 -186q-120 -66 -269 -66q-133 4 -243 68t-174 179q-64 114 -63 267q3 99 27 173t60 138t106 176l246 394q11 16 30 49t29 59q9 29 15 49t8 33h385q-2 0 -50 -45q-27 -26 -67 -74 t-57 -71zM264 479q0 -119 81 -197t196 -85q131 0 222 82t93 200q0 59 -24 112t-66 94q-44 41 -100 63t-119 22q-125 -6 -201 -79t-82 -212z"/>
<glyph glyph-name="seven" horiz-adv-x="1176" unicode="7" d="M418 127q-6 -13 -14 -43t-9 -49q1 -2 3 -16t3 -19h-301q6 10 18 26t27 42q17 26 37 64t29 58l528 1182l-92 6q-62 8 -201 8q-125 0 -178 -12q-94 -22 -209 -92v299h1051z"/>
<glyph glyph-name="eight" horiz-adv-x="1116" unicode="8" d="M281 465q-1 -119 77 -201t191 -82q123 0 199 82t75 203q-7 115 -89 185t-199 69q-66 -1 -125 -37q-58 -36 -92 -93q-34 -58 -37 -126zM299 1153q2 -69 34 -126t88 -93t124 -39q111 1 191 75t79 179q0 104 -79 177t-191 73q-66 -3 -123 -37t-90 -88q-33 -55 -33 -121z M1012 1171q0 -165 -123 -297l-51 -53l41 -30q158 -117 174 -326q0 -102 -39 -190q-39 -87 -110 -153q-70 -66 -164 -102t-195 -36q-130 1 -242 67t-178 174t-66 234q2 69 23 127q22 58 58 109t75 83l64 51l-68 78q-52 57 -75 115t-23 137q0 85 31 165q32 80 88 140t138 96 t179 37q97 0 181 -32q84 -31 144 -89q62 -58 98 -138t40 -167z"/>
<glyph glyph-name="nine" horiz-adv-x="1051" unicode="9" d="M182 49q26 31 52 75t38 66l308 504l-56 2q-12 2 -38 2t-44 1t-47 6q-87 17 -156 71t-113 135t-56 176q-2 19 -2 54q0 122 58 225q58 104 166 166q107 62 243 63q125 0 233 -60q108 -61 170 -165t63 -227q0 -18 -4 -56q-9 -77 -37 -150t-64 -137t-110 -194l-274 -477 q-6 -13 -18 -41t-15 -53q-1 -5 -3 -17l-3 -18h-342q2 0 51 49zM784 1145q0 108 -71 178t-174 76q-77 -1 -141 -35t-98 -92t-36 -125q0 -69 36 -129t98 -96t134 -35q64 3 120 35t92 88t40 135z"/>
<glyph glyph-name="colon" horiz-adv-x="500" unicode=":" d="M434 930q0 -84 -56 -138t-142 -55q-74 3 -124 59t-51 132q0 72 55 126t128 56q50 0 94 -24t68 -64q26 -41 28 -92zM440 170q0 -78 -54 -134t-138 -56q-74 4 -124 59t-50 131q0 48 26 90t68 66t90 26q76 0 128 -53t54 -129z"/>
<glyph glyph-name="semicolon" horiz-adv-x="512" unicode=";" d="M371 143q-60 -125 -146 -247h-178q32 35 63 112t37 125q0 39 -10 103t-28 102h335q-23 -79 -73 -195zM428 928q0 -78 -54 -134t-138 -57q-74 3 -124 59t-51 132q0 72 55 126t128 56q80 0 131 -52t53 -130z"/>
<glyph glyph-name="less" horiz-adv-x="948" unicode="&lt;" d="M248 559l626 -274v-189l-815 365v194l815 428v-196z"/>
<glyph glyph-name="equal" horiz-adv-x="1163" unicode="=" d="M1100 340h-1041v149h1041v-149zM1100 631h-1041v149h1041v-149z"/>
<glyph glyph-name="greater" horiz-adv-x="915" unicode="&gt;" d="M59 891v199l815 -428v-195l-815 -365v189l627 272z"/>
<glyph glyph-name="question" horiz-adv-x="979" unicode="?" d="M344 709q10 13 34 23t51 20q27 8 50 18q107 52 158 124t51 202q-14 149 -98 222t-211 73q-121 -3 -240 -113l-80 -76v277q132 99 355 104q116 1 222 -49t178 -140q73 -90 93 -200q13 -63 13 -117q0 -201 -136 -346q-56 -57 -108 -87t-112 -48t-77 -27q-25 -11 -42 -25 t-36 -34t-44 -45l-58 -55v254q6 9 18 23t19 22zM518 166q0 -76 -50 -130t-130 -54q-70 0 -124 52t-58 126q0 48 22 92t63 70q40 26 89 28q52 0 96 -25t68 -67t24 -92z"/>
<glyph glyph-name="at" horiz-adv-x="1688" unicode="@" d="M1178 1206h155l-246 -719q-6 -22 -6 -63q6 -53 60 -53q53 0 127 53t108 117q113 207 113 372q0 41 -6 80q-19 108 -74 196q-55 87 -135 149t-181 97q-102 35 -210 38q-193 1 -351 -101t-246 -270t-89 -354q1 -138 53 -268t143 -228q91 -99 213 -155t258 -56q101 1 182 19 q80 18 150 52t134 92q64 57 116 134h135q-58 -101 -131 -178q-73 -78 -161 -128q-87 -50 -195 -76t-230 -26q-164 0 -310 66t-257 182t-173 266q-62 152 -63 318q1 219 109 409t296 303t411 113q140 -5 269 -49t230 -124t165 -192t77 -249q4 -31 4 -84q0 -113 -30 -189 t-95 -198q-51 -94 -165 -174t-218 -80q-79 0 -135 53q-35 35 -51 66q-108 -105 -244 -105q-79 0 -149 33q-86 37 -127 115t-41 178q0 153 75 313q44 97 116 177t162 128q90 49 175 49q79 0 145 -41q69 -41 109 -102zM590 848q-58 -130 -58 -238q0 -151 115 -198 q31 -15 66 -15q149 0 282 289q68 155 68 250q0 106 -80 162q-41 28 -90 28q-59 0 -117 -40t-107 -104q-48 -63 -79 -134z"/>
<glyph glyph-name="A" horiz-adv-x="2078" unicode="A" d="M1003 1996q7 2 13 2q33 0 56 -59l627 -1621q60 -131 95 -172q53 -62 95 -77q68 -16 140 -16l12 -11q0 -34 -31 -34l-83 -5q-537 0 -540 20v23q19 15 42 15q15 12 19 38l-206 568l-15 7h-558l-19 -30l-145 -399l-19 -84v-17q0 -62 26 -75l31 -12q98 0 111 -8 q11 -30 -13 -41q-123 4 -276 4t-335 -4l-15 15l4 26l26 8q16 -2 31 -2q74 0 140 44q61 47 125 219l620 1617q19 46 42 61zM714 816l4 -12h473l-234 668l-15 -15z"/>
<glyph glyph-name="B" horiz-adv-x="1579" unicode="B" d="M87 2005l512 -8l216 8q95 -4 174 -24q295 -79 323 -348l-8 -126q-36 -194 -248 -360l122 -55q224 -119 311 -349q25 -66 25 -152q0 -79 -21 -176q-138 -406 -658 -419l-288 17l-437 -4l-19 16q-4 23 7 27l126 16q48 4 67 102q18 184 18 272q0 29 -2 48v1282 q-4 111 -39 142q-55 36 -83 36h-4l-110 3q-21 7 -21 23q0 3 1 5q14 25 30 25q3 0 6 -1zM618 1041v-736q4 -76 24 -107q43 -51 169 -75q31 -3 59 -3q284 0 327 291v30q0 253 -126 425q-94 111 -161 143q0 8 -162 36zM618 1867v-688l8 -12l40 -8q38 -2 71 -2q151 0 196 45 q83 72 107 237q1 16 1 31q0 174 -84 298q-87 107 -189 122l-134 -3z"/>
<glyph glyph-name="C" horiz-adv-x="1846" unicode="C" d="M1031 2022q42 3 90 3q157 0 387 -30q208 -46 250 -46l15 -19l-15 -181l-4 -254q-4 -49 -23 -53l-26 4l-12 42q-8 257 -262 350q-153 56 -330 56q-64 0 -132 -7q-161 -26 -261 -87q-78 -51 -143 -131q-142 -193 -165 -527q-1 -30 -1 -58q0 -190 46 -334q43 -139 131 -262 q228 -284 550 -326q41 -2 80 -2q112 0 209 17q131 31 189 93l61 72q51 93 62 169q16 16 27 16q14 0 23 -24q0 -106 -46 -333q-11 -66 -38 -85q-89 -61 -412 -77h-35q-334 0 -538 73q-316 108 -497 369q-150 216 -165 527v27q0 254 72 427q15 49 97 180q285 388 816 411z"/>
<glyph glyph-name="D" horiz-adv-x="2153" unicode="D" d="M59 2009l363 -8l568 8q244 -12 331 -28q379 -63 585 -315q196 -257 208 -580q1 -20 1 -41q0 -134 -29 -267q-188 -765 -1104 -790l-296 17l-174 15l-429 -3l-20 15q-4 24 8 28l126 15q47 4 66 103q18 179 18 268q0 32 -2 52v1279q-4 110 -39 141q-54 36 -82 36h-5l-110 4 q-20 6 -20 21q0 3 1 6q13 25 29 25q3 0 6 -1zM603 1713q-1 -280 -1 -507q0 -874 21 -953q28 -103 276 -134q41 -2 80 -2q181 0 330 45q131 43 217 119q123 102 182 256q35 95 59 320q1 34 1 66q0 237 -52 380q-47 142 -147 268q-78 91 -172 154q-202 122 -486 154 q-51 2 -93 2q-148 0 -191 -22l-20 -23z"/>
<glyph glyph-name="E" horiz-adv-x="1400" unicode="E" d="M59 2001q205 -9 685 -9q160 0 350 1q107 12 142 28q4 1 7 1q13 0 17 -13l-24 -209l-8 -149q-4 -25 -24 -33l-27 12q-4 111 -28 147q-32 39 -67 51q-75 19 -167 23l-301 4l-4 -8l4 -706l444 4l79 20l56 55q23 0 27 -16q-23 -169 -31 -402q-8 -28 -20 -28l-28 8 q-4 115 -28 150q-44 51 -75 55q-59 14 -252 14q-77 0 -176 -2v-683q12 -107 59 -134q48 -24 131 -35q68 -4 125 -4q168 0 240 35l55 47l36 75l16 91q16 32 43 16l9 -35q-5 -107 -29 -277q-15 -103 -98 -103q-19 0 -41 5l-650 15l-424 -3l-19 15q-4 24 7 28l128 15 q47 4 67 103q18 184 18 272q0 29 -2 48v1279q-4 110 -40 142q-54 35 -82 35h-5l-111 4q-23 8 -20 28q16 27 36 23z"/>
<glyph glyph-name="F" horiz-adv-x="1360" unicode="F" d="M63 2001q190 -9 699 -9q170 0 375 1l103 12q22 15 35 15q14 0 20 -15l-24 -154l-8 -194l-16 -31h-23l-8 4l-8 19v23q0 77 -24 107q-67 68 -152 68h-10l-401 8l-10 -13v-703h419q59 0 107 16l20 12l47 51q12 4 24 -12v-43l-20 -122l-12 -241l-15 -16h-20l-12 19v9 q0 142 -123 180l-72 8l-337 4l-8 -8q-3 -175 -3 -315q0 -446 27 -546q33 -63 52 -63q87 -16 194 -20q16 -12 16 -20q-4 -23 -24 -28q-222 4 -419 4t-369 -4l-16 13l4 31l127 16q47 4 67 102q18 191 18 319q0 39 -2 73v1209q-4 112 -40 143q-54 36 -82 36h-6l-110 4 q-20 6 -20 21q0 3 1 6q11 20 39 24z"/>
<glyph glyph-name="G" horiz-adv-x="2025" unicode="G" d="M1007 2010h57q220 0 417 -27q219 -42 284 -42q19 -4 23 -23q-20 -164 -20 -382q0 -38 1 -78l-8 -19l-8 -3h-27l-7 7q-19 169 -84 230q-81 88 -222 145q-104 35 -211 54q-59 9 -130 9q-52 0 -111 -5q-563 -77 -597 -720q-1 -21 -1 -42q0 -431 238 -708q226 -245 574 -268 q33 -2 64 -2q89 0 162 17q57 12 77 73v586q-8 61 -20 80l-34 34q-19 20 -180 31q-15 19 0 38l31 8q197 -7 366 -7t311 7q27 -4 39 -23l-8 -23l-107 -15q-27 -4 -58 -42l-19 -58l-4 -666q0 -31 -15 -46q-195 -115 -544 -126q-25 -1 -49 -1q-539 0 -850 257q-295 245 -318 678 q-1 30 -1 59q0 416 254 699q260 287 735 314z"/>
<glyph glyph-name="H" horiz-adv-x="2249" unicode="H" d="M52 2016q202 -8 386 -8t352 8q40 -8 36 -20l-4 -24l-16 -8q-123 0 -155 -32t-36 -68q-13 -64 -13 -319q0 -153 5 -375h1006l4 8q2 170 2 298q0 386 -18 404q-20 48 -56 64q-8 8 -180 24q-12 8 -8 32q8 16 32 16q206 -8 391 -8q186 0 352 8l32 -16q4 -32 -8 -32 q-108 -4 -156 -28q-56 -30 -56 -186v-21v-1378q8 -155 20 -215q20 -60 56 -72q88 -16 192 -20q18 -12 18 -24q0 -4 -2 -8l-20 -16q-226 4 -423 4q-198 0 -368 -4q-20 8 -24 20q0 24 16 28q92 0 140 20q56 28 64 263l4 683l-12 8h-994l-8 -8q-1 -148 -1 -270q0 -366 9 -500 l20 -120q20 -44 60 -60l183 -16q24 -16 16 -32l-24 -16q-226 4 -423 4q-198 0 -367 -4l-20 16q-4 24 8 28l128 16q48 4 67 104q18 185 18 274q0 30 -2 49v1294q-4 111 -39 143q-55 36 -83 36h-5l-112 4q-21 7 -21 23q0 3 1 5q14 24 31 24h5z"/>
<glyph glyph-name="I" horiz-adv-x="881" unicode="I" d="M67 2012l243 -8h234l218 8l32 -12q4 -27 -8 -35q-99 -4 -151 -28q-56 -30 -56 -190v-17v-1409q4 -198 40 -222l32 -24l202 -23q9 -7 9 -18q0 -8 -5 -18l-43 -12l-429 8l-329 -4l-20 16v20l16 12q95 0 131 15q43 20 55 88q18 184 18 273q0 29 -2 48l-4 1354q-12 63 -40 95 l-35 20l-127 12q-18 9 -18 26q0 6 2 13z"/>
<glyph glyph-name="J" horiz-adv-x="881" unicode="J" d="M145 2006l243 -8h234l218 8l32 -12q1 -5 1 -10q0 -19 -13 -28q-95 -1 -147 -25q-56 -30 -56 -190v-17v-1499q-7 -136 -27 -223q-27 -119 -83 -223q-94 -166 -290 -319q-139 -95 -251 -146h-13q-36 0 -36 16q0 11 16 29q87 40 192 153q97 112 137 307q18 104 25 228l4 49 l-3 1732q-12 63 -47 92l-44 20l-56 12l-81 3q-28 10 -28 23q0 11 20 23z"/>
<glyph glyph-name="K" horiz-adv-x="2123" unicode="K" d="M52 2016q203 -8 382 -8t335 8q40 -8 36 -20l-12 -28q-92 -4 -140 -28q-27 -20 -43 -59q-18 -114 -18 -481q0 -122 2 -272h12q510 541 557 605q92 120 108 164l-4 43l-16 16l-40 12q-12 12 -8 36l24 12q140 -8 290 -8t312 8q28 -8 28 -20l-8 -28q-136 -8 -223 -51 q-120 -68 -208 -156q-569 -578 -581 -602q179 -223 601 -685l224 -223l143 -112q104 -59 159 -71q128 -16 128 -24q1 -7 1 -13q0 -17 -9 -23l-56 -8l-386 4q-116 8 -200 64q-103 63 -302 291q-518 609 -530 649q-4 12 -16 8l4 -753q0 -72 16 -128q27 -59 43 -59l56 -16 l108 -4q40 -4 32 -36q-16 -20 -48 -20l-399 8l-330 -4l-20 16q-4 24 8 28l127 16q48 4 68 103q18 185 18 274q0 30 -2 49v1291q-4 112 -40 143q-55 36 -83 36h-5l-111 4q-21 7 -21 23q0 3 1 5q14 24 31 24h5z"/>
<glyph glyph-name="L" horiz-adv-x="1392" unicode="L" d="M64 2012q190 -8 377 -8q186 0 369 8l31 -16q4 -31 -8 -31l-138 -12l-52 -24q-36 -40 -40 -95l-8 -318v-976q4 -270 44 -322q32 -47 210 -67q59 -1 105 -1q140 0 181 9q80 16 127 67q48 68 68 187l27 12q21 -10 21 -24q0 -2 -1 -4q-20 -306 -55 -369q-24 -32 -147 -32 l-643 16l-461 -4l-19 16v20l15 12q131 0 155 35q48 64 48 302v1385q-4 111 -40 143q-39 36 -194 44q-6 11 -6 20q0 21 34 27z"/>
<glyph glyph-name="M" horiz-adv-x="2629" unicode="M" d="M508 2013q9 2 17 2q22 0 34 -17q11 -4 162 -334l555 -1183l698 1513q16 20 36 20q10 0 22 -5q20 -23 24 -50l236 -1672q28 -163 90 -202q50 -23 104 -31l109 -7l12 -12q0 -27 -31 -35q-621 0 -621 35v19l27 20q16 11 16 27v77l-152 1141h-11l-578 -1249q-38 -72 -57 -72 q-3 0 -5 2h-2q-22 0 -115 186l-252 512l-264 590l-11 4l-136 -1086q-4 -25 -4 -45q0 -62 35 -83q39 -20 175 -31q19 -16 11 -31l-23 -16q-161 4 -305 4t-273 -4l-19 19q-1 5 -1 10q0 12 8 14l121 15q69 31 93 206l248 1703q19 46 27 46z"/>
<glyph glyph-name="N" horiz-adv-x="2209" unicode="N" d="M383 2020l549 -602l355 -362l478 -514l16 -24h12l-24 1219q-8 152 -52 191l-55 28l-152 12q-16 20 0 40l32 8l410 -8l212 8l31 -16l-4 -28l-15 -8h-22q-86 0 -122 -28l-32 -39q-20 -60 -24 -172l-28 -1717q-8 -32 -20 -36h-10q-40 0 -65 28q-203 199 -964 992l-431 482 l-8 4l28 -1187q16 -160 52 -195l24 -20l76 -20q18 1 34 1q78 0 81 -17v-5q0 -35 -50 -35h-10l-366 8l-271 -4q-16 0 -20 16q-1 6 -1 11q0 14 9 17q18 9 65 9q16 0 34 -1l64 16q64 36 64 219l20 1506l8 223h92z"/>
<glyph glyph-name="O" horiz-adv-x="2098" unicode="O" d="M980 2017q38 2 76 2q218 0 402 -60q567 -204 609 -841q1 -25 1 -50q0 -475 -294 -783q-162 -154 -339 -219q-155 -58 -344 -70q-25 -1 -50 -1q-216 0 -393 63q-555 220 -621 887q-1 23 -1 45q0 434 279 738q266 266 675 289zM374 1149q-1 -19 -1 -41q0 -87 13 -213 q31 -201 108 -355q104 -201 270 -309q123 -69 297 -100q30 -2 58 -2q139 0 239 45q312 146 354 663q3 52 3 102q0 407 -176 658q-185 250 -498 293q-24 1 -48 1q-156 0 -256 -47q-340 -162 -363 -695z"/>
<glyph glyph-name="P" horiz-adv-x="1459" unicode="P" d="M56 2008l488 -8l325 8q163 -8 266 -47q107 -48 139 -80q75 -67 119 -166q32 -84 36 -155q-4 -195 -60 -310q-162 -325 -520 -353q-36 -3 -63 -3q-80 0 -80 27l12 28l28 7q13 -1 26 -1q148 0 268 160q79 115 83 250q1 16 1 32q0 209 -100 337q-64 76 -143 119l-123 36 q-29 1 -52 1q-69 0 -87 -9l-20 -28v-1444q8 -278 36 -302l40 -36q87 -15 194 -19q16 -8 16 -24q-4 -20 -24 -24q-223 4 -419 4t-363 -4l-19 16q-4 24 7 28l127 15q48 4 68 104q18 184 18 273q0 29 -2 48v1286q-4 111 -40 143q-54 36 -82 36h-5l-111 4q-21 7 -21 22q0 2 1 5 q14 24 31 24h5z"/>
<glyph glyph-name="Q" horiz-adv-x="2106" unicode="Q" d="M0 1092q43 507 433 784q113 67 199 102q126 44 157 44q4 0 7 -1q122 23 247 23t252 -23q379 -90 570 -340q175 -230 195 -585v-19q0 -284 -117 -507q-129 -238 -320 -371l433 -230l210 -107l162 -72l156 -60q164 -51 325 -85l171 -19q34 -1 66 -1q152 0 274 23 q149 31 258 76q7 1 12 1q27 0 28 -16q0 -10 -12 -27q-87 -46 -218 -96q-158 -60 -374 -96q-113 -12 -226 -12t-227 12q-223 34 -376 100q-82 30 -231 106l-230 130l-240 143l-148 90l-4 7h-20q-182 -64 -396 -64q-84 0 -173 10q-223 35 -383 132q-218 133 -343 379 q-97 206 -117 448v121zM355 1190q-2 -44 -2 -87q0 -399 193 -674q195 -246 499 -292q36 -3 70 -3q530 0 586 744q2 41 2 81q0 418 -182 668q-183 242 -491 288q-16 1 -32 1q-586 0 -643 -726z"/>
<glyph glyph-name="R" horiz-adv-x="2083" unicode="R" d="M48 2012l482 -8l323 8q107 -4 203 -24q203 -56 279 -159q83 -104 103 -259v-17q0 -204 -91 -350q-64 -95 -112 -143l-135 -128l414 -534q163 -195 231 -247l44 -31q92 -64 247 -72q13 -9 13 -21q0 -10 -9 -23l-44 -8q-50 -1 -100 -1q-149 0 -290 9q-112 16 -211 100 q-96 83 -212 247l-298 434q-24 36 -52 40q-110 4 -172 4q-63 0 -79 -4q-3 -132 -3 -242q0 -329 27 -455q32 -60 51 -60l188 -24q16 -40 -16 -44q-218 4 -407 4t-350 -4l-20 16q-4 24 8 28l127 16q48 4 68 103q18 185 18 274q0 30 -2 49v1291q-4 112 -40 143q-55 36 -83 36 h-5l-111 4q-21 7 -21 23q0 3 1 5q14 24 31 24h5zM582 1857v-857q20 -28 155 -44q33 -2 62 -2q87 0 137 18q176 100 196 395v10q0 429 -343 504q-45 3 -80 3q-106 0 -127 -27z"/>
<glyph glyph-name="S" horiz-adv-x="1096" unicode="S" d="M77 561q15 4 31 -12q19 -368 315 -418q33 -5 66 -5q64 0 130 20q157 58 199 242q1 18 1 36q0 48 -8 87q-4 31 -43 111l-42 62l-123 123q-230 177 -296 250q-76 73 -138 176q-78 156 -78 295q0 135 74 255q150 207 442 230q31 2 63 2q109 0 237 -21q130 -27 127 -42 l-8 -177v-180q-8 -43 -19 -43q-31 -4 -31 8l-19 111q-46 127 -169 193q-59 28 -159 28q-23 0 -49 -2q-207 -38 -238 -234v-54q8 -65 31 -103l54 -77l84 -85q281 -219 315 -257q257 -240 257 -519q0 -101 -34 -207q-135 -323 -546 -354q-28 -1 -55 -1q-80 0 -152 9 q-96 15 -150 34q-88 35 -88 43l-16 30q-1 29 -1 63q0 134 13 337q4 31 23 46z"/>
<glyph glyph-name="T" horiz-adv-x="1779" unicode="T" d="M154 2020q4 -12 198 -27h1218l146 23q32 4 32 -11l-8 -372q-8 -20 -20 -24l-24 8l-8 16l-8 83q-27 91 -201 119q-174 11 -415 11v-1387q7 -242 19 -309q16 -59 52 -75l59 -16l111 -4q35 0 43 -15q4 -28 -24 -36q-261 3 -433 3q-258 0 -318 -7q-39 0 -51 20q-4 23 12 31 q130 0 154 32q47 32 51 304v1459l-462 -11q-107 -12 -139 -44l-47 -67l-24 -75q-39 -24 -47 4q-3 6 -3 22q0 47 26 179q28 154 44 173q7 8 20 8q18 0 47 -15z"/>
<glyph glyph-name="U" horiz-adv-x="2073" unicode="U" d="M51 2013q204 -8 386 -8q181 0 339 8q39 -8 35 -20l-11 -27q-94 -4 -145 -27l-35 -39q-19 -24 -23 -328v-729q8 -176 19 -242l35 -141q98 -261 383 -312q28 -2 55 -2q242 0 382 154q117 149 128 453v1006q0 117 -35 156l-35 28q-4 7 -168 23q-11 16 -7 31l31 16l406 -8 l218 8l31 -16l-4 -27l-15 -8q-9 1 -18 1q-39 0 -99 -13q-47 -23 -63 -62q-15 -58 -15 -121l-4 -948q-20 -378 -184 -573q-214 -230 -522 -242q-30 -1 -60 -1q-88 0 -167 9q-413 58 -546 398q-19 31 -54 202l-16 149v893l-8 187q-11 74 -70 102l-35 11l-125 8l-19 20 q0 31 35 31z"/>
<glyph glyph-name="V" horiz-adv-x="2158" unicode="V" d="M47 2013l500 -8l227 8q35 -8 39 -20l-4 -23l-16 -8q-14 1 -26 1q-38 0 -71 -9l-39 -31q-8 -16 -8 -36t8 -46l31 -102l453 -1231q16 4 16 12q371 965 512 1356q2 14 2 25q0 33 -18 41l-47 16l-97 4q-28 12 -12 39l39 12l379 -8l176 8l31 -16v-23l-15 -12q-15 1 -30 1 q-70 0 -119 -32q-70 -67 -125 -200l-145 -351q-105 -223 -558 -1306q-36 -74 -59 -74q-4 -3 -9 -3q-15 0 -38 26q-12 8 -102 239l-613 1540q-43 90 -121 133q-51 27 -168 27l-12 12v7q0 32 32 32h7z"/>
<glyph glyph-name="W" horiz-adv-x="2888" unicode="W" d="M47 2009l385 -8l226 8q23 0 35 -16q4 -31 -8 -31l-85 -7q-28 -16 -39 -35q-3 -8 -3 -23q0 -42 26 -137q129 -475 350 -1207h8l499 1386q28 59 52 59q3 0 6 -1q19 0 55 -81l533 -1340l8 -8l358 1266q1 19 1 33q0 60 -13 60q-15 20 -50 28l-78 3q-27 16 -24 28q4 19 39 23 l343 -8l167 8q24 -8 32 -19l-12 -28l-97 -11q-43 -12 -71 -59q-23 -27 -159 -432l-456 -1413q-23 -44 -35 -44q-2 0 -4 1q-31 0 -43 19l-101 238l-471 1172q-424 -1153 -483 -1277l-70 -140q-16 -10 -30 -10q-35 0 -52 64l-517 1612l-67 183q-38 70 -66 78q-63 17 -93 17 q-10 0 -16 -2l-15 12q-1 5 -1 10q0 26 36 29z"/>
<glyph glyph-name="X" horiz-adv-x="1995" unicode="X" d="M83 2012q188 -8 365 -8t342 8q24 0 32 -16q4 -23 -8 -31q-115 -8 -123 -32q-7 -8 -7 -23q0 -37 42 -116l306 -544q385 584 377 643q4 40 -24 52l-32 12l-87 4q-16 8 -16 27q21 24 33 24h3l365 -8l179 8l31 -16q4 -31 -7 -31q-108 -8 -151 -32q-52 -32 -139 -163 l-441 -659l516 -865q64 -99 95 -123q56 -40 96 -52l119 -15q16 -12 16 -23q0 -8 -8 -17l-44 -12l-579 8l-48 16v24l48 31q4 32 -8 52l-401 710l-8 -4l-393 -658l-16 -52q-8 -36 16 -56q28 -15 107 -19q28 -12 12 -40q0 -12 -48 -12q-137 8 -274 8t-273 -8q-28 0 -40 16 q-1 6 -1 11q0 15 9 21l28 8q12 -1 24 -1q60 0 123 32q83 60 186 219l460 678l-43 84l-417 710q-59 83 -107 119q-72 52 -206 60q-12 12 -12 31z"/>
<glyph glyph-name="Y" horiz-adv-x="2035" unicode="Y" d="M60 2008q158 -9 322 -9q55 0 110 1l199 8l19 -8l4 -8v-19q-41 -25 -59 -25q-2 0 -4 1q-29 -16 -29 -46q0 -7 1 -14q16 -55 64 -143l393 -698l4 -16h7l96 190l289 536l32 115q4 32 -8 52l-35 28q-60 4 -60 28q4 23 28 27q131 -8 269 -8t282 8q24 0 32 -16l-8 -27l-16 -8 q-7 2 -17 2q-29 0 -86 -18q-51 -24 -87 -52q-95 -59 -492 -770q-88 -159 -99 -206q-25 -80 -25 -284q0 -29 1 -61q-1 -48 -1 -96q0 -143 9 -278q4 -47 23 -83q20 -28 56 -44l179 -15q23 -16 16 -32l-20 -16q-224 4 -421 4q-196 0 -365 -4l-20 16q-4 24 8 28l127 16 q28 7 44 31q41 29 41 435q0 96 -2 212q-12 107 -28 151q-19 64 -75 159q-298 516 -456 750q-56 71 -115 115l-84 36l-59 4q-16 4 -16 31z"/>
<glyph glyph-name="Z" horiz-adv-x="1611" unicode="Z" d="M86 1557q0 106 52 412l19 40h36l59 -16l184 -8h1093q24 -8 32 -20q0 -23 -32 -74l-601 -975l-480 -751v-4h676q138 12 185 28l83 35l35 28q47 58 63 106q23 110 35 114q36 8 39 -36v-21q0 -155 -55 -364q-7 -27 -31 -43l-24 -8l-919 12h-464q-36 0 -43 15v32l11 27 q924 1463 1097 1754h-625q-118 -12 -177 -28q-75 -20 -134 -90l-47 -87l-15 -78q-12 -28 -32 -24l-12 4z"/>
<glyph glyph-name="bracketleft" horiz-adv-x="545" unicode="[" d="M475 1651v-109h-260l4 -1782h266v-108h-426v1999h416z"/>
<glyph glyph-name="backslash" horiz-adv-x="1090" unicode="\" d="M61 1589h220l751 -1587h-227z"/>
<glyph glyph-name="bracketright" horiz-adv-x="532" unicode="]" d="M471 1653v-1997h-426v106h268l2 1784h-258v107h414z"/>
<glyph glyph-name="asciicircum" horiz-adv-x="752" unicode="^" d="M47 1284l324 297l323 -297h-78l-245 98l-250 -98h-74z"/>
<glyph glyph-name="underscore" horiz-adv-x="1380" unicode="_" d="M6 -299h1421v-31h-1421v31z"/>
<glyph glyph-name="grave" horiz-adv-x="416" unicode="`" d="M367 1253h-39l-267 328h197z"/>
<glyph glyph-name="a" horiz-adv-x="1786" unicode="a" d="M936 1077h-27l-188 -393h373zM961 1581l616 -1391q13 -24 41 -68t55 -79q11 -13 21 -25t16 -18h-373q1 8 3 23t1 26q-1 40 -15 80t-23 61l-125 293h-562l-139 -293q-8 -20 -21 -58t-16 -73q-2 -7 -2 -25v-24v-10h-377q11 12 31 36l35 42q18 26 38 60t30 52l725 1391h41z "/>
<glyph glyph-name="b" horiz-adv-x="1038" unicode="b" d="M430 145q39 3 101 44q63 41 109 106t46 137q-4 83 -40 155q-36 71 -102 125q-67 54 -149 79l-80 22v-672zM428 874q53 12 98 56t70 105t25 122q-3 73 -45 133t-105 98q-64 38 -123 42l-33 2v-582zM883 1163q-1 -81 -37 -139t-111 -135l-53 -51l68 -56q100 -82 148 -157 t54 -185q0 -134 -80 -234t-210 -153q-128 -53 -263 -53h-374q5 8 13 26t11 27q13 33 17 77t4 67v1196q-2 19 -8 58t-13 60q-3 15 -11 37t-13 33h389q90 -1 172 -31t150 -85t107 -133q40 -78 40 -169z"/>
<glyph glyph-name="c" horiz-adv-x="1399" unicode="c" d="M1288 1520v-271l-57 29q-99 52 -175 74t-163 22q-39 0 -59 -2q-114 -7 -214 -58t-172 -134t-110 -189q-39 -106 -39 -221q1 -159 77 -294t206 -217t286 -83q104 0 179 24t159 81l115 79l-18 -258q-194 -116 -492 -116q-163 0 -299 53t-237 156t-159 253t-61 336 q0 171 74 319q74 147 198 255q123 108 277 166t307 59q127 -2 205 -13t172 -50z"/>
<glyph glyph-name="d" horiz-adv-x="1274" unicode="d" d="M438 160q112 23 206 82t162 146q68 86 102 190q36 104 36 221q0 35 -2 53q-12 127 -80 245q-68 117 -184 201t-254 107l-68 12v-1274zM1221 821q2 -16 2 -51q-1 -155 -59 -294q-58 -140 -166 -248t-254 -168q-145 -60 -314 -60h-364q4 7 10 19t12 26q13 30 18 76t5 69 v1201q-2 25 -8 69t-19 78q-8 20 -12 28t-6 15h288q219 0 414 -97q194 -98 316 -272t137 -391z"/>
<glyph glyph-name="e" horiz-adv-x="1065" unicode="e" d="M795 1333q-42 17 -174 53q-92 25 -205 31l-66 4v-547q40 5 76 7q36 1 74 3t71 3q29 2 82 2q73 0 203 -10l-137 -224q-91 40 -191 60q-52 11 -88 15t-90 5v-577h72q57 0 90 5t133 21q85 14 135 26t112 32t114 39l-121 -281h-826q3 0 23 45q14 36 18 79t4 66v1201 q0 10 -1 33t-4 51t-11 53q-6 16 -15 30t-14 23h859z"/>
<glyph glyph-name="f" horiz-adv-x="1001" unicode="f" d="M59 0q5 8 11 26t8 27q8 22 14 57t9 53l3 27v1201q0 24 -4 68t-18 79q-4 12 -12 24t-11 19h889l-133 -252q-114 43 -194 57q-27 6 -97 14t-108 13l-66 8v-565q74 5 221 12q47 2 138 2q114 0 182 -2l-143 -237q-53 23 -106 39t-114 26q-88 17 -178 17v-523q2 -20 8 -62 t15 -75q1 -7 9 -25t10 -20q2 -4 3 -8h-336z"/>
<glyph glyph-name="g" horiz-adv-x="1550" unicode="g" d="M1450 96q-37 -20 -131 -44q-95 -24 -213 -40t-219 -16q-49 0 -74 2q-204 13 -381 106t-285 267t-108 413q9 202 79 356t188 256q118 104 270 156t321 54q121 0 247 -14t206 -46v-270l-58 29q-248 125 -446 125q-35 0 -51 -3q-147 -11 -265 -95t-184 -220t-67 -299 q1 -11 1 -20t1 -23q7 -116 53 -218t122 -179t176 -123t222 -60q20 -2 66 -2q122 4 204 31l66 21q8 78 8 122q0 158 -45 304q-19 59 -57 139l368 2q-43 -172 -43 -277v-168q0 -115 17 -206z"/>
<glyph glyph-name="h" horiz-adv-x="1339" unicode="h" d="M1237 190q3 -20 7 -58t13 -71q9 -19 15 -35t10 -26h-336q4 0 25 57q11 31 15 71t5 62v508h-641v-508q2 -20 6 -55t15 -72q5 -15 13 -34t11 -29h-336q2 0 23 53q12 38 16 77t6 60v1201l-6 63t-16 74q-3 9 -11 27t-12 26h336q-4 0 -20 -47q-11 -38 -17 -79t-8 -64v-484h641 v484q-1 25 -7 69t-19 78q-4 12 -10 24t-9 19h336q1 0 -22 -45q-14 -34 -18 -78t-5 -67v-1201z"/>
<glyph glyph-name="i" horiz-adv-x="453" unicode="i" d="M350 190q2 -22 7 -64t18 -77q1 -5 9 -23t11 -26h-336q4 8 12 26t11 27q14 33 18 74t4 63v1201q-1 23 -7 69t-19 80q-4 8 -10 22t-9 19h336q-3 0 -20 -39q-15 -38 -19 -82t-6 -69v-1201z"/>
<glyph glyph-name="j" horiz-adv-x="733" unicode="j" d="M380 -222q-143 -62 -329 -62h-23q166 58 284 148q70 69 70 262v11v1270l-117 -4q-117 0 -219 -23l82 204l526 -3q-3 0 -21 -74q-3 -20 -5 -59t-1 -57v-1251q1 -249 -241 -360z"/>
<glyph glyph-name="k" horiz-adv-x="1384" unicode="k" d="M1212 1544q-46 -31 -92 -78t-69 -73l-451 -531l533 -672q19 -22 57 -62t74 -75q8 -7 26 -23t24 -22q6 -4 9 -8h-356q-3 0 -31 61q-18 33 -44 71t-40 58l-502 637v-637q2 -22 8 -61t17 -82q2 -5 8 -19t8 -20t4 -8h-336q1 0 17 43q8 21 14 55t10 58q3 24 4 34v1201 q0 23 -3 63t-15 72q-6 14 -14 30t-13 25h336q-3 -3 -5 -8t-8 -19t-9 -18q-13 -34 -17 -78t-6 -67v-529l416 529q16 23 44 65t38 84q1 2 4 18t4 23h414q-6 0 -58 -37z"/>
<glyph glyph-name="l" horiz-adv-x="1004" unicode="l" d="M412 174q40 0 88 8t98 20t74 17q150 37 280 88l-123 -307h-770q5 9 13 25t12 34q10 30 14 70t6 61v1201q0 23 -4 67t-18 80q-7 16 -13 26t-10 17h336q-3 0 -20 -39q-15 -38 -19 -82t-6 -69v-1217h62z"/>
<glyph glyph-name="m" horiz-adv-x="1944" unicode="m" d="M973 483l-512 639v-932q1 -22 7 -68t15 -73q4 -13 12 -27t13 -22h-338q4 9 16 31t13 26q8 25 11 53t4 49q1 22 1 31v1199q-13 21 -42 65t-52 68q-17 18 -35 34t-27 25h340l574 -752l573 752h334q-4 -3 -12 -11l-18 -18t-21 -24q-26 -28 -55 -71t-43 -66v-1201 q3 -19 9 -61t13 -66q3 -13 11 -33l12 -30h-336q5 10 13 29t13 39q10 25 14 64t5 58v934z"/>
<glyph glyph-name="n" horiz-adv-x="1620" unicode="n" d="M1286 0l-772 1040v-850q2 -22 8 -60t17 -77q1 -5 9 -25t11 -28h-336l14 28t13 29q10 35 14 73t4 60v1199q-13 16 -41 49t-45 49q-27 27 -65 53t-58 39l355 2l850 -1147v957q-2 17 -6 49t-13 63q-5 22 -13 44t-13 34h335q-2 -4 -6 -13q-4 -8 -10 -22t-10 -24 q-10 -30 -14 -70t-5 -61v-1201q2 -18 6 -52t13 -66q4 -11 9 -26t10 -28t7 -18h-268z"/>
<glyph glyph-name="o" horiz-adv-x="1647" unicode="o" d="M274 803q12 -142 65 -259t139 -201q86 -85 194 -129t219 -44q35 0 53 2q114 12 208 98t146 216q52 131 52 266q0 39 -2 57q-18 185 -114 327t-236 216q-139 74 -277 75q-131 -7 -234 -90t-159 -213t-56 -268q0 -35 2 -53zM1575 815q-1 -187 -61 -339t-166 -260t-242 -166 q-138 -58 -285 -58q-11 2 -21 2h-26q-218 14 -382 120t-252 283t-95 396q-1 162 57 308t161 256q103 111 240 173t292 65q163 0 303 -57t245 -162q105 -106 165 -248t67 -313z"/>
<glyph glyph-name="p" horiz-adv-x="946" unicode="p" d="M393 1581q95 0 183 -32q88 -33 156 -91t109 -140q40 -82 40 -175q-1 -180 -103 -310t-276 -137l-152 -4v-502q2 -21 8 -61t15 -74q3 -7 9 -23t8 -22t5 -10h-336l12 27t11 32q12 35 16 73t6 58v1201q-2 23 -6 63t-16 76q-4 9 -12 25t-11 24zM414 784q72 24 124 75t78 120 t25 151q-3 74 -39 143t-92 115t-115 60l-45 10v-694z"/>
<glyph glyph-name="q" horiz-adv-x="1995" unicode="q" d="M307 807q15 -185 108 -331t239 -227t313 -81q21 0 65 4q90 10 170 62t142 133t96 179t33 193q0 31 -3 45q-14 153 -80 275q-66 121 -166 203t-216 122t-236 39q-103 -7 -190 -56q-88 -49 -150 -130t-94 -177t-33 -204q0 -33 2 -49zM1710 848q2 -11 2 -21v-26 q0 -56 -8 -121t-26 -128t-36 -99l-26 -50q36 -53 48 -71t35 -50t46 -59q45 -48 82 -87t65 -77l45 -57l-57 2q-44 2 -80 14t-74 31t-92 47q-80 38 -178 105l-88 -68q-56 -43 -192 -91t-316 -48q-220 8 -400 106t-286 275q-106 178 -113 418q-1 219 109 404t297 293t407 107 q172 -1 322 -59t262 -160q111 -102 177 -240t75 -290z"/>
<glyph glyph-name="r" horiz-adv-x="1372" unicode="r" d="M385 696l-35 -20v-486q2 -21 6 -57t15 -74q5 -15 13 -33t11 -26h-336q4 8 12 26t11 27q12 36 16 76t6 61v1201q-1 23 -7 67t-19 78q-2 10 -8 23t-11 20l365 2q96 -1 196 -33t182 -88t134 -138q52 -80 53 -169q-1 -126 -45 -217t-184 -184l-78 -54l25 -59q11 -27 55 -81 t117 -142q83 -100 113 -135t73 -77t104 -91l142 -113h-207l-82 45q-78 44 -134 92t-202 187q-160 159 -301 372zM401 758q143 33 247 124t104 208q0 12 -4 40q-19 108 -78 170t-114 86t-163 58l-43 12v-708z"/>
<glyph glyph-name="s" horiz-adv-x="973" unicode="s" d="M827 1522v-273l-55 45q-62 53 -110 76t-144 23q-90 -3 -156 -67t-67 -152q-1 -52 17 -92t46 -69t70 -58q41 -29 90 -62q135 -90 178 -119q42 -29 96 -80q54 -50 88 -120t33 -158q-9 -118 -77 -216t-178 -154t-242 -56q-88 3 -162 15t-133 38v317l78 -79q57 -58 105 -85 t116 -28q95 0 161 64t66 167q-7 58 -32 100t-63 72q-38 29 -108 73q-71 44 -77 48q-43 30 -109 78t-105 90t-64 101q-25 58 -32 143q0 94 37 182t104 157q66 69 152 109t180 39q186 -3 297 -69z"/>
<glyph glyph-name="t" horiz-adv-x="1346" unicode="t" d="M1200 1323q-87 37 -166 57q-50 14 -110 26t-90 13l-39 2v-1231q-1 -22 3 -64t17 -77q5 -9 12 -22t10 -19t5 -8h-338q4 6 10 18t12 29q13 31 18 75t5 68v1219l-37 6q-50 0 -134 -15t-142 -32q-101 -27 -187 -68l88 281h1155z"/>
<glyph glyph-name="u" horiz-adv-x="1444" unicode="u" d="M1008 96q-106 -60 -206 -86t-206 -26q-156 2 -268 104t-168 264t-56 334v705q-1 19 -6 57t-14 65q-7 24 -14 41t-11 27h336q-3 0 -20 -45q-11 -38 -17 -80t-8 -65v-779q0 -144 53 -244t133 -149t164 -51q74 0 144 26t127 76q55 52 87 128t32 169v824q-2 21 -6 60t-17 75 q-5 15 -12 31t-11 24h336l-12 -21t-12 -26q-14 -36 -18 -78t-3 -65v-1201q3 -21 11 -65t14 -68q1 -5 9 -27t11 -30h-336q5 8 14 24t15 35q7 21 11 45t6 37z"/>
<glyph glyph-name="v" horiz-adv-x="1688" unicode="v" d="M907 0h-190l-553 1391q-8 24 -26 69t-42 78q-21 24 -26 30t-11 13h383q-4 -8 -10 -22t-10 -29q0 -44 12 -84t19 -55l368 -990l391 990q6 17 14 55t9 78q-3 16 -7 32t-7 25h391q-2 0 -41 -55q-15 -23 -37 -68t-31 -67z"/>
<glyph glyph-name="w" horiz-adv-x="2042" unicode="w" d="M1530 0h-195l-297 887l-290 -887h-201l-377 1391q-6 21 -20 60t-31 69q-8 12 -22 32t-21 29h332q-4 -7 -10 -23t-9 -22q-4 -20 -4 -37q0 -26 7 -60t11 -48l256 -914l375 1114l377 -1118l234 918q4 15 9 49t5 94q-3 18 -7 29t-7 18h331q-6 -8 -18 -26t-16 -23 q-16 -28 -31 -73t-21 -68z"/>
<glyph glyph-name="x" horiz-adv-x="1405" unicode="x" d="M1206 190q12 -19 34 -54t48 -73q2 -1 24 -27t29 -36h-372v53q-1 35 -17 75t-28 62l-228 379l-229 -379q-9 -20 -25 -60t-18 -75q0 -15 2 -31t2 -24h-379l47 57q26 36 52 74t40 59l377 601l-362 600q-9 16 -33 51t-37 51q-17 23 -41 49t-37 39h373q0 -16 4 -53t6 -47 q9 -38 19 -59t16 -31l227 -377l224 377q5 9 15 34t17 62q6 23 9 51t4 43h377q-14 -12 -42 -39t-44 -47q-17 -23 -37 -55t-31 -49l-367 -590z"/>
<glyph glyph-name="y" horiz-adv-x="1399" unicode="y" d="M836 756v-566q1 -19 6 -60t12 -67l12 -27t10 -24q3 -6 5 -12h-336q-1 0 28 63q9 31 13 69t4 58v519l-373 682q-13 20 -37 57t-51 68q-11 14 -33 34t-33 31h373q-4 -9 -10 -29t-8 -28q0 -39 16 -78t27 -55l244 -426l231 426q6 12 14 43t11 51q1 39 -3 62t-6 34h381 q-10 -7 -29 -23t-30 -28q-20 -22 -40 -52t-34 -54t-18 -33z"/>
<glyph glyph-name="z" horiz-adv-x="1253" unicode="z" d="M426 168l82 -8h22t19 -2q79 0 201 14t241 43q64 14 205 61l-86 -276h-1026l659 1403l-125 -2q-50 -1 -133 -9t-155 -28q-133 -35 -256 -102l98 319h928z"/>
<glyph glyph-name="braceleft" horiz-adv-x="2485" unicode="{" d="M68 976h175l29 -35v35h173v-20l20 -6v26h135l18 -25l46 35q15 1 27 1q59 0 70 -16l77 5l29 -35v35h214l29 -35l34 34l19 11q14 1 26 1q39 0 59 -10h651l38 -44v43h148l73 -96l17 97l171 -1l66 -76v-60q-37 -7 -37 -39q0 -7 2 -14v-588l35 -43v-59h-178q-20 9 -23 33h-14 l-10 -16h-94q-8 -26 -44 -17q3 18 -41 18q-11 0 -26 -1h-358q0 -23 -54 -23h-13l-38 23l-12 1v-24q-42 -4 -74 -4q-80 0 -91 27q-7 -26 -44 -26l-44 26l-9 -25h-123l-17 25h-15q-37 -26 -74 -26l-75 26h-371l-29 -26l-76 68q-50 -17 -58 -59h-276l-63 78v59q27 2 27 42v9 v576q0 41 -27 52v63zM1738 482v-51q173 -47 304 -137h22v51q-30 0 -30 41v361l74 -385l23 -17l74 402l-1 -496q-8 -30 -29 -27v-42h165v44h-2q-28 0 -28 49v10l-2 617q0 22 32 24v42h-157l-52 -290l-54 287l-27 3h-104v-44q24 1 30 -24v-316h-43q-8 -109 -41 -127h-30v433 q3 32 31 35v43h-155v-44q30 7 30 -42v-392zM2108 328q-2 -7 -2 -13q0 -25 31 -46v-61q-161 103 -324 172t-441 102q-54 7 -116 7q-183 0 -433 -58l-149 -52l-30 42h-14l-7 -33v-26l51 17l-185 -84l-120 -79v-15h22q384 254 870 254q52 0 105 -3q271 -33 452 -110t298 -159 h21v25l25 -25l5 51l30 9v34q-54 4 -73 51h-16zM1431 261q7 -78 63 -92q13 -3 25 -3q37 0 55 35h438l-10 -18l-7 9h-13l14 -26q30 0 30 31q0 5 -1 10l-7 9h-453q-15 -33 -57 -33h-2q-56 20 -61 78q10 67 65 76h2q36 0 55 -34l164 -1q16 32 0 46t-31 -3v-17h14v9h7v-17h-147 q-21 34 -58 34q-10 0 -21 -2q-53 -12 -64 -91zM1964 489l11 1v-85h-17zM1930 833v-240h37v240h-37zM1497 259q7 -29 24 -8h400v18h-400q-17 20 -24 -10zM1574 524v-50q83 -8 155 -40v56q-30 3 -29 36v376q0 29 21 34v33h-141v-44q17 0 22 -29v-340q-6 -37 -28 -32zM1513 635 v-94l52 -52v44q20 -2 31 25v35q-11 -3 -21 -3q-36 0 -54 45h-8zM1335 558v-50l148 -9v42q-30 5 -28 43v129q36 -2 39 -35h50v129h-53q6 -36 -36 -35v136q5 1 10 1q49 0 49 -58q0 -8 -1 -18h61v136h-239v-44q30 -8 30 -35v-299q-9 -33 -30 -33zM1284 328v-136l20 -17h127 q0 8 -30 33v213h-66q-7 -7 22 -33v-43q-20 9 -35 9q-25 0 -38 -26zM1260 807l9 -35l34 -35l-102 86v67q21 28 43 12q17 -13 17 -57q0 -10 -1 -22h60v146h-60v-9l-6 1q-2 17 -48 17q-16 0 -37 -2q-40 -14 -56 -63v-131q41 -61 118 -104v-76q-18 -22 -33 -22q-19 0 -35 32v66 h-50v-170h50v17q36 -18 66 -18q59 0 91 70v127q-8 16 -16 31l47 -48h6v51q-3 -1 -6 -1q-34 0 -76 70h-15zM1328 318q14 15 29 2v-104q-10 -13 -29 -8v110zM1163 354v-34h31q-2 -32 -2 -57q0 -82 18 -88q15 -3 28 -3q25 0 37 11v25q-28 -16 -37 0v112h31v34h-31v42l-44 -8 v-34h-31zM1067 201v-26h112v8q0 38 8 83l-24 3q-7 -58 -25 -68l-10 7v180l13 11l3 22h-77v-22l15 -13v-185h-15zM1128 731l16 -44h13l-13 44h-16zM467 216q-22 -31 7 -50h21v16l-21 1v18h431q27 -32 60 -32q13 1 27 5q48 18 55 87q-3 69 -55 89q-15 6 -28 6q-34 0 -60 -36 h-133v15h14v-7h13q-2 31 -24 27q-22 -5 -20 -29t17 -23h141q29 34 56 34q14 1 26 -7q38 -24 37 -67q-3 -58 -48 -74q-12 -4 -23 -4q-29 0 -48 31h-445zM562 269v-18h396q12 -20 21 8q-7 26 -21 11zM954 850l16 -146h-36zM763 782v-104h66l23 -34l15 9v51h-36l-60 78h-8z M608 911v-427q36 -53 80 -70q7 -1 13 -1q74 0 128 95v-51l105 27v49h-22l14 102h60l8 -72q0 -25 -24 -23v-50l135 18v60q-30 0 -30 51l-37 287q2 25 37 27v36h-199v-44q23 4 29 -25l-45 -349q-5 -39 -31 -43v162h-66v-153q-23 -16 -39 -16q-20 0 -28 24v360q18 30 35 30 q16 0 32 -25v-101h66v180l-74 -9q-8 17 -46 17q-11 1 -24 -1q-59 -6 -77 -65zM280 969v-44q30 -8 30 -35v-459h52l7 -10v-118l15 -8q20 -4 39 -4q102 0 139 123v468q-3 49 30 43v44h-118v-44q2 1 5 1q24 0 24 -61v-451q-24 -34 -51 -34q-6 0 -12 2q-34 9 -39 75l-2 438 q5 36 37 30v44h-156zM474 823v-418l21 9v419zM74 226v-43h265l15 179v55l-55 4q-4 -177 -76 -177q-7 0 -16 2v657q3 26 29 21v45h-162v-44q28 -6 28 -52q0 -11 -1 -24v-606zM280 823v-453l9 51l13 10v402zM1303 737q1 -1 1 -2v1z"/>
<glyph glyph-name="bar" horiz-adv-x="231" unicode="|" d="M68 1649h110v-1987h-110v1987z"/>
<glyph glyph-name="braceright" horiz-adv-x="1806" unicode="}" d="M1655 1052l-121 -291l-38 -65q-27 3 -107 52l-180 301zM1635 260h7v-66l7 -35h-7l-7 21v80zM1642 152h7v-6h-7v6zM1579 184l11 -11l3 4v48q-14 4 -14 14q-3 24 7 35l-10 6l7 18l34 -4l-7 -24l7 -38l-3 -86l-42 3q-3 24 7 35zM88 1052h76l4 -592q3 -10 38 -7q7 97 7 599 h906l145 -232v-7l-294 153q-21 2 -42 2q-92 0 -165 -47q-69 -59 -87 -146v-69q18 -66 80 -93l-62 -18h-25l11 45l-166 -27l100 131q19 25 19 59q0 17 -5 35l-7 17q-14 17 -42 28q-10 1 -21 1q-109 0 -197 -126v-14l52 -14h18q13 28 58 59q35 14 42 -3l-4 -28l-72 -93 l-80 -94l-3 -28l-66 -13q-10 -7 -7 -18l90 -20q-21 -25 -17 -35q-4 -21 7 -31q-38 0 -35 -18l31 -13l-3 -90l-18 7v10l-20 17v7l-18 11v7l-13 13l-80 11l3 -31q25 -4 25 -7q0 -14 -28 -14q-21 14 -45 0l-42 10l4 -27q24 6 35 0q-7 -14 0 -18q20 -3 31 7q0 -17 13 -24 q4 7 25 0l17 -14q7 4 28 -10l3 3l11 -17l10 17l7 -3q-7 -18 0 -21q-24 3 -21 -10l121 6l350 -6l100 -14q31 -14 76 -14q7 34 21 41q24 -3 38 7l3 -3l42 3l-7 21l7 7q17 -7 21 0v7l-156 -10l-17 -7l-211 -18l131 21l10 10q14 -3 38 -3t59 3l70 11h38l-4 14h14v7h-52 q-118 -21 -246 -28l122 24l3 11l-14 3v10l17 -3q7 -35 32 -14q0 14 -14 17l34 4h21l-7 -21l45 7l-14 10l-10 -7l-7 4q10 14 24 10l7 7q4 -27 17 -27l39 13l-4 7l-17 7l128 18l76 -4l-4 10q-27 7 -27 14l-24 4l-70 48l94 80l349 -142l21 -28q10 14 31 14q-27 -3 -34 -35l13 4 q4 -14 21 -14l-17 -10q-7 -18 -31 -21l24 -4v-34q-24 -4 -24 -11l24 -3v-52l-7 -7l-3 -31h-7l-18 -24q-13 3 -17 -7h-1429v941zM1586 260v-18h7v18h-7zM1583 170v-4h3v4h-3zM1185 623h21l-4 -3l7 -11l253 -104l65 -110l-311 124q-7 -3 -28 11l-10 10q-24 -10 -52 -7v28z M1199 651l238 -108l7 -10v-7l-211 87l-38 27zM1036 917q111 -48 249 -128l121 -194v-7q-142 56 -183 83l3 11l-20 7v62l-14 10q-14 4 -21 -10l-7 4q4 17 4 41t-4 55q-24 4 -24 -7l-4 -121l-17 25l-14 -7q4 38 -27 24q4 -33 4 -59q0 -25 -4 -41l-14 -7l-52 -7h-28 q59 52 76 142v20q0 68 -24 104zM1341 173l10 -34l10 3q-3 17 11 21l-4 10l-14 -10l-10 10h-3zM1292 170l4 -14q17 -4 20 -14h11l3 24l-3 7l-11 -17l-17 17zM1289 149l3 -10l7 3v10zM1244 146l3 -7l7 10h14q-4 -10 10 -10q2 0 2 2q0 6 -16 32zM1206 170l3 -31h10q-6 13 18 17 q2 2 2 4q0 7 -16 17zM1147 173v-31l14 7l10 -7l7 10l10 -13l7 27l-3 7q-11 7 -24 -17q-7 28 -21 17zM1175 325l3 -6l10 3l-3 7zM1168 734l17 -4v-52h-24q7 18 0 35zM1105 720q31 3 35 -10v-39l-10 -3h-28zM1095 166q-7 -24 17 -27l24 13v14l-13 11zM1123 623l10 -3l-7 -7 l-10 3zM1112 322v-7h14v7h-14zM1081 606q42 -4 42 -11l-7 -13q-11 -7 -35 17v7zM1105 166l18 -3l-4 -17l-17 6zM1105 308v-7h14v7h-14zM1029 592h4q27 0 62 -38v-6q0 -38 -35 -29q-31 -3 -45 11v10q22 6 22 25q0 11 -8 27zM1071 180l3 -10l11 3l-4 7h-10zM1036 163 q4 -17 21 -24q17 -4 28 7v3l-28 -3l-7 10l14 24q-4 7 -28 -17zM1015 485q31 -7 45 0l-14 -21l-31 14v7zM1043 391l17 -10v-7h-27zM1036 606h7v-7h-7v7zM1026 277l14 -7l-4 -14h-14zM974 173q-4 0 24 -31l10 4v27l-13 -14q-14 21 -21 14zM981 568l17 -4q0 -14 -14 -14h-14 q-3 18 11 18zM970 533l18 -14l-4 -10l-17 3zM905 460l27 -3l56 -31q3 -14 -63 -66l-45 -7h-38l25 31q3 11 3 20q0 30 -31 46q7 -1 14 -1q29 0 52 11zM974 152v-10l7 4v6h-7zM867 893q10 2 19 2q32 0 53 -19q18 -21 21 -45q2 -13 2 -25q0 -99 -102 -131q-10 -2 -19 -2 q-32 0 -54 19q-25 34 -25 52q0 4 1 7v9q0 45 38 98q24 25 66 35zM915 163q-3 -17 24 -24l21 10q1 4 1 7q0 11 -8 17h-10l7 -21l-7 -6l-14 6q7 18 0 21zM925 578h4q14 0 14 -24l-7 -52l-18 3q-1 10 -1 20q0 31 8 53zM908 325l7 -13h14l1 1q0 3 -12 12h-10zM891 170l3 -28 l11 4l-4 27zM853 571l34 -14q1 -8 1 -15q0 -40 -21 -37q-18 0 -21 18zM873 173v-7h4v7h-4zM853 149l3 -7l11 4l-4 27l-10 -3q7 -18 0 -21zM846 173v-7h3v7h-3zM801 149l3 -7l14 10l14 -10l3 4l-13 27zM801 561l17 -7q-4 -14 -4 -30t4 -36l-34 -7l-14 4v45q24 0 34 13 q-14 7 -3 18zM756 412q17 3 34 -10q0 -25 -31 -35h-45l-7 7q4 38 43 38h6zM759 170l4 -28l14 10l10 -10h3q-6 21 0 28l-20 7zM770 170h7v-11h-7v11zM704 166l3 -20h14q-14 17 0 24l14 -4l-7 -24q7 -3 21 10q2 1 2 3q0 6 -16 22h-17zM697 543l10 -3l-3 -14l28 -7l3 -41 l-24 -7h-17zM704 287h21v-7h-21v7zM666 173l3 -31h7l4 28l10 -14l7 3q3 14 -21 18zM448 360l3 14l132 17l7 14l-7 14l3 7q9 -3 24 -3q22 0 56 6q-38 -31 -38 -57q0 -24 31 -43l-187 -24l-24 3l3 14l115 14q13 10 3 38l-114 -17zM607 530l35 -7l13 3l4 -10v-18l-52 25v7z M621 156l3 -14l14 10l11 -10h3l-7 17l7 11l-14 7l-17 -4q7 -14 0 -17zM614 485l31 -18l-7 -7h-24l-4 18zM631 170l7 -4l-3 -7zM562 163q0 -14 14 -21q21 -3 31 10v14l-10 11q-21 7 -35 -14zM579 170l18 -4l-4 -17l-17 3zM566 523l13 -4l-3 -69l-21 10l-24 -3q24 7 24 14 l-3 17l-42 -7l-7 4l56 13l7 7q-7 14 0 18zM538 184v-7l10 -4h7l-7 11h-10zM545 149v-7l10 4l-3 6zM510 170q0 -24 14 -28h10v7l-10 7q-3 17 7 21l-4 3zM507 460h17v-7h-17v7zM458 173q-7 -7 14 -21l-3 -6l13 3v7q-20 14 -13 24zM476 173v-3h3v3h-3zM469 502l7 -4l-4 -62 l-21 14l-27 -7l-21 4l7 24l45 3l14 18l-4 6zM455 149l3 -7h7l-3 10zM441 173v-7l7 4v7zM392 173l18 -27q10 6 24 0l3 6l-10 11l3 12q-3 -4 -20 2l7 -21l-18 21zM410 256h10v-7h-10v7zM382 253h17l-17 -11h-17zM375 149v-7h7v7h-7zM354 173l4 -31l14 4q-7 6 3 17l-7 3l4 4 l-4 7zM358 332v-7h7v7h-7zM341 325h7q1 -3 1 -5q0 -8 -8 -8h-11zM296 152l3 -10l7 4l7 20q10 -24 28 -20l-4 34l-7 -3l4 -11l-4 -3l-21 17l-13 -3q13 -11 0 -25zM285 319q32 -6 37 -1l-9 -13l-31 7zM313 291h7v-7h-11zM223 152l3 -10q11 0 14 17l14 -17l10 4l-17 34l-10 -3 l-7 -21zM192 429v-41l7 -4l10 4l-3 59h-11zM105 156q0 -14 18 -17l38 -7l24 3l-4 14l-51 10zM168 121v-7h10v7h-10zM147 125v-7h10v7h-10zM109 128v-7h24v7h-24zM322 318l1 1q-1 0 -1 -1z"/>
<glyph glyph-name="asciitilde" horiz-adv-x="850" unicode="~" d="M555 1337q-47 -1 -89 31t-84 63t-89 31q-41 0 -67 -8t-54 -24t-51 -29l-68 -37l39 70q33 58 91 100t116 45q37 -1 63 -15t66 -46t62 -44t59 -12q49 4 79 12t58 24q28 14 62 32l51 22l-43 -71q-36 -60 -94 -102t-107 -42z"/>
<glyph glyph-name="nonbreakingspace" horiz-adv-x="1536" unicode=" "/>
<glyph glyph-name="exclamdown" horiz-adv-x="461" unicode="¡" d="M422 1444q0 -49 -25 -93q-25 -43 -67 -69t-92 -26q-50 1 -90 26q-40 26 -64 66t-24 90q0 74 50 128t126 57q74 -1 129 -53t57 -126zM121 1235l217 -215v-787q0 -21 6 -61t17 -68q27 -57 32 -57h-325q6 10 18 29t17 34q12 32 15 68t3 55v1002z"/>
<glyph glyph-name="cent" horiz-adv-x="1139" unicode="¢" d="M518 -14l-76 -258q-43 26 -84 26l78 256q-19 4 -57 25q-69 42 -109 86.5t-80 118.5q-24 47 -39.5 121.5t-15.5 125.5q0 151 70.5 268t192 180.5t270.5 63.5q19 0 63 -4q18 59 41 135t29 97q13 -8 30 -13q8 -5 43 -8q-22 -76 -33.5 -113.5t-33.5 -111.5q72 -16 158 -57 q17 -12 28 -17l-47 -135h-16q-12 16 -20 27.5t-16 21.5t-20 19q-40 40 -90 61q-92 -300 -217 -735q-6 -23 -9.5 -36.5t-12.5 -47.5q63 -31 147 -31q54 0 102.5 15t90 39.5t100.5 68.5l-8 -94q-68 -50 -154.5 -77.5t-173.5 -27.5q-78 0 -131 11zM471 129l109 356 q44 146 68 227.5t63 209.5q-30 4 -41 4q-114 0 -194.5 -60t-120.5 -158.5t-40 -209.5q0 -72 17.5 -142.5t53 -129t85.5 -97.5z"/>
<glyph glyph-name="sterling" horiz-adv-x="1139" unicode="£" d="M387 684h-16l-187 -10v28v64l23 -2q29 -4 84 -4q56 -4 88 -4q-1 12 -2.5 24t-2.5 24.5t-3 24.5q-6 37 -6 74q0 119 23.5 208.5t88.5 164.5q54 64 133 96.5t166 32.5q98 0 176 -37q84 -44 88 -76q-12 -14 -40.5 -49.5t-45.5 -52.5l-8 29q-22 49 -68 80.5t-96 31.5 q-68 0 -128 -35t-89 -94q-23 -52 -29 -102.5t-6 -130.5l7 -117l6 -96h16l225 8l72 6l-2 -27v-65q-73 2 -158 4t-135 2h-14q6 -43 6 -88q0 -89 -22.5 -173t-68 -157t-110.5 -125h68l432 9l188 8l-4 -21v-45v-49l4 -47l-180 4q-66 2 -116.5 3t-84 2t-100.5 1q-40 0 -119 -2 t-118 -2q-76 -2 -134 -4t-96 -2l4 51q0 30 -4 84q123 0 191 41t94 116.5t26 192.5q0 52 -5.5 102.5t-10.5 100.5z"/>
<glyph glyph-name="currency" horiz-adv-x="1139" unicode="¤" d="M575 1108q-104 0 -194.5 -51.5t-142.5 -140.5t-52 -199q0 -106 52 -194t140.5 -138.5t194.5 -50.5q104 0 191.5 52.5t138.5 142.5t51 192q0 81 -30 151.5t-82.5 123.5t-121 82.5t-145.5 29.5zM66 291l110 112q-115 147 -115 314q0 190 109 315l-111 115l91 90l110 -115 q65 55 148.5 84t166.5 29q81 0 159.5 -27.5t144.5 -83.5l108 111l88 -88l-108 -111q112 -134 112 -315q0 -180 -116 -315l108 -113l-88 -88l-109 110q-126 -108 -301 -108q-179 0 -309 108l-108 -110z"/>
<glyph glyph-name="yen" horiz-adv-x="1139" unicode="¥" d="M940 1313l51 100q58 -8 86 -8q39 0 72 8q-23 -36 -59 -88.5t-82 -122.5l-197 -315h219v-103h-276q-31 -36 -97 -176v-59h373v-105h-371l5 -256l8 -188q-27 2 -60 4t-51 2q-20 0 -30 -1t-25 -2t-35 -3q1 5 1.5 13t1 16.5t1.5 13.5l10 201l4 200h-370v105h370v35l-118 200 h-252v103h188l-317 526q19 -1 34.5 -2.5t41 -3.5t36.5 -2q64 0 113 8q49 -93 102 -194t97 -181l166 -286q13 -28 22 -37q14 11 24.5 25.5t21.5 34t18 30.5q37 63 69.5 120.5t69.5 127.5t69.5 133.5t65.5 126.5z"/>
<glyph glyph-name="brokenbar" d="M274 1546h132v-577h-132v577zM274 0v580h132v-580h-132z" unicode="¦"/>
<glyph glyph-name="section" horiz-adv-x="1024" unicode="§" d="M485 481l152 -63l113 -62q57 92 57 148q0 30 -18 71t-41 64q-22 21 -49 36.5t-62 31.5l-213 98q-23 10 -48.5 22t-45 24.5t-35.5 31.5q-78 -70 -78 -148q0 -61 33 -102q40 -49 85.5 -76t149.5 -76zM567 266l-108 49q-96 42 -140 64.5t-91 61.5t-75 95.5t-28 129.5 q0 69 33 130.5t84 102.5q8 8 20 14q-3 4 -4 8t-4 7q-47 86 -47 164t27.5 142.5t76.5 109t114.5 68.5t141.5 24q167 0 275 -117q-4 -4 -6 -6.5t-7 -7.5q-29 -48 -49 -105h-18q-2 2 -3 7.5t-3 9.5q-18 43 -48.5 76t-72.5 54t-84 21q-98 0 -156 -47q-36 -27 -59 -70t-23 -86 q0 -133 148 -198l256 -115q83 -37 131.5 -105t48.5 -157q0 -138 -117 -264q3 -3 10.5 -9t10.5 -12q57 -67 57 -145q0 -91 -32.5 -166.5t-91 -129.5t-138 -84t-168.5 -30q-141 0 -289 86l21 133l4 41h18q0 -6 8 -14q94 -172 302 -172q36 0 87 18t80 41q37 32 64 80.5t27 89.5 q0 86 -46.5 131t-136.5 82z"/>
<glyph glyph-name="dieresis" d="M139 1141q-23 0 -45.5 13t-35.5 35.5t-13 45.5t13 46t34.5 36.5t46.5 13.5q24 0 47 -13.5t36.5 -35.5t13.5 -47q0 -38 -30 -66t-67 -28zM541 1141q-37 0 -66 29t-29 65q0 23 13.5 46.5t34.5 36.5t47 13q25 0 46.5 -13.5t34.5 -36.5t13 -46t-13 -45.5t-35.5 -35.5 t-45.5 -13z" unicode="¨"/>
<glyph glyph-name="copyright" horiz-adv-x="1536" unicode="©" d="M1073 1051v-215h-65q-13 90 -64 145t-139 55q-119 0 -183.5 -92t-64.5 -215q0 -146 66 -248q35 -52 89 -82t113 -30q61 0 118 27t85 75l16 29l56 -23q-26 -61 -78.5 -104.5t-120.5 -64.5t-135 -21q-87 0 -158.5 30.5t-123 85.5t-78.5 130.5t-27 158.5q0 123 52 217 t145 146.5t212 52.5q84 0 148 -18q48 -12 79 -20t58 -19zM766 72q165 0 308 86.5t226.5 232t83.5 311.5q0 169 -83 314.5t-226 232t-309 86.5q-164 0 -305.5 -86.5t-224 -232.5t-82.5 -314q0 -167 82.5 -312.5t223.5 -231.5t306 -86zM766 -31q-197 0 -363.5 98.5t-264 268 t-97.5 366.5q0 198 97.5 368.5t265 270t362.5 99.5q151 0 283.5 -57t233.5 -158.5t157.5 -236.5t56.5 -286q0 -198 -98.5 -367t-267 -267.5t-365.5 -98.5z"/>
<glyph glyph-name="ordfeminine" horiz-adv-x="664" unicode="ª" d="M51 647v62h561v-62h-561zM442 967v182l-51 -8q-84 -15 -127.5 -25.5t-81 -38.5t-37.5 -80q0 -56 37.5 -87t104.5 -31q30 1 62 15.5t52 33.5q41 32 41 39zM559 1231v-238q0 -11 -0.5 -20.5t-1.5 -20.5q0 -71 49 -71q25 0 33 4v-27q-18 -9 -43 -12q-32 -4 -45 -4 q-91 0 -105 76l-12 -11q-46 -40 -97.5 -59t-117.5 -19q-79 0 -136.5 42.5t-57.5 109.5q0 39 23.5 78.5t64.5 56.5q53 23 93 31t117 18.5t99 22.5q17 9 22 21.5t5 33.5q0 69 -44.5 108.5t-125.5 39.5q-72 0 -116.5 -30.5t-58.5 -60.5h-14v72q113 68 234 68q115 0 175 -48.5 t60 -160.5z"/>
<glyph glyph-name="guillemotleft" horiz-adv-x="1024" unicode="«" d="M741 94l-245 393l258 383q14 -14 29.5 -29t31.5 -20q4 -1 7 -1.5t7 -2.5l-229 -328l219 -339q-50 -18 -78 -56zM449 94l-248 393l260 383q14 -14 29.5 -29t31.5 -20q4 -1 7.5 -1.5t7.5 -2.5l-232 -328l221 -339q-50 -17 -77 -56z"/>
<glyph glyph-name="logicalnot" horiz-adv-x="1241" unicode="¬" d="M1006 233v426h-902v134h1033v-560h-131z"/>
<glyph glyph-name="registered" horiz-adv-x="1536" unicode="®" d="M670 739l41 -2q98 0 153.5 36.5t55.5 133.5q0 83 -43.5 124.5t-126.5 41.5l-43 -4q-23 0 -30 -18t-7 -58v-254zM524 428v588q0 39 -9.5 48.5t-47.5 10.5h-33v43h320q76 0 132.5 -6.5t94.5 -29t61 -67t23 -89.5q0 -87 -57.5 -142t-145.5 -71q55 -10 92 -58t70 -123 q42 -94 66 -131q14 -16 28 -22t41 -6v-43h-143q-15 4 -20.5 5.5t-15 6t-14.5 8.5t-16 15q-9 10 -22 33.5t-27.5 55.5t-21.5 48q-57 132 -78 157q-17 17 -40.5 22t-60.5 5h-30v-250q2 -26 5 -37.5t14.5 -17.5t35.5 -6l35 -2v-43h-328v43h31q39 3 50 10.5t11 44.5zM770 72 q164 0 305.5 86t224 232t82.5 315q0 168 -82.5 313.5t-224 231t-305.5 85.5q-165 0 -308 -86t-226.5 -231.5t-83.5 -312.5q0 -168 83.5 -314t226.5 -232.5t308 -86.5zM770 -31q-197 0 -366 99t-267 268t-98 369q0 148 57 283.5t158 236.5t233.5 158t282.5 57t282 -57 t232 -158.5t155.5 -235.5t55.5 -284q0 -151 -55.5 -284.5t-156 -236t-233.5 -159t-280 -56.5z"/>
<glyph glyph-name="macron" d="M614 1186h-544v102h544v-102z" unicode="¯"/>
<glyph glyph-name="degree" horiz-adv-x="819" unicode="°" d="M635 1073q0 61 -31 114t-83 83t-113 30q-93 0 -158.5 -66.5t-65.5 -160.5t66.5 -160.5t159.5 -66.5q61 0 112.5 30.5t82 83t30.5 113.5zM717 1073q0 -84 -41.5 -155t-112.5 -112.5t-153 -41.5q-128 0 -218 91t-90 218q0 84 41 155t113 113.5t154 42.5q61 0 118 -24 t99.5 -68t66 -100.5t23.5 -118.5z"/>
<glyph glyph-name="plusminus" horiz-adv-x="1241" unicode="±" d="M1137 0h-1033v133h1033v-133zM555 715v329h131v-329h451v-131h-451v-336h-131v336h-451v131h451z"/>
<glyph glyph-name="twosuperior" d="M160 1206l-45 60q39 57 98 87.5t131 30.5q122 0 194 -53.5t72 -163.5q0 -125 -137 -262l-158 -155l-82 -82l-22 -23l6 -14q146 0 410 16q-6 -24 -6 -47q0 -24 6 -45h-572v18q35 31 109 101l80 78q126 118 184.5 202t58.5 211q0 174 -155 174q-60 0 -106 -37t-66 -96z" unicode="²"/>
<glyph glyph-name="threesuperior" d="M244 961q0 5 2 13t2 11q0 5 -2 13t-2 12q16 0 26.5 -0.5t22.5 -1.5q80 0 118 52.5t38 129.5q0 44 -15.5 78t-47 52.5t-75.5 18.5q-47 0 -89.5 -27t-59.5 -67l-6 -2l-35 66q13 13 40.5 30.5t67 31t88.5 13.5q100 0 177 -45.5t77 -132.5q0 -73 -46.5 -129.5t-133.5 -83.5 v-4q62 -3 111.5 -25.5t79.5 -64t30 -100.5q0 -79 -45 -138t-122 -89.5t-171 -30.5q-114 0 -202 39q6 12 9 26.5t4.5 25t2.5 23.5l8 4q72 -75 180 -75q100 0 156.5 59t56.5 154q0 79 -47.5 123.5t-134.5 44.5q-12 0 -33 -2t-30 -2z" unicode="³"/>
<glyph glyph-name="acute" d="M584 1303l-322 -203h-69l256 260q13 13 26 25.5t25 25.5q9 6 18 14.5t19 15t18 7.5q69 0 82 -43q6 -12 6 -31q0 -16 -8 -24q-7 -17 -16.5 -23.5t-34.5 -23.5z" unicode="´"/>
<glyph glyph-name="mu" horiz-adv-x="1139" unicode="µ" d="M805 412v571q26 -2 47 -4t35 -2q13 0 33.5 2t48.5 4v-989q-20 2 -33.5 3t-22.5 2t-26 1q-19 0 -24.5 -0.5t-22.5 -2t-35 -3.5v178h-4q-47 -95 -130 -145t-192 -50q-100 0 -174 56v-570q-20 2 -31 3.5t-24 2.5t-27 1q-21 0 -41 -2.5t-41 -4.5v1520q26 -2 46.5 -4t35.5 -2 q13 0 33.5 2t48.5 4v-559q0 -171 57.5 -258.5t190.5 -87.5q142 0 197 98t55 236z"/>
<glyph glyph-name="paragraph" horiz-adv-x="2080" unicode="¶" d="M1066 234q22 11 43 11q65 0 130 -99q0 88 44 88h352v-110h-88v-110h196q-89 90 -89 149q0 43 46 71h219v-88l-109 -44q65 -66 65 -116t-65 -82h-351l-21 198l-88 22l-22 -220h-66l-109 110v-110h-87v330zM843 -34l87 22l-21 155l-110 -22q-6 -28 -6 -52q0 -69 50 -103z M1040 143q10 -39 10 -73q0 -118 -120 -170q-218 0 -240 111q-11 25 -11 50q0 85 120 170q220 0 241 -88zM361 231h306v-110l-151 -22h107v-66h-87l-44 -133l-87 22l-44 199v110zM1316 416h65l-22 109l-43 -43v-66zM964 349l111 22l-24 45h-87v-67zM964 482h87v43h-87v-43z M855 613q72 5 126 5q165 0 181 -49q6 -28 6 -51q0 -64 -49 -80q13 4 24 4q42 0 42 -71l87 242h153l87 -264v-66l-217 66l-44 -66l-110 44q-68 -49 -195 -49q-42 0 -91 5v330zM638 349l86 22l-22 154l-108 -21q-6 -28 -6 -52q0 -69 50 -103zM264 349l110 22l-22 45h-88v-67z M264 482h88v43h-88v-43zM462 569q5 -27 5 -49q0 -66 -48 -82l43 -22q42 175 132 197q219 0 240 -88q9 -39 9 -72q0 -119 -119 -170h-130l-111 111q-18 -114 -230 -114q-35 0 -75 3l-23 221h-63v109q92 5 162 5q208 0 208 -49zM1808 746q-14 37 -44 37h-3q-32 -1 -58 -17 t-75 -23q-48 -7 -84 -16q-10 -2 -10 -4q0 -1 10 -1q16 0 60 4q96 8 204 20zM451 721q-114 -25 -147 -41q-23 -12 -23 -20q-1 -4 3 -6q14 -10 41 -7q27 4 55 21t71 53zM637 2309l-41 -460l55 460h-14zM1351 1936q27 -2 47 -16t32 -32q10 -18 2 -24t-17 -2q-10 3 -26 7 q-17 4 -33 19q-16 14 -20 28t15 20zM1312 1932q14 -54 42 -68t46 -19q18 -3 32 11t2 34t-32 34t-37 17q-16 2 -53 -9zM930 1971q117 -15 182 -17t130 -6q25 -2 42 -2q28 0 36 4q14 6 6 20t-34 26t-86 17q-58 6 -104 6t-85 -6q-38 -6 -87 -42zM640 1647q110 29 246 33t205 4 t160 -4t163 -16t133 -34l4 -29l-64 15l-211 15l-154 8l-188 4l-134 -2l-110 -10l-67 -11l-5 10zM618 1643l-7 -12l12 -19l95 14l100 9l141 2l233 -9l153 -16l159 -2l50 -21l-3 52q-65 25 -139 36t-182 19q-81 6 -161 5q-27 -1 -53 -1q-106 -2 -196 -6q-89 -4 -202 -51z M1565 964q-29 219 -55 292q-23 63 -48 63q-4 0 -8 -1q-48 -30 -65 -67t-23 -73t-24 -148l-11 -129l-9 -75l243 128v10zM1020 816q-30 104 -46 163t-36 128t-54 137t-106 92q-76 -5 -106 -41q-30 -35 -54 -99t-53 -205zM1292 1502l-2 -682l17 2q43 390 75 470t53 105t58 39 t56 13v82l-38 -4l-4 -6q-18 1 -36 1q-89 -10 -179 -20zM1304 1487l228 32l8 -56q-52 -16 -80 -28t-47 -43q-19 -30 -45 -94t-50 -255l-16 -167zM611 1550l261 -27l167 -33l-12 -571l-18 150q-15 165 -35 227t-63 108t-87 70q-44 22 -92 25t-111 6zM1403 1602l-16 -83l30 2 l29 76zM662 1572h8l6 29l-55 4v-29zM781 1554l13 70l-23 2l-16 -72h26zM903 1626l-29 -78l77 -16l14 90zM1202 1618v-136l10 -15l-6 -649l64 -4l3 699h10v97zM576 2427l296 31l15 -51l-130 -93l-84 -8l-55 -578q63 164 150 224q88 60 204 75q62 9 125 9q55 0 112 -7 q121 -14 183 -54q62 -39 106 -129t55 -183l15 -32l7 -143l62 -509l-221 -116l3 -20l25 -20q116 29 181 29q71 0 78 -36l95 -15q27 -31 27 -54t-28 -36l-1127 -31l-378 -46q-13 9 -13 22q0 41 154 113l245 20l-36 38l-16 40l32 46l4 19l-112 51l50 505v44l5 -42q20 1 41 1 q30 0 62 -2q54 -3 100 -27t90 -70q42 -44 60 -100t62 -414l17 -10l12 635l-177 32l-272 30v51q-32 8 -50 54l68 632l-50 24l-21 66zM600 1532v33h-4z"/>
<glyph glyph-name="cedilla" d="M152 -410l28 62q32 -8 66.5 -16.5t60.5 -8.5q47 0 82 22.5t35 65.5q0 80 -107 80q-9 0 -47 -10l-32 10l90 205h69l-61 -137q24 6 26 6q25 6 48 6q62 0 109.5 -39.5t47.5 -101.5q0 -73 -59 -125q-72 -49 -191 -49q-85 0 -165 30z" unicode="¸"/>
<glyph glyph-name="onesuperior" d="M346 532v748l-8 4l-150 -74q-15 32 -38 45q167 63 280 129l23 -6v-846q-7 1 -16 2.5t-17.5 3t-20.5 1.5q-9 0 -53 -7z" unicode="¹"/>
<glyph glyph-name="ordmasculine" horiz-adv-x="696" unicode="º" d="M51 709h594v-62h-594v62zM362 1403q-117 0 -169 -83t-52 -198q0 -67 21.5 -125t69 -94.5t118.5 -36.5q72 0 118.5 46.5t66.5 110.5t20 122q0 102 -46.5 180t-146.5 78zM25 1143q0 87 44 154.5t121 105t172 37.5q70 0 130.5 -23t101.5 -67q78 -85 78 -211q0 -88 -47 -168 q-92 -142 -285 -142q-66 0 -137 27q-34 14 -53.5 28t-49.5 42q-44 48 -59.5 98.5t-15.5 118.5z"/>
<glyph glyph-name="guillemotright" horiz-adv-x="1024" unicode="»" d="M272 868l258 -383l-245 -393q-29 40 -78 55l219 340l-229 328q3 0 8 2t6 2q20 8 61 49zM567 868l258 -383l-247 -393q-26 39 -78 55l221 340l-229 328q3 0 8 2t6 2q3 1 31 19q8 8 16.5 17t13.5 13z"/>
<glyph glyph-name="onequarter" horiz-adv-x="1708" unicode="¼" d="M1333 301v399l-6 5q-60 -71 -121.5 -154t-177.5 -244l6 -6h299zM1333 231h-411v17q142 197 434 577q14 -2 24 -4t19 -2q5 0 15 2t26 4v-524l123 6q-4 -24 -4 -39q0 -11 4 -41l-123 4v-237q-14 2 -22.5 3t-14.5 2t-17 1q-9 0 -24.5 -2t-28.5 -4v237zM342 532v748l-8 4 l-150 -74q-15 33 -39 45q170 64 281 129l23 -6v-846q-7 1 -16 2.5t-17.5 3t-20.5 1.5q-11 0 -53 -7zM1139 1409l-570 -1454q-28 4 -45 4q-13 0 -47 -4l572 1454q28 -4 45 -4q15 0 45 4z"/>
<glyph glyph-name="onehalf" horiz-adv-x="1708" unicode="½" d="M1096 651l-45 60q39 58 97 88t132 30q122 0 194 -53t72 -164q0 -127 -137 -260l-158 -157l-82 -80l-22 -25l6 -14q146 0 410 16q-7 -28 -7 -47q0 -20 7 -45h-572v18q55 49 109 103l80 76q99 97 140 142.5t72 115t31 155.5q0 176 -155 176q-60 0 -106 -37t-66 -98z M342 532v748l-8 4l-150 -74q-15 33 -39 45q170 64 281 129l23 -6v-846q-7 1 -16 2.5t-17.5 3t-20.5 1.5q-11 0 -53 -7zM1110 1409l-569 -1454q-30 4 -45 4t-47 -4l571 1454q28 -4 45 -4t45 4z"/>
<glyph glyph-name="threequarters" horiz-adv-x="1708" unicode="¾" d="M1370 301v399l-6 5q-74 -88 -128.5 -162.5t-170.5 -235.5l6 -6h299zM1370 231h-412v17q64 88 108.5 148t97 129.5t109 143t120.5 156.5q14 -2 24 -4t19 -2q5 0 15 2t26 4v-524l122 6v-80l-122 4v-237q-14 2 -22.5 3t-14.5 2t-17 1q-5 0 -53 -6v237zM281 961q0 5 2 13 t2 11q0 5 -2 13t-2 12q16 0 26.5 -0.5t22.5 -1.5q79 0 117 52.5t38 129.5q0 69 -35 109t-102 40q-47 0 -89.5 -27t-59.5 -67l-6 -2l-35 66q13 13 40.5 30.5t67 31t88.5 13.5q100 0 177 -45.5t77 -132.5q0 -73 -46.5 -129.5t-133.5 -83.5v-4q62 -3 111.5 -25.5t79.5 -64 t30 -100.5q0 -79 -45 -138t-122 -89.5t-171 -30.5q-114 0 -202 39q6 12 9 26.5t4.5 25t2.5 23.5l8 4q72 -75 180 -75q100 0 156.5 59t56.5 154q0 79 -47.5 123.5t-134.5 44.5q-12 0 -33 -2t-30 -2zM1188 1409l-570 -1454q-28 4 -45 4q-13 0 -47 -4l572 1454q28 -4 45 -4 t45 4z"/>
<glyph glyph-name="questiondown" horiz-adv-x="979" unicode="¿" d="M624 883q-11 -13 -34 -23t-50 -18t-49 -19q-107 -53 -157 -123t-50 -197q13 -147 97 -219t209 -72q119 3 237 112l78 74v-272q-129 -98 -350 -102q-115 0 -219 48t-176 137q-72 88 -92 197q-12 62 -12 115q0 198 133 341q55 56 107 85t111 47t76 27q24 12 41 25t36 33 t43 44l58 54v-249q-6 -9 -18 -23t-19 -22zM453 1417q0 75 49 128t128 53q69 0 123 -51t57 -124q0 -49 -22 -91t-62 -68t-88 -28q-51 0 -94 25t-67 65t-24 91z"/>
<glyph glyph-name="Agrave" horiz-adv-x="2054" unicode="À" d="M1088 2004h-72l-322 203l136 57zM996 1964q6 2 12 2q33 0 56 -58l622 -1596q60 -128 94 -169q53 -61 95 -76q67 -15 139 -15l11 -11q0 -34 -30 -34l-83 -4q-532 0 -535 19v23q19 15 41 15q15 11 19 37l-204 559l-15 7h-554l-19 -30l-143 -392l-19 -83v-17q0 -61 26 -74 l30 -11q98 0 110 -8q11 -30 -12 -41q-122 3 -274 3t-333 -3l-15 15l4 26l26 8q16 -2 31 -2q73 0 139 43q60 46 124 215l615 1592q19 45 42 60zM709 803l4 -12h469l-232 657l-15 -15z"/>
<glyph glyph-name="Aacute" horiz-adv-x="2054" unicode="Á" d="M924 1980l292 260l153 -57l-364 -203h-81zM996 1964q6 2 12 2q33 0 56 -58l622 -1596q60 -128 94 -169q53 -61 95 -76q67 -15 139 -15l11 -11q0 -34 -30 -34l-83 -4q-532 0 -535 19v23q19 15 41 15q15 11 19 37l-204 559l-15 7h-554l-19 -30l-143 -392l-19 -83v-17 q0 -61 26 -74l30 -11q98 0 110 -8q11 -30 -12 -41q-122 3 -274 3t-333 -3l-15 15l4 26l26 8q16 -2 31 -2q73 0 139 43q60 46 124 215l615 1592q19 45 42 60zM709 803l4 -12h469l-232 657l-15 -15z"/>
<glyph glyph-name="Acircumflex" horiz-adv-x="2054" unicode="Â" d="M762 1966h-69l252 346h112l252 -346h-67l-240 219zM996 1964q6 2 12 2q33 0 56 -58l622 -1596q60 -128 94 -169q53 -61 95 -76q67 -15 139 -15l11 -11q0 -34 -30 -34l-83 -4q-532 0 -535 19v23q19 15 41 15q15 11 19 37l-204 559l-15 7h-554l-19 -30l-143 -392l-19 -83 v-17q0 -61 26 -74l30 -11q98 0 110 -8q11 -30 -12 -41q-122 3 -274 3t-333 -3l-15 15l4 26l26 8q16 -2 31 -2q73 0 139 43q60 46 124 215l615 1592q19 45 42 60zM709 803l4 -12h469l-232 657l-15 -15z"/>
<glyph glyph-name="Atilde" horiz-adv-x="2054" unicode="Ã" d="M734 1999h-58q18 87 76 145t139 58q24 0 51 -6q35 -15 101 -47q40 -22 76 -35q21 -8 49 -8q53 0 80 35q16 16 38 69h60q-14 -57 -44 -105t-73 -77q-44 -29 -102 -29q-25 0 -39 3q-14 2 -34 10q-22 8 -38 16t-39 18q-43 21 -73 34t-58 13q-22 0 -45 -10q-44 -17 -67 -84z M996 1964q6 2 12 2q33 0 56 -58l622 -1596q60 -128 94 -169q53 -61 95 -76q67 -15 139 -15l11 -11q0 -34 -30 -34l-83 -4q-532 0 -535 19v23q19 15 41 15q15 11 19 37l-204 559l-15 7h-554l-19 -30l-143 -392l-19 -83v-17q0 -61 26 -74l30 -11q98 0 110 -8q11 -30 -12 -41 q-122 3 -274 3t-333 -3l-15 15l4 26l26 8q16 -2 31 -2q73 0 139 43q60 46 124 215l615 1592q19 45 42 60zM709 803l4 -12h469l-232 657l-15 -15z"/>
<glyph glyph-name="Adieresis" horiz-adv-x="2054" unicode="Ä" d="M761 1939q-23 0 -45 13q-22 14 -36 36q-13 22 -13 45t13 46q12 23 34 37t47 13q24 1 47 -13q22 -14 36 -36t14 -47q0 -38 -30 -66t-67 -28zM1261 1939q-23 0 -45 13q-22 14 -36 36q-13 22 -13 45t13 46q12 23 34 37t47 13q24 1 47 -13q22 -14 36 -36t14 -47 q0 -38 -30 -66t-67 -28zM996 1964q6 2 12 2q33 0 56 -58l622 -1596q60 -128 94 -169q53 -61 95 -76q67 -15 139 -15l11 -11q0 -34 -30 -34l-83 -4q-532 0 -535 19v23q19 15 41 15q15 11 19 37l-204 559l-15 7h-554l-19 -30l-143 -392l-19 -83v-17q0 -61 26 -74l30 -11 q98 0 110 -8q11 -30 -12 -41q-122 3 -274 3t-333 -3l-15 15l4 26l26 8q16 -2 31 -2q73 0 139 43q60 46 124 215l615 1592q19 45 42 60zM709 803l4 -12h469l-232 657l-15 -15z"/>
<glyph glyph-name="Aring" horiz-adv-x="2054" unicode="Å" d="M995 2079q49 -1 87 39t38 88q0 51 -37 90t-88 39q-49 0 -88 -39t-39 -90q0 -48 40 -88t87 -39zM999 1997q-53 0 -101 28q-48 27 -76 75t-28 102q0 55 28 103t77 76q48 28 100 28q55 -1 101 -29t74 -75t28 -103q0 -54 -28 -101t-74 -75t-101 -29zM996 1964q6 2 12 2 q33 0 56 -58l622 -1596q60 -128 94 -169q53 -61 95 -76q67 -15 139 -15l11 -11q0 -34 -30 -34l-83 -4q-532 0 -535 19v23q19 15 41 15q15 11 19 37l-204 559l-15 7h-554l-19 -30l-143 -392l-19 -83v-17q0 -61 26 -74l30 -11q98 0 110 -8q11 -30 -12 -41q-122 3 -274 3 t-333 -3l-15 15l4 26l26 8q16 -2 31 -2q73 0 139 43q60 46 124 215l615 1592q19 45 42 60zM709 803l4 -12h469l-232 657l-15 -15z"/>
<glyph glyph-name="AE" horiz-adv-x="2284" unicode="Æ" d="M736 808l28 -12h392l16 948zM1128 1976q46 -4 368 -4q184 0 457 1q106 12 141 28q4 1 7 1q13 0 16 -13l-23 -208l-8 -148q-4 -24 -24 -32l-27 12q-4 110 -27 145q-32 39 -67 51q-74 19 -164 23l-298 4l-4 -8l4 -701l439 4l78 20l55 55q23 0 27 -16q-23 -168 -31 -399 q-8 -28 -20 -28l-27 8q-4 114 -28 149q-43 51 -74 55q-58 13 -244 13q-78 0 -179 -2v-677q12 -106 59 -133q47 -24 129 -35q68 -4 124 -4q166 0 236 35l55 47l35 74l16 90q16 32 43 16l8 -35q-4 -106 -28 -274q-16 -103 -97 -103q-18 0 -40 5l-642 15l-419 -3l-19 15 q-4 24 7 28l126 15q47 4 66 102q18 182 18 269q0 29 -2 48l4 183l-490 -1l-19 -30l-143 -392l-19 -83v-17q0 -61 26 -74l30 -11q98 0 110 -8q11 -30 -12 -41q-122 3 -274 3t-333 -3l-15 15l4 26l26 8q16 -2 31 -2q73 0 139 43q60 46 124 215l709 1588q24 56 80 76z"/>
<glyph glyph-name="Ccedilla" horiz-adv-x="1830" unicode="Ç" d="M974 -402l28 62q32 -8 66 -16t61 -9q47 1 82 23t35 65q0 80 -107 80q-9 0 -47 -10l-32 10l90 205h12q28 -1 57 -1l-61 -136q24 6 26 6q25 6 48 6q62 1 110 -39t47 -102q0 -73 -59 -125q-72 -49 -191 -49q-85 0 -165 30zM1022 2006q-526 -23 -808 -408q-81 -130 -96 -179 q-72 -171 -72 -423v-27q15 -309 164 -523q179 -259 492 -366q180 -64 460 -72h57v-1h24h27q320 16 408 77q27 19 38 84q46 225 46 331q-8 23 -23 23q-12 0 -27 -15q-11 -76 -61 -168l-61 -72q-57 -61 -187 -92q-96 -17 -207 -17q-39 0 -79 2q-320 42 -545 324 q-88 122 -130 260q-46 142 -46 331q0 29 1 58q23 331 164 522q64 80 141 130q99 61 259 87q66 7 129 7q177 0 329 -56q251 -92 259 -347l12 -42l26 -4q19 4 23 53l4 252l15 179l-15 19q-42 0 -248 46q-230 29 -388 29q-45 0 -85 -2z"/>
<glyph glyph-name="Egrave" horiz-adv-x="1368" unicode="È" d="M848 2028h-72l-322 203l136 57zM59 1985q202 -9 676 -9q158 0 346 1q106 12 141 28q4 1 7 1q13 0 16 -13l-23 -208l-8 -148q-4 -24 -24 -32l-27 12q-4 110 -27 145q-32 39 -67 51q-74 19 -164 23l-298 4l-4 -8l4 -701l439 4l78 20l55 55q23 0 27 -16q-23 -168 -31 -399 q-8 -28 -20 -28l-27 8q-4 114 -28 149q-43 51 -74 55q-58 13 -244 13q-78 0 -179 -2v-677q12 -106 59 -133q47 -24 129 -35q68 -4 124 -4q166 0 236 35l55 47l35 74l16 90q16 32 43 16l8 -35q-4 -106 -28 -274q-16 -103 -97 -103q-18 0 -40 5l-642 15l-419 -3l-19 15 q-4 24 7 28l126 15q47 4 66 102q18 182 18 269q0 29 -2 48v1269q-4 110 -39 141q-54 35 -81 35h-5l-110 4q-23 8 -20 28q16 27 36 23z"/>
<glyph glyph-name="Eacute" horiz-adv-x="1368" unicode="É" d="M484 2004l292 260l153 -57l-364 -203h-81zM59 1985q202 -9 676 -9q158 0 346 1q106 12 141 28q4 1 7 1q13 0 16 -13l-23 -208l-8 -148q-4 -24 -24 -32l-27 12q-4 110 -27 145q-32 39 -67 51q-74 19 -164 23l-298 4l-4 -8l4 -701l439 4l78 20l55 55q23 0 27 -16 q-23 -168 -31 -399q-8 -28 -20 -28l-27 8q-4 114 -28 149q-43 51 -74 55q-58 13 -244 13q-78 0 -179 -2v-677q12 -106 59 -133q47 -24 129 -35q68 -4 124 -4q166 0 236 35l55 47l35 74l16 90q16 32 43 16l8 -35q-4 -106 -28 -274q-16 -103 -97 -103q-18 0 -40 5l-642 15 l-419 -3l-19 15q-4 24 7 28l126 15q47 4 66 102q18 182 18 269q0 29 -2 48v1269q-4 110 -39 141q-54 35 -81 35h-5l-110 4q-23 8 -20 28q16 27 36 23z"/>
<glyph glyph-name="Ecircumflex" horiz-adv-x="1368" unicode="Ê" d="M442 2006h-69l252 346h112l252 -346h-67l-240 219zM59 1985q202 -9 676 -9q158 0 346 1q106 12 141 28q4 1 7 1q13 0 16 -13l-23 -208l-8 -148q-4 -24 -24 -32l-27 12q-4 110 -27 145q-32 39 -67 51q-74 19 -164 23l-298 4l-4 -8l4 -701l439 4l78 20l55 55q23 0 27 -16 q-23 -168 -31 -399q-8 -28 -20 -28l-27 8q-4 114 -28 149q-43 51 -74 55q-58 13 -244 13q-78 0 -179 -2v-677q12 -106 59 -133q47 -24 129 -35q68 -4 124 -4q166 0 236 35l55 47l35 74l16 90q16 32 43 16l8 -35q-4 -106 -28 -274q-16 -103 -97 -103q-18 0 -40 5l-642 15 l-419 -3l-19 15q-4 24 7 28l126 15q47 4 66 102q18 182 18 269q0 29 -2 48v1269q-4 110 -39 141q-54 35 -81 35h-5l-110 4q-23 8 -20 28q16 27 36 23z"/>
<glyph glyph-name="Edieresis" horiz-adv-x="1368" unicode="Ë" d="M871 2047q-23 0 -45 13q-22 14 -36 36q-13 22 -13 45t13 46q12 23 34 37t47 13q24 1 47 -13q22 -14 36 -36t14 -47q0 -38 -30 -66t-67 -28zM423 2047q-23 0 -45 13q-22 14 -36 36q-13 22 -13 45t13 46q12 23 34 37t47 13q24 1 47 -13q22 -14 36 -36t14 -47q0 -38 -30 -66 t-67 -28zM59 1985q202 -9 676 -9q158 0 346 1q106 12 141 28q4 1 7 1q13 0 16 -13l-23 -208l-8 -148q-4 -24 -24 -32l-27 12q-4 110 -27 145q-32 39 -67 51q-74 19 -164 23l-298 4l-4 -8l4 -701l439 4l78 20l55 55q23 0 27 -16q-23 -168 -31 -399q-8 -28 -20 -28l-27 8 q-4 114 -28 149q-43 51 -74 55q-58 13 -244 13q-78 0 -179 -2v-677q12 -106 59 -133q47 -24 129 -35q68 -4 124 -4q166 0 236 35l55 47l35 74l16 90q16 32 43 16l8 -35q-4 -106 -28 -274q-16 -103 -97 -103q-18 0 -40 5l-642 15l-419 -3l-19 15q-4 24 7 28l126 15 q47 4 66 102q18 182 18 269q0 29 -2 48v1269q-4 110 -39 141q-54 35 -81 35h-5l-110 4q-23 8 -20 28q16 27 36 23z"/>
<glyph glyph-name="Igrave" horiz-adv-x="881" unicode="Ì" d="M608 2028h-72l-322 203l136 57zM67 2012l243 -8h234l218 8l32 -12q4 -27 -8 -35q-99 -4 -151 -28q-56 -30 -56 -190v-17v-1409q4 -198 40 -222l32 -24l202 -23q9 -7 9 -18q0 -8 -5 -18l-43 -12l-429 8l-329 -4l-20 16v20l16 12q95 0 131 15q43 20 55 88q18 184 18 273 q0 29 -2 48l-4 1354q-12 63 -40 95l-35 20l-127 12q-18 9 -18 26q0 6 2 13z"/>
<glyph glyph-name="Iacute" horiz-adv-x="881" unicode="Í" d="M268 2020l292 260l153 -57l-364 -203h-81zM67 2012l243 -8h234l218 8l32 -12q4 -27 -8 -35q-99 -4 -151 -28q-56 -30 -56 -190v-17v-1409q4 -198 40 -222l32 -24l202 -23q9 -7 9 -18q0 -8 -5 -18l-43 -12l-429 8l-329 -4l-20 16v20l16 12q95 0 131 15q43 20 55 88 q18 184 18 273q0 29 -2 48l-4 1354q-12 63 -40 95l-35 20l-127 12q-18 9 -18 26q0 6 2 13z"/>
<glyph glyph-name="Icircumflex" horiz-adv-x="881" unicode="Î" d="M202 2038h-69l252 346h112l252 -346h-67l-240 219zM67 2012l243 -8h234l218 8l32 -12q4 -27 -8 -35q-99 -4 -151 -28q-56 -30 -56 -190v-17v-1409q4 -198 40 -222l32 -24l202 -23q9 -7 9 -18q0 -8 -5 -18l-43 -12l-429 8l-329 -4l-20 16v20l16 12q95 0 131 15 q43 20 55 88q18 184 18 273q0 29 -2 48l-4 1354q-12 63 -40 95l-35 20l-127 12q-18 9 -18 26q0 6 2 13z"/>
<glyph glyph-name="Idieresis" horiz-adv-x="881" unicode="Ï" d="M631 2063q-23 0 -45 13q-22 14 -36 36q-13 22 -13 45t13 46q12 23 34 37t47 13q24 1 47 -13q22 -14 36 -36t14 -47q0 -38 -30 -66t-67 -28zM191 2063q-23 0 -45 13q-22 14 -36 36q-13 22 -13 45t13 46q12 23 34 37t47 13q24 1 47 -13q22 -14 36 -36t14 -47q0 -38 -30 -66 t-67 -28zM67 2012l243 -8h234l218 8l32 -12q4 -27 -8 -35q-99 -4 -151 -28q-56 -30 -56 -190v-17v-1409q4 -198 40 -222l32 -24l202 -23q9 -7 9 -18q0 -8 -5 -18l-43 -12l-429 8l-329 -4l-20 16v20l16 12q95 0 131 15q43 20 55 88q18 184 18 273q0 29 -2 48l-4 1354 q-12 63 -40 95l-35 20l-127 12q-18 9 -18 26q0 6 2 13z"/>
<glyph glyph-name="Eth" horiz-adv-x="2145" unicode="Ð" d="M59 2001l362 -8l566 8q243 -12 330 -28q377 -63 582 -314q196 -256 208 -578v-34q0 -137 -28 -273q-188 -762 -1100 -786l-295 16l-173 15l-428 -3l-20 15q-4 24 8 28l126 15q47 4 66 103q18 182 18 270q0 29 -2 48v377h-244l-111 181h355v716q-4 110 -39 141 q-54 36 -82 36h-5l-110 4q-23 7 -19 27q13 25 30 25q3 0 5 -1zM601 1706q-1 -279 -1 -505v-148h380v-181h-380q4 -559 21 -621q28 -102 275 -133q41 -2 80 -2q180 0 329 45q130 43 216 118q122 102 181 255q35 95 59 319q1 34 1 66q0 236 -52 378q-47 142 -146 267 q-78 91 -172 154q-201 121 -484 153q-51 2 -93 2q-147 0 -190 -22l-20 -23z"/>
<glyph glyph-name="Ntilde" horiz-adv-x="2209" unicode="Ñ" d="M814 2055h-58q18 87 76 145t139 58q24 0 51 -6q35 -15 101 -47q40 -22 76 -35q21 -8 49 -8q53 0 80 35q16 16 38 69h60q-14 -57 -44 -105t-73 -77q-44 -29 -102 -29q-25 0 -39 3q-14 2 -34 10q-22 8 -38 16t-39 18q-43 21 -73 34t-58 13q-22 0 -45 -10q-44 -17 -67 -84z M383 2020l549 -602l355 -362l478 -514l16 -24h12l-24 1219q-8 152 -52 191l-55 28l-152 12q-16 20 0 40l32 8l410 -8l212 8l31 -16l-4 -28l-15 -8h-22q-86 0 -122 -28l-32 -39q-20 -60 -24 -172l-28 -1717q-8 -32 -20 -36h-10q-40 0 -65 28q-203 199 -964 992l-431 482l-8 4 l28 -1187q16 -160 52 -195l24 -20l76 -20q18 1 34 1q78 0 81 -17v-5q0 -35 -50 -35h-10l-366 8l-271 -4q-16 0 -20 16q-1 6 -1 11q0 14 9 17q18 9 65 9q16 0 34 -1l64 16q64 36 64 219l20 1506l8 223h92z"/>
<glyph glyph-name="Ograve" horiz-adv-x="2098" unicode="Ò" d="M1160 2052h-72l-322 203l136 57zM980 2017q38 2 76 2q218 0 402 -60q567 -204 609 -841q1 -25 1 -50q0 -475 -294 -783q-162 -154 -339 -219q-155 -58 -344 -70q-25 -1 -50 -1q-216 0 -393 63q-555 220 -621 887q-1 23 -1 45q0 434 279 738q266 266 675 289zM374 1149 q-1 -19 -1 -41q0 -87 13 -213q31 -201 108 -355q104 -201 270 -309q123 -69 297 -100q30 -2 58 -2q139 0 239 45q312 146 354 663q3 52 3 102q0 407 -176 658q-185 250 -498 293q-24 1 -48 1q-156 0 -256 -47q-340 -162 -363 -695z"/>
<glyph glyph-name="Oacute" horiz-adv-x="2098" unicode="Ó" d="M868 2036l292 260l153 -57l-364 -203h-81zM980 2017q38 2 76 2q218 0 402 -60q567 -204 609 -841q1 -25 1 -50q0 -475 -294 -783q-162 -154 -339 -219q-155 -58 -344 -70q-25 -1 -50 -1q-216 0 -393 63q-555 220 -621 887q-1 23 -1 45q0 434 279 738q266 266 675 289z M374 1149q-1 -19 -1 -41q0 -87 13 -213q31 -201 108 -355q104 -201 270 -309q123 -69 297 -100q30 -2 58 -2q139 0 239 45q312 146 354 663q3 52 3 102q0 407 -176 658q-185 250 -498 293q-24 1 -48 1q-156 0 -256 -47q-340 -162 -363 -695z"/>
<glyph glyph-name="Ocircumflex" horiz-adv-x="2098" unicode="Ô" d="M778 2054h-69l252 346h112l252 -346h-67l-240 219zM980 2017q38 2 76 2q218 0 402 -60q567 -204 609 -841q1 -25 1 -50q0 -475 -294 -783q-162 -154 -339 -219q-155 -58 -344 -70q-25 -1 -50 -1q-216 0 -393 63q-555 220 -621 887q-1 23 -1 45q0 434 279 738 q266 266 675 289zM374 1149q-1 -19 -1 -41q0 -87 13 -213q31 -201 108 -355q104 -201 270 -309q123 -69 297 -100q30 -2 58 -2q139 0 239 45q312 146 354 663q3 52 3 102q0 407 -176 658q-185 250 -498 293q-24 1 -48 1q-156 0 -256 -47q-340 -162 -363 -695z"/>
<glyph glyph-name="Otilde" horiz-adv-x="2098" unicode="Õ" d="M814 2055h-58q18 87 76 145t139 58q24 0 51 -6q35 -15 101 -47q40 -22 76 -35q21 -8 49 -8q53 0 80 35q16 16 38 69h60q-14 -57 -44 -105t-73 -77q-44 -29 -102 -29q-25 0 -39 3q-14 2 -34 10q-22 8 -38 16t-39 18q-43 21 -73 34t-58 13q-22 0 -45 -10q-44 -17 -67 -84z M980 2017q38 2 76 2q218 0 402 -60q567 -204 609 -841q1 -25 1 -50q0 -475 -294 -783q-162 -154 -339 -219q-155 -58 -344 -70q-25 -1 -50 -1q-216 0 -393 63q-555 220 -621 887q-1 23 -1 45q0 434 279 738q266 266 675 289zM374 1149q-1 -19 -1 -41q0 -87 13 -213 q31 -201 108 -355q104 -201 270 -309q123 -69 297 -100q30 -2 58 -2q139 0 239 45q312 146 354 663q3 52 3 102q0 407 -176 658q-185 250 -498 293q-24 1 -48 1q-156 0 -256 -47q-340 -162 -363 -695z"/>
<glyph glyph-name="Odieresis" horiz-adv-x="2098" unicode="Ö" d="M1335 2055q-23 0 -45 13q-22 14 -36 36q-13 22 -13 45t13 46q12 23 34 37t47 13q24 1 47 -13q22 -14 36 -36t14 -47q0 -38 -30 -66t-67 -28zM727 2039q-23 0 -45 13q-22 14 -36 36q-13 22 -13 45t13 46q12 23 34 37t47 13q24 1 47 -13q22 -14 36 -36t14 -47 q0 -38 -30 -66t-67 -28zM980 2017q38 2 76 2q218 0 402 -60q567 -204 609 -841q1 -25 1 -50q0 -475 -294 -783q-162 -154 -339 -219q-155 -58 -344 -70q-25 -1 -50 -1q-216 0 -393 63q-555 220 -621 887q-1 23 -1 45q0 434 279 738q266 266 675 289zM374 1149q-1 -19 -1 -41 q0 -87 13 -213q31 -201 108 -355q104 -201 270 -309q123 -69 297 -100q30 -2 58 -2q139 0 239 45q312 146 354 663q3 52 3 102q0 407 -176 658q-185 250 -498 293q-24 1 -48 1q-156 0 -256 -47q-340 -162 -363 -695z"/>
<glyph glyph-name="multiply" horiz-adv-x="1241" unicode="×" d="M524 522l-420 426l93 94l421 -428l422 428l97 -92l-426 -428l426 -432l-97 -90l-422 428l-421 -428l-93 92z"/>
<glyph glyph-name="Oslash" horiz-adv-x="2098" unicode="Ø" d="M980 2017q38 2 76 2q218 0 402 -60q170 -61 293 -161l240 231l53 -179l-176 -169q177 -218 199 -563q1 -25 1 -50q0 -475 -294 -783q-162 -154 -339 -219q-155 -58 -344 -70q-25 -1 -50 -1q-216 0 -393 63q-167 66 -289 173l-232 -223l-119 116l236 227 q-181 231 -217 594q-1 23 -1 45q0 434 279 738q266 266 675 289zM374 1149q-1 -19 -1 -41q0 -87 13 -213q28 -179 91 -320l1063 1021q0 1 -1 1q-185 250 -498 293q-24 1 -48 1q-156 0 -256 -47q-340 -162 -363 -695zM1623 1445l-1060 -1018q86 -120 201 -196 q123 -69 297 -100q30 -2 58 -2q139 0 239 45q312 146 354 663q3 52 3 102q0 293 -92 506z"/>
<glyph glyph-name="Ugrave" horiz-adv-x="2073" unicode="Ù" d="M1160 2052h-72l-322 203l136 57zM51 2013q204 -8 386 -8q181 0 339 8q39 -8 35 -20l-11 -27q-94 -4 -145 -27l-35 -39q-19 -24 -23 -328v-729q8 -176 19 -242l35 -141q98 -261 383 -312q28 -2 55 -2q242 0 382 154q117 149 128 453v1006q0 117 -35 156l-35 28 q-4 7 -168 23q-11 16 -7 31l31 16l406 -8l218 8l31 -16l-4 -27l-15 -8q-9 1 -18 1q-39 0 -99 -13q-47 -23 -63 -62q-15 -58 -15 -121l-4 -948q-20 -378 -184 -573q-214 -230 -522 -242q-30 -1 -60 -1q-88 0 -167 9q-413 58 -546 398q-19 31 -54 202l-16 149v893l-8 187 q-11 74 -70 102l-35 11l-125 8l-19 20q0 31 35 31z"/>
<glyph glyph-name="Uacute" horiz-adv-x="2073" unicode="Ú" d="M868 2036l292 260l153 -57l-364 -203h-81zM51 2013q204 -8 386 -8q181 0 339 8q39 -8 35 -20l-11 -27q-94 -4 -145 -27l-35 -39q-19 -24 -23 -328v-729q8 -176 19 -242l35 -141q98 -261 383 -312q28 -2 55 -2q242 0 382 154q117 149 128 453v1006q0 117 -35 156l-35 28 q-4 7 -168 23q-11 16 -7 31l31 16l406 -8l218 8l31 -16l-4 -27l-15 -8q-9 1 -18 1q-39 0 -99 -13q-47 -23 -63 -62q-15 -58 -15 -121l-4 -948q-20 -378 -184 -573q-214 -230 -522 -242q-30 -1 -60 -1q-88 0 -167 9q-413 58 -546 398q-19 31 -54 202l-16 149v893l-8 187 q-11 74 -70 102l-35 11l-125 8l-19 20q0 31 35 31z"/>
<glyph glyph-name="Ucircumflex" horiz-adv-x="2073" unicode="Û" d="M778 2054h-69l252 346h112l252 -346h-67l-240 219zM51 2013q204 -8 386 -8q181 0 339 8q39 -8 35 -20l-11 -27q-94 -4 -145 -27l-35 -39q-19 -24 -23 -328v-729q8 -176 19 -242l35 -141q98 -261 383 -312q28 -2 55 -2q242 0 382 154q117 149 128 453v1006q0 117 -35 156 l-35 28q-4 7 -168 23q-11 16 -7 31l31 16l406 -8l218 8l31 -16l-4 -27l-15 -8q-9 1 -18 1q-39 0 -99 -13q-47 -23 -63 -62q-15 -58 -15 -121l-4 -948q-20 -378 -184 -573q-214 -230 -522 -242q-30 -1 -60 -1q-88 0 -167 9q-413 58 -546 398q-19 31 -54 202l-16 149v893 l-8 187q-11 74 -70 102l-35 11l-125 8l-19 20q0 31 35 31z"/>
<glyph glyph-name="Udieresis" horiz-adv-x="2073" unicode="Ü" d="M1335 2055q-23 0 -45 13q-22 14 -36 36q-13 22 -13 45t13 46q12 23 34 37t47 13q24 1 47 -13q22 -14 36 -36t14 -47q0 -38 -30 -66t-67 -28zM727 2039q-23 0 -45 13q-22 14 -36 36q-13 22 -13 45t13 46q12 23 34 37t47 13q24 1 47 -13q22 -14 36 -36t14 -47 q0 -38 -30 -66t-67 -28zM51 2013q204 -8 386 -8q181 0 339 8q39 -8 35 -20l-11 -27q-94 -4 -145 -27l-35 -39q-19 -24 -23 -328v-729q8 -176 19 -242l35 -141q98 -261 383 -312q28 -2 55 -2q242 0 382 154q117 149 128 453v1006q0 117 -35 156l-35 28q-4 7 -168 23 q-11 16 -7 31l31 16l406 -8l218 8l31 -16l-4 -27l-15 -8q-9 1 -18 1q-39 0 -99 -13q-47 -23 -63 -62q-15 -58 -15 -121l-4 -948q-20 -378 -184 -573q-214 -230 -522 -242q-30 -1 -60 -1q-88 0 -167 9q-413 58 -546 398q-19 31 -54 202l-16 149v893l-8 187q-11 74 -70 102 l-35 11l-125 8l-19 20q0 31 35 31z"/>
<glyph glyph-name="Yacute" horiz-adv-x="2035" unicode="Ý" d="M868 2036l292 260l153 -57l-364 -203h-81zM60 2008q158 -9 322 -9q55 0 110 1l199 8l19 -8l4 -8v-19q-41 -25 -59 -25q-2 0 -4 1q-29 -16 -29 -46q0 -7 1 -14q16 -55 64 -143l393 -698l4 -16h7l96 190l289 536l32 115q4 32 -8 52l-35 28q-60 4 -60 28q4 23 28 27 q131 -8 269 -8t282 8q24 0 32 -16l-8 -27l-16 -8q-7 2 -17 2q-29 0 -86 -18q-51 -24 -87 -52q-95 -59 -492 -770q-88 -159 -99 -206q-25 -80 -25 -284q0 -29 1 -61q-1 -48 -1 -96q0 -143 9 -278q4 -47 23 -83q20 -28 56 -44l179 -15q23 -16 16 -32l-20 -16q-224 4 -421 4 q-196 0 -365 -4l-20 16q-4 24 8 28l127 16q28 7 44 31q41 29 41 435q0 96 -2 212q-12 107 -28 151q-19 64 -75 159q-298 516 -456 750q-56 71 -115 115l-84 36l-59 4q-16 4 -16 31z"/>
<glyph glyph-name="Thorn" horiz-adv-x="1579" unicode="Þ" d="M612 380l195 -9q31 -3 59 -3q284 0 327 291v30q0 253 -126 425q-94 111 -161 143q0 8 -162 36l-130 -4zM612 1932l2 -505l8 -12l40 -8q196 -11 362 -11h28l122 -56q224 -119 311 -349q25 -66 25 -152q0 -79 -21 -176q-138 -406 -658 -419l-215 12q8 -356 44 -448h-560 l-24 40q48 8 124 44l40 44q56 72 63 802l-7 1078v17q0 68 -28 111q-44 24 -80 36l-132 4q0 31 14 31q4 0 10 -3h596z"/>
<glyph glyph-name="germandbls" horiz-adv-x="1579" unicode="ß" d="M87 2005l512 -8l216 8q95 -4 174 -24q295 -79 323 -348l-8 -126q-36 -194 -248 -360l122 -55q224 -119 311 -349q25 -66 25 -152q0 -79 -21 -176q-138 -406 -658 -419l-24 127q31 -3 59 -3q284 0 327 291v30q0 253 -126 425q-94 111 -161 143q0 8 -162 36l-130 -4v-736 q10 -653 46 -745h-560l-24 40q48 8 124 44l40 44q56 72 63 802v1282q-4 111 -39 142q-55 36 -83 36h-4l-110 3q-21 7 -21 23q0 3 1 5q14 25 30 25q3 0 6 -1zM618 1867v-688l8 -12l40 -8q38 -2 71 -2q151 0 196 45q83 72 107 237q1 16 1 31q0 174 -84 298q-87 107 -189 122 l-134 -3z"/>
<glyph glyph-name="agrave" horiz-adv-x="1786" unicode="à" d="M956 1604h-72l-322 203l136 57zM936 1077h-27l-188 -393h373zM961 1581l616 -1391q13 -24 41 -68t55 -79q11 -13 21 -25t16 -18h-373q1 8 3 23t1 26q-1 40 -15 80t-23 61l-125 293h-562l-139 -293q-8 -20 -21 -58t-16 -73q-2 -7 -2 -25v-24v-10h-377q11 12 31 36l35 42 q18 26 38 60t30 52l725 1391h41z"/>
<glyph glyph-name="aacute" horiz-adv-x="1786" unicode="á" d="M916 1604l292 260l153 -57l-364 -203h-81zM936 1077h-27l-188 -393h373zM961 1581l616 -1391q13 -24 41 -68t55 -79q11 -13 21 -25t16 -18h-373q1 8 3 23t1 26q-1 40 -15 80t-23 61l-125 293h-562l-139 -293q-8 -20 -21 -58t-16 -73q-2 -7 -2 -25v-24v-10h-377 q11 12 31 36l35 42q18 26 38 60t30 52l725 1391h41z"/>
<glyph glyph-name="acircumflex" horiz-adv-x="1786" unicode="â" d="M702 1590h-69l252 346h112l252 -346h-67l-240 219zM936 1077h-27l-188 -393h373zM961 1581l616 -1391q13 -24 41 -68t55 -79q11 -13 21 -25t16 -18h-373q1 8 3 23t1 26q-1 40 -15 80t-23 61l-125 293h-562l-139 -293q-8 -20 -21 -58t-16 -73q-2 -7 -2 -25v-24v-10h-377 q11 12 31 36l35 42q18 26 38 60t30 52l725 1391h41z"/>
<glyph glyph-name="atilde" horiz-adv-x="1786" unicode="ã" d="M670 1603h-58q18 87 76 145t139 58q24 0 51 -6q35 -15 101 -47q40 -22 76 -35q21 -8 49 -8q53 0 80 35q16 16 38 69h60q-14 -57 -44 -105t-73 -77q-44 -29 -102 -29q-25 0 -39 3q-14 2 -34 10q-22 8 -38 16t-39 18q-43 21 -73 34t-58 13q-22 0 -45 -10q-44 -17 -67 -84z M936 1077h-27l-188 -393h373zM961 1581l616 -1391q13 -24 41 -68t55 -79q11 -13 21 -25t16 -18h-373q1 8 3 23t1 26q-1 40 -15 80t-23 61l-125 293h-562l-139 -293q-8 -20 -21 -58t-16 -73q-2 -7 -2 -25v-24v-10h-377q11 12 31 36l35 42q18 26 38 60t30 52l725 1391h41z"/>
<glyph glyph-name="adieresis" horiz-adv-x="1786" unicode="ä" d="M1163 1607q-37 0 -66 29t-29 65q0 23 14 47t34 36q21 13 47 13q25 1 47 -13t34 -37q13 -23 13 -46t-13 -45q-14 -22 -36 -36q-22 -13 -45 -13zM689 1599q-23 0 -45 13q-22 14 -36 36q-13 22 -13 45t13 46q12 23 34 37t47 13q24 1 47 -13q22 -14 36 -36t14 -47 q0 -38 -30 -66t-67 -28zM936 1077h-27l-188 -393h373zM961 1581l616 -1391q13 -24 41 -68t55 -79q11 -13 21 -25t16 -18h-373q1 8 3 23t1 26q-1 40 -15 80t-23 61l-125 293h-562l-139 -293q-8 -20 -21 -58t-16 -73q-2 -7 -2 -25v-24v-10h-377q11 12 31 36l35 42q18 26 38 60 t30 52l725 1391h41z"/>
<glyph glyph-name="aring" horiz-adv-x="1786" unicode="å" d="M939 1679q49 -1 87 39t38 88q0 51 -37 90t-88 39q-49 0 -88 -39t-39 -90q0 -48 40 -88t87 -39zM939 1605q-53 0 -101 28q-48 27 -76 75t-28 102q0 55 28 103t77 76q48 28 100 28q55 -1 101 -29t74 -75t28 -103q0 -54 -28 -101t-74 -75t-101 -29zM936 1077h-27l-188 -393 h373zM961 1581l616 -1391q13 -24 41 -68t55 -79q11 -13 21 -25t16 -18h-373q1 8 3 23t1 26q-1 40 -15 80t-23 61l-125 293h-562l-139 -293q-8 -20 -21 -58t-16 -73q-2 -7 -2 -25v-24v-10h-377q11 12 31 36l35 42q18 26 38 60t30 52l725 1391h41z"/>
<glyph glyph-name="ae" horiz-adv-x="1741" unicode="æ" d="M828 1078l-43 -1l-188 -393h231v394zM1486 1333q-40 17 -165 53q-87 25 -194 31l-63 4v-547q38 5 72 7q34 1 70 3t67 3q28 2 78 2q69 0 192 -10l-129 -224q-87 40 -181 60q-49 11 -83 15t-86 5v-577h68q54 0 86 5t126 21q80 14 127 26t106 32t109 39l-115 -281h-783 q3 0 22 45q13 36 17 79t4 66v293h-315l-125 -293q-7 -20 -19 -58t-15 -73q-1 -7 -1 -25v-24v-10h-339l27 36t32 42q16 26 34 60t27 52l652 1391h813z"/>
<glyph glyph-name="ccedilla" horiz-adv-x="1399" unicode="ç" d="M608 -424l28 62q32 -8 66 -16t61 -9q47 1 82 23t35 65q0 80 -107 80q-9 0 -47 -10l-32 10l90 205h27q-163 0 -299 53t-237 156t-159 253t-61 336q0 171 74 319q74 147 198 255q123 108 277 166t307 59q127 -2 205 -13t172 -50v-271l-57 29q-99 52 -175 74t-163 22 q-39 0 -59 -2q-114 -7 -214 -58t-172 -134t-110 -189q-39 -106 -39 -221q1 -159 77 -294t206 -217t286 -83q104 0 179 24t159 81l115 79l-18 -258q-194 -116 -492 -116h42l-61 -137q24 6 26 6q25 6 48 6q62 1 110 -39t47 -102q0 -73 -59 -125q-72 -49 -191 -49 q-85 0 -165 30z"/>
<glyph glyph-name="egrave" horiz-adv-x="1065" unicode="è" d="M680 1608h-72l-322 203l136 57zM795 1333q-42 17 -174 53q-92 25 -205 31l-66 4v-547q40 5 76 7q36 1 74 3t71 3q29 2 82 2q73 0 203 -10l-137 -224q-91 40 -191 60q-52 11 -88 15t-90 5v-577h72q57 0 90 5t133 21q85 14 135 26t112 32t114 39l-121 -281h-826q3 0 23 45 q14 36 18 79t4 66v1201q0 10 -1 33t-4 51t-11 53q-6 16 -15 30t-14 23h859z"/>
<glyph glyph-name="eacute" horiz-adv-x="1065" unicode="é" d="M316 1604l292 260l153 -57l-364 -203h-81zM795 1333q-42 17 -174 53q-92 25 -205 31l-66 4v-547q40 5 76 7q36 1 74 3t71 3q29 2 82 2q73 0 203 -10l-137 -224q-91 40 -191 60q-52 11 -88 15t-90 5v-577h72q57 0 90 5t133 21q85 14 135 26t112 32t114 39l-121 -281h-826 q3 0 23 45q14 36 18 79t4 66v1201q0 10 -1 33t-4 51t-11 53q-6 16 -15 30t-14 23h859z"/>
<glyph glyph-name="ecircumflex" horiz-adv-x="1065" unicode="ê" d="M290 1590h-69l252 346h112l252 -346h-67l-240 219zM795 1333q-42 17 -174 53q-92 25 -205 31l-66 4v-547q40 5 76 7q36 1 74 3t71 3q29 2 82 2q73 0 203 -10l-137 -224q-91 40 -191 60q-52 11 -88 15t-90 5v-577h72q57 0 90 5t133 21q85 14 135 26t112 32t114 39 l-121 -281h-826q3 0 23 45q14 36 18 79t4 66v1201q0 10 -1 33t-4 51t-11 53q-6 16 -15 30t-14 23h859z"/>
<glyph glyph-name="edieresis" horiz-adv-x="1065" unicode="ë" d="M713 1615q-37 0 -66 29t-29 65q0 23 13 46t35 37t47 13q25 1 47 -13t34 -37q13 -23 13 -46t-13 -45q-14 -22 -36 -36q-22 -13 -45 -13zM311 1615q-23 0 -45 13q-22 14 -36 36q-13 22 -13 45t13 46q12 23 34 37t47 13q24 1 47 -13q22 -14 36 -36t14 -47q0 -38 -30 -66 t-67 -28zM795 1333q-42 17 -174 53q-92 25 -205 31l-66 4v-547q40 5 76 7q36 1 74 3t71 3q29 2 82 2q73 0 203 -10l-137 -224q-91 40 -191 60q-52 11 -88 15t-90 5v-577h72q57 0 90 5t133 21q85 14 135 26t112 32t114 39l-121 -281h-826q3 0 23 45q14 36 18 79t4 66v1201 q0 10 -1 33t-4 51t-11 53q-6 16 -15 30t-14 23h859z"/>
<glyph glyph-name="igrave" horiz-adv-x="453" unicode="ì" d="M416 1608h-72l-322 203l136 57zM350 190q2 -22 7 -64t18 -77q1 -5 9 -23t11 -26h-336q4 8 12 26t11 27q14 33 18 74t4 63v1201q-1 23 -7 69t-19 80q-4 8 -10 22t-9 19h336q-3 0 -20 -39q-15 -38 -19 -82t-6 -69v-1201z"/>
<glyph glyph-name="iacute" horiz-adv-x="453" unicode="í" d="M40 1604l292 260l153 -57l-364 -203h-81zM350 190q2 -22 7 -64t18 -77q1 -5 9 -23t11 -26h-336q4 8 12 26t11 27q14 33 18 74t4 63v1201q-1 23 -7 69t-19 80q-4 8 -10 22t-9 19h336q-3 0 -20 -39q-15 -38 -19 -82t-6 -69v-1201z"/>
<glyph glyph-name="icircumflex" horiz-adv-x="453" unicode="î" d="M-6 1590h-69l252 346h112l252 -346h-67l-240 219zM350 190q2 -22 7 -64t18 -77q1 -5 9 -23t11 -26h-336q4 8 12 26t11 27q14 33 18 74t4 63v1201q-1 23 -7 69t-19 80q-4 8 -10 22t-9 19h336q-3 0 -20 -39q-15 -38 -19 -82t-6 -69v-1201z"/>
<glyph glyph-name="idieresis" horiz-adv-x="453" unicode="ï" d="M25 1623q-37 0 -66 29t-29 65q0 23 13 46t35 37t47 13q25 1 47 -13t34 -37q13 -23 13 -46t-13 -45q-14 -22 -36 -36q-22 -13 -45 -13zM415 1623q-23 0 -45 13q-22 14 -36 36q-13 22 -13 45t13 46q12 23 34 37t47 13q24 1 47 -13q22 -14 36 -36t14 -47q0 -38 -30 -66 t-67 -28zM350 190q2 -22 7 -64t18 -77q1 -5 9 -23t11 -26h-336q4 8 12 26t11 27q14 33 18 74t4 63v1201q-1 23 -7 69t-19 80q-4 8 -10 22t-9 19h336q-3 0 -20 -39q-15 -38 -19 -82t-6 -69v-1201z"/>
<glyph glyph-name="eth" horiz-adv-x="1274" unicode="ð" d="M438 160q112 23 206 82t162 146q68 86 102 190q36 104 36 221q0 35 -2 53q-12 127 -80 245q-68 117 -184 201t-254 107l-68 12v-573h112v-124h-112v-577zM1221 821q2 -16 2 -51q-1 -155 -59 -294q-58 -140 -166 -248t-254 -168q-145 -60 -314 -60h-364q4 7 10 19t12 26 q13 30 18 76t5 69v530h-187l-64 124h251v547q-2 25 -8 69t-19 78q-8 20 -12 28t-6 15h288q219 0 414 -97q194 -98 316 -272t137 -391z"/>
<glyph glyph-name="ntilde" horiz-adv-x="1620" unicode="ñ" d="M546 1607h-58q18 87 76 145t139 58q24 0 51 -6q35 -15 101 -47q40 -22 76 -35q21 -8 49 -8q53 0 80 35q16 16 38 69h60q-14 -57 -44 -105t-73 -77q-44 -29 -102 -29q-25 0 -39 3q-14 2 -34 10q-22 8 -38 16t-39 18q-43 21 -73 34t-58 13q-22 0 -45 -10q-44 -17 -67 -84z M1286 0l-772 1040v-850q2 -22 8 -60t17 -77q1 -5 9 -25t11 -28h-336l14 28t13 29q10 35 14 73t4 60v1199q-13 16 -41 49t-45 49q-27 27 -65 53t-58 39l355 2l850 -1147v957q-2 17 -6 49t-13 63q-5 22 -13 44t-13 34h335q-2 -4 -6 -13q-4 -8 -10 -22t-10 -24q-10 -30 -14 -70 t-5 -61v-1201q2 -18 6 -52t13 -66q4 -11 9 -26t10 -28t7 -18h-268z"/>
<glyph glyph-name="ograve" horiz-adv-x="1647" unicode="ò" d="M956 1604h-72l-322 203l136 57zM274 803q12 -142 65 -259t139 -201q86 -85 194 -129t219 -44q35 0 53 2q114 12 208 98t146 216q52 131 52 266q0 39 -2 57q-18 185 -114 327t-236 216q-139 74 -277 75q-131 -7 -234 -90t-159 -213t-56 -268q0 -35 2 -53zM1575 815 q-1 -187 -61 -339t-166 -260t-242 -166q-138 -58 -285 -58q-11 2 -21 2h-26q-218 14 -382 120t-252 283t-95 396q-1 162 57 308t161 256q103 111 240 173t292 65q163 0 303 -57t245 -162q105 -106 165 -248t67 -313z"/>
<glyph glyph-name="oacute" horiz-adv-x="1647" unicode="ó" d="M788 1612l292 260l153 -57l-364 -203h-81zM274 803q12 -142 65 -259t139 -201q86 -85 194 -129t219 -44q35 0 53 2q114 12 208 98t146 216q52 131 52 266q0 39 -2 57q-18 185 -114 327t-236 216q-139 74 -277 75q-131 -7 -234 -90t-159 -213t-56 -268q0 -35 2 -53z M1575 815q-1 -187 -61 -339t-166 -260t-242 -166q-138 -58 -285 -58q-11 2 -21 2h-26q-218 14 -382 120t-252 283t-95 396q-1 162 57 308t161 256q103 111 240 173t292 65q163 0 303 -57t245 -162q105 -106 165 -248t67 -313z"/>
<glyph glyph-name="ocircumflex" horiz-adv-x="1647" unicode="ô" d="M606 1594h-69l252 346h112l252 -346h-67l-240 219zM274 803q12 -142 65 -259t139 -201q86 -85 194 -129t219 -44q35 0 53 2q114 12 208 98t146 216q52 131 52 266q0 39 -2 57q-18 185 -114 327t-236 216q-139 74 -277 75q-131 -7 -234 -90t-159 -213t-56 -268 q0 -35 2 -53zM1575 815q-1 -187 -61 -339t-166 -260t-242 -166q-138 -58 -285 -58q-11 2 -21 2h-26q-218 14 -382 120t-252 283t-95 396q-1 162 57 308t161 256q103 111 240 173t292 65q163 0 303 -57t245 -162q105 -106 165 -248t67 -313z"/>
<glyph glyph-name="otilde" horiz-adv-x="1647" unicode="õ" d="M546 1607h-58q18 87 76 145t139 58q24 0 51 -6q35 -15 101 -47q40 -22 76 -35q21 -8 49 -8q53 0 80 35q16 16 38 69h60q-14 -57 -44 -105t-73 -77q-44 -29 -102 -29q-25 0 -39 3q-14 2 -34 10q-22 8 -38 16t-39 18q-43 21 -73 34t-58 13q-22 0 -45 -10q-44 -17 -67 -84z M274 803q12 -142 65 -259t139 -201q86 -85 194 -129t219 -44q35 0 53 2q114 12 208 98t146 216q52 131 52 266q0 39 -2 57q-18 185 -114 327t-236 216q-139 74 -277 75q-131 -7 -234 -90t-159 -213t-56 -268q0 -35 2 -53zM1575 815q-1 -187 -61 -339t-166 -260t-242 -166 q-138 -58 -285 -58q-11 2 -21 2h-26q-218 14 -382 120t-252 283t-95 396q-1 162 57 308t161 256q103 111 240 173t292 65q163 0 303 -57t245 -162q105 -106 165 -248t67 -313z"/>
<glyph glyph-name="odieresis" horiz-adv-x="1647" unicode="ö" d="M1087 1615q-37 0 -66 29t-29 65q0 23 14 47t34 36q21 13 47 13q25 1 47 -13t34 -37q13 -23 13 -46t-13 -45q-14 -22 -36 -36q-22 -13 -45 -13zM589 1607q-23 0 -45 13q-22 14 -36 36q-13 22 -13 45t13 46q12 23 34 37t47 13q24 1 47 -13q22 -14 36 -36t14 -47 q0 -38 -30 -66t-67 -28zM274 803q12 -142 65 -259t139 -201q86 -85 194 -129t219 -44q35 0 53 2q114 12 208 98t146 216q52 131 52 266q0 39 -2 57q-18 185 -114 327t-236 216q-139 74 -277 75q-131 -7 -234 -90t-159 -213t-56 -268q0 -35 2 -53zM1575 815q-1 -187 -61 -339 t-166 -260t-242 -166q-138 -58 -285 -58q-11 2 -21 2h-26q-218 14 -382 120t-252 283t-95 396q-1 162 57 308t161 256q103 111 240 173t292 65q163 0 303 -57t245 -162q105 -106 165 -248t67 -313z"/>
<glyph glyph-name="divide" horiz-adv-x="1241" unicode="÷" d="M621 -25q-50 0 -87.5 36.5t-37.5 86.5q0 51 38 88t87 37q50 0 85 -37.5t35 -87.5q0 -49 -35 -86t-85 -37zM621 827q-51 0 -88 36t-37 89q0 51 38 87t87 36q32 0 59.5 -17t44 -45t16.5 -61q0 -52 -35 -88.5t-85 -36.5zM1137 459h-1033v133h1033v-133z"/>
<glyph glyph-name="oslash" horiz-adv-x="1647" unicode="ø" d="M274 803q12 -142 65 -259q17 -39 39 -74l769 772q-67 66 -149 110q-139 74 -277 75q-131 -7 -234 -90t-159 -213t-56 -268q0 -35 2 -53zM1575 815q-1 -187 -61 -339t-166 -260t-242 -166q-138 -58 -285 -58q-11 2 -21 2h-26q-218 14 -382 120q-57 37 -105 82l-187 -188 l-92 92l194 194q-34 48 -62 103q-88 177 -95 396q-1 162 57 308t161 256q103 111 240 173t292 65q163 0 303 -57q120 -48 213 -132l221 222l40 -144l-172 -172q64 -82 108 -184q60 -142 67 -313zM1230 1141l-774 -776l22 -22q86 -85 194 -129t219 -44q35 0 53 2 q114 12 208 98t146 216q52 131 52 266q0 39 -2 57q-18 185 -114 327q-2 2 -4 5z"/>
<glyph glyph-name="ugrave" horiz-adv-x="1444" unicode="ù" d="M936 1604h-72l-322 203l136 57zM1008 96q-106 -60 -206 -86t-206 -26q-156 2 -268 104t-168 264t-56 334v705q-1 19 -6 57t-14 65q-7 24 -14 41t-11 27h336q-3 0 -20 -45q-11 -38 -17 -80t-8 -65v-779q0 -144 53 -244t133 -149t164 -51q74 0 144 26t127 76q55 52 87 128 t32 169v824q-2 21 -6 60t-17 75q-5 15 -12 31t-11 24h336l-12 -21t-12 -26q-14 -36 -18 -78t-3 -65v-1201q3 -21 11 -65t14 -68q1 -5 9 -27t11 -30h-336q5 8 14 24t15 35q7 21 11 45t6 37z"/>
<glyph glyph-name="uacute" horiz-adv-x="1444" unicode="ú" d="M652 1612l292 260l153 -57l-364 -203h-81zM1008 96q-106 -60 -206 -86t-206 -26q-156 2 -268 104t-168 264t-56 334v705q-1 19 -6 57t-14 65q-7 24 -14 41t-11 27h336q-3 0 -20 -45q-11 -38 -17 -80t-8 -65v-779q0 -144 53 -244t133 -149t164 -51q74 0 144 26t127 76 q55 52 87 128t32 169v824q-2 21 -6 60t-17 75q-5 15 -12 31t-11 24h336l-12 -21t-12 -26q-14 -36 -18 -78t-3 -65v-1201q3 -21 11 -65t14 -68q1 -5 9 -27t11 -30h-336q5 8 14 24t15 35q7 21 11 45t6 37z"/>
<glyph glyph-name="ucircumflex" horiz-adv-x="1444" unicode="û" d="M462 1598h-69l252 346h112l252 -346h-67l-240 219zM1008 96q-106 -60 -206 -86t-206 -26q-156 2 -268 104t-168 264t-56 334v705q-1 19 -6 57t-14 65q-7 24 -14 41t-11 27h336q-3 0 -20 -45q-11 -38 -17 -80t-8 -65v-779q0 -144 53 -244t133 -149t164 -51q74 0 144 26 t127 76q55 52 87 128t32 169v824q-2 21 -6 60t-17 75q-5 15 -12 31t-11 24h336l-12 -21t-12 -26q-14 -36 -18 -78t-3 -65v-1201q3 -21 11 -65t14 -68q1 -5 9 -27t11 -30h-336q5 8 14 24t15 35q7 21 11 45t6 37z"/>
<glyph glyph-name="udieresis" horiz-adv-x="1444" unicode="ü" d="M935 1615q-37 0 -66 29t-29 65q0 23 14 47t34 36q21 13 47 13q25 1 47 -13t34 -37q13 -23 13 -46t-13 -45q-14 -22 -36 -36q-22 -13 -45 -13zM493 1607q-23 0 -45 13q-22 14 -36 36q-13 22 -13 45t13 46q12 23 34 37t47 13q24 1 47 -13q22 -14 36 -36t14 -47 q0 -38 -30 -66t-67 -28zM1008 96q-106 -60 -206 -86t-206 -26q-156 2 -268 104t-168 264t-56 334v705q-1 19 -6 57t-14 65q-7 24 -14 41t-11 27h336q-3 0 -20 -45q-11 -38 -17 -80t-8 -65v-779q0 -144 53 -244t133 -149t164 -51q74 0 144 26t127 76q55 52 87 128t32 169v824 q-2 21 -6 60t-17 75q-5 15 -12 31t-11 24h336l-12 -21t-12 -26q-14 -36 -18 -78t-3 -65v-1201q3 -21 11 -65t14 -68q1 -5 9 -27t11 -30h-336q5 8 14 24t15 35q7 21 11 45t6 37z"/>
<glyph glyph-name="yacute" horiz-adv-x="1399" unicode="ý" d="M652 1612l292 260l153 -57l-364 -203h-81zM836 756v-566q1 -19 6 -60t12 -67l12 -27t10 -24q3 -6 5 -12h-336q-1 0 28 63q9 31 13 69t4 58v519l-373 682q-13 20 -37 57t-51 68q-11 14 -33 34t-33 31h373q-4 -9 -10 -29t-8 -28q0 -39 16 -78t27 -55l244 -426l231 426 q6 12 14 43t11 51q1 39 -3 62t-6 34h381q-10 -7 -29 -23t-30 -28q-20 -22 -40 -52t-34 -54t-18 -33z"/>
<glyph glyph-name="thorn" horiz-adv-x="1038" unicode="þ" d="M312 296v-308h-304q20 28 30 46t30 66v1344q-4 108 -6 128t-46 108h408l-52 -32l-56 -44v-352h15q168 0 419 -166q100 -82 148 -157t54 -185q0 -134 -80 -234t-448 -206zM312 444l112 16q170 74 216 139t46 137q-4 83 -40 155q-36 71 -102 125q-67 54 -149 79l-80 22z "/>
<glyph glyph-name="OE" horiz-adv-x="2248" unicode="Œ" d="M330 1112q-1 -18 -1 -39q0 -83 13 -205q31 -194 108 -343q104 -193 270 -297q123 -67 297 -97l131 1l-4 1720q-336 -18 -451 -70q-340 -156 -363 -670zM1056 1994q56 2 211 2q233 0 689 -5q107 12 142 28q4 1 7 1q13 0 17 -13l-24 -209l-8 -149q-4 -25 -24 -33l-27 12 q-4 111 -28 147q-32 39 -67 51q-75 19 -167 23l-301 4l-4 -8l4 -706l444 4l79 20l56 55q23 0 27 -16q-23 -169 -31 -402q-8 -28 -20 -28l-28 8q-4 115 -28 150q-44 51 -75 55q-59 14 -252 14q-77 0 -176 -2v-683q12 -107 59 -134q48 -24 131 -35q68 -4 125 -4q168 0 240 35 l55 47l36 75l16 91q16 32 43 16l9 -35q-5 -107 -29 -277q-15 -103 -98 -103q-19 0 -41 5l-926 1q-25 -1 -50 -1q-215 0 -392 63q-555 217 -621 874q-1 22 -1 44q0 428 279 729q266 262 749 289z"/>
<glyph glyph-name="oe" horiz-adv-x="1789" unicode="œ" d="M218 803q12 -142 65 -259t139 -201q86 -85 194 -129t219 -44l-3 1258l-140 4q-158 -12 -261 -95t-159 -213t-56 -268q0 -35 2 -53zM802 0q-256 19 -420 124q-164 104 -252 278t-95 390q-1 158 57 302t161 252t240 170t307 66l850 -1l-123 -248q-42 17 -174 53 q-92 25 -205 31l-66 4v-547q40 5 76 7q36 1 74 3t71 3q29 2 82 2q73 0 203 -10l-137 -224q-91 40 -191 60q-52 11 -88 15t-90 5v-577h72q57 0 90 5t133 21q85 14 135 26t112 32t114 39l-121 -281h-815z"/>
<glyph glyph-name="Scaron" horiz-adv-x="1096" unicode="Š" d="M810 2400h67l-252 -346h-112l-252 346h69l240 -217zM77 561q15 4 31 -12q19 -368 315 -418q33 -5 66 -5q64 0 130 20q157 58 199 242q1 18 1 36q0 48 -8 87q-4 31 -43 111l-42 62l-123 123q-230 177 -296 250q-76 73 -138 176q-78 156 -78 295q0 135 74 255 q150 207 442 230q31 2 63 2q109 0 237 -21q130 -27 127 -42l-8 -177v-180q-8 -43 -19 -43q-31 -4 -31 8l-19 111q-46 127 -169 193q-59 28 -159 28q-23 0 -49 -2q-207 -38 -238 -234v-54q8 -65 31 -103l54 -77l84 -85q281 -219 315 -257q257 -240 257 -519q0 -101 -34 -207 q-135 -323 -546 -354q-28 -1 -55 -1q-80 0 -152 9q-96 15 -150 34q-88 35 -88 43l-16 30q-1 29 -1 63q0 134 13 337q4 31 23 46z"/>
<glyph glyph-name="scaron" horiz-adv-x="973" unicode="š" d="M762 1968h67l-252 -346h-112l-252 346h69l240 -217zM827 1522v-273l-55 45q-62 53 -110 76t-144 23q-90 -3 -156 -67t-67 -152q-1 -52 17 -92t46 -69t70 -58q41 -29 90 -62q135 -90 178 -119q42 -29 96 -80q54 -50 88 -120t33 -158q-9 -118 -77 -216t-178 -154t-242 -56 q-88 3 -162 15t-133 38v317l78 -79q57 -58 105 -85t116 -28q95 0 161 64t66 167q-7 58 -32 100t-63 72q-38 29 -108 73q-71 44 -77 48q-43 30 -109 78t-105 90t-64 101q-25 58 -32 143q0 94 37 182t104 157q66 69 152 109t180 39q186 -3 297 -69z"/>
<glyph glyph-name="Ydieresis" horiz-adv-x="2035" unicode="Ÿ" d="M727 2039q-23 0 -45 13q-22 14 -36 36q-13 22 -13 45t13 46q12 23 34 37t47 13q24 1 47 -13q22 -14 36 -36t14 -47q0 -38 -30 -66t-67 -28zM1311 2039q-23 0 -45 13q-22 14 -36 36q-13 22 -13 45t13 46q12 23 34 37t47 13q24 1 47 -13q22 -14 36 -36t14 -47 q0 -38 -30 -66t-67 -28zM60 2008q158 -9 322 -9q55 0 110 1l199 8l19 -8l4 -8v-19q-41 -25 -59 -25q-2 0 -4 1q-29 -16 -29 -46q0 -7 1 -14q16 -55 64 -143l393 -698l4 -16h7l96 190l289 536l32 115q4 32 -8 52l-35 28q-60 4 -60 28q4 23 28 27q131 -8 269 -8t282 8 q24 0 32 -16l-8 -27l-16 -8q-7 2 -17 2q-29 0 -86 -18q-51 -24 -87 -52q-95 -59 -492 -770q-88 -159 -99 -206q-25 -80 -25 -284q0 -29 1 -61q-1 -48 -1 -96q0 -143 9 -278q4 -47 23 -83q20 -28 56 -44l179 -15q23 -16 16 -32l-20 -16q-224 4 -421 4q-196 0 -365 -4l-20 16 q-4 24 8 28l127 16q28 7 44 31q41 29 41 435q0 96 -2 212q-12 107 -28 151q-19 64 -75 159q-298 516 -456 750q-56 71 -115 115l-84 36l-59 4q-16 4 -16 31z"/>
<glyph glyph-name="circumflex" d="M102 1100h-69l252 346h112l252 -346h-67l-240 219z" unicode="ˆ"/>
<glyph glyph-name="tilde" d="M63 1153h-57q18 87 76 145t139 58q24 0 51 -6q35 -15 101 -47q40 -22 76 -35q21 -8 49 -8q53 0 80 34q17 18 38 70h60q-15 -58 -44 -105.5t-73 -76.5t-102 -29q-30 0 -52.5 5.5t-43 15t-54.5 26.5q-42 21 -72.5 34t-58.5 13q-22 0 -45 -10q-43 -16 -68 -84z" unicode="˜"/>
<glyph glyph-name="emdash" horiz-adv-x="1024" unicode="–" d="M1024 408h-1024v98h1024v-98z"/>
<glyph glyph-name="endash" horiz-adv-x="2048" unicode="—" d="M0 408v98h2048v-98h-2048z"/>
<glyph glyph-name="quoteleft" horiz-adv-x="569" unicode="‘" d="M432 1440l35 -15l-143 -462q-4 -10 -9 -24.5t-14 -39.5q-19 -30 -34.5 -41.5t-45.5 -11.5q-32 0 -54 22t-22 54q0 19 7 38t19.5 39t18.5 31z"/>
<glyph glyph-name="quotesinglbase" horiz-adv-x="569" unicode="‚" d="M141 -336l-35 14l144 461q12 38 22.5 62.5t30.5 40.5q22 14 47 14q32 0 55 -23t23 -57q0 -22 -8 -39q-10 -22 -37 -67z"/>
<glyph glyph-name="quotedblleft" horiz-adv-x="909" unicode="“" d="M412 1446l37 -14l-144 -463q-19 -58 -38.5 -87.5t-65.5 -29.5q-29 0 -51 23.5t-25 52.5q1 27 12.5 50.5t34.5 59.5zM762 1444l35 -14l-144 -463q-19 -58 -38 -87.5t-64 -29.5q-33 0 -54 22t-24 54q2 26 13 50t34 60z"/>
<glyph glyph-name="quotedblright" horiz-adv-x="909" unicode="”" d="M494 877l-37 14l143 465q16 50 37 82t57 32q35 0 60.5 -21.5t25.5 -53.5q0 -34 -45 -111zM145 879l-36 14l143 465q16 50 37 82.5t57 32.5q73 0 86 -76q-2 -40 -47 -111z"/>
<glyph glyph-name="dagger" horiz-adv-x="1024" unicode="†" d="M582 584l8 -408l8 -172v-14l-57 6h-47l-45 -2l-21 -4q4 16 4 51l10 596l-4 180q-102 0 -153 -2q-32 -1 -105 -6.5t-90 -5.5q-6 0 -6 8q0 6 2 15t2 10q0 69 -2 106q136 -8 205 -8h147v209q0 80 -12 256l-2 14q58 -4 88 -4q12 0 38 2t38 2q-2 -18 -2 -57l-8 -422l358 16 v-100v-43l-217 10h-141q4 -152 4 -233z"/>
<glyph glyph-name="daggerdbl" horiz-adv-x="1024" unicode="‡" d="M733 907h-151v-47l-4 -190l4 -152v-18q50 1 91 1.5t107 0.5q28 0 74 4t86 6v-106v-37q-129 9 -258 12q-66 0 -98 2v-137q1 -64 1.5 -117.5t0.5 -140.5q-15 1 -40.5 4.5t-45.5 3.5q-15 0 -43 -4q-11 0 -31 -4l8 67l6 168v158h-204l-150 -6q1 19 1.5 34.5t0.5 41.5 q0 41 -2 61q61 -1 133 -5.5t113 -4.5h110q4 28 4 84v100v129q0 66 -4 96q-133 0 -200 -4l-156 -8q4 37 4 102l-2 39l191 -8h163q0 158 -2 234q-1 26 -1.5 47t-2 50.5t-2.5 53.5q54 -8 80 -8q28 0 86 8q-1 -6 -1.5 -16.5t-1 -21.5t-1.5 -17l-6 -141l-6 -168v-23 q45 1 81.5 1.5t96.5 0.5q19 0 55 2t61.5 3t65.5 3v-104v-39q-175 10 -211 10z"/>
<glyph glyph-name="ellipsis" horiz-adv-x="2048" unicode="…" d="M1583 100q0 51 38 88t87 37q50 0 85.5 -37.5t35.5 -87.5q0 -49 -36 -86t-85 -37q-50 0 -87.5 36.5t-37.5 86.5zM901 100q0 51 38 88t87 37q50 0 85.5 -37.5t35.5 -87.5q0 -49 -36 -86t-85 -37q-50 0 -87.5 36.5t-37.5 86.5zM219 100q0 51 38 88t87 37q50 0 85.5 -37.5 t35.5 -87.5q0 -49 -36 -86t-85 -37q-50 0 -87.5 36.5t-37.5 86.5z"/>
<glyph glyph-name="perthousand" horiz-adv-x="2048" unicode="‰" d="M1731 588q-97 0 -125.5 -91t-28.5 -221q0 -256 141 -256q91 0 121.5 88.5t30.5 198.5q0 75 -8 132.5t-39 103t-92 45.5zM1436 311q0 135 80 229.5t215 94.5q89 0 152 -43.5t94.5 -118t31.5 -162.5q0 -91 -33 -166t-99 -119t-159 -44q-142 0 -212 91t-70 238zM1069 588 q-97 0 -125.5 -91t-28.5 -221q0 -256 142 -256q151 0 151 287q0 75 -8 132.5t-39 103t-92 45.5zM774 311q0 89 36.5 163t104.5 117.5t154 43.5q133 0 207 -94t74 -230q0 -141 -78.5 -235t-214.5 -94q-142 0 -212.5 90.5t-70.5 238.5zM1067 1442l35 -4l18 -2l45 6l-792 -1505 l-60 4l-39 -4zM397 1339q-97 0 -125 -91.5t-28 -215.5q0 -256 143 -256q89 0 120.5 90t31.5 197q0 20 -3.5 56.5t-7.5 66.5q-16 153 -131 153zM104 1065q0 90 35.5 164t102 117t155.5 43q138 0 209.5 -91t71.5 -233q0 -148 -82 -242q-81 -90 -209 -90q-97 0 -160 43.5 t-93 118.5t-30 170z"/>
<glyph glyph-name="guilsinglleft" d="M424 94l-246 393l258 383q14 -14 30 -29t32 -20q4 -1 7 -1.5t7 -2.5l-229 -328l219 -339q-51 -17 -78 -56z" unicode="‹"/>
<glyph glyph-name="guilsinglright" d="M242 870l258 -383l-246 -393q-29 40 -78 56l219 339l-229 328q3 0 8 2t6 2q18 7 62 49z" unicode="›"/>
<glyph glyph-name="fraction" horiz-adv-x="342" unicode="⁄" d="M-150 -41l-32 -4l571 1440l21 -6l16 -3l35 3l18 6l-569 -1436l-33 2z"/>
<glyph glyph-name="trademark" horiz-adv-x="1946" unicode="™" d="M467 1352v-639q0 -66 22 -80q23 -12 93 -12h14v-48h-389v48h14q70 0 92 12q23 14 23 80v639h-92q-85 0 -117.5 -31t-32.5 -117h-53v205h721v-205h-53q0 86 -32.5 117t-117.5 31h-92zM1804 1290v-571q0 -45 6.5 -63.5t26 -25t68.5 -9.5v-48h-338v48q51 2 71 8t27.5 25.5 t7.5 62.5v596l-305 -740h-18l-312 740v-586q0 -50 5 -69t26.5 -27.5t71.5 -9.5v-48h-260v48h20q32 2 47.5 6t24 19t8.5 44v600q0 50 -8 63t-45 13h-31v43h246l254 -606l256 606h252v-43h-43q-39 0 -48.5 -16t-9.5 -60z"/>
<glyph glyph-name="minus" horiz-adv-x="1241" unicode="−" d="M1137 455h-1033v131h1033v-131z"/>
</font>
</defs>
</svg>
