<?xml version="1.0" standalone="no"?>
<!DOCTYPE svg PUBLIC "-//W3C//DTD SVG 1.1//EN" "http://www.w3.org/Graphics/SVG/1.1/DTD/svg11.dtd" >
<svg>
<metadata>
Created by FontForge 20090622 at Sat Jan 16 05:56:32 2016
 By deploy user
(c) 2010-2015 Typodermic Fonts Inc. See attached license agreement. If agreement is missing visit typodermicfonts.com for more info.
</metadata>
<defs>
<font id="GalderglynnTitlingRg-Bold" horiz-adv-x="729" >
  <font-face 
    font-family="Galderglynn Titling Rg"
    font-weight="700"
    font-stretch="normal"
    units-per-em="1000"
    panose-1="2 11 8 3 4 0 0 2 0 4"
    ascent="787"
    descent="-213"
    cap-height="714"
    bbox="-191 -242 1307 957"
    underline-thickness="50"
    underline-position="-50"
    unicode-range="U+0017-U+F76B"
  />
<missing-glyph horiz-adv-x="816" 
d="M136 -213q-46 0 -70.5 20.5t-24.5 62.5v883q0 42 24.5 63t70.5 21h542q47 0 71.5 -21t24.5 -63v-883q0 -42 -24.5 -62.5t-71.5 -20.5h-542zM422 146q17 50 42.5 76t56.5 40q44 21 81.5 41t64.5 46.5t42 61.5t15 85q0 61 -34 109t-86 81t-113.5 50.5t-116.5 17.5
q-51 0 -97.5 -17t-83 -48t-61.5 -73.5t-34 -94.5l199 -54q15 36 38 62.5t59 26.5q12 0 27.5 -4t28.5 -11.5t22 -18t9 -23.5q0 -29 -16.5 -49.5t-42.5 -37.5t-57.5 -34.5t-61.5 -40.5t-55 -55t-38 -79zM341 -146l53 200l-217 59l-54 -200z" />
    <glyph glyph-name=".notdef" horiz-adv-x="816" 
d="M136 -213q-46 0 -70.5 20.5t-24.5 62.5v883q0 42 24.5 63t70.5 21h542q47 0 71.5 -21t24.5 -63v-883q0 -42 -24.5 -62.5t-71.5 -20.5h-542zM422 146q17 50 42.5 76t56.5 40q44 21 81.5 41t64.5 46.5t42 61.5t15 85q0 61 -34 109t-86 81t-113.5 50.5t-116.5 17.5
q-51 0 -97.5 -17t-83 -48t-61.5 -73.5t-34 -94.5l199 -54q15 36 38 62.5t59 26.5q12 0 27.5 -4t28.5 -11.5t22 -18t9 -23.5q0 -29 -16.5 -49.5t-42.5 -37.5t-57.5 -34.5t-61.5 -40.5t-55 -55t-38 -79zM341 -146l53 200l-217 59l-54 -200z" />
    <glyph glyph-name="uni0017" horiz-adv-x="269" 
 />
    <glyph glyph-name="space" unicode=" " horiz-adv-x="269" 
 />
    <glyph glyph-name="exclam" unicode="!" horiz-adv-x="309" 
d="M119 245l-61 478h192l-60 -478h-71zM75 0v171h156v-171h-156z" />
    <glyph glyph-name="quotedbl" unicode="&#x22;" horiz-adv-x="438" 
d="M58 448zM74 448l-16 286h125l-15 -286h-94zM269 448l-16 286h125l-15 -286h-94z" />
    <glyph glyph-name="numbersign" unicode="#" horiz-adv-x="590" 
d="M471 426l-31 -135h87v-92h-107l-45 -199h-105l45 199h-121l-46 -199h-105l46 199h-54v92h75l31 135h-79v92h100l46 196h104l-45 -196h121l45 196h104l-45 -196h62v-92h-83zM215 291h121l31 135h-122z" />
    <glyph glyph-name="dollar" unicode="$" horiz-adv-x="541" 
d="M218 0v89q-33 7 -64.5 20.5t-57 33.5t-42 48t-19.5 63h110q8 -29 27.5 -45t45.5 -23v136q-30 7 -58.5 17.5t-51 28t-36.5 43t-14 63.5q0 37 13.5 65t36 47.5t51 31t59.5 16.5v80h35v-76q6 0 11.5 0.5t10.5 0.5q7 0 14 -0.5t14 -0.5v76h35v-81q27 -5 52 -16t45 -29t35 -44
t22 -61h-106q-5 20 -18 32t-30 19v-128q31 -5 61 -13.5t53 -25t37.5 -42.5t14.5 -65q0 -43 -13 -73.5t-35.5 -51.5t-53 -33t-64.5 -17v-85h-35v83q-5 -1 -9 -1h-9q-9 0 -17 0.5t-15 1.5v-84h-35zM253 315v-137q8 -1 19 -1h31v130zM303 412v131q-8 1 -18 1.5t-32 0.5v-126z
M403 243q0 26 -18 39.5t-47 19.5v-122q26 5 45.5 18.5t19.5 44.5zM162 482q0 -23 15 -35.5t41 -20.5v114q-22 -5 -39 -18t-17 -40z" />
    <glyph glyph-name="percent" unicode="%" horiz-adv-x="745" 
d="M28 0zM163 358q-28 0 -52.5 12t-43 36.5t-29 60.5t-10.5 84t12 83t32 57t45.5 32.5t51.5 10.5q27 0 51 -12t42 -35.5t28.5 -58t10.5 -79.5q0 -44 -10.5 -79.5t-29 -60.5t-44 -38t-54.5 -13zM163 650q-17 0 -26.5 -24.5t-9.5 -80.5q0 -55 10 -79t28 -24q8 0 14.5 2.5
t11.5 11.5t8 25t3 43q0 38 -2.5 62.5t-7.5 38.5t-12 19.5t-17 5.5zM70 -20l485 754h114l-483 -754h-116zM579 -18q-28 0 -52.5 12t-43 36.5t-29 60.5t-10.5 84t12 83t32 57t45.5 32.5t51.5 10.5q27 0 51 -12t42 -35.5t28.5 -58t10.5 -79.5q0 -44 -10.5 -79.5t-29 -60.5
t-44 -38t-54.5 -13zM579 274q-17 0 -26.5 -24.5t-9.5 -80.5q0 -55 10 -79t28 -24q8 0 14.5 2.5t11.5 11.5t8 25t3 43q0 38 -2.5 62.5t-7.5 38.5t-12 19.5t-17 5.5z" />
    <glyph glyph-name="ampersand" unicode="&#x26;" horiz-adv-x="717" 
d="M706 18q-19 -19 -51.5 -27.5t-64.5 -8.5q-36 0 -69 10.5t-63 34.5q-38 -25 -82.5 -35t-94.5 -10q-49 0 -95.5 15.5t-83 45t-58.5 72.5t-22 98q0 78 46.5 134t123.5 82q-15 30 -25 65t-10 69q0 43 16.5 75t44 53.5t63.5 32t74 10.5q35 0 67 -10.5t56 -30.5t38.5 -49.5
t14.5 -68.5q0 -73 -41.5 -118.5t-116.5 -77.5l50.5 -88t59.5 -85q57 51 90 145l113 -40q-17 -58 -47 -106.5t-68 -86.5q11 -6 22.5 -10t25.5 -4q20 0 43.5 5t34.5 12zM239 315q-23 -14 -37 -34.5t-14 -52.5q0 -54 28 -83.5t81 -29.5q14 0 29 3t29 10q-34 45 -64 95.5
t-52 91.5zM316 474q43 18 67 40t24 57q0 32 -11 48.5t-42 16.5t-45.5 -16.5t-14.5 -54.5q0 -18 6.5 -42.5t15.5 -48.5z" />
    <glyph glyph-name="quotesingle" unicode="'" horiz-adv-x="243" 
d="M74 448l-16 286h125l-15 -286h-94z" />
    <glyph glyph-name="parenleft" unicode="(" horiz-adv-x="470" 
d="M235 341q0 -71 18 -135.5t48 -116.5t68.5 -87.5t79.5 -48.5l-53 -70q-57 15 -111 51t-96 93t-67.5 135t-25.5 179q0 100 25.5 178t67.5 135t96 93t111 51l53 -70q-41 -12 -79.5 -48t-68.5 -87.5t-48 -116.5t-18 -135z" />
    <glyph glyph-name="parenright" unicode=")" horiz-adv-x="470" 
d="M235 341q0 70 -18.5 135t-48.5 116.5t-68.5 87.5t-78.5 48l53 70q57 -15 111 -51t96 -93t67.5 -135t25.5 -178q0 -101 -25.5 -179t-67.5 -135t-96 -93t-111 -51l-53 70q40 13 78.5 48.5t68.5 87.5t48.5 116.5t18.5 135.5z" />
    <glyph glyph-name="asterisk" unicode="*" horiz-adv-x="459" 
d="M253 485q-1 -3 -1 -7.5v-7.5q0 -17 4.5 -41t4.5 -47t-10.5 -32t-20.5 -9q-12 0 -22 8.5t-10 32.5q0 23 5 47t5 42q0 6 -2 14q-16 -1 -30 -10.5t-28 -20.5t-29 -20t-33 -9q-14 0 -21 9t-7 22q0 16 18 26.5t40 18l41 14.5t21 17q-2 10 -21 16.5l-41 14t-40 18t-18 28.5
q0 11 7 21t21 10q18 0 33 -9t29 -20.5t28 -21t30 -9.5q2 8 2 15q0 19 -5 41.5t-5 46.5q0 23 10.5 32t21.5 9t21 -8.5t10 -32.5t-4.5 -46.5t-4.5 -40.5v-9t1 -7q16 0 30 9.5t28 21t29 20.5t33 9q14 0 21.5 -10t7.5 -21q0 -18 -18 -28.5t-40 -18l-41.5 -14t-21.5 -16.5
q2 -10 21.5 -17l41.5 -14.5t40 -17.5t18 -27q0 -13 -7.5 -22t-21.5 -9q-18 0 -33 9t-29 20t-28 20.5t-30 10.5z" />
    <glyph glyph-name="plus" unicode="+" horiz-adv-x="521" 
d="M208 145v152h-150v102h150v152h104v-152h151v-102h-151v-152h-104z" />
    <glyph glyph-name="comma" unicode="," horiz-adv-x="279" 
d="M58 -155l48 105q5 11 7.5 19t2.5 19v12h-55v171h160v-133q0 -11 -2.5 -20t-6.5 -16l-72 -157h-82z" />
    <glyph glyph-name="hyphen" unicode="-" horiz-adv-x="318" 
d="M21 241v98h276v-98h-276z" />
    <glyph glyph-name="period" unicode="." horiz-adv-x="273" 
d="M58 0v171h156v-171h-156z" />
    <glyph glyph-name="slash" unicode="/" horiz-adv-x="448" 
d="M2 -39l330 763h115l-330 -763h-115z" />
    <glyph glyph-name="zero" unicode="0" horiz-adv-x="615" 
d="M305 -18q-56 0 -104 24.5t-84 72.5t-56.5 120.5t-20.5 168.5t24 165.5t63.5 114t89.5 65.5t101 21q53 0 100 -24t82 -71t55 -115.5t20 -157.5t-20.5 -160.5t-57 -121t-86 -76t-106.5 -26.5zM308 123q22 0 41 10t32.5 35.5t21 69.5t6.5 113q-2 69 -9 115.5t-20 74.5
t-31 39.5t-42 11.5q-44 0 -72 -55.5t-28 -177.5q0 -123 27 -179.5t74 -56.5z" />
    <glyph glyph-name="one" unicode="1" horiz-adv-x="382" 
d="M163 0v482h-129v130q39 0 66 9.5t45 24.5t28.5 33t16.5 35h139v-714h-166z" />
    <glyph glyph-name="two" unicode="2" horiz-adv-x="664" 
d="M33 0v121q48 26 94 55l94 59q36 23 78 53t78 63.5t60 68.5t24 70q0 25 -9 43t-24.5 29.5t-35.5 17t-42 5.5q-29 0 -54 -9t-43 -25.5t-28.5 -40t-10.5 -53.5q0 -14 2 -26l4 -24h-150q-4 17 -6.5 35.5t-2.5 37.5q0 62 23.5 109.5t62.5 79.5t91 48.5t109 16.5
q52 0 102.5 -15t90.5 -44t65 -73.5t25 -102.5q0 -44 -15.5 -82t-42 -71.5t-60.5 -62t-71.5 -53t-75 -45l-70.5 -37.5h324v-148h-586z" />
    <glyph glyph-name="three" unicode="3" horiz-adv-x="649" 
d="M237 314v104h84q28 0 50.5 4t38.5 14t25 27t9 42t-10 41.5t-27 26.5t-38.5 14.5t-43.5 4.5q-63 0 -96.5 -29t-33.5 -99h-136q-1 8 -1.5 18t-0.5 21q0 54 19.5 97t56 72.5t87.5 45.5t114 16q53 0 103 -14t88.5 -41t61.5 -67.5t23 -93.5q0 -52 -26 -93.5t-76 -60.5
q26 -9 46 -26.5t33.5 -39.5t20.5 -46t7 -45q0 -49 -20.5 -90.5t-58 -71.5t-90 -46.5t-115.5 -16.5q-58 0 -113.5 13t-98.5 42.5t-69 76t-26 113.5q0 14 1 26.5t3 26.5h140q0 -74 38 -114.5t111 -40.5q27 0 51 6t41.5 18t28 30.5t10.5 44.5q0 39 -23.5 64.5t-70.5 25.5h-117z
" />
    <glyph glyph-name="four" unicode="4" horiz-adv-x="681" 
d="M382 0v155h-357v120l326 439h194v-422h106v-137h-106v-155h-163zM385 544l-190 -252h190v252z" />
    <glyph glyph-name="five" unicode="5" horiz-adv-x="645" 
d="M228 565l-12 -143q35 20 69 29t76 9q54 0 100 -14.5t80 -43t53 -72t19 -101.5q0 -61 -24.5 -107t-64.5 -77t-92 -47t-107 -16q-45 0 -88 8.5t-82 26.5t-72.5 46.5t-59.5 68.5l118 78q19 -23 37.5 -40t39 -28t45 -16.5t56.5 -5.5q60 0 94 23t34 79q0 57 -34.5 82.5
t-94.5 25.5q-17 0 -36.5 -3t-37.5 -8.5t-33.5 -13.5t-25.5 -19l-119 70l27 358h474l-6 -149h-333z" />
    <glyph glyph-name="six" unicode="6" horiz-adv-x="676" 
d="M193 410q75 84 193 84q51 0 96.5 -19t80 -52.5t55 -79.5t20.5 -100q0 -63 -22 -111.5t-60 -82t-88.5 -50.5t-108.5 -17q-76 0 -137 26.5t-103.5 74t-65.5 112t-23 139.5q0 68 18 139t56.5 129t99 95t145.5 37q55 0 102 -11.5t83 -36t58.5 -63t30.5 -91.5h-149
q-13 39 -47.5 55t-75.5 16q-37 0 -65.5 -17t-48 -44t-31 -61.5t-13.5 -70.5zM346 366q-59 0 -98 -28t-47 -83q0 -26 9.5 -52t28 -46.5t45.5 -33t61 -12.5q26 0 49 8t40.5 24t27.5 41t10 60q0 26 -10.5 48.5t-28 39t-40 25.5t-47.5 9z" />
    <glyph glyph-name="seven" unicode="7" horiz-adv-x="660" 
d="M173 0q4 73 28.5 150t62 151t83 142t91.5 122h-402v149h588v-136q-112 -118 -175 -263.5t-89 -314.5h-187z" />
    <glyph glyph-name="eight" unicode="8" horiz-adv-x="686" 
d="M507 393q28 -9 54 -24t45.5 -36.5t31.5 -50.5t12 -65q0 -65 -29.5 -109.5t-77 -72.5t-107.5 -40.5t-121 -12.5q-54 0 -104 10.5t-89 34.5t-62.5 62.5t-23.5 95.5q0 66 35 110.5t95 63.5q-56 26 -86.5 61t-30.5 89q0 61 26.5 103.5t68.5 69.5t94 39.5t103 12.5t100 -11
t87.5 -35.5t62 -62.5t23.5 -92q0 -50 -29.5 -83.5t-77.5 -56.5zM283 313q-92 -23 -92 -99q0 -27 12 -46t31.5 -32t44.5 -19t51 -6q29 0 56.5 5.5t49 16t34.5 27t13 39.5t-22.5 42t-54 33t-65.5 24t-58 15zM385 436q35 11 57 31.5t22 52.5q0 27 -13 44.5t-33 27t-44 13.5
t-46 4q-18 0 -38 -4t-36.5 -12.5t-27 -22.5t-10.5 -35q0 -26 15.5 -43t40 -28t54.5 -17.5t59 -10.5z" />
    <glyph glyph-name="nine" unicode="9" horiz-adv-x="676" 
d="M483 306q-72 -84 -194 -84q-50 0 -95.5 19.5t-80 53.5t-55 80.5t-20.5 101.5q0 62 22 110t60 80.5t88.5 49.5t108.5 17q75 0 136 -26.5t104 -74t66 -112t23 -139.5q0 -68 -18 -139t-56.5 -129t-99 -95t-144.5 -37q-56 0 -102.5 11.5t-82 36t-58.5 63t-31 91.5h148
q13 -40 47.5 -54.5t74.5 -14.5q37 0 65.5 16.5t48.5 43.5t31 61t14 70zM330 350q59 0 98 27.5t47 83.5q0 26 -9.5 51.5t-28 46t-45.5 33t-61 12.5q-26 0 -49 -7.5t-40 -23.5t-27 -40.5t-10 -58.5q0 -27 10 -50t27.5 -39.5t40 -25.5t47.5 -9z" />
    <glyph glyph-name="colon" unicode=":" horiz-adv-x="273" 
d="M58 0v171h156v-171h-156zM58 332v170h156v-170h-156z" />
    <glyph glyph-name="semicolon" unicode=";" horiz-adv-x="279" 
d="M58 -155l48 105q5 11 7.5 19t2.5 19v12h-55v171h160v-133q0 -11 -2.5 -20t-6.5 -16l-72 -157h-82zM61 332v170h156v-170h-156z" />
    <glyph glyph-name="less" unicode="&#x3c;" horiz-adv-x="521" 
d="M58 308v86l406 225v-122l-294 -145l294 -146v-122z" />
    <glyph glyph-name="equal" unicode="=" horiz-adv-x="521" 
d="M58 405v104h406v-104h-406zM58 188v103h406v-103h-406z" />
    <glyph glyph-name="greater" unicode="&#x3e;" horiz-adv-x="521" 
d="M58 84v122l295 146l-295 145v122l406 -225v-86z" />
    <glyph glyph-name="question" unicode="?" horiz-adv-x="551" 
d="M190 253v17q0 34 8.5 60t22.5 45.5t32 34.5t38 27q61 38 61 95q0 36 -23.5 51t-61.5 15q-27 0 -46 -9.5t-31 -25.5t-18 -37t-6 -45h-143q-1 4 -1 9.5v9.5q0 57 20 100.5t55 73t81.5 45t99.5 15.5q47 0 90.5 -9.5t77.5 -32t54 -58.5t20 -89q0 -41 -12.5 -68.5t-31.5 -47
t-41.5 -35.5t-42.5 -34.5t-33.5 -43.5t-15.5 -63h-153zM185 0v170h156v-170h-156z" />
    <glyph glyph-name="at" unicode="@" horiz-adv-x="775" 
d="M658 -75q-53 -27 -114 -39t-122 -12q-86 0 -158 21.5t-124.5 67.5t-81.5 117t-29 169q0 91 25.5 164.5t75 125.5t122.5 79.5t168 27.5q63 0 122 -16.5t104 -51.5t72.5 -91t27.5 -135q0 -61 -16.5 -107.5t-44.5 -77.5t-65 -47t-79 -16q-38 0 -59 12.5t-29 29.5
q-20 -20 -44 -33t-59 -13q-29 0 -50.5 11.5t-36 31t-21.5 46.5t-7 57q0 46 14 81.5t38.5 60t58 37.5t72.5 13q22 0 41.5 -8.5t33.5 -21.5l7 20h66l-32 -202q-1 -6 -1.5 -12.5t-0.5 -8.5q0 -21 21 -21q20 0 40 10t35.5 29.5t25.5 48.5t10 67q0 62 -20 104.5t-54 69t-80 38.5
t-97 12q-143 0 -216 -79t-73 -227q0 -79 20.5 -135.5t59.5 -93t94.5 -53.5t125.5 -17q66 0 128 14t106 40v-87zM456 319q-2 19 -14 31.5t-31 12.5q-21 0 -35 -10t-23 -26.5t-13 -37t-4 -40.5q0 -32 9 -53t34 -21t41.5 11.5t20.5 31.5z" />
    <glyph glyph-name="A" unicode="A" horiz-adv-x="756" 
d="M557 0l-38 94h-290l-38 -94h-187l334 714h96l317 -714h-194zM374 466l-97 -243h193z" />
    <glyph glyph-name="B" unicode="B" horiz-adv-x="730" 
d="M58 0v714h431q39 0 73 -12t58.5 -35t39 -55.5t14.5 -73.5q0 -58 -32.5 -100.5t-91.5 -53.5q33 -7 61.5 -22t49.5 -37.5t32.5 -52t11.5 -65.5q0 -75 -28 -117t-71 -62t-94 -24t-97 -4h-357zM232 312v-169h196q18 0 38 4t36.5 14t27 27.5t10.5 44.5q0 24 -11 39.5t-27 24.5
t-35 12t-34 3h-201zM444 429q39 0 56.5 23t17.5 54q0 28 -16 50.5t-55 22.5h-215v-150h212z" />
    <glyph glyph-name="C" unicode="C" horiz-adv-x="797" 
d="M407 734q70 0 133 -22t112 -63t80.5 -101t39.5 -136h-167q-18 80 -72 123.5t-124 43.5q-46 0 -83.5 -15.5t-64.5 -43.5t-42 -68t-15 -88q0 -50 14 -91.5t40 -71.5t64 -47t85 -17q33 0 65.5 12t59.5 33.5t46.5 52t27.5 68.5h162q-7 -69 -39 -127.5t-81 -101.5
t-111.5 -67.5t-129.5 -24.5q-85 0 -154.5 29.5t-119 81t-76.5 121.5t-27 151q0 76 27.5 143t77 117t119 79.5t153.5 29.5z" />
    <glyph glyph-name="D" unicode="D" horiz-adv-x="713" 
d="M58 0v714h265q87 0 154 -30.5t113 -81t69.5 -115t23.5 -132.5q0 -71 -25 -135t-71.5 -113t-113 -78t-150.5 -29h-265zM316 149q40 0 75.5 12.5t61.5 37.5t41 62.5t15 87.5q0 53 -14.5 93.5t-40 67.5t-61 40.5t-78.5 13.5h-83v-415h84z" />
    <glyph glyph-name="E" unicode="E" horiz-adv-x="669" 
d="M58 0v714h571v-146h-397v-131h321v-140h-321v-151h398v-146h-572z" />
    <glyph glyph-name="F" unicode="F" horiz-adv-x="633" 
d="M232 291v-291h-174v714h554v-145h-380v-135h303v-143h-303z" />
    <glyph glyph-name="G" unicode="G" horiz-adv-x="815" 
d="M630 0v101q-15 -23 -38 -44.5t-54 -38t-70 -26.5t-84 -10q-83 0 -148.5 30.5t-111 82t-70 120t-24.5 144.5q0 84 28.5 153t78 118.5t116 76.5t141.5 27q69 0 129 -16.5t106.5 -50.5t78 -86.5t44.5 -124.5h-163q-20 65 -70 94t-118 29q-41 0 -76.5 -15t-62.5 -43.5
t-42.5 -69.5t-15.5 -93q0 -49 12.5 -91.5t37.5 -74t61 -49.5t84 -18q69 0 113 33t55 83h-179v127h379v-368h-137z" />
    <glyph glyph-name="H" unicode="H" 
d="M498 0v267h-266v-267h-174v714h174v-292h266v292h172v-714h-172z" />
    <glyph glyph-name="I" unicode="I" horiz-adv-x="298" 
d="M62 0v714h173v-714h-173z" />
    <glyph glyph-name="J" unicode="J" horiz-adv-x="496" 
d="M181 -18q-66 0 -108.5 13t-62.5 30l47 134q21 -10 46 -16t51 -6q54 0 87 28.5t33 82.5v466h174v-481q0 -62 -22 -109t-58.5 -78.5t-85 -47.5t-101.5 -16z" />
    <glyph glyph-name="K" unicode="K" horiz-adv-x="758" 
d="M539 0l-193 323l-114 -103v-220h-174v714h174v-290l289 290h244l-300 -271l268 -443h-194z" />
    <glyph glyph-name="L" unicode="L" horiz-adv-x="671" 
d="M58 0v714h174v-559h414v-155h-588z" />
    <glyph glyph-name="M" unicode="M" horiz-adv-x="876" 
d="M646 0v540l-168 -540h-98l-170 540v-540h-155v714h265l121 -446l128 446h251v-714h-174z" />
    <glyph glyph-name="N" unicode="N" horiz-adv-x="740" 
d="M536 0l-328 495v-495h-153v714h224l250 -393v393h157v-714h-150z" />
    <glyph glyph-name="O" unicode="O" horiz-adv-x="802" 
d="M403 -18q-83 0 -152 28.5t-118 79.5t-76 122t-27 156q0 83 30 150.5t81 115.5t119.5 74t145.5 26q80 0 147 -26.5t115.5 -74.5t75.5 -116t27 -151q0 -81 -28 -151.5t-77.5 -122t-117 -81t-145.5 -29.5zM401 137q42 0 78.5 17t62.5 46.5t41 69t15 83.5q0 49 -13.5 90.5
t-39.5 71.5t-63.5 47t-84.5 17q-44 0 -79.5 -17.5t-61 -47.5t-39 -70t-13.5 -85q0 -47 14 -87.5t39.5 -70.5t62 -47t81.5 -17z" />
    <glyph glyph-name="P" unicode="P" 
d="M58 0v714h420q59 0 102 -22.5t70.5 -58.5t41 -81t13.5 -90q0 -50 -19 -92t-51 -72t-74.5 -47t-89.5 -17h-236v-234h-177zM232 566v-186h215q39 0 61.5 23.5t22.5 61.5q0 52 -24 76.5t-66 24.5h-209z" />
    <glyph glyph-name="Q" unicode="Q" horiz-adv-x="802" 
d="M403 -18q-83 0 -152 28.5t-118 79.5t-76 122t-27 156q0 83 30 150.5t81 115.5t119.5 74t145.5 26q80 0 147 -26.5t115.5 -74.5t75.5 -116t27 -151q0 -93 -35 -169.5t-97 -128.5q26 -30 58 -51.5t69 -38.5l-64 -120q-23 3 -49.5 18t-52.5 36.5t-47.5 45t-33.5 43.5
q-28 -9 -56.5 -14t-59.5 -5zM401 137q42 0 78.5 17t62.5 46.5t41 69t15 83.5q0 49 -13.5 90.5t-39.5 71.5t-63.5 47t-84.5 17q-44 0 -79.5 -17.5t-61 -47.5t-39 -70t-13.5 -85q0 -47 14 -87.5t39.5 -70.5t62 -47t81.5 -17z" />
    <glyph glyph-name="R" unicode="R" horiz-adv-x="747" 
d="M549 0q-12 16 -16.5 42.5t-7.5 56.5t-6.5 61t-14 56t-30.5 40.5t-56 15.5h-186v-272h-174v714h373q51 0 100.5 -8t88 -30.5t62.5 -63.5t24 -106q0 -62 -34.5 -107.5t-94.5 -63.5q37 -16 60 -40.5t36 -55t19 -65t9 -69.5q2 -29 5.5 -56t22.5 -49h-180zM232 573v-164h222
q37 0 57.5 21t20.5 61q0 45 -24 63.5t-62 18.5h-214z" />
    <glyph glyph-name="S" unicode="S" horiz-adv-x="678" 
d="M484 501q-4 28 -18.5 46t-35.5 28t-45.5 14t-47.5 4q-14 0 -37 -2t-45 -9.5t-37.5 -23t-15.5 -41.5q0 -19 10.5 -32t26 -21t34 -12.5t34.5 -7.5l151 -26q97 -18 148 -64.5t51 -134.5q0 -67 -25 -112.5t-67.5 -73t-97.5 -39.5t-115 -12q-54 0 -110 13.5t-103 43.5t-80 78
t-42 118h156q8 -33 28 -54.5t46.5 -34t57 -17.5t60.5 -5q11 0 34.5 2t47.5 9.5t42 23t18 42.5q0 34 -19 47t-46 20q-37 9 -80.5 15.5t-86.5 15.5t-83.5 23t-71.5 37.5t-49.5 59.5t-18.5 89q0 63 25 106t66 70t93.5 38.5t106.5 11.5q55 0 107 -14t93 -42.5t67 -72.5t29 -104
h-155z" />
    <glyph glyph-name="T" unicode="T" horiz-adv-x="629" 
d="M227 0v559h-210v155h594v-155h-210v-559h-174z" />
    <glyph glyph-name="U" unicode="U" horiz-adv-x="733" 
d="M520 714h166v-441q0 -147 -82 -219t-243 -72q-151 0 -232.5 78t-81.5 224v430h174v-414q0 -37 7.5 -67.5t25 -52t46 -33.5t70.5 -12q44 0 73 11t46 32t24 51t7 68v417z" />
    <glyph glyph-name="V" unicode="V" horiz-adv-x="664" 
d="M252 0l-247 714h182l155 -481l149 481h166l-244 -714h-161z" />
    <glyph glyph-name="W" unicode="W" horiz-adv-x="1065" 
d="M667 0l-140 487l-147 -487h-198l-175 714h182l115 -494l134 494h184l137 -494l131 494h168l-195 -714h-196z" />
    <glyph glyph-name="X" unicode="X" horiz-adv-x="705" 
d="M489 0l-143 242l-153 -242h-187l244 373l-232 341h206l129 -217l133 217h187l-223 -340l250 -374h-211z" />
    <glyph glyph-name="Y" unicode="Y" horiz-adv-x="706" 
d="M267 0v295l-263 419h200l167 -273l166 273h165l-262 -419v-295h-173z" />
    <glyph glyph-name="Z" unicode="Z" horiz-adv-x="662" 
d="M43 0v85l329 486h-307v143h552v-70l-331 -503h326v-141h-569z" />
    <glyph glyph-name="bracketleft" unicode="[" horiz-adv-x="385" 
d="M115 -125v944h240v-101h-125v-741h125v-102h-240z" />
    <glyph glyph-name="backslash" unicode="\" horiz-adv-x="448" 
d="M332 -39l-330 763h114l331 -763h-115z" />
    <glyph glyph-name="bracketright" unicode="]" horiz-adv-x="385" 
d="M30 -125v102h125v741h-125v101h240v-944h-240z" />
    <glyph glyph-name="asciicircum" unicode="^" horiz-adv-x="469" 
d="M317 375l-86 217l-85 -217h-126l156 339h111l161 -339h-131z" />
    <glyph glyph-name="underscore" unicode="_" horiz-adv-x="538" 
d="M0 -124v84h539v-84h-539z" />
    <glyph glyph-name="grave" unicode="`" horiz-adv-x="375" 
d="M231 564l-173 176h159l99 -176h-85z" />
    <glyph glyph-name="a" unicode="a" horiz-adv-x="756" 
d="M4 0zM557 0l-38 94h-290l-38 -94h-187l334 714h96l317 -714h-194zM374 466l-97 -243h193z" />
    <glyph glyph-name="b" unicode="b" horiz-adv-x="730" 
d="M58 0zM58 0v714h431q39 0 73 -12t58.5 -35t39 -55.5t14.5 -73.5q0 -58 -32.5 -100.5t-91.5 -53.5q33 -7 61.5 -22t49.5 -37.5t32.5 -52t11.5 -65.5q0 -75 -28 -117t-71 -62t-94 -24t-97 -4h-357zM232 312v-169h196q18 0 38 4t36.5 14t27 27.5t10.5 44.5q0 24 -11 39.5
t-27 24.5t-35 12t-34 3h-201zM444 429q39 0 56.5 23t17.5 54q0 28 -16 50.5t-55 22.5h-215v-150h212z" />
    <glyph glyph-name="c" unicode="c" horiz-adv-x="797" 
d="M30 0zM407 734q70 0 133 -22t112 -63t80.5 -101t39.5 -136h-167q-18 80 -72 123.5t-124 43.5q-46 0 -83.5 -15.5t-64.5 -43.5t-42 -68t-15 -88q0 -50 14 -91.5t40 -71.5t64 -47t85 -17q33 0 65.5 12t59.5 33.5t46.5 52t27.5 68.5h162q-7 -69 -39 -127.5t-81 -101.5
t-111.5 -67.5t-129.5 -24.5q-85 0 -154.5 29.5t-119 81t-76.5 121.5t-27 151q0 76 27.5 143t77 117t119 79.5t153.5 29.5z" />
    <glyph glyph-name="d" unicode="d" horiz-adv-x="713" 
d="M58 0zM58 0v714h265q87 0 154 -30.5t113 -81t69.5 -115t23.5 -132.5q0 -71 -25 -135t-71.5 -113t-113 -78t-150.5 -29h-265zM316 149q40 0 75.5 12.5t61.5 37.5t41 62.5t15 87.5q0 53 -14.5 93.5t-40 67.5t-61 40.5t-78.5 13.5h-83v-415h84z" />
    <glyph glyph-name="e" unicode="e" horiz-adv-x="669" 
d="M58 0zM58 0v714h571v-146h-397v-131h321v-140h-321v-151h398v-146h-572z" />
    <glyph glyph-name="f" unicode="f" horiz-adv-x="633" 
d="M58 0zM232 291v-291h-174v714h554v-145h-380v-135h303v-143h-303z" />
    <glyph glyph-name="g" unicode="g" horiz-adv-x="815" 
d="M30 0zM630 0v101q-15 -23 -38 -44.5t-54 -38t-70 -26.5t-84 -10q-83 0 -148.5 30.5t-111 82t-70 120t-24.5 144.5q0 84 28.5 153t78 118.5t116 76.5t141.5 27q69 0 129 -16.5t106.5 -50.5t78 -86.5t44.5 -124.5h-163q-20 65 -70 94t-118 29q-41 0 -76.5 -15t-62.5 -43.5
t-42.5 -69.5t-15.5 -93q0 -49 12.5 -91.5t37.5 -74t61 -49.5t84 -18q69 0 113 33t55 83h-179v127h379v-368h-137z" />
    <glyph glyph-name="h" unicode="h" 
d="M58 0zM498 0v267h-266v-267h-174v714h174v-292h266v292h172v-714h-172z" />
    <glyph glyph-name="i" unicode="i" horiz-adv-x="298" 
d="M62 0zM62 0v714h173v-714h-173z" />
    <glyph glyph-name="j" unicode="j" horiz-adv-x="496" 
d="M10 0zM181 -18q-66 0 -108.5 13t-62.5 30l47 134q21 -10 46 -16t51 -6q54 0 87 28.5t33 82.5v466h174v-481q0 -62 -22 -109t-58.5 -78.5t-85 -47.5t-101.5 -16z" />
    <glyph glyph-name="k" unicode="k" horiz-adv-x="758" 
d="M58 0zM539 0l-193 323l-114 -103v-220h-174v714h174v-290l289 290h244l-300 -271l268 -443h-194z" />
    <glyph glyph-name="l" unicode="l" horiz-adv-x="671" 
d="M58 0zM58 0v714h174v-559h414v-155h-588z" />
    <glyph glyph-name="m" unicode="m" horiz-adv-x="876" 
d="M55 0zM646 0v540l-168 -540h-98l-170 540v-540h-155v714h265l121 -446l128 446h251v-714h-174z" />
    <glyph glyph-name="n" unicode="n" horiz-adv-x="740" 
d="M55 0zM536 0l-328 495v-495h-153v714h224l250 -393v393h157v-714h-150z" />
    <glyph glyph-name="o" unicode="o" horiz-adv-x="802" 
d="M30 0zM403 -18q-83 0 -152 28.5t-118 79.5t-76 122t-27 156q0 83 30 150.5t81 115.5t119.5 74t145.5 26q80 0 147 -26.5t115.5 -74.5t75.5 -116t27 -151q0 -81 -28 -151.5t-77.5 -122t-117 -81t-145.5 -29.5zM401 137q42 0 78.5 17t62.5 46.5t41 69t15 83.5
q0 49 -13.5 90.5t-39.5 71.5t-63.5 47t-84.5 17q-44 0 -79.5 -17.5t-61 -47.5t-39 -70t-13.5 -85q0 -47 14 -87.5t39.5 -70.5t62 -47t81.5 -17z" />
    <glyph glyph-name="p" unicode="p" 
d="M58 0zM58 0v714h420q59 0 102 -22.5t70.5 -58.5t41 -81t13.5 -90q0 -50 -19 -92t-51 -72t-74.5 -47t-89.5 -17h-236v-234h-177zM232 566v-186h215q39 0 61.5 23.5t22.5 61.5q0 52 -24 76.5t-66 24.5h-209z" />
    <glyph glyph-name="q" unicode="q" horiz-adv-x="802" 
d="M30 0zM403 -18q-83 0 -152 28.5t-118 79.5t-76 122t-27 156q0 83 30 150.5t81 115.5t119.5 74t145.5 26q80 0 147 -26.5t115.5 -74.5t75.5 -116t27 -151q0 -93 -35 -169.5t-97 -128.5q26 -30 58 -51.5t69 -38.5l-64 -120q-23 3 -49.5 18t-52.5 36.5t-47.5 45t-33.5 43.5
q-28 -9 -56.5 -14t-59.5 -5zM401 137q42 0 78.5 17t62.5 46.5t41 69t15 83.5q0 49 -13.5 90.5t-39.5 71.5t-63.5 47t-84.5 17q-44 0 -79.5 -17.5t-61 -47.5t-39 -70t-13.5 -85q0 -47 14 -87.5t39.5 -70.5t62 -47t81.5 -17z" />
    <glyph glyph-name="r" unicode="r" horiz-adv-x="747" 
d="M58 0zM549 0q-12 16 -16.5 42.5t-7.5 56.5t-6.5 61t-14 56t-30.5 40.5t-56 15.5h-186v-272h-174v714h373q51 0 100.5 -8t88 -30.5t62.5 -63.5t24 -106q0 -62 -34.5 -107.5t-94.5 -63.5q37 -16 60 -40.5t36 -55t19 -65t9 -69.5q2 -29 5.5 -56t22.5 -49h-180zM232 573v-164
h222q37 0 57.5 21t20.5 61q0 45 -24 63.5t-62 18.5h-214z" />
    <glyph glyph-name="s" unicode="s" horiz-adv-x="678" 
d="M17 0zM484 501q-4 28 -18.5 46t-35.5 28t-45.5 14t-47.5 4q-14 0 -37 -2t-45 -9.5t-37.5 -23t-15.5 -41.5q0 -19 10.5 -32t26 -21t34 -12.5t34.5 -7.5l151 -26q97 -18 148 -64.5t51 -134.5q0 -67 -25 -112.5t-67.5 -73t-97.5 -39.5t-115 -12q-54 0 -110 13.5t-103 43.5
t-80 78t-42 118h156q8 -33 28 -54.5t46.5 -34t57 -17.5t60.5 -5q11 0 34.5 2t47.5 9.5t42 23t18 42.5q0 34 -19 47t-46 20q-37 9 -80.5 15.5t-86.5 15.5t-83.5 23t-71.5 37.5t-49.5 59.5t-18.5 89q0 63 25 106t66 70t93.5 38.5t106.5 11.5q55 0 107 -14t93 -42.5t67 -72.5
t29 -104h-155z" />
    <glyph glyph-name="t" unicode="t" horiz-adv-x="629" 
d="M17 0zM227 0v559h-210v155h594v-155h-210v-559h-174z" />
    <glyph glyph-name="u" unicode="u" horiz-adv-x="733" 
d="M47 0zM520 714h166v-441q0 -147 -82 -219t-243 -72q-151 0 -232.5 78t-81.5 224v430h174v-414q0 -37 7.5 -67.5t25 -52t46 -33.5t70.5 -12q44 0 73 11t46 32t24 51t7 68v417z" />
    <glyph glyph-name="v" unicode="v" horiz-adv-x="664" 
d="M5 0zM252 0l-247 714h182l155 -481l149 481h166l-244 -714h-161z" />
    <glyph glyph-name="w" unicode="w" horiz-adv-x="1065" 
d="M7 0zM667 0l-140 487l-147 -487h-198l-175 714h182l115 -494l134 494h184l137 -494l131 494h168l-195 -714h-196z" />
    <glyph glyph-name="x" unicode="x" horiz-adv-x="705" 
d="M6 0zM489 0l-143 242l-153 -242h-187l244 373l-232 341h206l129 -217l133 217h187l-223 -340l250 -374h-211z" />
    <glyph glyph-name="y" unicode="y" horiz-adv-x="706" 
d="M4 0zM267 0v295l-263 419h200l167 -273l166 273h165l-262 -419v-295h-173z" />
    <glyph glyph-name="z" unicode="z" horiz-adv-x="662" 
d="M43 0zM43 0v85l329 486h-307v143h552v-70l-331 -503h326v-141h-569z" />
    <glyph glyph-name="braceleft" unicode="{" horiz-adv-x="407" 
d="M289 -125q-27 0 -51 7t-42 23.5t-28.5 44t-10.5 69.5v222q0 35 -9.5 47t-32.5 12h-30v94h30q23 0 32.5 12t9.5 47v221q0 41 10.5 69t28.5 45t42 24t51 7h87v-104h-67q-23 0 -30.5 -12.5t-7.5 -36.5v-226q0 -36 -17.5 -61.5t-54.5 -31.5q37 -5 54.5 -30.5t17.5 -62.5v-226
q0 -25 8 -37.5t30 -12.5h67v-103h-87z" />
    <glyph glyph-name="bar" unicode="|" horiz-adv-x="293" 
d="M96 -166v990h101v-990h-101z" />
    <glyph glyph-name="braceright" unicode="}" horiz-adv-x="407" 
d="M29 -125v103h68q23 0 30 12.5t7 37.5v218q0 38 18 66.5t54 34.5q-36 6 -54 32.5t-18 64.5v222q0 24 -7.5 36.5t-29.5 12.5h-68v104h89q27 0 51 -7t42 -24t28.5 -45t10.5 -69v-221q0 -35 9 -47t32 -12h29v-94h-29q-23 0 -32 -12t-9 -47v-218q0 -42 -10.5 -70.5t-28.5 -46
t-42 -24.5t-51 -7h-89z" />
    <glyph glyph-name="asciitilde" unicode="~" horiz-adv-x="632" 
d="M321 376q29 -11 60 -19t66 -8q27 0 52 14t31 49h43q0 -51 -12.5 -82.5t-32 -49t-43 -23t-45.5 -5.5q-32 0 -62.5 10.5t-66.5 24.5q-29 11 -60 19t-67 8q-28 0 -52 -13.5t-30 -49.5h-44q0 52 12.5 83.5t32 48.5t43 22.5t45.5 5.5q33 0 63.5 -10.5t66.5 -24.5z" />
    <glyph glyph-name="nonbreakingspace" unicode="&#xa0;" horiz-adv-x="269" 
 />
    <glyph glyph-name="exclamdown" unicode="&#xa1;" horiz-adv-x="309" 
d="M58 0zM189.007 469.015l60.9971 -477.971h-191.988l59.9961 477.971h70.9951zM233.005 714v-170.989h-155.991v170.989h155.991z" />
    <glyph glyph-name="cent" unicode="&#xa2;" horiz-adv-x="496" 
d="M213 0v138q-42 6 -75.5 25.5t-57.5 49t-37 67t-13 80.5q0 40 13 76t37 64.5t57.5 47.5t75.5 25v141h72v-141q35 -5 66 -19.5t55 -38t39 -56t20 -71.5h-98q-9 36 -31 59t-51 31v-243q30 8 52.5 32t30.5 57h94q-3 -35 -18.5 -66t-39.5 -55.5t-54.5 -41t-64.5 -22.5v-139
h-72zM132 360q0 -48 21.5 -81t59.5 -44v242q-37 -9 -59 -40.5t-22 -76.5z" />
    <glyph glyph-name="sterling" unicode="&#xa3;" horiz-adv-x="730" 
d="M694 242q3 -26 3 -49q0 -43 -9.5 -81t-31 -67t-55.5 -46t-83 -17q-56 0 -95 23t-67 50q-29 -32 -68.5 -52.5t-90.5 -20.5q-83 0 -125 40.5t-42 102.5q0 37 11 64t30.5 44t46.5 25.5t58 8.5t57 -6.5t46 -17.5q-2 21 -8 40.5t-14 39.5h-152v87h113q-11 23 -17.5 48t-6.5 54
q0 55 18.5 96.5t50 69.5t74 42t91.5 14q91 0 154.5 -44t89.5 -132l-129 -49q-12 38 -32.5 59t-63.5 21q-38 0 -62.5 -22t-24.5 -58q0 -26 6.5 -50.5t16.5 -48.5h174v-87h-148q5 -17 8.5 -34t3.5 -37q0 -18 -2.5 -35t-8.5 -35q4 -7 17.5 -16t31 -17t37.5 -13.5t38 -5.5
q20 0 33 10.5t20.5 26t10.5 32.5t3 30q0 10 -1 13h94zM272 130q-20 16 -40.5 25.5t-45.5 9.5q-5 0 -13.5 -1.5t-17 -5.5t-14.5 -11.5t-6 -18.5q0 -22 17 -32.5t34 -10.5q22 0 46.5 12.5t39.5 32.5z" />
    <glyph glyph-name="currency" unicode="&#xa4;" horiz-adv-x="628" 
d="M99 338q0 28 7.5 55.5t20.5 51.5l-69 63l82 81l64 -70q49 32 111 32q60 0 110 -32l63 70l82 -81l-67 -62q13 -24 21 -51.5t8 -56.5q0 -30 -8 -57t-21 -49l67 -63l-81 -84l-65 71q-25 -14 -52.5 -22t-56.5 -8t-57.5 8t-51.5 22l-66 -71l-82 84l69 64q-13 22 -20.5 49.5
t-7.5 55.5zM455 338q0 31 -11 56t-30 43t-44.5 27.5t-54.5 9.5t-53.5 -9.5t-43.5 -27.5t-29.5 -43t-10.5 -56t10.5 -56t29.5 -43t43.5 -27.5t53.5 -9.5t54.5 9.5t44.5 27.5t30 43t11 56z" />
    <glyph glyph-name="yen" unicode="&#xa5;" horiz-adv-x="612" 
d="M383 107v-107h-159v107h-167v96h167v103h-167v96h146l-185 312h172l119 -229l118 229h165l-190 -312h149v-96h-168v-103h168v-96h-168z" />
    <glyph glyph-name="brokenbar" unicode="&#xa6;" horiz-adv-x="293" 
d="M96 -166v417h101v-417h-101zM96 426v398h101v-398h-101z" />
    <glyph glyph-name="section" unicode="&#xa7;" horiz-adv-x="656" 
d="M440 526q-4 25 -17.5 41.5t-32.5 25.5t-41 12.5t-43 3.5q-11 0 -31.5 -1.5t-40.5 -8.5t-34.5 -20.5t-14.5 -37.5q0 -18 8.5 -29.5t22 -19t30 -12t33.5 -7.5q29 -7 65 -11t71 -11q91 -17 134.5 -59t43.5 -121q0 -47 -17.5 -80.5t-47.5 -55.5q39 -17 61 -55t22 -88
q0 -61 -22 -102t-59.5 -66t-87 -35.5t-103.5 -10.5q-50 0 -100 12.5t-92 39.5t-71.5 70t-38.5 105h141q7 -30 25 -49t41.5 -30t51 -15.5t54.5 -4.5q10 0 31.5 2t43 9t37.5 21t16 39q0 29 -17 41t-41 17q-33 8 -72.5 13.5t-78.5 13.5t-75.5 21t-64.5 34.5t-45 54t-17 80.5
q0 46 21 83.5t59 55.5q-46 18 -72 53t-26 87q0 57 22.5 96.5t60 63.5t84.5 34.5t97 10.5q49 0 96 -12.5t84 -38t60.5 -65.5t26.5 -94h-140zM190 260q0 -27 19 -42.5t46 -23.5t57 -10t53 -2q45 0 76.5 17.5t31.5 55.5q0 28 -18 44t-44 23.5t-55.5 9t-52.5 1.5
q-50 0 -81.5 -16.5t-31.5 -56.5z" />
    <glyph glyph-name="dieresis" unicode="&#xa8;" horiz-adv-x="510" 
d="M58 591v136h146v-136h-146zM306 591v136h148v-136h-148z" />
    <glyph glyph-name="copyright" unicode="&#xa9;" horiz-adv-x="805" 
d="M404 -18q-84 0 -152.5 28.5t-118 79.5t-76.5 122t-27 156q0 83 30 150.5t81.5 115.5t120 74t146.5 26q81 0 148 -26.5t116 -74.5t76 -116t27 -151q0 -81 -28.5 -151.5t-78 -122t-117.5 -81t-147 -29.5zM402 53q64 0 119 23.5t95 65.5t62.5 99t22.5 124q0 62 -20.5 116.5
t-58.5 95t-92 64t-122 23.5q-72 0 -128.5 -24t-95.5 -65t-59 -95t-20 -114q0 -68 20.5 -125t59 -99t93.5 -65.5t124 -23.5zM406 456q-38 0 -60.5 -24t-22.5 -65t22 -67t60 -26q25 0 47 15t32 39h78q-6 -27 -20.5 -50.5t-35.5 -40t-47 -26t-54 -9.5q-37 0 -67 13t-51.5 35
t-33 52t-11.5 65q0 33 12 62.5t33.5 51t51.5 34t66 12.5q60 0 104 -33t54 -95h-80q-9 26 -29.5 41.5t-47.5 15.5z" />
    <glyph glyph-name="ordfeminine" unicode="&#xaa;" horiz-adv-x="379" 
d="M352 273q-13 -8 -34 -10.5t-36 -2.5q-24 0 -45 12.5t-26 38.5q-14 -23 -40.5 -37t-53.5 -14q-40 0 -58.5 24t-18.5 62q0 34 16 54.5t40 31.5t52.5 15t53.5 5v7q0 19 -8 25t-21 6q-14 0 -22.5 -6.5t-13.5 -25.5h-89q1 30 9.5 48.5t23 29t35.5 14t47 3.5q37 0 63.5 -5.5
t43 -19t24 -37.5t7.5 -60v-65q0 -25 25 -25h14t12 2v-70zM204 406q-9 0 -21 -2t-23 -7t-19 -14.5t-8 -25.5q0 -12 7.5 -17.5t16.5 -5.5q14 0 28 9.5t19 24.5v38z" />
    <glyph glyph-name="guillemotleft" unicode="&#xab;" horiz-adv-x="527" 
d="M22 83zM109 303l132 -93v-127l-219 168v105l219 168v-128zM372 303l132 -93v-127l-219 168v105l219 168v-128z" />
    <glyph glyph-name="logicalnot" unicode="&#xac;" horiz-adv-x="606" 
d="M409 0v340h-351v146h490v-486h-139z" />
    <glyph glyph-name="registered" unicode="&#xae;" horiz-adv-x="805" 
d="M404 -18q-84 0 -153 28.5t-118.5 79.5t-76.5 122t-27 156q0 83 30 150.5t82 115.5t120.5 74t146.5 26q81 0 148 -26.5t116 -74.5t76 -116t27 -151q0 -81 -28.5 -151.5t-78 -122t-117.5 -81t-147 -29.5zM402 52q64 0 119 23.5t95 65.5t62.5 99.5t22.5 124.5
q0 62 -20.5 116.5t-58.5 95t-92 64t-122 23.5q-72 0 -128.5 -24t-95.5 -65t-59 -95t-20 -114q0 -68 20.5 -125.5t59 -99.5t93.5 -65.5t124 -23.5zM482 206q-8 13 -10 33.5t-5 40t-12 33.5t-31 14h-77v-121h-83v321h167q24 0 46.5 -4t40 -14.5t28.5 -28.5t11 -47
q0 -27 -15.5 -47.5t-41.5 -28.5q32 -15 42 -43.5t12 -60.5q1 -14 3 -26t11 -21h-86zM347 462v-70h94q33 0 33 34q0 18 -9.5 27t-25.5 9h-92z" />
    <glyph glyph-name="macron" unicode="&#xaf;" horiz-adv-x="422" 
d="M58 621v79h307v-79h-307z" />
    <glyph glyph-name="degree" unicode="&#xb0;" horiz-adv-x="359" 
d="M178 456q-32 0 -54.5 10.5t-37 29t-21.5 43t-7 51.5q0 28 7 52.5t21.5 42.5t37 28.5t54.5 10.5q33 0 56.5 -10.5t38 -28.5t21 -42.5t6.5 -52.5q0 -27 -6.5 -51.5t-21 -43t-38 -29t-56.5 -10.5zM178 518q32 0 46 21.5t14 50.5q0 30 -14 50.5t-46 20.5q-31 0 -44.5 -20.5
t-13.5 -50.5q0 -29 13.5 -50.5t44.5 -21.5z" />
    <glyph glyph-name="plusminus" unicode="&#xb1;" horiz-adv-x="521" 
d="M57 0zM208 145v152h-150v102h150v152h104v-152h151v-102h-151v-152h-104zM57 0v103h406v-103h-406z" />
    <glyph glyph-name="twosuperior" unicode="&#xb2;" horiz-adv-x="362" 
d="M29 367zM29 367v72q38 23 69.5 44.5l60.5 42.5l25 19.5t24 21.5t18 22.5t7 21.5q0 21 -14 28t-29 7q-55 0 -55 -55q0 -5 0.5 -10.5t1.5 -10.5h-89q-2 8 -3.5 18.5t-1.5 18.5q0 31 12 55t32 40t46.5 24t55.5 8q26 0 51.5 -7t46 -22t33 -37.5t12.5 -52.5t-14 -54t-36 -43
t-48 -34.5l-50 -28.5h143v-88h-298z" />
    <glyph glyph-name="threesuperior" unicode="&#xb3;" horiz-adv-x="354" 
d="M24 358zM133 519v62h36q23 0 39 6t16 31q0 20 -15 26t-32 6q-28 0 -40.5 -11t-13.5 -40h-81q-1 5 -1 9.5v10.5q0 54 38 84.5t103 30.5q27 0 52 -7t45 -20.5t32 -33.5t12 -47q0 -26 -12.5 -46t-35.5 -31q24 -10 36.5 -34t12.5 -46q0 -24 -11.5 -44t-31.5 -35t-46 -23.5
t-54 -8.5q-30 0 -58 7.5t-50 23t-35.5 38.5t-13.5 55q0 6 0.5 12t1.5 13h84q0 -9 2.5 -20t10 -21t20.5 -17t34 -7q19 0 34 8.5t15 28.5q0 15 -8.5 27.5t-28.5 12.5h-56z" />
    <glyph glyph-name="acute" unicode="&#xb4;" horiz-adv-x="375" 
d="M58 564l100 176h158l-172 -176h-86z" />
    <glyph glyph-name="uni00B5" unicode="&#xb5;" horiz-adv-x="603" 
d="M49 0zM49 -213v710h151v-300q0 -42 27 -67t69 -25q26 0 44 9t30.5 23t20 32.5t11.5 38.5v289h152v-497h-152v54q-17 -24 -50.5 -44.5t-81.5 -20.5q-20 0 -37 4t-33 11v-217h-151z" />
    <glyph glyph-name="paragraph" unicode="&#xb6;" horiz-adv-x="560" 
d="M195 1v333q-33 5 -63 18.5t-52.5 36.5t-36 55t-13.5 75q0 37 13 72t39.5 62.5t67 44t95.5 16.5h296v-92h-80v-670q0 -14 7.5 -23t26.5 -9h10.5t10.5 2v-80q-10 -2 -22.5 -3.5t-23.5 -1.5q-51 0 -77.5 29.5t-26.5 85.5v670h-128q-51 0 -74.5 -30t-23.5 -74q0 -42 23.5 -69
t66.5 -27q36 0 60 21v-442h-95z" />
    <glyph glyph-name="periodcentered" unicode="&#xb7;" horiz-adv-x="273" 
d="M58 263v171h156v-171h-156z" />
    <glyph glyph-name="cedilla" unicode="&#xb8;" horiz-adv-x="249" 
d="M66 -242l29 50q5 8 6.5 13.5t1.5 14.5v7h-46v116h135v-88q0 -16 -7 -27l-49 -86h-70z" />
    <glyph glyph-name="onesuperior" unicode="&#xb9;" horiz-adv-x="231" 
d="M30 367zM93 367v232h-63v77q18 0 31.5 6t23.5 13.5t16 15.5t9 13h82v-357h-99z" />
    <glyph glyph-name="ordmasculine" unicode="&#xba;" horiz-adv-x="394" 
d="M355 403q0 -32 -12 -58.5t-34 -45.5t-51.5 -29t-63.5 -10q-33 0 -61 11.5t-49 31.5t-33 46.5t-12 57.5q0 32 12.5 59t33.5 46.5t50 30t62 10.5q34 0 63 -11t50 -30.5t33 -47t12 -61.5zM198 341q29 0 43.5 18.5t14.5 50.5q0 30 -16.5 45.5t-43.5 15.5q-59 0 -59 -61
q0 -31 14.5 -50t46.5 -19z" />
    <glyph glyph-name="guillemotright" unicode="&#xbb;" horiz-adv-x="527" 
d="M22 83zM22 396v128l219 -168v-105l-219 -168v127l132 93zM285 396v128l219 -168v-105l-219 -168v127l132 93z" />
    <glyph glyph-name="onequarter" unicode="&#xbc;" horiz-adv-x="743" 
d="M30 0zM101 367v232h-63v77q18 0 31.5 6t23.5 13.5t16 15.5t9 13h82v-357h-99zM30 -20l485 754h114l-483 -754h-116zM564 -9v73h-167v71l149 213h115v-203h53v-81h-53v-73h-97zM566 246l-70 -101h70v101z" />
    <glyph glyph-name="onehalf" unicode="&#xbd;" horiz-adv-x="733" 
d="M30 0zM101 367v232h-63v77q18 0 31.5 6t23.5 13.5t16 15.5t9 13h82v-357h-99zM30 -20l485 754h114l-483 -754h-116zM401 -9v72q38 23 69.5 44.5l60.5 42.5l25 19.5t24 21.5t18 22.5t7 21.5q0 21 -14 28t-29 7q-55 0 -55 -55q0 -5 0.5 -10.5t1.5 -10.5h-89q-2 8 -3.5 18.5
t-1.5 18.5q0 31 12 55t32 40t46.5 24t55.5 8q26 0 51.5 -7t46 -22t33 -37.5t12.5 -52.5t-14 -54t-36 -43t-48 -34.5l-50 -28.5h143v-88h-298z" />
    <glyph glyph-name="threequarters" unicode="&#xbe;" horiz-adv-x="772" 
d="M28 0zM137 519v62h36q23 0 39 6t16 31q0 20 -15 26t-32 6q-28 0 -40.5 -11t-13.5 -40h-81q-1 5 -1 9.5v10.5q0 54 38 84.5t103 30.5q27 0 52 -7t45 -20.5t32 -33.5t12 -47q0 -26 -12.5 -46t-35.5 -31q24 -10 36.5 -34t12.5 -46q0 -24 -11.5 -44t-31.5 -35t-46 -23.5
t-54 -8.5q-30 0 -58 7.5t-50 23t-35.5 38.5t-13.5 55q0 6 0.5 12t1.5 13h84q0 -9 2.5 -20t10 -21t20.5 -17t34 -7q19 0 34 8.5t15 28.5q0 15 -8.5 27.5t-28.5 12.5h-56zM95 -20l485 754h114l-483 -754h-116zM593 -9v73h-167v71l149 213h115v-203h53v-81h-53v-73h-97z
M595 246l-70 -101h70v101z" />
    <glyph glyph-name="questiondown" unicode="&#xbf;" horiz-adv-x="551" 
d="M27 0zM357.012 461.016v-16.999q0 -33.998 -8.5 -59.9961q-8.49902 -25.999 -22.498 -45.498q-13.999 -19.498 -31.998 -34.4971t-37.998 -26.999q-60.9961 -37.9971 -60.9961 -94.9941q0 -35.9971 23.499 -50.9971q23.498 -14.999 61.4961 -14.999q26.998 0 45.9971 9.5
q18.999 9.49902 30.998 25.498t17.999 36.998q5.99902 20.999 5.99902 44.9971h142.991q1 -4 1 -9.49902v-9.5q0 -56.9961 -19.998 -100.493q-19.999 -43.498 -54.9971 -72.9961t-81.4951 -44.9971t-99.4941 -15.499q-46.9971 0 -90.4941 9.49902
q-43.4971 9.5 -77.4951 31.998q-33.998 22.499 -53.9971 58.4971q-19.999 35.9971 -19.999 88.9941q0 40.998 12.5 68.4961q12.499 27.498 31.498 46.9971t41.4971 35.498q22.499 15.999 42.4971 34.4971q19.999 18.499 33.498 43.498q13.5 24.998 15.499 62.9961h152.991z
M362.012 714v-169.989h-155.991v169.989h155.991z" />
    <glyph glyph-name="Agrave" unicode="&#xc0;" horiz-adv-x="756" 
d="M4 0zM557 0l-38 94h-290l-38 -94h-187l334 714h96l317 -714h-194zM374 466l-97 -243h193zM377 781l-173 176h159l99 -176h-85z" />
    <glyph glyph-name="Aacute" unicode="&#xc1;" horiz-adv-x="756" 
d="M4 0zM557 0l-38 94h-290l-38 -94h-187l334 714h96l317 -714h-194zM374 466l-97 -243h193zM302 781l100 176h158l-172 -176h-86z" />
    <glyph glyph-name="Acircumflex" unicode="&#xc2;" horiz-adv-x="756" 
d="M4 0zM557 0l-38 94h-290l-38 -94h-187l334 714h96l317 -714h-194zM374 466l-97 -243h193zM306 781h-102l132 176h82l131 -176h-101l-71 106z" />
    <glyph glyph-name="Atilde" unicode="&#xc3;" horiz-adv-x="756" 
d="M4 0zM557 0l-38 94h-290l-38 -94h-187l334 714h96l317 -714h-194zM374 466l-97 -243h193zM212 816q0 41 8.5 66t21 38t28 17t30.5 4q22 0 42 -7.5t39.5 -16t39 -16t40.5 -7.5q17 0 31 11.5t19 36.5h34q0 -41 -8.5 -65.5t-21 -37.5t-28 -17.5t-30.5 -4.5q-20 0 -39 7.5
l-39 16t-40.5 16t-42.5 7.5q-15 0 -30 -11t-19 -37h-35z" />
    <glyph glyph-name="Adieresis" unicode="&#xc4;" horiz-adv-x="756" 
d="M4 0zM557 0l-38 94h-290l-38 -94h-187l334 714h96l317 -714h-194zM374 466l-97 -243h193zM179 808v136h146v-136h-146zM427 808v136h148v-136h-148z" />
    <glyph glyph-name="Aring" unicode="&#xc5;" horiz-adv-x="756" 
d="M4 0zM557 0l-38 94h-290l-38 -94h-187l334 714h96l317 -714h-194zM374 466l-97 -243h193zM471 868q0 -39 -26.5 -63t-67.5 -24q-39 0 -66 26t-27 63q0 38 27.5 62.5t66.5 24.5q42 0 67.5 -24.5t25.5 -64.5zM417 871q0 20 -11 31t-28 11q-41 0 -41 -41q0 -20 10.5 -33
t30.5 -13t29.5 12.5t9.5 32.5z" />
    <glyph glyph-name="AE" unicode="&#xc6;" horiz-adv-x="1031" 
d="M234 95l-43 -95h-187l334 714h652v-146h-322v-131h246v-140h-246v-151h323v-146h-497v95h-260zM289 224h205v344h-52z" />
    <glyph glyph-name="Ccedilla" unicode="&#xc7;" horiz-adv-x="797" 
d="M30 0zM407 734q70 0 133 -22t112 -63t80.5 -101t39.5 -136h-167q-18 80 -72 123.5t-124 43.5q-46 0 -83.5 -15.5t-64.5 -43.5t-42 -68t-15 -88q0 -50 14 -91.5t40 -71.5t64 -47t85 -17q33 0 65.5 12t59.5 33.5t46.5 52t27.5 68.5h162q-7 -69 -39 -127.5t-81 -101.5
t-111.5 -67.5t-129.5 -24.5q-85 0 -154.5 29.5t-119 81t-76.5 121.5t-27 151q0 76 27.5 143t77 117t119 79.5t153.5 29.5zM340 -242l29 50q5 8 6.5 13.5t1.5 14.5v7h-46v116h135v-88q0 -16 -7 -27l-49 -86h-70z" />
    <glyph glyph-name="Egrave" unicode="&#xc8;" horiz-adv-x="669" 
d="M58 0zM58 0v714h571v-146h-397v-131h321v-140h-321v-151h398v-146h-572zM333 781l-173 176h159l99 -176h-85z" />
    <glyph glyph-name="Eacute" unicode="&#xc9;" horiz-adv-x="669" 
d="M58 0zM58 0v714h571v-146h-397v-131h321v-140h-321v-151h398v-146h-572zM259 781l100 176h158l-172 -176h-86z" />
    <glyph glyph-name="Ecircumflex" unicode="&#xca;" horiz-adv-x="669" 
d="M58 0zM58 0v714h571v-146h-397v-131h321v-140h-321v-151h398v-146h-572zM272 781h-102l132 176h82l131 -176h-101l-71 106z" />
    <glyph glyph-name="Edieresis" unicode="&#xcb;" horiz-adv-x="669" 
d="M58 0zM58 0v714h571v-146h-397v-131h321v-140h-321v-151h398v-146h-572zM136 808v136h146v-136h-146zM384 808v136h148v-136h-148z" />
    <glyph glyph-name="Igrave" unicode="&#xcc;" horiz-adv-x="298" 
d="M0 0zM62 0v714h173v-714h-173zM139 781l-173 176h159l99 -176h-85z" />
    <glyph glyph-name="Iacute" unicode="&#xcd;" horiz-adv-x="298" 
d="M62 0zM62 0v714h173v-714h-173zM74 781l100 176h158l-172 -176h-86z" />
    <glyph glyph-name="Icircumflex" unicode="&#xce;" horiz-adv-x="298" 
d="M0 0zM62 0v714h173v-714h-173zM78 781h-102l132 176h82l131 -176h-101l-71 106z" />
    <glyph glyph-name="Idieresis" unicode="&#xcf;" horiz-adv-x="298" 
d="M0 0zM62 0v714h173v-714h-173zM-49 808v136h146v-136h-146zM199 808v136h148v-136h-148z" />
    <glyph glyph-name="Eth" unicode="&#xd0;" horiz-adv-x="713" 
d="M5 436h53v278h264q87 0 154.5 -30.5t113 -81t69.5 -115t24 -132.5q0 -71 -25 -135t-71.5 -113t-113.5 -78t-150 -29h-265v297h-53v139zM315 150q41 0 76.5 12t61.5 37t41 62.5t15 87.5q0 54 -14.5 94.5t-40 67.5t-61 40.5t-78.5 13.5h-84v-129h126v-139h-126v-147h84z
" />
    <glyph glyph-name="Ntilde" unicode="&#xd1;" horiz-adv-x="740" 
d="M55 0zM536 0l-328 495v-495h-153v714h224l250 -393v393h157v-714h-150zM204 816q0 41 8.5 66t21 38t28 17t30.5 4q22 0 42 -7.5t39.5 -16t39 -16t40.5 -7.5q17 0 31 11.5t19 36.5h34q0 -41 -8.5 -65.5t-21 -37.5t-28 -17.5t-30.5 -4.5q-20 0 -39 7.5l-39 16t-40.5 16
t-42.5 7.5q-15 0 -30 -11t-19 -37h-35z" />
    <glyph glyph-name="Ograve" unicode="&#xd2;" horiz-adv-x="802" 
d="M30 0zM403 -18q-83 0 -152 28.5t-118 79.5t-76 122t-27 156q0 83 30 150.5t81 115.5t119.5 74t145.5 26q80 0 147 -26.5t115.5 -74.5t75.5 -116t27 -151q0 -81 -28 -151.5t-77.5 -122t-117 -81t-145.5 -29.5zM401 137q42 0 78.5 17t62.5 46.5t41 69t15 83.5
q0 49 -13.5 90.5t-39.5 71.5t-63.5 47t-84.5 17q-44 0 -79.5 -17.5t-61 -47.5t-39 -70t-13.5 -85q0 -47 14 -87.5t39.5 -70.5t62 -47t81.5 -17zM391 781l-173 176h159l99 -176h-85z" />
    <glyph glyph-name="Oacute" unicode="&#xd3;" horiz-adv-x="802" 
d="M30 0zM403 -18q-83 0 -152 28.5t-118 79.5t-76 122t-27 156q0 83 30 150.5t81 115.5t119.5 74t145.5 26q80 0 147 -26.5t115.5 -74.5t75.5 -116t27 -151q0 -81 -28 -151.5t-77.5 -122t-117 -81t-145.5 -29.5zM401 137q42 0 78.5 17t62.5 46.5t41 69t15 83.5
q0 49 -13.5 90.5t-39.5 71.5t-63.5 47t-84.5 17q-44 0 -79.5 -17.5t-61 -47.5t-39 -70t-13.5 -85q0 -47 14 -87.5t39.5 -70.5t62 -47t81.5 -17zM326 781l100 176h158l-172 -176h-86z" />
    <glyph glyph-name="Ocircumflex" unicode="&#xd4;" horiz-adv-x="802" 
d="M30 0zM403 -18q-83 0 -152 28.5t-118 79.5t-76 122t-27 156q0 83 30 150.5t81 115.5t119.5 74t145.5 26q80 0 147 -26.5t115.5 -74.5t75.5 -116t27 -151q0 -81 -28 -151.5t-77.5 -122t-117 -81t-145.5 -29.5zM401 137q42 0 78.5 17t62.5 46.5t41 69t15 83.5
q0 49 -13.5 90.5t-39.5 71.5t-63.5 47t-84.5 17q-44 0 -79.5 -17.5t-61 -47.5t-39 -70t-13.5 -85q0 -47 14 -87.5t39.5 -70.5t62 -47t81.5 -17zM330 781h-102l132 176h82l131 -176h-101l-71 106z" />
    <glyph glyph-name="Otilde" unicode="&#xd5;" horiz-adv-x="802" 
d="M30 0zM403 -18q-83 0 -152 28.5t-118 79.5t-76 122t-27 156q0 83 30 150.5t81 115.5t119.5 74t145.5 26q80 0 147 -26.5t115.5 -74.5t75.5 -116t27 -151q0 -81 -28 -151.5t-77.5 -122t-117 -81t-145.5 -29.5zM401 137q42 0 78.5 17t62.5 46.5t41 69t15 83.5
q0 49 -13.5 90.5t-39.5 71.5t-63.5 47t-84.5 17q-44 0 -79.5 -17.5t-61 -47.5t-39 -70t-13.5 -85q0 -47 14 -87.5t39.5 -70.5t62 -47t81.5 -17zM235 816q0 41 8.5 66t21 38t28 17t30.5 4q22 0 42 -7.5t39.5 -16t39 -16t40.5 -7.5q17 0 31 11.5t19 36.5h34q0 -41 -8.5 -65.5
t-21 -37.5t-28 -17.5t-30.5 -4.5q-20 0 -39 7.5l-39 16t-40.5 16t-42.5 7.5q-15 0 -30 -11t-19 -37h-35z" />
    <glyph glyph-name="Odieresis" unicode="&#xd6;" horiz-adv-x="802" 
d="M30 0zM403 -18q-83 0 -152 28.5t-118 79.5t-76 122t-27 156q0 83 30 150.5t81 115.5t119.5 74t145.5 26q80 0 147 -26.5t115.5 -74.5t75.5 -116t27 -151q0 -81 -28 -151.5t-77.5 -122t-117 -81t-145.5 -29.5zM401 137q42 0 78.5 17t62.5 46.5t41 69t15 83.5
q0 49 -13.5 90.5t-39.5 71.5t-63.5 47t-84.5 17q-44 0 -79.5 -17.5t-61 -47.5t-39 -70t-13.5 -85q0 -47 14 -87.5t39.5 -70.5t62 -47t81.5 -17zM203 808v136h146v-136h-146zM451 808v136h148v-136h-148z" />
    <glyph glyph-name="multiply" unicode="&#xd7;" horiz-adv-x="521" 
d="M81 241l107 108l-107 107l73 71l107 -106l106 107l73 -72l-107 -108l106 -107l-72 -73l-106 107l-107 -107z" />
    <glyph glyph-name="Oslash" unicode="&#xd8;" horiz-adv-x="802" 
d="M403 -18q-56 0 -105 13t-90 37l-58 -76l-63 48l57 75q-54 51 -84 125t-30 164q0 83 30 150.5t81 115.5t119.5 74t145.5 26q54 0 101.5 -12t88.5 -35l52 70l65 -45l-53 -71q53 -48 82 -117.5t29 -157.5q0 -81 -28 -151.5t-77.5 -122t-117 -81t-145.5 -29.5zM204 359
q0 -85 41 -143l252 338q-44 25 -100 25q-44 0 -79.5 -17.5t-61 -47.5t-39 -70t-13.5 -85zM401 137q42 0 78.5 17t62.5 46.5t41 69t15 83.5q0 45 -11.5 81.5t-32.5 65.5l-250 -338q44 -25 97 -25z" />
    <glyph glyph-name="Ugrave" unicode="&#xd9;" horiz-adv-x="733" 
d="M47 0zM520 714h166v-441q0 -147 -82 -219t-243 -72q-151 0 -232.5 78t-81.5 224v430h174v-414q0 -37 7.5 -67.5t25 -52t46 -33.5t70.5 -12q44 0 73 11t46 32t24 51t7 68v417zM357 781l-173 176h159l99 -176h-85z" />
    <glyph glyph-name="Uacute" unicode="&#xda;" horiz-adv-x="733" 
d="M47 0zM520 714h166v-441q0 -147 -82 -219t-243 -72q-151 0 -232.5 78t-81.5 224v430h174v-414q0 -37 7.5 -67.5t25 -52t46 -33.5t70.5 -12q44 0 73 11t46 32t24 51t7 68v417zM292 781l100 176h158l-172 -176h-86z" />
    <glyph glyph-name="Ucircumflex" unicode="&#xdb;" horiz-adv-x="733" 
d="M47 0zM520 714h166v-441q0 -147 -82 -219t-243 -72q-151 0 -232.5 78t-81.5 224v430h174v-414q0 -37 7.5 -67.5t25 -52t46 -33.5t70.5 -12q44 0 73 11t46 32t24 51t7 68v417zM296 781h-102l132 176h82l131 -176h-101l-71 106z" />
    <glyph glyph-name="Udieresis" unicode="&#xdc;" horiz-adv-x="733" 
d="M47 0zM520 714h166v-441q0 -147 -82 -219t-243 -72q-151 0 -232.5 78t-81.5 224v430h174v-414q0 -37 7.5 -67.5t25 -52t46 -33.5t70.5 -12q44 0 73 11t46 32t24 51t7 68v417zM169 808v136h146v-136h-146zM417 808v136h148v-136h-148z" />
    <glyph glyph-name="Yacute" unicode="&#xdd;" horiz-adv-x="706" 
d="M4 0zM267 0v295l-263 419h200l167 -273l166 273h165l-262 -419v-295h-173zM287 781l100 176h158l-172 -176h-86z" />
    <glyph glyph-name="Thorn" unicode="&#xde;" 
d="M232 601h248q58 0 100 -23t70 -59.5t41.5 -82.5t13.5 -91q0 -51 -19 -93t-51.5 -72.5t-75 -47.5t-88.5 -17h-236v-115h-177v714h174v-113zM232 453v-192h212q40 0 63.5 24.5t23.5 64.5q0 53 -24.5 78t-68.5 25h-206z" />
    <glyph glyph-name="germandbls" unicode="&#xdf;" horiz-adv-x="660" 
d="M297 94q19 -13 36 -18t43 -5q24 0 43 10t32 27t20 39.5t7 47.5q0 27 -8.5 52t-24.5 44.5t-39 31t-51 11.5h-88v131h62q18 0 30 6.5t19.5 17t11 23.5t3.5 26q0 38 -25 61.5t-66 23.5q-54 0 -77.5 -21.5t-23.5 -79.5v-521h-152v526q0 58 23 99.5t60 68t84.5 38.5t97.5 12
q49 0 90.5 -13.5t71.5 -39t46.5 -62t16.5 -82.5q0 -40 -15 -74.5t-45 -58.5q34 -12 62 -35.5t48 -54.5t30.5 -66.5t10.5 -69.5q0 -51 -17.5 -95.5t-49 -78.5t-76 -53.5t-98.5 -19.5q-39 0 -72 9.5t-65 27.5z" />
    <glyph glyph-name="agrave" unicode="&#xe0;" horiz-adv-x="756" 
d="M4 0zM557 0l-38 94h-290l-38 -94h-187l334 714h96l317 -714h-194zM374 466l-97 -243h193zM377 781l-173 176h159l99 -176h-85z" />
    <glyph glyph-name="aacute" unicode="&#xe1;" horiz-adv-x="756" 
d="M4 0zM557 0l-38 94h-290l-38 -94h-187l334 714h96l317 -714h-194zM374 466l-97 -243h193zM302 781l100 176h158l-172 -176h-86z" />
    <glyph glyph-name="acircumflex" unicode="&#xe2;" horiz-adv-x="756" 
d="M4 0zM557 0l-38 94h-290l-38 -94h-187l334 714h96l317 -714h-194zM374 466l-97 -243h193zM306 781h-102l132 176h82l131 -176h-101l-71 106z" />
    <glyph glyph-name="atilde" unicode="&#xe3;" horiz-adv-x="756" 
d="M4 0zM557 0l-38 94h-290l-38 -94h-187l334 714h96l317 -714h-194zM374 466l-97 -243h193zM212 816q0 41 8.5 66t21 38t28 17t30.5 4q22 0 42 -7.5t39.5 -16t39 -16t40.5 -7.5q17 0 31 11.5t19 36.5h34q0 -41 -8.5 -65.5t-21 -37.5t-28 -17.5t-30.5 -4.5q-20 0 -39 7.5
l-39 16t-40.5 16t-42.5 7.5q-15 0 -30 -11t-19 -37h-35z" />
    <glyph glyph-name="adieresis" unicode="&#xe4;" horiz-adv-x="756" 
d="M4 0zM557 0l-38 94h-290l-38 -94h-187l334 714h96l317 -714h-194zM374 466l-97 -243h193zM179 808v136h146v-136h-146zM427 808v136h148v-136h-148z" />
    <glyph glyph-name="aring" unicode="&#xe5;" horiz-adv-x="756" 
d="M4 0zM557 0l-38 94h-290l-38 -94h-187l334 714h96l317 -714h-194zM374 466l-97 -243h193zM471 868q0 -39 -26.5 -63t-67.5 -24q-39 0 -66 26t-27 63q0 38 27.5 62.5t66.5 24.5q42 0 67.5 -24.5t25.5 -64.5zM417 871q0 20 -11 31t-28 11q-41 0 -41 -41q0 -20 10.5 -33
t30.5 -13t29.5 12.5t9.5 32.5z" />
    <glyph glyph-name="ae" unicode="&#xe6;" horiz-adv-x="1031" 
d="M4 0zM234 95l-43 -95h-187l334 714h652v-146h-322v-131h246v-140h-246v-151h323v-146h-497v95h-260zM289 224h205v344h-52z" />
    <glyph glyph-name="ccedilla" unicode="&#xe7;" horiz-adv-x="797" 
d="M30 0zM407 734q70 0 133 -22t112 -63t80.5 -101t39.5 -136h-167q-18 80 -72 123.5t-124 43.5q-46 0 -83.5 -15.5t-64.5 -43.5t-42 -68t-15 -88q0 -50 14 -91.5t40 -71.5t64 -47t85 -17q33 0 65.5 12t59.5 33.5t46.5 52t27.5 68.5h162q-7 -69 -39 -127.5t-81 -101.5
t-111.5 -67.5t-129.5 -24.5q-85 0 -154.5 29.5t-119 81t-76.5 121.5t-27 151q0 76 27.5 143t77 117t119 79.5t153.5 29.5zM340 -242l29 50q5 8 6.5 13.5t1.5 14.5v7h-46v116h135v-88q0 -16 -7 -27l-49 -86h-70z" />
    <glyph glyph-name="egrave" unicode="&#xe8;" horiz-adv-x="669" 
d="M58 0zM58 0v714h571v-146h-397v-131h321v-140h-321v-151h398v-146h-572zM333 781l-173 176h159l99 -176h-85z" />
    <glyph glyph-name="eacute" unicode="&#xe9;" horiz-adv-x="669" 
d="M58 0zM58 0v714h571v-146h-397v-131h321v-140h-321v-151h398v-146h-572zM259 781l100 176h158l-172 -176h-86z" />
    <glyph glyph-name="ecircumflex" unicode="&#xea;" horiz-adv-x="669" 
d="M58 0zM58 0v714h571v-146h-397v-131h321v-140h-321v-151h398v-146h-572zM272 781h-102l132 176h82l131 -176h-101l-71 106z" />
    <glyph glyph-name="edieresis" unicode="&#xeb;" horiz-adv-x="669" 
d="M58 0zM58 0v714h571v-146h-397v-131h321v-140h-321v-151h398v-146h-572zM136 808v136h146v-136h-146zM384 808v136h148v-136h-148z" />
    <glyph glyph-name="igrave" unicode="&#xec;" horiz-adv-x="298" 
d="M0 0zM62 0v714h173v-714h-173zM139 781l-173 176h159l99 -176h-85z" />
    <glyph glyph-name="iacute" unicode="&#xed;" horiz-adv-x="298" 
d="M62 0zM62 0v714h173v-714h-173zM74 781l100 176h158l-172 -176h-86z" />
    <glyph glyph-name="icircumflex" unicode="&#xee;" horiz-adv-x="298" 
d="M0 0zM62 0v714h173v-714h-173zM78 781h-102l132 176h82l131 -176h-101l-71 106z" />
    <glyph glyph-name="idieresis" unicode="&#xef;" horiz-adv-x="298" 
d="M0 0zM62 0v714h173v-714h-173zM-49 808v136h146v-136h-146zM199 808v136h148v-136h-148z" />
    <glyph glyph-name="eth" unicode="&#xf0;" horiz-adv-x="713" 
d="M5 0zM5 436h53v278h264q87 0 154.5 -30.5t113 -81t69.5 -115t24 -132.5q0 -71 -25 -135t-71.5 -113t-113.5 -78t-150 -29h-265v297h-53v139zM315 150q41 0 76.5 12t61.5 37t41 62.5t15 87.5q0 54 -14.5 94.5t-40 67.5t-61 40.5t-78.5 13.5h-84v-129h126v-139h-126v-147
h84z" />
    <glyph glyph-name="ntilde" unicode="&#xf1;" horiz-adv-x="740" 
d="M55 0zM536 0l-328 495v-495h-153v714h224l250 -393v393h157v-714h-150zM204 816q0 41 8.5 66t21 38t28 17t30.5 4q22 0 42 -7.5t39.5 -16t39 -16t40.5 -7.5q17 0 31 11.5t19 36.5h34q0 -41 -8.5 -65.5t-21 -37.5t-28 -17.5t-30.5 -4.5q-20 0 -39 7.5l-39 16t-40.5 16
t-42.5 7.5q-15 0 -30 -11t-19 -37h-35z" />
    <glyph glyph-name="ograve" unicode="&#xf2;" horiz-adv-x="802" 
d="M30 0zM403 -18q-83 0 -152 28.5t-118 79.5t-76 122t-27 156q0 83 30 150.5t81 115.5t119.5 74t145.5 26q80 0 147 -26.5t115.5 -74.5t75.5 -116t27 -151q0 -81 -28 -151.5t-77.5 -122t-117 -81t-145.5 -29.5zM401 137q42 0 78.5 17t62.5 46.5t41 69t15 83.5
q0 49 -13.5 90.5t-39.5 71.5t-63.5 47t-84.5 17q-44 0 -79.5 -17.5t-61 -47.5t-39 -70t-13.5 -85q0 -47 14 -87.5t39.5 -70.5t62 -47t81.5 -17zM391 781l-173 176h159l99 -176h-85z" />
    <glyph glyph-name="oacute" unicode="&#xf3;" horiz-adv-x="802" 
d="M30 0zM403 -18q-83 0 -152 28.5t-118 79.5t-76 122t-27 156q0 83 30 150.5t81 115.5t119.5 74t145.5 26q80 0 147 -26.5t115.5 -74.5t75.5 -116t27 -151q0 -81 -28 -151.5t-77.5 -122t-117 -81t-145.5 -29.5zM401 137q42 0 78.5 17t62.5 46.5t41 69t15 83.5
q0 49 -13.5 90.5t-39.5 71.5t-63.5 47t-84.5 17q-44 0 -79.5 -17.5t-61 -47.5t-39 -70t-13.5 -85q0 -47 14 -87.5t39.5 -70.5t62 -47t81.5 -17zM326 781l100 176h158l-172 -176h-86z" />
    <glyph glyph-name="ocircumflex" unicode="&#xf4;" horiz-adv-x="802" 
d="M30 0zM403 -18q-83 0 -152 28.5t-118 79.5t-76 122t-27 156q0 83 30 150.5t81 115.5t119.5 74t145.5 26q80 0 147 -26.5t115.5 -74.5t75.5 -116t27 -151q0 -81 -28 -151.5t-77.5 -122t-117 -81t-145.5 -29.5zM401 137q42 0 78.5 17t62.5 46.5t41 69t15 83.5
q0 49 -13.5 90.5t-39.5 71.5t-63.5 47t-84.5 17q-44 0 -79.5 -17.5t-61 -47.5t-39 -70t-13.5 -85q0 -47 14 -87.5t39.5 -70.5t62 -47t81.5 -17zM330 781h-102l132 176h82l131 -176h-101l-71 106z" />
    <glyph glyph-name="otilde" unicode="&#xf5;" horiz-adv-x="802" 
d="M30 0zM403 -18q-83 0 -152 28.5t-118 79.5t-76 122t-27 156q0 83 30 150.5t81 115.5t119.5 74t145.5 26q80 0 147 -26.5t115.5 -74.5t75.5 -116t27 -151q0 -81 -28 -151.5t-77.5 -122t-117 -81t-145.5 -29.5zM401 137q42 0 78.5 17t62.5 46.5t41 69t15 83.5
q0 49 -13.5 90.5t-39.5 71.5t-63.5 47t-84.5 17q-44 0 -79.5 -17.5t-61 -47.5t-39 -70t-13.5 -85q0 -47 14 -87.5t39.5 -70.5t62 -47t81.5 -17zM235 816q0 41 8.5 66t21 38t28 17t30.5 4q22 0 42 -7.5t39.5 -16t39 -16t40.5 -7.5q17 0 31 11.5t19 36.5h34q0 -41 -8.5 -65.5
t-21 -37.5t-28 -17.5t-30.5 -4.5q-20 0 -39 7.5l-39 16t-40.5 16t-42.5 7.5q-15 0 -30 -11t-19 -37h-35z" />
    <glyph glyph-name="odieresis" unicode="&#xf6;" horiz-adv-x="802" 
d="M30 0zM403 -18q-83 0 -152 28.5t-118 79.5t-76 122t-27 156q0 83 30 150.5t81 115.5t119.5 74t145.5 26q80 0 147 -26.5t115.5 -74.5t75.5 -116t27 -151q0 -81 -28 -151.5t-77.5 -122t-117 -81t-145.5 -29.5zM401 137q42 0 78.5 17t62.5 46.5t41 69t15 83.5
q0 49 -13.5 90.5t-39.5 71.5t-63.5 47t-84.5 17q-44 0 -79.5 -17.5t-61 -47.5t-39 -70t-13.5 -85q0 -47 14 -87.5t39.5 -70.5t62 -47t81.5 -17zM203 808v136h146v-136h-146zM451 808v136h148v-136h-148z" />
    <glyph glyph-name="divide" unicode="&#xf7;" horiz-adv-x="521" 
d="M58 64zM58 297v103h406v-103h-406zM182 463v171h156v-171h-156zM182 64v171h156v-171h-156z" />
    <glyph glyph-name="oslash" unicode="&#xf8;" horiz-adv-x="802" 
d="M30 0zM403 -18q-56 0 -105 13t-90 37l-58 -76l-63 48l57 75q-54 51 -84 125t-30 164q0 83 30 150.5t81 115.5t119.5 74t145.5 26q54 0 101.5 -12t88.5 -35l52 70l65 -45l-53 -71q53 -48 82 -117.5t29 -157.5q0 -81 -28 -151.5t-77.5 -122t-117 -81t-145.5 -29.5zM204 359
q0 -85 41 -143l252 338q-44 25 -100 25q-44 0 -79.5 -17.5t-61 -47.5t-39 -70t-13.5 -85zM401 137q42 0 78.5 17t62.5 46.5t41 69t15 83.5q0 45 -11.5 81.5t-32.5 65.5l-250 -338q44 -25 97 -25z" />
    <glyph glyph-name="ugrave" unicode="&#xf9;" horiz-adv-x="733" 
d="M47 0zM520 714h166v-441q0 -147 -82 -219t-243 -72q-151 0 -232.5 78t-81.5 224v430h174v-414q0 -37 7.5 -67.5t25 -52t46 -33.5t70.5 -12q44 0 73 11t46 32t24 51t7 68v417zM357 781l-173 176h159l99 -176h-85z" />
    <glyph glyph-name="uacute" unicode="&#xfa;" horiz-adv-x="733" 
d="M47 0zM520 714h166v-441q0 -147 -82 -219t-243 -72q-151 0 -232.5 78t-81.5 224v430h174v-414q0 -37 7.5 -67.5t25 -52t46 -33.5t70.5 -12q44 0 73 11t46 32t24 51t7 68v417zM292 781l100 176h158l-172 -176h-86z" />
    <glyph glyph-name="ucircumflex" unicode="&#xfb;" horiz-adv-x="733" 
d="M47 0zM520 714h166v-441q0 -147 -82 -219t-243 -72q-151 0 -232.5 78t-81.5 224v430h174v-414q0 -37 7.5 -67.5t25 -52t46 -33.5t70.5 -12q44 0 73 11t46 32t24 51t7 68v417zM296 781h-102l132 176h82l131 -176h-101l-71 106z" />
    <glyph glyph-name="udieresis" unicode="&#xfc;" horiz-adv-x="733" 
d="M47 0zM520 714h166v-441q0 -147 -82 -219t-243 -72q-151 0 -232.5 78t-81.5 224v430h174v-414q0 -37 7.5 -67.5t25 -52t46 -33.5t70.5 -12q44 0 73 11t46 32t24 51t7 68v417zM169 808v136h146v-136h-146zM417 808v136h148v-136h-148z" />
    <glyph glyph-name="yacute" unicode="&#xfd;" horiz-adv-x="706" 
d="M4 0zM267 0v295l-263 419h200l167 -273l166 273h165l-262 -419v-295h-173zM287 781l100 176h158l-172 -176h-86z" />
    <glyph glyph-name="thorn" unicode="&#xfe;" 
d="M58 0zM232 601h248q58 0 100 -23t70 -59.5t41.5 -82.5t13.5 -91q0 -51 -19 -93t-51.5 -72.5t-75 -47.5t-88.5 -17h-236v-115h-177v714h174v-113zM232 453v-192h212q40 0 63.5 24.5t23.5 64.5q0 53 -24.5 78t-68.5 25h-206z" />
    <glyph glyph-name="ydieresis" unicode="&#xff;" horiz-adv-x="706" 
d="M4 0zM267 0v295l-263 419h200l167 -273l166 273h165l-262 -419v-295h-173zM155 808v136h146v-136h-146zM403 808v136h148v-136h-148z" />
    <glyph glyph-name="Amacron" unicode="&#x100;" horiz-adv-x="756" 
d="M4 0zM557 0l-38 94h-290l-38 -94h-187l334 714h96l317 -714h-194zM374 466l-97 -243h193zM224 838v79h307v-79h-307z" />
    <glyph glyph-name="amacron" unicode="&#x101;" horiz-adv-x="756" 
d="M4 0zM557 0l-38 94h-290l-38 -94h-187l334 714h96l317 -714h-194zM374 466l-97 -243h193zM224 838v79h307v-79h-307z" />
    <glyph glyph-name="Abreve" unicode="&#x102;" horiz-adv-x="756" 
d="M4 0zM557 0l-38 94h-290l-38 -94h-187l334 714h96l317 -714h-194zM374 466l-97 -243h193zM376 781q-83 0 -132.5 47.5t-57.5 128.5h80q4 -22 11 -43.5t19.5 -38t32 -27t47.5 -10.5q29 0 48.5 10.5t32 27t20 38t11.5 43.5h79q-8 -81 -57 -128.5t-134 -47.5z" />
    <glyph glyph-name="abreve" unicode="&#x103;" horiz-adv-x="756" 
d="M4 0zM557 0l-38 94h-290l-38 -94h-187l334 714h96l317 -714h-194zM374 466l-97 -243h193zM376 781q-83 0 -132.5 47.5t-57.5 128.5h80q4 -22 11 -43.5t19.5 -38t32 -27t47.5 -10.5q29 0 48.5 10.5t32 27t20 38t11.5 43.5h79q-8 -81 -57 -128.5t-134 -47.5z" />
    <glyph glyph-name="Aogonek" unicode="&#x104;" horiz-adv-x="756" 
d="M678 -242q-77 0 -114 30t-37 84q0 60 42 91t111 37h-123l-38 94h-290l-38 -94h-187l334 714h96l317 -714q-39 -6 -64 -13.5t-40 -16.5t-20.5 -20.5t-5.5 -26.5q0 -24 14.5 -38t55.5 -14h60v-113h-73zM374 466l-97 -243h193z" />
    <glyph glyph-name="aogonek" unicode="&#x105;" horiz-adv-x="756" 
d="M4 0zM678 -242q-77 0 -114 30t-37 84q0 60 42 91t111 37h-123l-38 94h-290l-38 -94h-187l334 714h96l317 -714q-39 -6 -64 -13.5t-40 -16.5t-20.5 -20.5t-5.5 -26.5q0 -24 14.5 -38t55.5 -14h60v-113h-73zM374 466l-97 -243h193z" />
    <glyph glyph-name="Cacute" unicode="&#x106;" horiz-adv-x="797" 
d="M30 0zM407 734q70 0 133 -22t112 -63t80.5 -101t39.5 -136h-167q-18 80 -72 123.5t-124 43.5q-46 0 -83.5 -15.5t-64.5 -43.5t-42 -68t-15 -88q0 -50 14 -91.5t40 -71.5t64 -47t85 -17q33 0 65.5 12t59.5 33.5t46.5 52t27.5 68.5h162q-7 -69 -39 -127.5t-81 -101.5
t-111.5 -67.5t-129.5 -24.5q-85 0 -154.5 29.5t-119 81t-76.5 121.5t-27 151q0 76 27.5 143t77 117t119 79.5t153.5 29.5zM323 781l100 176h158l-172 -176h-86z" />
    <glyph glyph-name="cacute" unicode="&#x107;" horiz-adv-x="797" 
d="M30 0zM407 734q70 0 133 -22t112 -63t80.5 -101t39.5 -136h-167q-18 80 -72 123.5t-124 43.5q-46 0 -83.5 -15.5t-64.5 -43.5t-42 -68t-15 -88q0 -50 14 -91.5t40 -71.5t64 -47t85 -17q33 0 65.5 12t59.5 33.5t46.5 52t27.5 68.5h162q-7 -69 -39 -127.5t-81 -101.5
t-111.5 -67.5t-129.5 -24.5q-85 0 -154.5 29.5t-119 81t-76.5 121.5t-27 151q0 76 27.5 143t77 117t119 79.5t153.5 29.5zM323 781l100 176h158l-172 -176h-86z" />
    <glyph glyph-name="Cdotaccent" unicode="&#x10a;" horiz-adv-x="797" 
d="M30 0zM407 734q70 0 133 -22t112 -63t80.5 -101t39.5 -136h-167q-18 80 -72 123.5t-124 43.5q-46 0 -83.5 -15.5t-64.5 -43.5t-42 -68t-15 -88q0 -50 14 -91.5t40 -71.5t64 -47t85 -17q33 0 65.5 12t59.5 33.5t46.5 52t27.5 68.5h162q-7 -69 -39 -127.5t-81 -101.5
t-111.5 -67.5t-129.5 -24.5q-85 0 -154.5 29.5t-119 81t-76.5 121.5t-27 151q0 76 27.5 143t77 117t119 79.5t153.5 29.5zM325 808v136h146v-136h-146z" />
    <glyph glyph-name="cdotaccent" unicode="&#x10b;" horiz-adv-x="797" 
d="M30 0zM407 734q70 0 133 -22t112 -63t80.5 -101t39.5 -136h-167q-18 80 -72 123.5t-124 43.5q-46 0 -83.5 -15.5t-64.5 -43.5t-42 -68t-15 -88q0 -50 14 -91.5t40 -71.5t64 -47t85 -17q33 0 65.5 12t59.5 33.5t46.5 52t27.5 68.5h162q-7 -69 -39 -127.5t-81 -101.5
t-111.5 -67.5t-129.5 -24.5q-85 0 -154.5 29.5t-119 81t-76.5 121.5t-27 151q0 76 27.5 143t77 117t119 79.5t153.5 29.5zM325 808v136h146v-136h-146z" />
    <glyph glyph-name="Ccaron" unicode="&#x10c;" horiz-adv-x="797" 
d="M30 0zM407 734q70 0 133 -22t112 -63t80.5 -101t39.5 -136h-167q-18 80 -72 123.5t-124 43.5q-46 0 -83.5 -15.5t-64.5 -43.5t-42 -68t-15 -88q0 -50 14 -91.5t40 -71.5t64 -47t85 -17q33 0 65.5 12t59.5 33.5t46.5 52t27.5 68.5h162q-7 -69 -39 -127.5t-81 -101.5
t-111.5 -67.5t-129.5 -24.5q-85 0 -154.5 29.5t-119 81t-76.5 121.5t-27 151q0 76 27.5 143t77 117t119 79.5t153.5 29.5zM469 957h101l-131 -176h-82l-132 176h102l71 -106z" />
    <glyph glyph-name="ccaron" unicode="&#x10d;" horiz-adv-x="797" 
d="M30 0zM407 734q70 0 133 -22t112 -63t80.5 -101t39.5 -136h-167q-18 80 -72 123.5t-124 43.5q-46 0 -83.5 -15.5t-64.5 -43.5t-42 -68t-15 -88q0 -50 14 -91.5t40 -71.5t64 -47t85 -17q33 0 65.5 12t59.5 33.5t46.5 52t27.5 68.5h162q-7 -69 -39 -127.5t-81 -101.5
t-111.5 -67.5t-129.5 -24.5q-85 0 -154.5 29.5t-119 81t-76.5 121.5t-27 151q0 76 27.5 143t77 117t119 79.5t153.5 29.5zM469 957h101l-131 -176h-82l-132 176h102l71 -106z" />
    <glyph glyph-name="Dcaron" unicode="&#x10e;" horiz-adv-x="713" 
d="M58 0zM58 0v714h265q87 0 154 -30.5t113 -81t69.5 -115t23.5 -132.5q0 -71 -25 -135t-71.5 -113t-113 -78t-150.5 -29h-265zM316 149q40 0 75.5 12.5t61.5 37.5t41 62.5t15 87.5q0 53 -14.5 93.5t-40 67.5t-61 40.5t-78.5 13.5h-83v-415h84zM392 957h101l-131 -176h-82
l-132 176h102l71 -106z" />
    <glyph glyph-name="dcaron" unicode="&#x10f;" horiz-adv-x="713" 
d="M58 0zM58 0v714h265q87 0 154 -30.5t113 -81t69.5 -115t23.5 -132.5q0 -71 -25 -135t-71.5 -113t-113 -78t-150.5 -29h-265zM316 149q40 0 75.5 12.5t61.5 37.5t41 62.5t15 87.5q0 53 -14.5 93.5t-40 67.5t-61 40.5t-78.5 13.5h-83v-415h84zM392 957h101l-131 -176h-82
l-132 176h102l71 -106z" />
    <glyph glyph-name="Dcroat" unicode="&#x110;" horiz-adv-x="713" 
d="M5 0zM5 436h53v278h264q87 0 154.5 -30.5t113 -81t69.5 -115t24 -132.5q0 -71 -25 -135t-71.5 -113t-113.5 -78t-150 -29h-265v297h-53v139zM315 150q41 0 76.5 12t61.5 37t41 62.5t15 87.5q0 54 -14.5 94.5t-40 67.5t-61 40.5t-78.5 13.5h-84v-129h126v-139h-126v-147
h84z" />
    <glyph glyph-name="dcroat" unicode="&#x111;" horiz-adv-x="713" 
d="M5 0zM5 436h53v278h264q87 0 154.5 -30.5t113 -81t69.5 -115t24 -132.5q0 -71 -25 -135t-71.5 -113t-113.5 -78t-150 -29h-265v297h-53v139zM315 150q41 0 76.5 12t61.5 37t41 62.5t15 87.5q0 54 -14.5 94.5t-40 67.5t-61 40.5t-78.5 13.5h-84v-129h126v-139h-126v-147
h84z" />
    <glyph glyph-name="Emacron" unicode="&#x112;" horiz-adv-x="669" 
d="M58 0zM58 0v714h571v-146h-397v-131h321v-140h-321v-151h398v-146h-572zM190 838v79h307v-79h-307z" />
    <glyph glyph-name="emacron" unicode="&#x113;" horiz-adv-x="669" 
d="M58 0zM58 0v714h571v-146h-397v-131h321v-140h-321v-151h398v-146h-572zM190 838v79h307v-79h-307z" />
    <glyph glyph-name="Ebreve" unicode="&#x114;" horiz-adv-x="669" 
d="M58 0zM58 0v714h571v-146h-397v-131h321v-140h-321v-151h398v-146h-572zM333 781q-83 0 -132.5 47.5t-57.5 128.5h80q4 -22 11 -43.5t19.5 -38t32 -27t47.5 -10.5q29 0 48.5 10.5t32 27t20 38t11.5 43.5h79q-8 -81 -57 -128.5t-134 -47.5z" />
    <glyph glyph-name="ebreve" unicode="&#x115;" horiz-adv-x="669" 
d="M58 0zM58 0v714h571v-146h-397v-131h321v-140h-321v-151h398v-146h-572zM333 781q-83 0 -132.5 47.5t-57.5 128.5h80q4 -22 11 -43.5t19.5 -38t32 -27t47.5 -10.5q29 0 48.5 10.5t32 27t20 38t11.5 43.5h79q-8 -81 -57 -128.5t-134 -47.5z" />
    <glyph glyph-name="Edotaccent" unicode="&#x116;" horiz-adv-x="669" 
d="M58 0zM58 0v714h571v-146h-397v-131h321v-140h-321v-151h398v-146h-572zM270 808v136h146v-136h-146z" />
    <glyph glyph-name="edotaccent" unicode="&#x117;" horiz-adv-x="669" 
d="M58 0zM58 0v714h571v-146h-397v-131h321v-140h-321v-151h398v-146h-572zM270 808v136h146v-136h-146z" />
    <glyph glyph-name="Eogonek" unicode="&#x118;" horiz-adv-x="669" 
d="M557 -242q-77 0 -114 30t-37 84q0 60 42 91t111 37h-501v714h571v-146h-397v-131h321v-140h-321v-151h398v-146q-39 -6 -64 -13.5t-40 -16.5t-20.5 -20.5t-5.5 -26.5q0 -24 14.5 -38t55.5 -14h60v-113h-73z" />
    <glyph glyph-name="eogonek" unicode="&#x119;" horiz-adv-x="669" 
d="M58 0zM557 -242q-77 0 -114 30t-37 84q0 60 42 91t111 37h-501v714h571v-146h-397v-131h321v-140h-321v-151h398v-146q-39 -6 -64 -13.5t-40 -16.5t-20.5 -20.5t-5.5 -26.5q0 -24 14.5 -38t55.5 -14h60v-113h-73z" />
    <glyph glyph-name="Ecaron" unicode="&#x11a;" horiz-adv-x="669" 
d="M58 0zM58 0v714h571v-146h-397v-131h321v-140h-321v-151h398v-146h-572zM414 957h101l-131 -176h-82l-132 176h102l71 -106z" />
    <glyph glyph-name="ecaron" unicode="&#x11b;" horiz-adv-x="669" 
d="M58 0zM58 0v714h571v-146h-397v-131h321v-140h-321v-151h398v-146h-572zM414 957h101l-131 -176h-82l-132 176h102l71 -106z" />
    <glyph glyph-name="Gbreve" unicode="&#x11e;" horiz-adv-x="815" 
d="M30 0zM630 0v101q-15 -23 -38 -44.5t-54 -38t-70 -26.5t-84 -10q-83 0 -148.5 30.5t-111 82t-70 120t-24.5 144.5q0 84 28.5 153t78 118.5t116 76.5t141.5 27q69 0 129 -16.5t106.5 -50.5t78 -86.5t44.5 -124.5h-163q-20 65 -70 94t-118 29q-41 0 -76.5 -15t-62.5 -43.5
t-42.5 -69.5t-15.5 -93q0 -49 12.5 -91.5t37.5 -74t61 -49.5t84 -18q69 0 113 33t55 83h-179v127h379v-368h-137zM406 781q-83 0 -132.5 47.5t-57.5 128.5h80q4 -22 11 -43.5t19.5 -38t32 -27t47.5 -10.5q29 0 48.5 10.5t32 27t20 38t11.5 43.5h79q-8 -81 -57 -128.5
t-134 -47.5z" />
    <glyph glyph-name="gbreve" unicode="&#x11f;" horiz-adv-x="815" 
d="M30 0zM630 0v101q-15 -23 -38 -44.5t-54 -38t-70 -26.5t-84 -10q-83 0 -148.5 30.5t-111 82t-70 120t-24.5 144.5q0 84 28.5 153t78 118.5t116 76.5t141.5 27q69 0 129 -16.5t106.5 -50.5t78 -86.5t44.5 -124.5h-163q-20 65 -70 94t-118 29q-41 0 -76.5 -15t-62.5 -43.5
t-42.5 -69.5t-15.5 -93q0 -49 12.5 -91.5t37.5 -74t61 -49.5t84 -18q69 0 113 33t55 83h-179v127h379v-368h-137zM406 781q-83 0 -132.5 47.5t-57.5 128.5h80q4 -22 11 -43.5t19.5 -38t32 -27t47.5 -10.5q29 0 48.5 10.5t32 27t20 38t11.5 43.5h79q-8 -81 -57 -128.5
t-134 -47.5z" />
    <glyph glyph-name="Gdotaccent" unicode="&#x120;" horiz-adv-x="815" 
d="M30 0zM630 0v101q-15 -23 -38 -44.5t-54 -38t-70 -26.5t-84 -10q-83 0 -148.5 30.5t-111 82t-70 120t-24.5 144.5q0 84 28.5 153t78 118.5t116 76.5t141.5 27q69 0 129 -16.5t106.5 -50.5t78 -86.5t44.5 -124.5h-163q-20 65 -70 94t-118 29q-41 0 -76.5 -15t-62.5 -43.5
t-42.5 -69.5t-15.5 -93q0 -49 12.5 -91.5t37.5 -74t61 -49.5t84 -18q69 0 113 33t55 83h-179v127h379v-368h-137zM325 808v136h146v-136h-146z" />
    <glyph glyph-name="gdotaccent" unicode="&#x121;" horiz-adv-x="815" 
d="M30 0zM630 0v101q-15 -23 -38 -44.5t-54 -38t-70 -26.5t-84 -10q-83 0 -148.5 30.5t-111 82t-70 120t-24.5 144.5q0 84 28.5 153t78 118.5t116 76.5t141.5 27q69 0 129 -16.5t106.5 -50.5t78 -86.5t44.5 -124.5h-163q-20 65 -70 94t-118 29q-41 0 -76.5 -15t-62.5 -43.5
t-42.5 -69.5t-15.5 -93q0 -49 12.5 -91.5t37.5 -74t61 -49.5t84 -18q69 0 113 33t55 83h-179v127h379v-368h-137zM325 808v136h146v-136h-146z" />
    <glyph glyph-name="Gcommaaccent" unicode="&#x122;" horiz-adv-x="815" 
d="M30 0zM630 0v101q-15 -23 -38 -44.5t-54 -38t-70 -26.5t-84 -10q-83 0 -148.5 30.5t-111 82t-70 120t-24.5 144.5q0 84 28.5 153t78 118.5t116 76.5t141.5 27q69 0 129 -16.5t106.5 -50.5t78 -86.5t44.5 -124.5h-163q-20 65 -70 94t-118 29q-41 0 -76.5 -15t-62.5 -43.5
t-42.5 -69.5t-15.5 -93q0 -49 12.5 -91.5t37.5 -74t61 -49.5t84 -18q69 0 113 33t55 83h-179v127h379v-368h-137zM349 -242l29 50q5 8 6.5 13.5t1.5 14.5v7h-46v116h135v-88q0 -16 -7 -27l-49 -86h-70z" />
    <glyph glyph-name="gcommaaccent" unicode="&#x123;" horiz-adv-x="815" 
d="M30 0zM630 0v101q-15 -23 -38 -44.5t-54 -38t-70 -26.5t-84 -10q-83 0 -148.5 30.5t-111 82t-70 120t-24.5 144.5q0 84 28.5 153t78 118.5t116 76.5t141.5 27q69 0 129 -16.5t106.5 -50.5t78 -86.5t44.5 -124.5h-163q-20 65 -70 94t-118 29q-41 0 -76.5 -15t-62.5 -43.5
t-42.5 -69.5t-15.5 -93q0 -49 12.5 -91.5t37.5 -74t61 -49.5t84 -18q69 0 113 33t55 83h-179v127h379v-368h-137zM349 -242l29 50q5 8 6.5 13.5t1.5 14.5v7h-46v116h135v-88q0 -16 -7 -27l-49 -86h-70z" />
    <glyph glyph-name="Hbar" unicode="&#x126;" 
d="M498 0v267h-266v-267h-174v714h174v-111h266v111h172v-714h-172zM498 422v102h-266v-102h266z" />
    <glyph glyph-name="hbar" unicode="&#x127;" 
d="M58 0zM498 0v267h-266v-267h-174v714h174v-111h266v111h172v-714h-172zM498 422v102h-266v-102h266z" />
    <glyph glyph-name="Imacron" unicode="&#x12a;" horiz-adv-x="298" 
d="M0 0zM62 0v714h173v-714h-173zM-4 838v79h307v-79h-307z" />
    <glyph glyph-name="imacron" unicode="&#x12b;" horiz-adv-x="298" 
d="M0 0zM62 0v714h173v-714h-173zM-4 838v79h307v-79h-307z" />
    <glyph glyph-name="Ibreve" unicode="&#x12c;" horiz-adv-x="298" 
d="M0 0zM62 0v714h173v-714h-173zM148 781q-83 0 -132.5 47.5t-57.5 128.5h80q4 -22 11 -43.5t19.5 -38t32 -27t47.5 -10.5q29 0 48.5 10.5t32 27t20 38t11.5 43.5h79q-8 -81 -57 -128.5t-134 -47.5z" />
    <glyph glyph-name="ibreve" unicode="&#x12d;" horiz-adv-x="298" 
d="M0 0zM62 0v714h173v-714h-173zM148 781q-83 0 -132.5 47.5t-57.5 128.5h80q4 -22 11 -43.5t19.5 -38t32 -27t47.5 -10.5q29 0 48.5 10.5t32 27t20 38t11.5 43.5h79q-8 -81 -57 -128.5t-134 -47.5z" />
    <glyph glyph-name="Iogonek" unicode="&#x12e;" horiz-adv-x="298" 
d="M163 -242q-78 0 -114.5 30t-36.5 84q0 60 41.5 91t110.5 37h-102v714h173v-714q-39 -6 -64 -13.5t-40 -16.5t-20.5 -20.5t-5.5 -26.5q0 -24 14.5 -38t55.5 -14h60v-113h-72z" />
    <glyph glyph-name="iogonek" unicode="&#x12f;" horiz-adv-x="298" 
d="M12 0zM163 -242q-78 0 -114.5 30t-36.5 84q0 60 41.5 91t110.5 37h-102v714h173v-714q-39 -6 -64 -13.5t-40 -16.5t-20.5 -20.5t-5.5 -26.5q0 -24 14.5 -38t55.5 -14h60v-113h-72z" />
    <glyph glyph-name="Idotaccent" unicode="&#x130;" horiz-adv-x="298" 
d="M62 0zM62 0v714h173v-714h-173zM76 808v136h146v-136h-146z" />
    <glyph glyph-name="dotlessi" unicode="&#x131;" horiz-adv-x="298" 
d="M62 0zM62 0v714h173v-714h-173z" />
    <glyph glyph-name="IJ" unicode="&#x132;" horiz-adv-x="794" 
d="M62 0zM62 0v714h173v-714h-173zM479 -18q-66 0 -108.5 13t-62.5 30l47 134q21 -10 46 -16t51 -6q54 0 87 28.5t33 82.5v466h174v-481q0 -62 -22 -109t-58.5 -78.5t-85 -47.5t-101.5 -16z" />
    <glyph glyph-name="ij" unicode="&#x133;" horiz-adv-x="794" 
d="M62 0zM62 0v714h173v-714h-173zM479 -18q-66 0 -108.5 13t-62.5 30l47 134q21 -10 46 -16t51 -6q54 0 87 28.5t33 82.5v466h174v-481q0 -62 -22 -109t-58.5 -78.5t-85 -47.5t-101.5 -16z" />
    <glyph glyph-name="Kcommaaccent" unicode="&#x136;" horiz-adv-x="758" 
d="M58 0zM539 0l-193 323l-114 -103v-220h-174v714h174v-290l289 290h244l-300 -271l268 -443h-194zM320 -242l29 50q5 8 6.5 13.5t1.5 14.5v7h-46v116h135v-88q0 -16 -7 -27l-49 -86h-70z" />
    <glyph glyph-name="kcommaaccent" unicode="&#x137;" horiz-adv-x="758" 
d="M58 0zM539 0l-193 323l-114 -103v-220h-174v714h174v-290l289 290h244l-300 -271l268 -443h-194zM320 -242l29 50q5 8 6.5 13.5t1.5 14.5v7h-46v116h135v-88q0 -16 -7 -27l-49 -86h-70z" />
    <glyph glyph-name="Lacute" unicode="&#x139;" horiz-adv-x="671" 
d="M58 0zM58 0v714h174v-559h414v-155h-588zM71 781l100 176h158l-172 -176h-86z" />
    <glyph glyph-name="lacute" unicode="&#x13a;" horiz-adv-x="671" 
d="M58 0zM58 0v714h174v-559h414v-155h-588zM71 781l100 176h158l-172 -176h-86z" />
    <glyph glyph-name="Lcommaaccent" unicode="&#x13b;" horiz-adv-x="671" 
d="M58 0zM58 0v714h174v-559h414v-155h-588zM295 -242l29 50q5 8 6.5 13.5t1.5 14.5v7h-46v116h135v-88q0 -16 -7 -27l-49 -86h-70z" />
    <glyph glyph-name="lcommaaccent" unicode="&#x13c;" horiz-adv-x="671" 
d="M58 0zM58 0v714h174v-559h414v-155h-588zM295 -242l29 50q5 8 6.5 13.5t1.5 14.5v7h-46v116h135v-88q0 -16 -7 -27l-49 -86h-70z" />
    <glyph glyph-name="Lcaron" unicode="&#x13d;" horiz-adv-x="671" 
d="M58 0zM58 0v714h174v-559h414v-155h-588zM401 605l31 62q5 10 7.5 17t2.5 18v12h-53v151h156v-117q0 -10 -3.5 -18.5l-6.5 -15.5l-56 -109h-78z" />
    <glyph glyph-name="lcaron" unicode="&#x13e;" horiz-adv-x="671" 
d="M58 0zM58 0v714h174v-559h414v-155h-588zM401 605l31 62q5 10 7.5 17t2.5 18v12h-53v151h156v-117q0 -10 -3.5 -18.5l-6.5 -15.5l-56 -109h-78z" />
    <glyph glyph-name="Ldot" unicode="&#x13f;" horiz-adv-x="671" 
d="M58 0zM58 0v714h174v-559h414v-155h-588zM355 344v136h146v-136h-146z" />
    <glyph glyph-name="ldot" unicode="&#x140;" horiz-adv-x="671" 
d="M58 0zM58 0v714h174v-559h414v-155h-588zM355 344v136h146v-136h-146z" />
    <glyph glyph-name="Lslash" unicode="&#x141;" horiz-adv-x="670" 
d="M231 321v-166h414v-155h-587v275l-67 -17v102l67 17v337h173v-291l144 38v-102z" />
    <glyph glyph-name="lslash" unicode="&#x142;" horiz-adv-x="670" 
d="M0 0zM231 321v-166h414v-155h-587v275l-67 -17v102l67 17v337h173v-291l144 38v-102z" />
    <glyph glyph-name="Nacute" unicode="&#x143;" horiz-adv-x="740" 
d="M55 0zM536 0l-328 495v-495h-153v714h224l250 -393v393h157v-714h-150zM295 781l100 176h158l-172 -176h-86z" />
    <glyph glyph-name="nacute" unicode="&#x144;" horiz-adv-x="740" 
d="M55 0zM536 0l-328 495v-495h-153v714h224l250 -393v393h157v-714h-150zM295 781l100 176h158l-172 -176h-86z" />
    <glyph glyph-name="Ncommaaccent" unicode="&#x145;" horiz-adv-x="740" 
d="M55 0zM536 0l-328 495v-495h-153v714h224l250 -393v393h157v-714h-150zM311 -242l29 50q5 8 6.5 13.5t1.5 14.5v7h-46v116h135v-88q0 -16 -7 -27l-49 -86h-70z" />
    <glyph glyph-name="ncommaaccent" unicode="&#x146;" horiz-adv-x="740" 
d="M55 0zM536 0l-328 495v-495h-153v714h224l250 -393v393h157v-714h-150zM311 -242l29 50q5 8 6.5 13.5t1.5 14.5v7h-46v116h135v-88q0 -16 -7 -27l-49 -86h-70z" />
    <glyph glyph-name="Ncaron" unicode="&#x147;" horiz-adv-x="740" 
d="M55 0zM536 0l-328 495v-495h-153v714h224l250 -393v393h157v-714h-150zM441 957h101l-131 -176h-82l-132 176h102l71 -106z" />
    <glyph glyph-name="ncaron" unicode="&#x148;" horiz-adv-x="740" 
d="M55 0zM536 0l-328 495v-495h-153v714h224l250 -393v393h157v-714h-150zM441 957h101l-131 -176h-82l-132 176h102l71 -106z" />
    <glyph glyph-name="Eng" unicode="&#x14a;" horiz-adv-x="740" 
d="M450 -109q19 -3 33 -3q27 0 38.5 13.5t11.5 34.5v68l-325 491v-495h-153v714h224l250 -393v393h157v-778q0 -88 -41.5 -133t-122.5 -45q-15 0 -34.5 2t-37.5 6v125z" />
    <glyph glyph-name="eng" unicode="&#x14b;" horiz-adv-x="740" 
d="M55 0zM450 -109q19 -3 33 -3q27 0 38.5 13.5t11.5 34.5v68l-325 491v-495h-153v714h224l250 -393v393h157v-778q0 -88 -41.5 -133t-122.5 -45q-15 0 -34.5 2t-37.5 6v125z" />
    <glyph glyph-name="Omacron" unicode="&#x14c;" horiz-adv-x="802" 
d="M30 0zM403 -18q-83 0 -152 28.5t-118 79.5t-76 122t-27 156q0 83 30 150.5t81 115.5t119.5 74t145.5 26q80 0 147 -26.5t115.5 -74.5t75.5 -116t27 -151q0 -81 -28 -151.5t-77.5 -122t-117 -81t-145.5 -29.5zM401 137q42 0 78.5 17t62.5 46.5t41 69t15 83.5
q0 49 -13.5 90.5t-39.5 71.5t-63.5 47t-84.5 17q-44 0 -79.5 -17.5t-61 -47.5t-39 -70t-13.5 -85q0 -47 14 -87.5t39.5 -70.5t62 -47t81.5 -17zM248 838v79h307v-79h-307z" />
    <glyph glyph-name="omacron" unicode="&#x14d;" horiz-adv-x="802" 
d="M30 0zM403 -18q-83 0 -152 28.5t-118 79.5t-76 122t-27 156q0 83 30 150.5t81 115.5t119.5 74t145.5 26q80 0 147 -26.5t115.5 -74.5t75.5 -116t27 -151q0 -81 -28 -151.5t-77.5 -122t-117 -81t-145.5 -29.5zM401 137q42 0 78.5 17t62.5 46.5t41 69t15 83.5
q0 49 -13.5 90.5t-39.5 71.5t-63.5 47t-84.5 17q-44 0 -79.5 -17.5t-61 -47.5t-39 -70t-13.5 -85q0 -47 14 -87.5t39.5 -70.5t62 -47t81.5 -17zM248 838v79h307v-79h-307z" />
    <glyph glyph-name="Obreve" unicode="&#x14e;" horiz-adv-x="802" 
d="M30 0zM403 -18q-83 0 -152 28.5t-118 79.5t-76 122t-27 156q0 83 30 150.5t81 115.5t119.5 74t145.5 26q80 0 147 -26.5t115.5 -74.5t75.5 -116t27 -151q0 -81 -28 -151.5t-77.5 -122t-117 -81t-145.5 -29.5zM401 137q42 0 78.5 17t62.5 46.5t41 69t15 83.5
q0 49 -13.5 90.5t-39.5 71.5t-63.5 47t-84.5 17q-44 0 -79.5 -17.5t-61 -47.5t-39 -70t-13.5 -85q0 -47 14 -87.5t39.5 -70.5t62 -47t81.5 -17zM400 781q-83 0 -132.5 47.5t-57.5 128.5h80q4 -22 11 -43.5t19.5 -38t32 -27t47.5 -10.5q29 0 48.5 10.5t32 27t20 38t11.5 43.5
h79q-8 -81 -57 -128.5t-134 -47.5z" />
    <glyph glyph-name="obreve" unicode="&#x14f;" horiz-adv-x="802" 
d="M30 0zM403 -18q-83 0 -152 28.5t-118 79.5t-76 122t-27 156q0 83 30 150.5t81 115.5t119.5 74t145.5 26q80 0 147 -26.5t115.5 -74.5t75.5 -116t27 -151q0 -81 -28 -151.5t-77.5 -122t-117 -81t-145.5 -29.5zM401 137q42 0 78.5 17t62.5 46.5t41 69t15 83.5
q0 49 -13.5 90.5t-39.5 71.5t-63.5 47t-84.5 17q-44 0 -79.5 -17.5t-61 -47.5t-39 -70t-13.5 -85q0 -47 14 -87.5t39.5 -70.5t62 -47t81.5 -17zM400 781q-83 0 -132.5 47.5t-57.5 128.5h80q4 -22 11 -43.5t19.5 -38t32 -27t47.5 -10.5q29 0 48.5 10.5t32 27t20 38t11.5 43.5
h79q-8 -81 -57 -128.5t-134 -47.5z" />
    <glyph glyph-name="Ohungarumlaut" unicode="&#x150;" horiz-adv-x="802" 
d="M30 0zM403 -18q-83 0 -152 28.5t-118 79.5t-76 122t-27 156q0 83 30 150.5t81 115.5t119.5 74t145.5 26q80 0 147 -26.5t115.5 -74.5t75.5 -116t27 -151q0 -81 -28 -151.5t-77.5 -122t-117 -81t-145.5 -29.5zM401 137q42 0 78.5 17t62.5 46.5t41 69t15 83.5
q0 49 -13.5 90.5t-39.5 71.5t-63.5 47t-84.5 17q-44 0 -79.5 -17.5t-61 -47.5t-39 -70t-13.5 -85q0 -47 14 -87.5t39.5 -70.5t62 -47t81.5 -17zM250 808l78 149h93l-90 -149h-81zM435 808l75 149h95l-90 -149h-80z" />
    <glyph glyph-name="ohungarumlaut" unicode="&#x151;" horiz-adv-x="802" 
d="M30 0zM403 -18q-83 0 -152 28.5t-118 79.5t-76 122t-27 156q0 83 30 150.5t81 115.5t119.5 74t145.5 26q80 0 147 -26.5t115.5 -74.5t75.5 -116t27 -151q0 -81 -28 -151.5t-77.5 -122t-117 -81t-145.5 -29.5zM401 137q42 0 78.5 17t62.5 46.5t41 69t15 83.5
q0 49 -13.5 90.5t-39.5 71.5t-63.5 47t-84.5 17q-44 0 -79.5 -17.5t-61 -47.5t-39 -70t-13.5 -85q0 -47 14 -87.5t39.5 -70.5t62 -47t81.5 -17zM250 808l78 149h93l-90 -149h-81zM435 808l75 149h95l-90 -149h-80z" />
    <glyph glyph-name="OE" unicode="&#x152;" horiz-adv-x="1060" 
d="M517 0q-54 -18 -114 -18q-83 0 -152 28.5t-118 79.5t-76 122t-27 156q0 83 30 150.5t81 115.5t119.5 74t145.5 26q67 0 129 -20h485v-146h-301q34 -60 47 -131h177v-140h-177q-7 -42 -22 -80t-37 -71h314v-146h-504zM401 137q42 0 78.5 17t62.5 46.5t41 69t15 83.5
q0 49 -13.5 90.5t-39.5 71.5t-63.5 47t-84.5 17q-44 0 -79.5 -17.5t-61 -47.5t-39 -70t-13.5 -85q0 -47 14 -87.5t39.5 -70.5t62 -47t81.5 -17z" />
    <glyph glyph-name="oe" unicode="&#x153;" horiz-adv-x="1060" 
d="M30 0zM517 0q-54 -18 -114 -18q-83 0 -152 28.5t-118 79.5t-76 122t-27 156q0 83 30 150.5t81 115.5t119.5 74t145.5 26q67 0 129 -20h485v-146h-301q34 -60 47 -131h177v-140h-177q-7 -42 -22 -80t-37 -71h314v-146h-504zM401 137q42 0 78.5 17t62.5 46.5t41 69t15 83.5
q0 49 -13.5 90.5t-39.5 71.5t-63.5 47t-84.5 17q-44 0 -79.5 -17.5t-61 -47.5t-39 -70t-13.5 -85q0 -47 14 -87.5t39.5 -70.5t62 -47t81.5 -17z" />
    <glyph glyph-name="Racute" unicode="&#x154;" horiz-adv-x="747" 
d="M58 0zM549 0q-12 16 -16.5 42.5t-7.5 56.5t-6.5 61t-14 56t-30.5 40.5t-56 15.5h-186v-272h-174v714h373q51 0 100.5 -8t88 -30.5t62.5 -63.5t24 -106q0 -62 -34.5 -107.5t-94.5 -63.5q37 -16 60 -40.5t36 -55t19 -65t9 -69.5q2 -29 5.5 -56t22.5 -49h-180zM232 573v-164
h222q37 0 57.5 21t20.5 61q0 45 -24 63.5t-62 18.5h-214zM289 781l100 176h158l-172 -176h-86z" />
    <glyph glyph-name="racute" unicode="&#x155;" horiz-adv-x="747" 
d="M58 0zM549 0q-12 16 -16.5 42.5t-7.5 56.5t-6.5 61t-14 56t-30.5 40.5t-56 15.5h-186v-272h-174v714h373q51 0 100.5 -8t88 -30.5t62.5 -63.5t24 -106q0 -62 -34.5 -107.5t-94.5 -63.5q37 -16 60 -40.5t36 -55t19 -65t9 -69.5q2 -29 5.5 -56t22.5 -49h-180zM232 573v-164
h222q37 0 57.5 21t20.5 61q0 45 -24 63.5t-62 18.5h-214zM289 781l100 176h158l-172 -176h-86z" />
    <glyph glyph-name="Rcommaaccent" unicode="&#x156;" horiz-adv-x="747" 
d="M58 0zM549 0q-12 16 -16.5 42.5t-7.5 56.5t-6.5 61t-14 56t-30.5 40.5t-56 15.5h-186v-272h-174v714h373q51 0 100.5 -8t88 -30.5t62.5 -63.5t24 -106q0 -62 -34.5 -107.5t-94.5 -63.5q37 -16 60 -40.5t36 -55t19 -65t9 -69.5q2 -29 5.5 -56t22.5 -49h-180zM232 573v-164
h222q37 0 57.5 21t20.5 61q0 45 -24 63.5t-62 18.5h-214zM315 -242l29 50q5 8 6.5 13.5t1.5 14.5v7h-46v116h135v-88q0 -16 -7 -27l-49 -86h-70z" />
    <glyph glyph-name="rcommaaccent" unicode="&#x157;" horiz-adv-x="747" 
d="M58 0zM549 0q-12 16 -16.5 42.5t-7.5 56.5t-6.5 61t-14 56t-30.5 40.5t-56 15.5h-186v-272h-174v714h373q51 0 100.5 -8t88 -30.5t62.5 -63.5t24 -106q0 -62 -34.5 -107.5t-94.5 -63.5q37 -16 60 -40.5t36 -55t19 -65t9 -69.5q2 -29 5.5 -56t22.5 -49h-180zM232 573v-164
h222q37 0 57.5 21t20.5 61q0 45 -24 63.5t-62 18.5h-214zM315 -242l29 50q5 8 6.5 13.5t1.5 14.5v7h-46v116h135v-88q0 -16 -7 -27l-49 -86h-70z" />
    <glyph glyph-name="Rcaron" unicode="&#x158;" horiz-adv-x="747" 
d="M58 0zM549 0q-12 16 -16.5 42.5t-7.5 56.5t-6.5 61t-14 56t-30.5 40.5t-56 15.5h-186v-272h-174v714h373q51 0 100.5 -8t88 -30.5t62.5 -63.5t24 -106q0 -62 -34.5 -107.5t-94.5 -63.5q37 -16 60 -40.5t36 -55t19 -65t9 -69.5q2 -29 5.5 -56t22.5 -49h-180zM232 573v-164
h222q37 0 57.5 21t20.5 61q0 45 -24 63.5t-62 18.5h-214zM435 957h101l-131 -176h-82l-132 176h102l71 -106z" />
    <glyph glyph-name="rcaron" unicode="&#x159;" horiz-adv-x="747" 
d="M58 0zM549 0q-12 16 -16.5 42.5t-7.5 56.5t-6.5 61t-14 56t-30.5 40.5t-56 15.5h-186v-272h-174v714h373q51 0 100.5 -8t88 -30.5t62.5 -63.5t24 -106q0 -62 -34.5 -107.5t-94.5 -63.5q37 -16 60 -40.5t36 -55t19 -65t9 -69.5q2 -29 5.5 -56t22.5 -49h-180zM232 573v-164
h222q37 0 57.5 21t20.5 61q0 45 -24 63.5t-62 18.5h-214zM435 957h101l-131 -176h-82l-132 176h102l71 -106z" />
    <glyph glyph-name="Sacute" unicode="&#x15a;" horiz-adv-x="678" 
d="M17 0zM484 501q-4 28 -18.5 46t-35.5 28t-45.5 14t-47.5 4q-14 0 -37 -2t-45 -9.5t-37.5 -23t-15.5 -41.5q0 -19 10.5 -32t26 -21t34 -12.5t34.5 -7.5l151 -26q97 -18 148 -64.5t51 -134.5q0 -67 -25 -112.5t-67.5 -73t-97.5 -39.5t-115 -12q-54 0 -110 13.5t-103 43.5
t-80 78t-42 118h156q8 -33 28 -54.5t46.5 -34t57 -17.5t60.5 -5q11 0 34.5 2t47.5 9.5t42 23t18 42.5q0 34 -19 47t-46 20q-37 9 -80.5 15.5t-86.5 15.5t-83.5 23t-71.5 37.5t-49.5 59.5t-18.5 89q0 63 25 106t66 70t93.5 38.5t106.5 11.5q55 0 107 -14t93 -42.5t67 -72.5
t29 -104h-155zM264 781l100 176h158l-172 -176h-86z" />
    <glyph glyph-name="sacute" unicode="&#x15b;" horiz-adv-x="678" 
d="M17 0zM484 501q-4 28 -18.5 46t-35.5 28t-45.5 14t-47.5 4q-14 0 -37 -2t-45 -9.5t-37.5 -23t-15.5 -41.5q0 -19 10.5 -32t26 -21t34 -12.5t34.5 -7.5l151 -26q97 -18 148 -64.5t51 -134.5q0 -67 -25 -112.5t-67.5 -73t-97.5 -39.5t-115 -12q-54 0 -110 13.5t-103 43.5
t-80 78t-42 118h156q8 -33 28 -54.5t46.5 -34t57 -17.5t60.5 -5q11 0 34.5 2t47.5 9.5t42 23t18 42.5q0 34 -19 47t-46 20q-37 9 -80.5 15.5t-86.5 15.5t-83.5 23t-71.5 37.5t-49.5 59.5t-18.5 89q0 63 25 106t66 70t93.5 38.5t106.5 11.5q55 0 107 -14t93 -42.5t67 -72.5
t29 -104h-155zM264 781l100 176h158l-172 -176h-86z" />
    <glyph glyph-name="Scedilla" unicode="&#x15e;" horiz-adv-x="678" 
d="M17 0zM484 501q-4 28 -18.5 46t-35.5 28t-45.5 14t-47.5 4q-14 0 -37 -2t-45 -9.5t-37.5 -23t-15.5 -41.5q0 -19 10.5 -32t26 -21t34 -12.5t34.5 -7.5l151 -26q97 -18 148 -64.5t51 -134.5q0 -67 -25 -112.5t-67.5 -73t-97.5 -39.5t-115 -12q-54 0 -110 13.5t-103 43.5
t-80 78t-42 118h156q8 -33 28 -54.5t46.5 -34t57 -17.5t60.5 -5q11 0 34.5 2t47.5 9.5t42 23t18 42.5q0 34 -19 47t-46 20q-37 9 -80.5 15.5t-86.5 15.5t-83.5 23t-71.5 37.5t-49.5 59.5t-18.5 89q0 63 25 106t66 70t93.5 38.5t106.5 11.5q55 0 107 -14t93 -42.5t67 -72.5
t29 -104h-155zM281 -242l29 50q5 8 6.5 13.5t1.5 14.5v7h-46v116h135v-88q0 -16 -7 -27l-49 -86h-70z" />
    <glyph glyph-name="scedilla" unicode="&#x15f;" horiz-adv-x="678" 
d="M17 0zM484 501q-4 28 -18.5 46t-35.5 28t-45.5 14t-47.5 4q-14 0 -37 -2t-45 -9.5t-37.5 -23t-15.5 -41.5q0 -19 10.5 -32t26 -21t34 -12.5t34.5 -7.5l151 -26q97 -18 148 -64.5t51 -134.5q0 -67 -25 -112.5t-67.5 -73t-97.5 -39.5t-115 -12q-54 0 -110 13.5t-103 43.5
t-80 78t-42 118h156q8 -33 28 -54.5t46.5 -34t57 -17.5t60.5 -5q11 0 34.5 2t47.5 9.5t42 23t18 42.5q0 34 -19 47t-46 20q-37 9 -80.5 15.5t-86.5 15.5t-83.5 23t-71.5 37.5t-49.5 59.5t-18.5 89q0 63 25 106t66 70t93.5 38.5t106.5 11.5q55 0 107 -14t93 -42.5t67 -72.5
t29 -104h-155zM281 -242l29 50q5 8 6.5 13.5t1.5 14.5v7h-46v116h135v-88q0 -16 -7 -27l-49 -86h-70z" />
    <glyph glyph-name="Scaron" unicode="&#x160;" horiz-adv-x="678" 
d="M17 0zM484 501q-4 28 -18.5 46t-35.5 28t-45.5 14t-47.5 4q-14 0 -37 -2t-45 -9.5t-37.5 -23t-15.5 -41.5q0 -19 10.5 -32t26 -21t34 -12.5t34.5 -7.5l151 -26q97 -18 148 -64.5t51 -134.5q0 -67 -25 -112.5t-67.5 -73t-97.5 -39.5t-115 -12q-54 0 -110 13.5t-103 43.5
t-80 78t-42 118h156q8 -33 28 -54.5t46.5 -34t57 -17.5t60.5 -5q11 0 34.5 2t47.5 9.5t42 23t18 42.5q0 34 -19 47t-46 20q-37 9 -80.5 15.5t-86.5 15.5t-83.5 23t-71.5 37.5t-49.5 59.5t-18.5 89q0 63 25 106t66 70t93.5 38.5t106.5 11.5q55 0 107 -14t93 -42.5t67 -72.5
t29 -104h-155zM410 957h101l-131 -176h-82l-132 176h102l71 -106z" />
    <glyph glyph-name="scaron" unicode="&#x161;" horiz-adv-x="678" 
d="M17 0zM484 501q-4 28 -18.5 46t-35.5 28t-45.5 14t-47.5 4q-14 0 -37 -2t-45 -9.5t-37.5 -23t-15.5 -41.5q0 -19 10.5 -32t26 -21t34 -12.5t34.5 -7.5l151 -26q97 -18 148 -64.5t51 -134.5q0 -67 -25 -112.5t-67.5 -73t-97.5 -39.5t-115 -12q-54 0 -110 13.5t-103 43.5
t-80 78t-42 118h156q8 -33 28 -54.5t46.5 -34t57 -17.5t60.5 -5q11 0 34.5 2t47.5 9.5t42 23t18 42.5q0 34 -19 47t-46 20q-37 9 -80.5 15.5t-86.5 15.5t-83.5 23t-71.5 37.5t-49.5 59.5t-18.5 89q0 63 25 106t66 70t93.5 38.5t106.5 11.5q55 0 107 -14t93 -42.5t67 -72.5
t29 -104h-155zM410 957h101l-131 -176h-82l-132 176h102l71 -106z" />
    <glyph glyph-name="uni0162" unicode="&#x162;" horiz-adv-x="629" 
d="M17 0zM227 0v559h-210v155h594v-155h-210v-559h-174zM256 -242l29 50q5 8 6.5 13.5t1.5 14.5v7h-46v116h135v-88q0 -16 -7 -27l-49 -86h-70z" />
    <glyph glyph-name="uni0163" unicode="&#x163;" horiz-adv-x="629" 
d="M17 0zM227 0v559h-210v155h594v-155h-210v-559h-174zM256 -242l29 50q5 8 6.5 13.5t1.5 14.5v7h-46v116h135v-88q0 -16 -7 -27l-49 -86h-70z" />
    <glyph glyph-name="Tcaron" unicode="&#x164;" horiz-adv-x="629" 
d="M17 0zM227 0v559h-210v155h594v-155h-210v-559h-174zM386 957h101l-131 -176h-82l-132 176h102l71 -106z" />
    <glyph glyph-name="tcaron" unicode="&#x165;" horiz-adv-x="629" 
d="M17 0zM227 0v559h-210v155h594v-155h-210v-559h-174zM386 957h101l-131 -176h-82l-132 176h102l71 -106z" />
    <glyph glyph-name="Tbar" unicode="&#x166;" horiz-adv-x="629" 
d="M227 0v241h-96v98h96v220h-210v155h594v-155h-210v-220h96v-98h-96v-241h-174z" />
    <glyph glyph-name="tbar" unicode="&#x167;" horiz-adv-x="629" 
d="M17 0zM227 0v241h-96v98h96v220h-210v155h594v-155h-210v-220h96v-98h-96v-241h-174z" />
    <glyph glyph-name="Utilde" unicode="&#x168;" horiz-adv-x="733" 
d="M47 0zM520 714h166v-441q0 -147 -82 -219t-243 -72q-151 0 -232.5 78t-81.5 224v430h174v-414q0 -37 7.5 -67.5t25 -52t46 -33.5t70.5 -12q44 0 73 11t46 32t24 51t7 68v417zM200 816q0 41 8.5 66t21 38t28 17t30.5 4q22 0 42 -7.5t39.5 -16t39 -16t40.5 -7.5
q17 0 31 11.5t19 36.5h34q0 -41 -8.5 -65.5t-21 -37.5t-28 -17.5t-30.5 -4.5q-20 0 -39 7.5l-39 16t-40.5 16t-42.5 7.5q-15 0 -30 -11t-19 -37h-35z" />
    <glyph glyph-name="utilde" unicode="&#x169;" horiz-adv-x="733" 
d="M47 0zM520 714h166v-441q0 -147 -82 -219t-243 -72q-151 0 -232.5 78t-81.5 224v430h174v-414q0 -37 7.5 -67.5t25 -52t46 -33.5t70.5 -12q44 0 73 11t46 32t24 51t7 68v417zM200 816q0 41 8.5 66t21 38t28 17t30.5 4q22 0 42 -7.5t39.5 -16t39 -16t40.5 -7.5
q17 0 31 11.5t19 36.5h34q0 -41 -8.5 -65.5t-21 -37.5t-28 -17.5t-30.5 -4.5q-20 0 -39 7.5l-39 16t-40.5 16t-42.5 7.5q-15 0 -30 -11t-19 -37h-35z" />
    <glyph glyph-name="Umacron" unicode="&#x16a;" horiz-adv-x="733" 
d="M47 0zM520 714h166v-441q0 -147 -82 -219t-243 -72q-151 0 -232.5 78t-81.5 224v430h174v-414q0 -37 7.5 -67.5t25 -52t46 -33.5t70.5 -12q44 0 73 11t46 32t24 51t7 68v417zM213 838v79h307v-79h-307z" />
    <glyph glyph-name="umacron" unicode="&#x16b;" horiz-adv-x="733" 
d="M47 0zM520 714h166v-441q0 -147 -82 -219t-243 -72q-151 0 -232.5 78t-81.5 224v430h174v-414q0 -37 7.5 -67.5t25 -52t46 -33.5t70.5 -12q44 0 73 11t46 32t24 51t7 68v417zM213 838v79h307v-79h-307z" />
    <glyph glyph-name="Ubreve" unicode="&#x16c;" horiz-adv-x="733" 
d="M47 0zM520 714h166v-441q0 -147 -82 -219t-243 -72q-151 0 -232.5 78t-81.5 224v430h174v-414q0 -37 7.5 -67.5t25 -52t46 -33.5t70.5 -12q44 0 73 11t46 32t24 51t7 68v417zM366 781q-83 0 -132.5 47.5t-57.5 128.5h80q4 -22 11 -43.5t19.5 -38t32 -27t47.5 -10.5
q29 0 48.5 10.5t32 27t20 38t11.5 43.5h79q-8 -81 -57 -128.5t-134 -47.5z" />
    <glyph glyph-name="ubreve" unicode="&#x16d;" horiz-adv-x="733" 
d="M47 0zM520 714h166v-441q0 -147 -82 -219t-243 -72q-151 0 -232.5 78t-81.5 224v430h174v-414q0 -37 7.5 -67.5t25 -52t46 -33.5t70.5 -12q44 0 73 11t46 32t24 51t7 68v417zM366 781q-83 0 -132.5 47.5t-57.5 128.5h80q4 -22 11 -43.5t19.5 -38t32 -27t47.5 -10.5
q29 0 48.5 10.5t32 27t20 38t11.5 43.5h79q-8 -81 -57 -128.5t-134 -47.5z" />
    <glyph glyph-name="Uring" unicode="&#x16e;" horiz-adv-x="733" 
d="M47 0zM520 714h166v-441q0 -147 -82 -219t-243 -72q-151 0 -232.5 78t-81.5 224v430h174v-414q0 -37 7.5 -67.5t25 -52t46 -33.5t70.5 -12q44 0 73 11t46 32t24 51t7 68v417zM460 868q0 -39 -26.5 -63t-67.5 -24q-39 0 -66 26t-27 63q0 38 27.5 62.5t66.5 24.5
q42 0 67.5 -24.5t25.5 -64.5zM406 871q0 20 -11 31t-28 11q-41 0 -41 -41q0 -20 10.5 -33t30.5 -13t29.5 12.5t9.5 32.5z" />
    <glyph glyph-name="uring" unicode="&#x16f;" horiz-adv-x="733" 
d="M47 0zM520 714h166v-441q0 -147 -82 -219t-243 -72q-151 0 -232.5 78t-81.5 224v430h174v-414q0 -37 7.5 -67.5t25 -52t46 -33.5t70.5 -12q44 0 73 11t46 32t24 51t7 68v417zM460 868q0 -39 -26.5 -63t-67.5 -24q-39 0 -66 26t-27 63q0 38 27.5 62.5t66.5 24.5
q42 0 67.5 -24.5t25.5 -64.5zM406 871q0 20 -11 31t-28 11q-41 0 -41 -41q0 -20 10.5 -33t30.5 -13t29.5 12.5t9.5 32.5z" />
    <glyph glyph-name="Uhungarumlaut" unicode="&#x170;" horiz-adv-x="733" 
d="M47 0zM520 714h166v-441q0 -147 -82 -219t-243 -72q-151 0 -232.5 78t-81.5 224v430h174v-414q0 -37 7.5 -67.5t25 -52t46 -33.5t70.5 -12q44 0 73 11t46 32t24 51t7 68v417zM215 808l78 149h93l-90 -149h-81zM400 808l75 149h95l-90 -149h-80z" />
    <glyph glyph-name="uhungarumlaut" unicode="&#x171;" horiz-adv-x="733" 
d="M47 0zM520 714h166v-441q0 -147 -82 -219t-243 -72q-151 0 -232.5 78t-81.5 224v430h174v-414q0 -37 7.5 -67.5t25 -52t46 -33.5t70.5 -12q44 0 73 11t46 32t24 51t7 68v417zM215 808l78 149h93l-90 -149h-81zM400 808l75 149h95l-90 -149h-80z" />
    <glyph glyph-name="Uogonek" unicode="&#x172;" horiz-adv-x="733" 
d="M427 -242q-78 0 -114.5 30t-36.5 84q0 41 19.5 68t54.5 42q-146 4 -224.5 81.5t-78.5 220.5v430h174v-414q0 -37 7.5 -67.5t25 -52t46 -33.5t70.5 -12q44 0 73 11t46 32t24 51t7 68v417h166v-441q0 -129 -63 -200t-187 -86q-38 -11 -52.5 -26.5t-14.5 -37.5
q0 -24 14.5 -38t55.5 -14h61v-113h-73z" />
    <glyph glyph-name="uogonek" unicode="&#x173;" horiz-adv-x="733" 
d="M47 0zM427 -242q-78 0 -114.5 30t-36.5 84q0 41 19.5 68t54.5 42q-146 4 -224.5 81.5t-78.5 220.5v430h174v-414q0 -37 7.5 -67.5t25 -52t46 -33.5t70.5 -12q44 0 73 11t46 32t24 51t7 68v417h166v-441q0 -129 -63 -200t-187 -86q-38 -11 -52.5 -26.5t-14.5 -37.5
q0 -24 14.5 -38t55.5 -14h61v-113h-73z" />
    <glyph glyph-name="Wcircumflex" unicode="&#x174;" horiz-adv-x="1065" 
d="M7 0zM667 0l-140 487l-147 -487h-198l-175 714h182l115 -494l134 494h184l137 -494l131 494h168l-195 -714h-196zM458 781h-102l132 176h82l131 -176h-101l-71 106z" />
    <glyph glyph-name="wcircumflex" unicode="&#x175;" horiz-adv-x="1065" 
d="M7 0zM667 0l-140 487l-147 -487h-198l-175 714h182l115 -494l134 494h184l137 -494l131 494h168l-195 -714h-196zM458 781h-102l132 176h82l131 -176h-101l-71 106z" />
    <glyph glyph-name="Ycircumflex" unicode="&#x176;" horiz-adv-x="706" 
d="M4 0zM267 0v295l-263 419h200l167 -273l166 273h165l-262 -419v-295h-173zM296 781h-102l132 176h82l131 -176h-101l-71 106z" />
    <glyph glyph-name="ycircumflex" unicode="&#x177;" horiz-adv-x="706" 
d="M4 0zM267 0v295l-263 419h200l167 -273l166 273h165l-262 -419v-295h-173zM296 781h-102l132 176h82l131 -176h-101l-71 106z" />
    <glyph glyph-name="Ydieresis" unicode="&#x178;" horiz-adv-x="706" 
d="M4 0zM267 0v295l-263 419h200l167 -273l166 273h165l-262 -419v-295h-173zM155 808v136h146v-136h-146zM403 808v136h148v-136h-148z" />
    <glyph glyph-name="Zacute" unicode="&#x179;" horiz-adv-x="662" 
d="M43 0zM43 0v85l329 486h-307v143h552v-70l-331 -503h326v-141h-569zM256 781l100 176h158l-172 -176h-86z" />
    <glyph glyph-name="zacute" unicode="&#x17a;" horiz-adv-x="662" 
d="M43 0zM43 0v85l329 486h-307v143h552v-70l-331 -503h326v-141h-569zM256 781l100 176h158l-172 -176h-86z" />
    <glyph glyph-name="Zdotaccent" unicode="&#x17b;" horiz-adv-x="662" 
d="M43 0zM43 0v85l329 486h-307v143h552v-70l-331 -503h326v-141h-569zM266 808v136h146v-136h-146z" />
    <glyph glyph-name="zdotaccent" unicode="&#x17c;" horiz-adv-x="662" 
d="M43 0zM43 0v85l329 486h-307v143h552v-70l-331 -503h326v-141h-569zM266 808v136h146v-136h-146z" />
    <glyph glyph-name="Zcaron" unicode="&#x17d;" horiz-adv-x="662" 
d="M43 0zM43 0v85l329 486h-307v143h552v-70l-331 -503h326v-141h-569zM402 957h101l-131 -176h-82l-132 176h102l71 -106z" />
    <glyph glyph-name="zcaron" unicode="&#x17e;" horiz-adv-x="662" 
d="M43 0zM43 0v85l329 486h-307v143h552v-70l-331 -503h326v-141h-569zM402 957h101l-131 -176h-82l-132 176h102l71 -106z" />
    <glyph glyph-name="florin" unicode="&#x192;" horiz-adv-x="496" 
d="M30 -143v106h33q33 0 46.5 12t18.5 46l58 395h-84v111h98l8 37q10 46 23 75t34.5 45.5t54 23t81.5 6.5h57v-105h-55q-29 0 -40 -13.5t-13 -33.5l-4 -35h110v-111h-125l-60 -411q-6 -44 -17.5 -72.5t-31.5 -45t-51.5 -23.5t-78.5 -7h-62z" />
    <glyph glyph-name="Scommaaccent" unicode="&#x218;" horiz-adv-x="678" 
d="M17 0zM484 501q-4 28 -18.5 46t-35.5 28t-45.5 14t-47.5 4q-14 0 -37 -2t-45 -9.5t-37.5 -23t-15.5 -41.5q0 -19 10.5 -32t26 -21t34 -12.5t34.5 -7.5l151 -26q97 -18 148 -64.5t51 -134.5q0 -67 -25 -112.5t-67.5 -73t-97.5 -39.5t-115 -12q-54 0 -110 13.5t-103 43.5
t-80 78t-42 118h156q8 -33 28 -54.5t46.5 -34t57 -17.5t60.5 -5q11 0 34.5 2t47.5 9.5t42 23t18 42.5q0 34 -19 47t-46 20q-37 9 -80.5 15.5t-86.5 15.5t-83.5 23t-71.5 37.5t-49.5 59.5t-18.5 89q0 63 25 106t66 70t93.5 38.5t106.5 11.5q55 0 107 -14t93 -42.5t67 -72.5
t29 -104h-155zM281 -242l29 50q5 8 6.5 13.5t1.5 14.5v7h-46v116h135v-88q0 -16 -7 -27l-49 -86h-70z" />
    <glyph glyph-name="scommaaccent" unicode="&#x219;" horiz-adv-x="678" 
d="M17 0zM484 501q-4 28 -18.5 46t-35.5 28t-45.5 14t-47.5 4q-14 0 -37 -2t-45 -9.5t-37.5 -23t-15.5 -41.5q0 -19 10.5 -32t26 -21t34 -12.5t34.5 -7.5l151 -26q97 -18 148 -64.5t51 -134.5q0 -67 -25 -112.5t-67.5 -73t-97.5 -39.5t-115 -12q-54 0 -110 13.5t-103 43.5
t-80 78t-42 118h156q8 -33 28 -54.5t46.5 -34t57 -17.5t60.5 -5q11 0 34.5 2t47.5 9.5t42 23t18 42.5q0 34 -19 47t-46 20q-37 9 -80.5 15.5t-86.5 15.5t-83.5 23t-71.5 37.5t-49.5 59.5t-18.5 89q0 63 25 106t66 70t93.5 38.5t106.5 11.5q55 0 107 -14t93 -42.5t67 -72.5
t29 -104h-155zM281 -242l29 50q5 8 6.5 13.5t1.5 14.5v7h-46v116h135v-88q0 -16 -7 -27l-49 -86h-70z" />
    <glyph glyph-name="uni021A" unicode="&#x21a;" horiz-adv-x="629" 
d="M17 0zM227 0v559h-210v155h594v-155h-210v-559h-174zM256 -242l29 50q5 8 6.5 13.5t1.5 14.5v7h-46v116h135v-88q0 -16 -7 -27l-49 -86h-70z" />
    <glyph glyph-name="uni021B" unicode="&#x21b;" horiz-adv-x="629" 
d="M17 0zM227 0v559h-210v155h594v-155h-210v-559h-174zM256 -242l29 50q5 8 6.5 13.5t1.5 14.5v7h-46v116h135v-88q0 -16 -7 -27l-49 -86h-70z" />
    <glyph glyph-name="circumflex" unicode="&#x2c6;" horiz-adv-x="462" 
d="M160 564h-102l132 176h82l131 -176h-101l-71 106z" />
    <glyph glyph-name="caron" unicode="&#x2c7;" horiz-adv-x="462" 
d="M302 740h101l-131 -176h-82l-132 176h102l71 -106z" />
    <glyph glyph-name="breve" unicode="&#x2d8;" horiz-adv-x="498" 
d="M248 564q-83 0 -132.5 47.5t-57.5 128.5h80q4 -22 11 -43.5t19.5 -38t32 -27t47.5 -10.5q29 0 48.5 10.5t32 27t20 38t11.5 43.5h79q-8 -81 -57 -128.5t-134 -47.5z" />
    <glyph glyph-name="dotaccent" unicode="&#x2d9;" horiz-adv-x="262" 
d="M58 591v136h146v-136h-146z" />
    <glyph glyph-name="ring" unicode="&#x2da;" horiz-adv-x="304" 
d="M245 651q0 -39 -26.5 -63t-67.5 -24q-39 0 -66 26t-27 63q0 38 27.5 62.5t66.5 24.5q42 0 67.5 -24.5t25.5 -64.5zM191 654q0 20 -11 31t-28 11q-41 0 -41 -41q0 -20 10.5 -33t30.5 -13t29.5 12.5t9.5 32.5z" />
    <glyph glyph-name="ogonek" unicode="&#x2db;" horiz-adv-x="279" 
d="M179 -242q-78 0 -114.5 30t-36.5 84q0 60 42 91t111 37h71q-39 -6 -64.5 -13.5t-40.5 -16.5t-20.5 -20.5t-5.5 -26.5q0 -24 14.5 -38t55.5 -14h61v-113h-73z" />
    <glyph glyph-name="tilde" unicode="&#x2dc;" horiz-adv-x="449" 
d="M58 599q0 41 8.5 66t21 38t28 17t30.5 4q22 0 42 -7.5t39.5 -16t39 -16t40.5 -7.5q17 0 31 11.5t19 36.5h34q0 -41 -8.5 -65.5t-21 -37.5t-28 -17.5t-30.5 -4.5q-20 0 -39 7.5l-39 16t-40.5 16t-42.5 7.5q-15 0 -30 -11t-19 -37h-35z" />
    <glyph glyph-name="hungarumlaut" unicode="&#x2dd;" horiz-adv-x="472" 
d="M58 591l78 149h93l-90 -149h-81zM243 591l75 149h95l-90 -149h-80z" />
    <glyph glyph-name="Delta" unicode="&#x394;" horiz-adv-x="767" 
d="M343 714h97l317 -714h-748zM253 155h252l-126 311z" />
    <glyph glyph-name="Omega" unicode="&#x3a9;" horiz-adv-x="714" 
d="M410 0v137q25 18 41 41t25 54t12 71t3 92q0 40 -5 75.5t-19.5 62t-40.5 42t-68 15.5t-68.5 -11.5t-41 -35.5t-19.5 -61t-5 -87q0 -41 3 -80t11.5 -72.5t24.5 -60.5t42 -45v-137h-245v155h129q-34 27 -60.5 54.5t-44.5 60.5t-27.5 73.5t-9.5 94.5q0 63 12.5 117t47 93.5
t95 62.5t156.5 23t156 -23t94.5 -62.5t47 -93.5t12.5 -117q0 -54 -9.5 -94.5t-27.5 -73.5t-44.5 -60.5t-60.5 -54.5h128v-155h-244z" />
    <glyph glyph-name="mu" unicode="&#x3bc;" horiz-adv-x="603" 
d="M49 -213v710h151v-300q0 -42 27 -67t69 -25q26 0 44 9t30.5 23t20 32.5t11.5 38.5v289h152v-497h-152v54q-17 -24 -50.5 -44.5t-81.5 -20.5q-20 0 -37 4t-33 11v-217h-151z" />
    <glyph glyph-name="pi" unicode="&#x3c0;" horiz-adv-x="654" 
d="M49 0v497h436v-341q0 -21 20 -30t41 -9q20 0 45.5 3t44.5 12v-97q-7 -16 -22.5 -26t-34.5 -16t-39 -8t-36 -2q-28 0 -58.5 7.5t-55.5 23.5t-41.5 42t-16.5 62v267h-131v-385h-152z" />
    <glyph glyph-name="uni0400" unicode="&#x400;" horiz-adv-x="669" 
d="M58 0zM58 0v714h571v-146h-397v-131h321v-140h-321v-151h398v-146h-572zM340 781l-173 176h159l99 -176h-85z" />
    <glyph glyph-name="uni0401" unicode="&#x401;" horiz-adv-x="669" 
d="M58 0zM58 0v714h571v-146h-397v-131h321v-140h-321v-151h398v-146h-572zM145 808v136h146v-136h-146zM393 808v136h148v-136h-148z" />
    <glyph glyph-name="uni0402" unicode="&#x402;" horiz-adv-x="790" 
d="M227 0v559h-210v155h594v-155h-210v-134q27 27 62 42t93 15q97 0 154 -63.5t57 -175.5q0 -135 -65.5 -198t-192.5 -63q-20 0 -38.5 2.5t-36.5 7.5v140q29 -22 79 -22q54 0 78 31.5t24 94.5q0 62 -29 93t-74 31t-71.5 -16.5t-39.5 -44.5v-299h-174z" />
    <glyph glyph-name="uni0403" unicode="&#x403;" horiz-adv-x="671" 
d="M58 0zM646 714v-155h-414v-559h-174v714h588zM252 781l100 176h158l-172 -176h-86z" />
    <glyph glyph-name="uni0404" unicode="&#x404;" horiz-adv-x="797" 
d="M209 305q14 -77 65.5 -122.5t132.5 -45.5q28 0 56 8.5t53 25t45 39.5t32 52h168q-14 -61 -47.5 -112.5t-81 -88.5t-105.5 -58t-120 -21q-85 0 -154.5 29.5t-119 81t-76.5 121.5t-27 151q0 76 27.5 143t77 117t119 79.5t153.5 29.5q65 0 124 -19t106.5 -54.5t80.5 -87.5
t47 -118h-174q-26 60 -74 92t-108 32q-76 0 -128 -41t-69 -110h325v-123h-328z" />
    <glyph glyph-name="uni0405" unicode="&#x405;" horiz-adv-x="678" 
d="M17 0zM484 501q-4 28 -18.5 46t-35.5 28t-45.5 14t-47.5 4q-14 0 -37 -2t-45 -9.5t-37.5 -23t-15.5 -41.5q0 -19 10.5 -32t26 -21t34 -12.5t34.5 -7.5l151 -26q97 -18 148 -64.5t51 -134.5q0 -67 -25 -112.5t-67.5 -73t-97.5 -39.5t-115 -12q-54 0 -110 13.5t-103 43.5
t-80 78t-42 118h156q8 -33 28 -54.5t46.5 -34t57 -17.5t60.5 -5q11 0 34.5 2t47.5 9.5t42 23t18 42.5q0 34 -19 47t-46 20q-37 9 -80.5 15.5t-86.5 15.5t-83.5 23t-71.5 37.5t-49.5 59.5t-18.5 89q0 63 25 106t66 70t93.5 38.5t106.5 11.5q55 0 107 -14t93 -42.5t67 -72.5
t29 -104h-155z" />
    <glyph glyph-name="uni0406" unicode="&#x406;" horiz-adv-x="298" 
d="M62 0zM62 0v714h173v-714h-173z" />
    <glyph glyph-name="uni0407" unicode="&#x407;" horiz-adv-x="298" 
d="M0 0zM62 0v714h173v-714h-173zM-49 808v136h146v-136h-146zM199 808v136h148v-136h-148z" />
    <glyph glyph-name="uni0408" unicode="&#x408;" horiz-adv-x="496" 
d="M10 0zM181 -18q-66 0 -108.5 13t-62.5 30l47 134q21 -10 46 -16t51 -6q54 0 87 28.5t33 82.5v466h174v-481q0 -62 -22 -109t-58.5 -78.5t-85 -47.5t-101.5 -16z" />
    <glyph glyph-name="uni0409" unicode="&#x409;" horiz-adv-x="1273" 
d="M779 714v-234h236q47 0 89.5 -17t74.5 -47t51 -72t19 -92q0 -45 -13.5 -90t-41 -81t-70.5 -58.5t-102 -22.5h-418v569h-197v-185q0 -79 -3 -130.5t-10 -86.5t-17.5 -58.5t-25.5 -44.5q-26 -38 -72 -60t-106 -22q-65 0 -105 12t-57 31l42 129q17 -11 33.5 -16.5t45.5 -5.5
q56 0 83 32q9 11 15 24.5t9.5 40.5t5 73.5t1.5 124.5v287h533zM985 148q42 0 66 24.5t24 76.5q0 38 -22.5 61.5t-61.5 23.5h-215v-186h209z" />
    <glyph glyph-name="uni040A" unicode="&#x40a;" horiz-adv-x="1167" 
d="M673 714v-258h236q47 0 89.5 -15t74.5 -43t51 -68t19 -90q0 -45 -13.5 -88t-41 -76.5t-70.5 -54.5t-102 -21h-418v310h-266v-310h-174v714h174v-258h266v258h175zM879 148q42 0 66 18.5t24 70.5q0 38 -22.5 55.5t-61.5 17.5h-215v-162h209z" />
    <glyph glyph-name="uni040B" unicode="&#x40b;" horiz-adv-x="801" 
d="M568 0v289q0 39 -22.5 56t-48.5 17q-37 0 -61 -21t-35 -56v-285h-174v559h-210v155h594v-155h-210v-135q27 30 61.5 44t82.5 14q97 0 147 -53.5t50 -161.5v-267h-174z" />
    <glyph glyph-name="uni040C" unicode="&#x40c;" horiz-adv-x="758" 
d="M58 0zM505 0l-273 330v-330h-174v714h174v-289l298 289h235l-358 -316l326 -398h-228zM287 781l100 176h158l-172 -176h-86z" />
    <glyph glyph-name="uni040D" unicode="&#x40d;" 
d="M58 0zM498 0v432l-266 -432h-174v714h174v-449l266 449h172v-714h-172zM362 781l-173 176h159l99 -176h-85z" />
    <glyph glyph-name="uni040E" unicode="&#x40e;" horiz-adv-x="693" 
d="M4 0zM210 714l139 -228l153 228h187l-480 -714h-187l230 343l-248 371h206zM350 781q-83 0 -132.5 47.5t-57.5 128.5h80q4 -22 11 -43.5t19.5 -38t32 -27t47.5 -10.5q29 0 48.5 10.5t32 27t20 38t11.5 43.5h79q-8 -81 -57 -128.5t-134 -47.5z" />
    <glyph glyph-name="uni040F" unicode="&#x40f;" 
d="M286 -170v170h-228v714h172v-569h266v569h174v-714h-232v-170h-152z" />
    <glyph glyph-name="uni0410" unicode="&#x410;" horiz-adv-x="756" 
d="M4 0zM557 0l-38 94h-290l-38 -94h-187l334 714h96l317 -714h-194zM374 466l-97 -243h193z" />
    <glyph glyph-name="uni0411" unicode="&#x411;" 
d="M495 714v-155h-260v-89h236q52 0 95 -16t74 -45.5t48 -70.5t17 -91q0 -45 -11.5 -89t-38 -79t-70 -57t-107.5 -22h-420v714h437zM441 148q42 0 66 22t24 74q0 38 -22.5 59t-61.5 21h-215v-176h209z" />
    <glyph glyph-name="uni0412" unicode="&#x412;" horiz-adv-x="730" 
d="M58 0zM58 0v714h431q39 0 73 -12t58.5 -35t39 -55.5t14.5 -73.5q0 -58 -32.5 -100.5t-91.5 -53.5q33 -7 61.5 -22t49.5 -37.5t32.5 -52t11.5 -65.5q0 -75 -28 -117t-71 -62t-94 -24t-97 -4h-357zM232 312v-169h196q18 0 38 4t36.5 14t27 27.5t10.5 44.5q0 24 -11 39.5
t-27 24.5t-35 12t-34 3h-201zM444 429q39 0 56.5 23t17.5 54q0 28 -16 50.5t-55 22.5h-215v-150h212z" />
    <glyph glyph-name="uni0413" unicode="&#x413;" horiz-adv-x="671" 
d="M646 714v-155h-414v-559h-174v714h588z" />
    <glyph glyph-name="uni0414" unicode="&#x414;" horiz-adv-x="931" 
d="M22 -170v288h133q28 15 50 47q8 12 14 25.5t9.5 40t5.5 72.5t2 124v287h532v-596h143v-288h-153v170h-584v-170h-152zM389 196q-3 -20 -11.5 -39.5t-20.5 -38.5h237v451h-197v-185q0 -64 -1.5 -109.5t-6.5 -78.5z" />
    <glyph glyph-name="uni0415" unicode="&#x415;" horiz-adv-x="669" 
d="M58 0zM58 0v714h571v-146h-397v-131h321v-140h-321v-151h398v-146h-572z" />
    <glyph glyph-name="uni0416" unicode="&#x416;" horiz-adv-x="1226" 
d="M973 0l-273 330v-330h-174v330l-273 -330h-228l326 398l-358 316h235l298 -289v289h174v-289l298 289h235l-358 -316l326 -398h-228z" />
    <glyph glyph-name="uni0417" unicode="&#x417;" horiz-adv-x="689" 
d="M263 314v104h78q71 0 107 18.5t36 68.5q0 25 -11 41.5t-29.5 26.5t-44 14.5t-54.5 4.5q-33 0 -60.5 -7t-47.5 -22t-31 -39.5t-11 -59.5h-136q-1 8 -1.5 18t-0.5 21q0 108 73 169.5t224 61.5q67 0 121.5 -14t93.5 -41t60 -67.5t21 -93.5q0 -52 -23.5 -94.5t-78.5 -59.5
q51 -19 79 -62.5t28 -94.5q0 -49 -20 -90.5t-58.5 -71.5t-95 -46.5t-130.5 -16.5q-68 0 -127.5 13t-104 42.5t-70 76t-25.5 113.5q0 14 1 26.5t3 26.5h140q0 -74 43 -114.5t126 -40.5q66 0 108.5 23.5t42.5 75.5q0 39 -27.5 64.5t-86.5 25.5h-111z" />
    <glyph glyph-name="uni0418" unicode="&#x418;" 
d="M498 0v432l-266 -432h-174v714h174v-449l266 449h172v-714h-172z" />
    <glyph glyph-name="uni0419" unicode="&#x419;" 
d="M58 0zM498 0v432l-266 -432h-174v714h174v-449l266 449h172v-714h-172zM370 781q-83 0 -132.5 47.5t-57.5 128.5h80q4 -22 11 -43.5t19.5 -38t32 -27t47.5 -10.5q29 0 48.5 10.5t32 27t20 38t11.5 43.5h79q-8 -81 -57 -128.5t-134 -47.5z" />
    <glyph glyph-name="uni041A" unicode="&#x41a;" horiz-adv-x="758" 
d="M505 0l-273 330v-330h-174v714h174v-289l298 289h235l-358 -316l326 -398h-228z" />
    <glyph glyph-name="uni041B" unicode="&#x41b;" horiz-adv-x="836" 
d="M173 -18q-65 0 -105 12t-57 31l42 129q17 -11 33.5 -16.5t45.5 -5.5q56 0 83 32q9 11 15 24.5t9.5 40.5t5 73.5t1.5 124.5v287h532v-714h-174v569h-197v-185q0 -79 -3 -130.5t-10 -86.5t-17.5 -58.5t-25.5 -44.5q-26 -38 -72 -60t-106 -22z" />
    <glyph glyph-name="uni041C" unicode="&#x41c;" horiz-adv-x="876" 
d="M55 0zM646 0v540l-168 -540h-98l-170 540v-540h-155v714h265l121 -446l128 446h251v-714h-174z" />
    <glyph glyph-name="uni041D" unicode="&#x41d;" 
d="M58 0zM498 0v267h-266v-267h-174v714h174v-292h266v292h172v-714h-172z" />
    <glyph glyph-name="uni041E" unicode="&#x41e;" horiz-adv-x="802" 
d="M30 0zM403 -18q-83 0 -152 28.5t-118 79.5t-76 122t-27 156q0 83 30 150.5t81 115.5t119.5 74t145.5 26q80 0 147 -26.5t115.5 -74.5t75.5 -116t27 -151q0 -81 -28 -151.5t-77.5 -122t-117 -81t-145.5 -29.5zM401 137q42 0 78.5 17t62.5 46.5t41 69t15 83.5
q0 49 -13.5 90.5t-39.5 71.5t-63.5 47t-84.5 17q-44 0 -79.5 -17.5t-61 -47.5t-39 -70t-13.5 -85q0 -47 14 -87.5t39.5 -70.5t62 -47t81.5 -17z" />
    <glyph glyph-name="uni041F" unicode="&#x41f;" 
d="M498 0v569h-266v-569h-174v714h612v-714h-172z" />
    <glyph glyph-name="uni0420" unicode="&#x420;" 
d="M58 0zM58 0v714h420q59 0 102 -22.5t70.5 -58.5t41 -81t13.5 -90q0 -50 -19 -92t-51 -72t-74.5 -47t-89.5 -17h-236v-234h-177zM232 566v-186h215q39 0 61.5 23.5t22.5 61.5q0 52 -24 76.5t-66 24.5h-209z" />
    <glyph glyph-name="uni0421" unicode="&#x421;" horiz-adv-x="797" 
d="M30 0zM407 734q70 0 133 -22t112 -63t80.5 -101t39.5 -136h-167q-18 80 -72 123.5t-124 43.5q-46 0 -83.5 -15.5t-64.5 -43.5t-42 -68t-15 -88q0 -50 14 -91.5t40 -71.5t64 -47t85 -17q33 0 65.5 12t59.5 33.5t46.5 52t27.5 68.5h162q-7 -69 -39 -127.5t-81 -101.5
t-111.5 -67.5t-129.5 -24.5q-85 0 -154.5 29.5t-119 81t-76.5 121.5t-27 151q0 76 27.5 143t77 117t119 79.5t153.5 29.5z" />
    <glyph glyph-name="uni0422" unicode="&#x422;" horiz-adv-x="629" 
d="M17 0zM227 0v559h-210v155h594v-155h-210v-559h-174z" />
    <glyph glyph-name="uni0423" unicode="&#x423;" horiz-adv-x="693" 
d="M210 714l139 -228l153 228h187l-480 -714h-187l230 343l-248 371h206z" />
    <glyph glyph-name="uni0424" unicode="&#x424;" horiz-adv-x="897" 
d="M361 0v90h-22q-72 0 -129 17t-97 50.5t-61.5 83t-21.5 114.5q0 137 79.5 203t229.5 66h22v90h174v-90h22q150 0 229.5 -66t79.5 -203q0 -65 -21.5 -114.5t-61.5 -83t-97 -50.5t-129 -17h-22v-90h-174zM546 219q36 0 63.5 6t45.5 21.5t27.5 42t9.5 66.5q0 75 -37.5 107
t-109.5 32h-10v-275h11zM361 219v275h-10q-72 0 -109.5 -32t-37.5 -107q0 -40 9.5 -66.5t27.5 -42t45.5 -21.5t63.5 -6h11z" />
    <glyph glyph-name="uni0425" unicode="&#x425;" horiz-adv-x="705" 
d="M6 0zM489 0l-143 242l-153 -242h-187l244 373l-232 341h206l129 -217l133 217h187l-223 -340l250 -374h-211z" />
    <glyph glyph-name="uni0426" unicode="&#x426;" horiz-adv-x="833" 
d="M58 0v714h172v-569h266v569h174v-596h143v-288h-153v170h-602z" />
    <glyph glyph-name="uni0427" unicode="&#x427;" horiz-adv-x="698" 
d="M229 714v-305q0 -39 29.5 -56t76.5 -17q48 0 84 21t47 56v301h174v-714h-174v274q-27 -30 -68.5 -44t-110.5 -14q-109 0 -170.5 53.5t-61.5 161.5v283h174z" />
    <glyph glyph-name="uni0428" unicode="&#x428;" horiz-adv-x="1009" 
d="M951 714v-714h-893v714h171v-569h194v569h165v-569h194v569h169z" />
    <glyph glyph-name="uni0429" unicode="&#x429;" horiz-adv-x="1114" 
d="M58 0v714h171v-569h194v569h165v-569h194v569h169v-596h143v-288h-153v170h-883z" />
    <glyph glyph-name="uni042A" unicode="&#x42a;" horiz-adv-x="898" 
d="M227 0v559h-210v155h387v-234h236q47 0 89.5 -17t74.5 -47t51 -72t19 -92q0 -45 -13.5 -90t-41 -81t-70.5 -58.5t-102 -22.5h-420zM610 148q42 0 66 24.5t24 76.5q0 38 -22.5 61.5t-61.5 23.5h-215v-186h209z" />
    <glyph glyph-name="uni042B" unicode="&#x42b;" horiz-adv-x="1027" 
d="M58 0zM235 714v-234h236q47 0 89.5 -17t74.5 -47t51 -72t19 -92q0 -45 -13.5 -90t-41 -81t-70.5 -58.5t-102 -22.5h-420v714h177zM441 148q42 0 66 24.5t24 76.5q0 38 -22.5 61.5t-61.5 23.5h-215v-186h209zM791 0v714h173v-714h-173z" />
    <glyph glyph-name="uni042C" unicode="&#x42c;" 
d="M235 714v-234h236q47 0 89.5 -17t74.5 -47t51 -72t19 -92q0 -45 -13.5 -90t-41 -81t-70.5 -58.5t-102 -22.5h-420v714h177zM441 148q42 0 66 24.5t24 76.5q0 38 -22.5 61.5t-61.5 23.5h-215v-186h209z" />
    <glyph glyph-name="uni042D" unicode="&#x42d;" horiz-adv-x="797" 
d="M260 305v123h325q-17 69 -69 110t-128 41q-60 0 -108 -32t-74 -92h-174q13 66 46.5 118t81 87.5t106.5 54.5t124 19q84 0 153.5 -29.5t119 -79.5t77 -117t27.5 -143q0 -81 -27 -151t-76.5 -121.5t-119 -81t-154.5 -29.5q-62 0 -120 21t-105.5 58t-81.5 88.5t-47 112.5
h168q12 -29 32 -52t45 -39.5t52.5 -25t56.5 -8.5q81 0 132.5 45.5t65.5 122.5h-328z" />
    <glyph glyph-name="uni042E" unicode="&#x42e;" horiz-adv-x="1100" 
d="M62 0v714h173v-286h97q10 70 43.5 126.5t83 96.5t112.5 61.5t133 21.5q80 0 147 -26.5t115.5 -74.5t75.5 -116t27 -151q0 -81 -28 -151.5t-77.5 -122t-117 -81t-145.5 -29.5q-75 0 -139 23.5t-112 66t-78.5 102t-39.5 131.5h-97v-305h-173zM699 137q42 0 78.5 17
t62.5 46.5t41 69t15 83.5q0 49 -13.5 90.5t-39.5 71.5t-63.5 47t-84.5 17q-44 0 -79.5 -17.5t-61 -47.5t-39 -70t-13.5 -85q0 -47 14 -87.5t39.5 -70.5t62 -47t81.5 -17z" />
    <glyph glyph-name="uni042F" unicode="&#x42f;" horiz-adv-x="747" 
d="M18 0q19 22 22.5 49t5.5 56q3 35 9 69.5t19 65t36 55t60 40.5q-60 18 -94.5 63.5t-34.5 107.5q0 65 24 106t62.5 63.5t88 30.5t100.5 8h373v-714h-174v272h-186q-36 0 -56 -15.5t-30.5 -40.5t-14 -56t-6.5 -61t-7.5 -56.5t-16.5 -42.5h-180zM301 573q-38 0 -62 -18.5
t-24 -63.5q0 -40 20.5 -61t57.5 -21h222v164h-214z" />
    <glyph glyph-name="uni0430" unicode="&#x430;" horiz-adv-x="756" 
d="M4 0zM557 0l-38 94h-290l-38 -94h-187l334 714h96l317 -714h-194zM374 466l-97 -243h193z" />
    <glyph glyph-name="uni0431" unicode="&#x431;" 
d="M58 0zM495 714v-155h-260v-89h236q52 0 95 -16t74 -45.5t48 -70.5t17 -91q0 -45 -11.5 -89t-38 -79t-70 -57t-107.5 -22h-420v714h437zM441 148q42 0 66 22t24 74q0 38 -22.5 59t-61.5 21h-215v-176h209z" />
    <glyph glyph-name="uni0432" unicode="&#x432;" horiz-adv-x="730" 
d="M58 0zM58 0v714h431q39 0 73 -12t58.5 -35t39 -55.5t14.5 -73.5q0 -58 -32.5 -100.5t-91.5 -53.5q33 -7 61.5 -22t49.5 -37.5t32.5 -52t11.5 -65.5q0 -75 -28 -117t-71 -62t-94 -24t-97 -4h-357zM232 312v-169h196q18 0 38 4t36.5 14t27 27.5t10.5 44.5q0 24 -11 39.5
t-27 24.5t-35 12t-34 3h-201zM444 429q39 0 56.5 23t17.5 54q0 28 -16 50.5t-55 22.5h-215v-150h212z" />
    <glyph glyph-name="uni0433" unicode="&#x433;" horiz-adv-x="671" 
d="M58 0zM646 714v-155h-414v-559h-174v714h588z" />
    <glyph glyph-name="uni0434" unicode="&#x434;" horiz-adv-x="931" 
d="M22 0zM22 -170v288h133q28 15 50 47q8 12 14 25.5t9.5 40t5.5 72.5t2 124v287h532v-596h143v-288h-153v170h-584v-170h-152zM389 196q-3 -20 -11.5 -39.5t-20.5 -38.5h237v451h-197v-185q0 -64 -1.5 -109.5t-6.5 -78.5z" />
    <glyph glyph-name="uni0435" unicode="&#x435;" horiz-adv-x="669" 
d="M58 0zM58 0v714h571v-146h-397v-131h321v-140h-321v-151h398v-146h-572z" />
    <glyph glyph-name="uni0436" unicode="&#x436;" horiz-adv-x="1226" 
d="M0 0zM973 0l-273 330v-330h-174v330l-273 -330h-228l326 398l-358 316h235l298 -289v289h174v-289l298 289h235l-358 -316l326 -398h-228z" />
    <glyph glyph-name="uni0437" unicode="&#x437;" horiz-adv-x="689" 
d="M24 0zM263 314v104h78q71 0 107 18.5t36 68.5q0 25 -11 41.5t-29.5 26.5t-44 14.5t-54.5 4.5q-33 0 -60.5 -7t-47.5 -22t-31 -39.5t-11 -59.5h-136q-1 8 -1.5 18t-0.5 21q0 108 73 169.5t224 61.5q67 0 121.5 -14t93.5 -41t60 -67.5t21 -93.5q0 -52 -23.5 -94.5
t-78.5 -59.5q51 -19 79 -62.5t28 -94.5q0 -49 -20 -90.5t-58.5 -71.5t-95 -46.5t-130.5 -16.5q-68 0 -127.5 13t-104 42.5t-70 76t-25.5 113.5q0 14 1 26.5t3 26.5h140q0 -74 43 -114.5t126 -40.5q66 0 108.5 23.5t42.5 75.5q0 39 -27.5 64.5t-86.5 25.5h-111z" />
    <glyph glyph-name="uni0438" unicode="&#x438;" 
d="M58 0zM498 0v432l-266 -432h-174v714h174v-449l266 449h172v-714h-172z" />
    <glyph glyph-name="uni0439" unicode="&#x439;" 
d="M58 0zM498 0v432l-266 -432h-174v714h174v-449l266 449h172v-714h-172zM370 781q-83 0 -132.5 47.5t-57.5 128.5h80q4 -22 11 -43.5t19.5 -38t32 -27t47.5 -10.5q29 0 48.5 10.5t32 27t20 38t11.5 43.5h79q-8 -81 -57 -128.5t-134 -47.5z" />
    <glyph glyph-name="uni043A" unicode="&#x43a;" horiz-adv-x="758" 
d="M58 0zM505 0l-273 330v-330h-174v714h174v-289l298 289h235l-358 -316l326 -398h-228z" />
    <glyph glyph-name="uni043B" unicode="&#x43b;" horiz-adv-x="836" 
d="M11 0zM173 -18q-65 0 -105 12t-57 31l42 129q17 -11 33.5 -16.5t45.5 -5.5q56 0 83 32q9 11 15 24.5t9.5 40.5t5 73.5t1.5 124.5v287h532v-714h-174v569h-197v-185q0 -79 -3 -130.5t-10 -86.5t-17.5 -58.5t-25.5 -44.5q-26 -38 -72 -60t-106 -22z" />
    <glyph glyph-name="uni043C" unicode="&#x43c;" horiz-adv-x="876" 
d="M55 0zM646 0v540l-168 -540h-98l-170 540v-540h-155v714h265l121 -446l128 446h251v-714h-174z" />
    <glyph glyph-name="uni043D" unicode="&#x43d;" 
d="M58 0zM498 0v267h-266v-267h-174v714h174v-292h266v292h172v-714h-172z" />
    <glyph glyph-name="uni043E" unicode="&#x43e;" horiz-adv-x="802" 
d="M30 0zM403 -18q-83 0 -152 28.5t-118 79.5t-76 122t-27 156q0 83 30 150.5t81 115.5t119.5 74t145.5 26q80 0 147 -26.5t115.5 -74.5t75.5 -116t27 -151q0 -81 -28 -151.5t-77.5 -122t-117 -81t-145.5 -29.5zM401 137q42 0 78.5 17t62.5 46.5t41 69t15 83.5
q0 49 -13.5 90.5t-39.5 71.5t-63.5 47t-84.5 17q-44 0 -79.5 -17.5t-61 -47.5t-39 -70t-13.5 -85q0 -47 14 -87.5t39.5 -70.5t62 -47t81.5 -17z" />
    <glyph glyph-name="uni043F" unicode="&#x43f;" 
d="M58 0zM498 0v569h-266v-569h-174v714h612v-714h-172z" />
    <glyph glyph-name="uni0440" unicode="&#x440;" 
d="M58 0zM58 0v714h420q59 0 102 -22.5t70.5 -58.5t41 -81t13.5 -90q0 -50 -19 -92t-51 -72t-74.5 -47t-89.5 -17h-236v-234h-177zM232 566v-186h215q39 0 61.5 23.5t22.5 61.5q0 52 -24 76.5t-66 24.5h-209z" />
    <glyph glyph-name="uni0441" unicode="&#x441;" horiz-adv-x="797" 
d="M30 0zM407 734q70 0 133 -22t112 -63t80.5 -101t39.5 -136h-167q-18 80 -72 123.5t-124 43.5q-46 0 -83.5 -15.5t-64.5 -43.5t-42 -68t-15 -88q0 -50 14 -91.5t40 -71.5t64 -47t85 -17q33 0 65.5 12t59.5 33.5t46.5 52t27.5 68.5h162q-7 -69 -39 -127.5t-81 -101.5
t-111.5 -67.5t-129.5 -24.5q-85 0 -154.5 29.5t-119 81t-76.5 121.5t-27 151q0 76 27.5 143t77 117t119 79.5t153.5 29.5z" />
    <glyph glyph-name="uni0442" unicode="&#x442;" horiz-adv-x="629" 
d="M17 0zM227 0v559h-210v155h594v-155h-210v-559h-174z" />
    <glyph glyph-name="uni0443" unicode="&#x443;" horiz-adv-x="693" 
d="M4 0zM210 714l139 -228l153 228h187l-480 -714h-187l230 343l-248 371h206z" />
    <glyph glyph-name="uni0444" unicode="&#x444;" horiz-adv-x="897" 
d="M30 0zM361 0v90h-22q-72 0 -129 17t-97 50.5t-61.5 83t-21.5 114.5q0 137 79.5 203t229.5 66h22v90h174v-90h22q150 0 229.5 -66t79.5 -203q0 -65 -21.5 -114.5t-61.5 -83t-97 -50.5t-129 -17h-22v-90h-174zM546 219q36 0 63.5 6t45.5 21.5t27.5 42t9.5 66.5
q0 75 -37.5 107t-109.5 32h-10v-275h11zM361 219v275h-10q-72 0 -109.5 -32t-37.5 -107q0 -40 9.5 -66.5t27.5 -42t45.5 -21.5t63.5 -6h11z" />
    <glyph glyph-name="uni0445" unicode="&#x445;" horiz-adv-x="705" 
d="M6 0zM489 0l-143 242l-153 -242h-187l244 373l-232 341h206l129 -217l133 217h187l-223 -340l250 -374h-211z" />
    <glyph glyph-name="uni0446" unicode="&#x446;" horiz-adv-x="833" 
d="M58 0zM58 0v714h172v-569h266v569h174v-596h143v-288h-153v170h-602z" />
    <glyph glyph-name="uni0447" unicode="&#x447;" horiz-adv-x="698" 
d="M55 0zM229 714v-305q0 -39 29.5 -56t76.5 -17q48 0 84 21t47 56v301h174v-714h-174v274q-27 -30 -68.5 -44t-110.5 -14q-109 0 -170.5 53.5t-61.5 161.5v283h174z" />
    <glyph glyph-name="uni0448" unicode="&#x448;" horiz-adv-x="1009" 
d="M58 0zM951 714v-714h-893v714h171v-569h194v569h165v-569h194v569h169z" />
    <glyph glyph-name="uni0449" unicode="&#x449;" horiz-adv-x="1114" 
d="M58 0zM58 0v714h171v-569h194v569h165v-569h194v569h169v-596h143v-288h-153v170h-883z" />
    <glyph glyph-name="uni044A" unicode="&#x44a;" horiz-adv-x="898" 
d="M17 0zM227 0v559h-210v155h387v-234h236q47 0 89.5 -17t74.5 -47t51 -72t19 -92q0 -45 -13.5 -90t-41 -81t-70.5 -58.5t-102 -22.5h-420zM610 148q42 0 66 24.5t24 76.5q0 38 -22.5 61.5t-61.5 23.5h-215v-186h209z" />
    <glyph glyph-name="uni044B" unicode="&#x44b;" horiz-adv-x="1027" 
d="M58 0zM235 714v-234h236q47 0 89.5 -17t74.5 -47t51 -72t19 -92q0 -45 -13.5 -90t-41 -81t-70.5 -58.5t-102 -22.5h-420v714h177zM441 148q42 0 66 24.5t24 76.5q0 38 -22.5 61.5t-61.5 23.5h-215v-186h209zM791 0v714h173v-714h-173z" />
    <glyph glyph-name="uni044C" unicode="&#x44c;" 
d="M58 0zM235 714v-234h236q47 0 89.5 -17t74.5 -47t51 -72t19 -92q0 -45 -13.5 -90t-41 -81t-70.5 -58.5t-102 -22.5h-420v714h177zM441 148q42 0 66 24.5t24 76.5q0 38 -22.5 61.5t-61.5 23.5h-215v-186h209z" />
    <glyph glyph-name="uni044D" unicode="&#x44d;" horiz-adv-x="797" 
d="M32 0zM260 305v123h325q-17 69 -69 110t-128 41q-60 0 -108 -32t-74 -92h-174q13 66 46.5 118t81 87.5t106.5 54.5t124 19q84 0 153.5 -29.5t119 -79.5t77 -117t27.5 -143q0 -81 -27 -151t-76.5 -121.5t-119 -81t-154.5 -29.5q-62 0 -120 21t-105.5 58t-81.5 88.5
t-47 112.5h168q12 -29 32 -52t45 -39.5t52.5 -25t56.5 -8.5q81 0 132.5 45.5t65.5 122.5h-328z" />
    <glyph glyph-name="uni044E" unicode="&#x44e;" horiz-adv-x="1100" 
d="M62 0zM62 0v714h173v-286h97q10 70 43.5 126.5t83 96.5t112.5 61.5t133 21.5q80 0 147 -26.5t115.5 -74.5t75.5 -116t27 -151q0 -81 -28 -151.5t-77.5 -122t-117 -81t-145.5 -29.5q-75 0 -139 23.5t-112 66t-78.5 102t-39.5 131.5h-97v-305h-173zM699 137q42 0 78.5 17
t62.5 46.5t41 69t15 83.5q0 49 -13.5 90.5t-39.5 71.5t-63.5 47t-84.5 17q-44 0 -79.5 -17.5t-61 -47.5t-39 -70t-13.5 -85q0 -47 14 -87.5t39.5 -70.5t62 -47t81.5 -17z" />
    <glyph glyph-name="uni044F" unicode="&#x44f;" horiz-adv-x="747" 
d="M18 0zM18 0q19 22 22.5 49t5.5 56q3 35 9 69.5t19 65t36 55t60 40.5q-60 18 -94.5 63.5t-34.5 107.5q0 65 24 106t62.5 63.5t88 30.5t100.5 8h373v-714h-174v272h-186q-36 0 -56 -15.5t-30.5 -40.5t-14 -56t-6.5 -61t-7.5 -56.5t-16.5 -42.5h-180zM301 573
q-38 0 -62 -18.5t-24 -63.5q0 -40 20.5 -61t57.5 -21h222v164h-214z" />
    <glyph glyph-name="uni0450" unicode="&#x450;" horiz-adv-x="669" 
d="M58 0zM58 0v714h571v-146h-397v-131h321v-140h-321v-151h398v-146h-572zM340 781l-173 176h159l99 -176h-85z" />
    <glyph glyph-name="uni0451" unicode="&#x451;" horiz-adv-x="669" 
d="M58 0zM58 0v714h571v-146h-397v-131h321v-140h-321v-151h398v-146h-572zM145 808v136h146v-136h-146zM393 808v136h148v-136h-148z" />
    <glyph glyph-name="uni0452" unicode="&#x452;" horiz-adv-x="790" 
d="M17 0zM227 0v559h-210v155h594v-155h-210v-134q27 27 62 42t93 15q97 0 154 -63.5t57 -175.5q0 -135 -65.5 -198t-192.5 -63q-20 0 -38.5 2.5t-36.5 7.5v140q29 -22 79 -22q54 0 78 31.5t24 94.5q0 62 -29 93t-74 31t-71.5 -16.5t-39.5 -44.5v-299h-174z" />
    <glyph glyph-name="uni0453" unicode="&#x453;" horiz-adv-x="671" 
d="M58 0zM646 714v-155h-414v-559h-174v714h588zM252 781l100 176h158l-172 -176h-86z" />
    <glyph glyph-name="uni0454" unicode="&#x454;" horiz-adv-x="797" 
d="M30 0zM209 305q14 -77 65.5 -122.5t132.5 -45.5q28 0 56 8.5t53 25t45 39.5t32 52h168q-14 -61 -47.5 -112.5t-81 -88.5t-105.5 -58t-120 -21q-85 0 -154.5 29.5t-119 81t-76.5 121.5t-27 151q0 76 27.5 143t77 117t119 79.5t153.5 29.5q65 0 124 -19t106.5 -54.5
t80.5 -87.5t47 -118h-174q-26 60 -74 92t-108 32q-76 0 -128 -41t-69 -110h325v-123h-328z" />
    <glyph glyph-name="uni0455" unicode="&#x455;" horiz-adv-x="678" 
d="M17 0zM484 501q-4 28 -18.5 46t-35.5 28t-45.5 14t-47.5 4q-14 0 -37 -2t-45 -9.5t-37.5 -23t-15.5 -41.5q0 -19 10.5 -32t26 -21t34 -12.5t34.5 -7.5l151 -26q97 -18 148 -64.5t51 -134.5q0 -67 -25 -112.5t-67.5 -73t-97.5 -39.5t-115 -12q-54 0 -110 13.5t-103 43.5
t-80 78t-42 118h156q8 -33 28 -54.5t46.5 -34t57 -17.5t60.5 -5q11 0 34.5 2t47.5 9.5t42 23t18 42.5q0 34 -19 47t-46 20q-37 9 -80.5 15.5t-86.5 15.5t-83.5 23t-71.5 37.5t-49.5 59.5t-18.5 89q0 63 25 106t66 70t93.5 38.5t106.5 11.5q55 0 107 -14t93 -42.5t67 -72.5
t29 -104h-155z" />
    <glyph glyph-name="uni0456" unicode="&#x456;" horiz-adv-x="298" 
d="M62 0zM62 0v714h173v-714h-173z" />
    <glyph glyph-name="uni0457" unicode="&#x457;" horiz-adv-x="298" 
d="M0 0zM62 0v714h173v-714h-173zM-49 808v136h146v-136h-146zM199 808v136h148v-136h-148z" />
    <glyph glyph-name="uni0458" unicode="&#x458;" horiz-adv-x="496" 
d="M10 0zM181 -18q-66 0 -108.5 13t-62.5 30l47 134q21 -10 46 -16t51 -6q54 0 87 28.5t33 82.5v466h174v-481q0 -62 -22 -109t-58.5 -78.5t-85 -47.5t-101.5 -16z" />
    <glyph glyph-name="uni0459" unicode="&#x459;" horiz-adv-x="1273" 
d="M11 0zM779 714v-234h236q47 0 89.5 -17t74.5 -47t51 -72t19 -92q0 -45 -13.5 -90t-41 -81t-70.5 -58.5t-102 -22.5h-418v569h-197v-185q0 -79 -3 -130.5t-10 -86.5t-17.5 -58.5t-25.5 -44.5q-26 -38 -72 -60t-106 -22q-65 0 -105 12t-57 31l42 129q17 -11 33.5 -16.5
t45.5 -5.5q56 0 83 32q9 11 15 24.5t9.5 40.5t5 73.5t1.5 124.5v287h533zM985 148q42 0 66 24.5t24 76.5q0 38 -22.5 61.5t-61.5 23.5h-215v-186h209z" />
    <glyph glyph-name="uni045A" unicode="&#x45a;" horiz-adv-x="1167" 
d="M58 0zM673 714v-258h236q47 0 89.5 -15t74.5 -43t51 -68t19 -90q0 -45 -13.5 -88t-41 -76.5t-70.5 -54.5t-102 -21h-418v310h-266v-310h-174v714h174v-258h266v258h175zM879 148q42 0 66 18.5t24 70.5q0 38 -22.5 55.5t-61.5 17.5h-215v-162h209z" />
    <glyph glyph-name="uni045B" unicode="&#x45b;" horiz-adv-x="801" 
d="M17 0zM568 0v289q0 39 -22.5 56t-48.5 17q-37 0 -61 -21t-35 -56v-285h-174v559h-210v155h594v-155h-210v-135q27 30 61.5 44t82.5 14q97 0 147 -53.5t50 -161.5v-267h-174z" />
    <glyph glyph-name="uni045C" unicode="&#x45c;" horiz-adv-x="758" 
d="M58 0zM505 0l-273 330v-330h-174v714h174v-289l298 289h235l-358 -316l326 -398h-228zM287 781l100 176h158l-172 -176h-86z" />
    <glyph glyph-name="uni045D" unicode="&#x45d;" 
d="M58 0zM498 0v432l-266 -432h-174v714h174v-449l266 449h172v-714h-172zM362 781l-173 176h159l99 -176h-85z" />
    <glyph glyph-name="uni045E" unicode="&#x45e;" horiz-adv-x="693" 
d="M4 0zM210 714l139 -228l153 228h187l-480 -714h-187l230 343l-248 371h206zM350 781q-83 0 -132.5 47.5t-57.5 128.5h80q4 -22 11 -43.5t19.5 -38t32 -27t47.5 -10.5q29 0 48.5 10.5t32 27t20 38t11.5 43.5h79q-8 -81 -57 -128.5t-134 -47.5z" />
    <glyph glyph-name="uni045F" unicode="&#x45f;" 
d="M58 0zM286 -170v170h-228v714h172v-569h266v569h174v-714h-232v-170h-152z" />
    <glyph glyph-name="Wgrave" unicode="&#x1e80;" horiz-adv-x="1065" 
d="M7 0zM667 0l-140 487l-147 -487h-198l-175 714h182l115 -494l134 494h184l137 -494l131 494h168l-195 -714h-196zM522 781l-173 176h159l99 -176h-85z" />
    <glyph glyph-name="wgrave" unicode="&#x1e81;" horiz-adv-x="1065" 
d="M7 0zM667 0l-140 487l-147 -487h-198l-175 714h182l115 -494l134 494h184l137 -494l131 494h168l-195 -714h-196zM522 781l-173 176h159l99 -176h-85z" />
    <glyph glyph-name="Wacute" unicode="&#x1e82;" horiz-adv-x="1065" 
d="M7 0zM667 0l-140 487l-147 -487h-198l-175 714h182l115 -494l134 494h184l137 -494l131 494h168l-195 -714h-196zM452 781l100 176h158l-172 -176h-86z" />
    <glyph glyph-name="wacute" unicode="&#x1e83;" horiz-adv-x="1065" 
d="M7 0zM667 0l-140 487l-147 -487h-198l-175 714h182l115 -494l134 494h184l137 -494l131 494h168l-195 -714h-196zM452 781l100 176h158l-172 -176h-86z" />
    <glyph glyph-name="Wdieresis" unicode="&#x1e84;" horiz-adv-x="1065" 
d="M7 0zM667 0l-140 487l-147 -487h-198l-175 714h182l115 -494l134 494h184l137 -494l131 494h168l-195 -714h-196zM334 808v136h146v-136h-146zM582 808v136h148v-136h-148z" />
    <glyph glyph-name="wdieresis" unicode="&#x1e85;" horiz-adv-x="1065" 
d="M7 0zM667 0l-140 487l-147 -487h-198l-175 714h182l115 -494l134 494h184l137 -494l131 494h168l-195 -714h-196zM334 808v136h146v-136h-146zM582 808v136h148v-136h-148z" />
    <glyph glyph-name="Ygrave" unicode="&#x1ef2;" horiz-adv-x="706" 
d="M4 0zM267 0v295l-263 419h200l167 -273l166 273h165l-262 -419v-295h-173zM355 781l-173 176h159l99 -176h-85z" />
    <glyph glyph-name="ygrave" unicode="&#x1ef3;" horiz-adv-x="706" 
d="M4 0zM267 0v295l-263 419h200l167 -273l166 273h165l-262 -419v-295h-173zM355 781l-173 176h159l99 -176h-85z" />
    <glyph glyph-name="endash" unicode="&#x2013;" horiz-adv-x="575" 
d="M21 241v98h532v-98h-532z" />
    <glyph glyph-name="emdash" unicode="&#x2014;" horiz-adv-x="865" 
d="M2 241v98h861v-98h-861z" />
    <glyph glyph-name="quoteleft" unicode="&#x2018;" horiz-adv-x="274" 
d="M203 766l-33 -63q-5 -9 -7 -16.5t-2 -18.5v-12h53v-151h-156v117q0 10 3 18.5t6 15.5l57 110h79z" />
    <glyph glyph-name="quoteright" unicode="&#x2019;" horiz-adv-x="274" 
d="M71 474l31 62q5 10 7.5 17t2.5 18v12h-53v151h156v-117q0 -10 -3.5 -18.5l-6.5 -15.5l-56 -109h-78z" />
    <glyph glyph-name="quotesinglbase" unicode="&#x201a;" horiz-adv-x="274" 
d="M71 -111l31 64q5 10 7.5 16.5t2.5 17.5v13h-53v151h156v-117q0 -10 -3.5 -18.5l-6.5 -15.5l-56 -111h-78z" />
    <glyph glyph-name="quotedblleft" unicode="&#x201c;" horiz-adv-x="493" 
d="M58 505zM203 766l-33 -63q-5 -9 -7 -16.5t-2 -18.5v-12h53v-151h-156v117q0 10 3 18.5t6 15.5l57 110h79zM422 766l-33 -63q-5 -9 -7 -16.5t-2 -18.5v-12h53v-151h-156v117q0 10 3 18.5t6 15.5l57 110h79z" />
    <glyph glyph-name="quotedblright" unicode="&#x201d;" horiz-adv-x="493" 
d="M59 474zM71 474l31 62q5 10 7.5 17t2.5 18v12h-53v151h156v-117q0 -10 -3.5 -18.5l-6.5 -15.5l-56 -109h-78zM290 474l31 62q5 10 7.5 17t2.5 18v12h-53v151h156v-117q0 -10 -3.5 -18.5l-6.5 -15.5l-56 -109h-78z" />
    <glyph glyph-name="quotedblbase" unicode="&#x201e;" horiz-adv-x="493" 
d="M59 0zM71 -111l31 64q5 10 7.5 16.5t2.5 17.5v13h-53v151h156v-117q0 -10 -3.5 -18.5l-6.5 -15.5l-56 -111h-78zM290 -111l31 64q5 10 7.5 16.5t2.5 17.5v13h-53v151h156v-117q0 -10 -3.5 -18.5l-6.5 -15.5l-56 -111h-78z" />
    <glyph glyph-name="dagger" unicode="&#x2020;" horiz-adv-x="482" 
d="M241 710q11 0 20 -7.5t9 -29.5q0 -23 -4.5 -42.5t-4.5 -45.5v-43h40q21 0 43 5t43 5t28.5 -9.5t7.5 -20.5q0 -10 -7.5 -19.5t-28.5 -9.5t-44 5t-44 5h-38v-33q0 -31 9 -42t35 -19q-3 -86 -7 -150t-11 -113.5t-18 -87t-28 -69.5q-17 32 -28 69.5t-18.5 87t-11.5 113.5
t-7 150q25 7 35 18.5t10 42.5v33h-39q-20 0 -43.5 -5t-44.5 -5t-28.5 9.5t-7.5 19.5q0 11 7.5 20.5t28.5 9.5t44 -5t43 -5h40v43q0 26 -5 45.5t-5 42.5q0 22 9.5 29.5t20.5 7.5z" />
    <glyph glyph-name="daggerdbl" unicode="&#x2021;" horiz-adv-x="482" 
d="M173 347q13 4 22 16t15 29.5t8.5 37.5t2.5 39v33h-40q-20 0 -40 -5t-43 -5q-24 0 -32 10t-8 21t8 20.5t32 9.5q23 0 43 -5t39 -5h41v42q0 20 -5.5 42t-5.5 44q0 23 10 31t21 8t20.5 -8t9.5 -31q0 -22 -5 -44t-5 -42v-42h42q19 0 38.5 5t42.5 5t31.5 -9.5t8.5 -20.5
t-8.5 -21t-31.5 -10t-43 5t-39 5h-41v-33q0 -19 2.5 -39t8 -37.5t14.5 -29.5t23 -16q-14 -4 -23 -16.5t-14.5 -29.5t-8 -37.5t-2.5 -39.5v-33h41q19 0 39 5t43 5q24 0 32 -10.5t8 -20.5q0 -11 -8 -21t-32 -10q-23 0 -42.5 5t-38.5 5h-42v-43q0 -21 5 -42.5t5 -41.5
q0 -23 -9.5 -30.5t-20.5 -7.5t-21 7.5t-10 30.5q0 20 5.5 41.5t5.5 42.5v43h-41q-19 0 -39 -5t-43 -5q-24 0 -32 10t-8 21q0 10 8 20.5t32 10.5q23 0 43 -5t40 -5h40v33q0 19 -2.5 39.5t-8.5 37.5t-15 29.5t-22 16.5z" />
    <glyph glyph-name="bullet" unicode="&#x2022;" horiz-adv-x="384" 
d="M191 204q-28 0 -52.5 10t-42.5 28.5t-28 43.5t-10 55q0 31 10 56.5t28 43.5t42.5 27.5t52.5 9.5q27 0 51.5 -9.5t42.5 -27.5t28.5 -43.5t10.5 -56.5q0 -30 -10.5 -55t-28.5 -43.5t-42.5 -28.5t-51.5 -10z" />
    <glyph glyph-name="ellipsis" unicode="&#x2026;" horiz-adv-x="1366" 
d="M58 0zM58 0v171h156v-171h-156zM604 0v171h156v-171h-156zM1151 0v171h156v-171h-156z" />
    <glyph glyph-name="perthousand" unicode="&#x2030;" horiz-adv-x="1028" 
d="M28 0zM163 358q-28 0 -52.5 12t-43 36.5t-29 60.5t-10.5 84t12 83t32 57t45.5 32.5t51.5 10.5q27 0 51 -12t42 -35.5t28.5 -58t10.5 -79.5q0 -44 -10.5 -79.5t-29 -60.5t-44 -38t-54.5 -13zM163 650q-17 0 -26.5 -24.5t-9.5 -80.5q0 -55 10 -79t28 -24q8 0 14.5 2.5
t11.5 11.5t8 25t3 43q0 38 -2.5 62.5t-7.5 38.5t-12 19.5t-17 5.5zM52 -20l485 754h114l-483 -754h-116zM543 -18q-28 0 -52.5 12t-43 36.5t-29 60.5t-10.5 84t12 83t32 57t45.5 32.5t51.5 10.5q27 0 51 -12t42 -35.5t28.5 -58t10.5 -79.5q0 -44 -10.5 -79.5t-29 -60.5
t-44 -38t-54.5 -13zM543 274q-17 0 -26.5 -24.5t-9.5 -80.5q0 -55 10 -79t28 -24q8 0 14.5 2.5t11.5 11.5t8 25t3 43q0 38 -2.5 62.5t-7.5 38.5t-12 19.5t-17 5.5zM862 -18q-28 0 -52.5 12t-43 36.5t-29 60.5t-10.5 84t12 83t32 57t45.5 32.5t51.5 10.5q27 0 51 -12
t42 -35.5t28.5 -58t10.5 -79.5q0 -44 -10.5 -79.5t-29 -60.5t-44 -38t-54.5 -13zM862 274q-17 0 -26.5 -24.5t-9.5 -80.5q0 -55 10 -79t28 -24q8 0 14.5 2.5t11.5 11.5t8 25t3 43q0 38 -2.5 62.5t-7.5 38.5t-12 19.5t-17 5.5z" />
    <glyph glyph-name="guilsinglleft" unicode="&#x2039;" horiz-adv-x="263" 
d="M109 303l132 -93v-127l-219 168v105l219 168v-128z" />
    <glyph glyph-name="guilsinglright" unicode="&#x203a;" horiz-adv-x="263" 
d="M22 396v128l219 -168v-105l-219 -168v127l132 93z" />
    <glyph glyph-name="fraction" unicode="&#x2044;" horiz-adv-x="217" 
d="M-191 -20l485 754h114l-483 -754h-116z" />
    <glyph glyph-name="zerosuperior" unicode="&#x2070;" horiz-adv-x="337" 
d="M32 358zM167 358q-28 0 -52.5 12t-43 36.5t-29 60.5t-10.5 84t12 83t32 57t45.5 32.5t51.5 10.5q27 0 51 -12t42 -35.5t28.5 -58t10.5 -79.5q0 -44 -10.5 -79.5t-29 -60.5t-44 -38t-54.5 -13zM167 650q-17 0 -26.5 -24.5t-9.5 -80.5q0 -55 10 -79t28 -24q8 0 14.5 2.5
t11.5 11.5t8 25t3 43q0 38 -2.5 62.5t-7.5 38.5t-12 19.5t-17 5.5z" />
    <glyph glyph-name="foursuperior" unicode="&#x2074;" horiz-adv-x="370" 
d="M25 367zM192 367v73h-167v71l149 213h115v-203h53v-81h-53v-73h-97zM194 622l-70 -101h70v101z" />
    <glyph glyph-name="fivesuperior" unicode="&#x2075;" horiz-adv-x="352" 
d="M24 358zM139 636l-5 -52q16 6 30.5 9.5t31.5 3.5q55 0 91 -29t36 -87q0 -30 -12.5 -53t-32.5 -38.5t-46.5 -23.5t-54.5 -8q-45 0 -86 17.5t-67 57.5l69 46q20 -21 36.5 -30t43.5 -9q26 0 39 8t13 29q0 43 -55 43q-14 0 -31 -4.5t-23 -11.5l-70 41l13 179h241l-3 -88h-158
z" />
    <glyph glyph-name="sixsuperior" unicode="&#x2076;" horiz-adv-x="367" 
d="M27 358zM240 633q-5 13 -20 18t-30 5q-29 0 -46 -23.5t-20 -54.5q34 36 86 36q25 0 48 -9.5t40 -27t27.5 -40.5t10.5 -50q0 -31 -11 -55t-30.5 -40.5t-45 -25t-55.5 -8.5q-38 0 -69 13.5t-53 37t-33.5 55.5t-11.5 70q0 34 9.5 69.5t29 64.5t50.5 47.5t74 18.5
q56 0 93.5 -23.5t45.5 -77.5h-89zM186 434q22 0 36.5 12.5t14.5 40.5q0 23 -15.5 37t-35.5 14q-25 0 -41.5 -12.5t-16.5 -38.5q0 -17 15 -35t43 -18z" />
    <glyph glyph-name="sevensuperior" unicode="&#x2077;" horiz-adv-x="359" 
d="M31 367zM94 367q1 33 13 69t30 72t39.5 69t42.5 59h-188v88h299v-81q-53 -57 -82 -127t-42 -149h-112z" />
    <glyph glyph-name="eightsuperior" unicode="&#x2078;" horiz-adv-x="373" 
d="M31 358zM274 566q29 -8 48.5 -30.5t19.5 -58.5q0 -33 -15 -55.5t-39 -36.5t-54.5 -20.5t-60.5 -6.5q-28 0 -53.5 5t-45 17t-31.5 31.5t-12 48.5t15 51.5t44 32.5q-25 13 -39 31t-14 44q0 31 13.5 53t34.5 35.5t47.5 20t52.5 6.5t51 -5.5t44.5 -18t31.5 -31.5t12 -46
q0 -22 -13.5 -38.5t-36.5 -28.5zM153 516q-17 -6 -23.5 -15.5t-6.5 -23.5q0 -21 17.5 -32t40.5 -11q25 0 43.5 8.5t18.5 24.5q0 9 -10.5 16.5t-25.5 14t-30 11.5t-24 7zM207 592q12 5 20 13.5t8 20.5q0 11 -5.5 17.5t-14.5 10.5t-19 5t-19 1q-14 0 -27.5 -5t-13.5 -21
q0 -21 22.5 -30t48.5 -12z" />
    <glyph glyph-name="ninesuperior" unicode="&#x2079;" horiz-adv-x="367" 
d="M31 358zM128 459q5 -14 19.5 -18.5t29.5 -4.5q30 0 47 23.5t19 53.5q-34 -35 -86 -35q-25 0 -47.5 9.5t-40 26.5t-28 40.5t-10.5 50.5q0 31 11 55t30.5 40.5t45 25t55.5 8.5q39 0 70 -13.5t52.5 -37t33.5 -56t12 -70.5q0 -33 -9.5 -68.5t-29 -64.5t-50 -47.5t-73.5 -18.5
q-57 0 -94.5 23.5t-44.5 77.5h88zM239 604q0 18 -14.5 35.5t-43.5 17.5q-21 0 -36 -12t-15 -41q0 -22 15.5 -36t35.5 -14q26 0 42 12t16 38z" />
    <glyph glyph-name="zeroinferior" unicode="&#x2080;" horiz-adv-x="337" 
d="M167 -18q-28 0 -52.5 12t-43 36.5t-29 60.5t-10.5 84t12 83t32 57t45.5 32.5t51.5 10.5q27 0 51 -12t42 -35.5t28.5 -58t10.5 -79.5q0 -44 -10.5 -79.5t-29 -60.5t-44 -38t-54.5 -13zM167 274q-17 0 -26.5 -24.5t-9.5 -80.5q0 -55 10 -79t28 -24q8 0 14.5 2.5t11.5 11.5
t8 25t3 43q0 38 -2.5 62.5t-7.5 38.5t-12 19.5t-17 5.5z" />
    <glyph glyph-name="oneinferior" unicode="&#x2081;" horiz-adv-x="231" 
d="M93 -9v232h-63v77q18 0 31.5 6t23.5 13.5t16 15.5t9 13h82v-357h-99z" />
    <glyph glyph-name="twoinferior" unicode="&#x2082;" horiz-adv-x="362" 
d="M29 -9v72q38 23 69.5 44.5l60.5 42.5l25 19.5t24 21.5t18 22.5t7 21.5q0 21 -14 28t-29 7q-55 0 -55 -55q0 -5 0.5 -10.5t1.5 -10.5h-89q-2 8 -3.5 18.5t-1.5 18.5q0 31 12 55t32 40t46.5 24t55.5 8q26 0 51.5 -7t46 -22t33 -37.5t12.5 -52.5t-14 -54t-36 -43t-48 -34.5
l-50 -28.5h143v-88h-298z" />
    <glyph glyph-name="threeinferior" unicode="&#x2083;" horiz-adv-x="354" 
d="M133 143v62h36q23 0 39 6t16 31q0 20 -15 26t-32 6q-28 0 -40.5 -11t-13.5 -40h-81q-1 5 -1 9.5v10.5q0 54 38 84.5t103 30.5q27 0 52 -7t45 -20.5t32 -33.5t12 -47q0 -26 -12.5 -46t-35.5 -31q24 -10 36.5 -34t12.5 -46q0 -24 -11.5 -44t-31.5 -35t-46 -23.5t-54 -8.5
q-30 0 -58 7.5t-50 23t-35.5 38.5t-13.5 55q0 6 0.5 12t1.5 13h84q0 -9 2.5 -20t10 -21t20.5 -17t34 -7q19 0 34 8.5t15 28.5q0 15 -8.5 27.5t-28.5 12.5h-56z" />
    <glyph glyph-name="fourinferior" unicode="&#x2084;" horiz-adv-x="370" 
d="M192 -9v73h-167v71l149 213h115v-203h53v-81h-53v-73h-97zM194 246l-70 -101h70v101z" />
    <glyph glyph-name="fiveinferior" unicode="&#x2085;" horiz-adv-x="352" 
d="M139 260l-5 -52q16 6 30.5 9.5t31.5 3.5q55 0 91 -29t36 -87q0 -30 -12.5 -53t-32.5 -38.5t-46.5 -23.5t-54.5 -8q-45 0 -86 17.5t-67 57.5l69 46q20 -21 36.5 -30t43.5 -9q26 0 39 8t13 29q0 43 -55 43q-14 0 -31 -4.5t-23 -11.5l-70 41l13 179h241l-3 -88h-158z" />
    <glyph glyph-name="sixinferior" unicode="&#x2086;" horiz-adv-x="367" 
d="M240 257q-5 13 -20 18t-30 5q-29 0 -46 -23.5t-20 -54.5q34 36 86 36q25 0 48 -9.5t40 -27t27.5 -40.5t10.5 -50q0 -31 -11 -55t-30.5 -40.5t-45 -25t-55.5 -8.5q-38 0 -69 13.5t-53 37t-33.5 55.5t-11.5 70q0 34 9.5 69.5t29 64.5t50.5 47.5t74 18.5q56 0 93.5 -23.5
t45.5 -77.5h-89zM186 58q22 0 36.5 12.5t14.5 40.5q0 23 -15.5 37t-35.5 14q-25 0 -41.5 -12.5t-16.5 -38.5q0 -17 15 -35t43 -18z" />
    <glyph glyph-name="seveninferior" unicode="&#x2087;" horiz-adv-x="359" 
d="M94 -9q1 33 13 69t30 72t39.5 69t42.5 59h-188v88h299v-81q-53 -57 -82 -127t-42 -149h-112z" />
    <glyph glyph-name="eightinferior" unicode="&#x2088;" horiz-adv-x="373" 
d="M274 190q29 -8 48.5 -30.5t19.5 -58.5q0 -33 -15 -55.5t-39 -36.5t-54.5 -20.5t-60.5 -6.5q-28 0 -53.5 5t-45 17t-31.5 31.5t-12 48.5t15 51.5t44 32.5q-25 13 -39 31t-14 44q0 31 13.5 53t34.5 35.5t47.5 20t52.5 6.5t51 -5.5t44.5 -18t31.5 -31.5t12 -46
q0 -22 -13.5 -38.5t-36.5 -28.5zM153 140q-17 -6 -23.5 -15.5t-6.5 -23.5q0 -21 17.5 -32t40.5 -11q25 0 43.5 8.5t18.5 24.5q0 9 -10.5 16.5t-25.5 14t-30 11.5t-24 7zM207 216q12 5 20 13.5t8 20.5q0 11 -5.5 17.5t-14.5 10.5t-19 5t-19 1q-14 0 -27.5 -5t-13.5 -21
q0 -21 22.5 -30t48.5 -12z" />
    <glyph glyph-name="nineinferior" unicode="&#x2089;" horiz-adv-x="367" 
d="M128 83q5 -14 19.5 -18.5t29.5 -4.5q30 0 47 23.5t19 53.5q-34 -35 -86 -35q-25 0 -47.5 9.5t-40 26.5t-28 40.5t-10.5 50.5q0 31 11 55t30.5 40.5t45 25t55.5 8.5q39 0 70 -13.5t52.5 -37t33.5 -56t12 -70.5q0 -33 -9.5 -68.5t-29 -64.5t-50 -47.5t-73.5 -18.5
q-57 0 -94.5 23.5t-44.5 77.5h88zM239 228q0 18 -14.5 35.5t-43.5 17.5q-21 0 -36 -12t-15 -41q0 -22 15.5 -36t35.5 -14q26 0 42 12t16 38z" />
    <glyph glyph-name="Euro" unicode="&#x20ac;" horiz-adv-x="712" 
d="M457 -18q-72 0 -133 21.5t-108 59.5t-79 91t-45 116h-73l16 64h48q-1 7 -1 14.5v15.5v20.5t2 20.5h-64l16 66h60q16 57 49 105t79.5 83.5t105.5 55t127 19.5q56 0 106 -13.5t94 -39.5l-74 -147q-53 45 -124 45q-63 0 -109.5 -29.5t-70.5 -78.5h273l-34 -66h-260
q-2 -9 -3 -20.5t-1 -22.5v-14t2 -14h226l-33 -64h-179q21 -60 69.5 -96.5t117.5 -36.5q40 0 78 16.5t67 45.5l108 -115q-51 -48 -116 -75t-137 -27z" />
    <glyph glyph-name="uni20B9" unicode="&#x20b9;" horiz-adv-x="747" 
d="M602 433q-10 -59 -39 -99t-74 -57q30 -11 50.5 -26t33.5 -35.5t19.5 -47.5t9.5 -63q2 -31 8.5 -57t19.5 -48h-180q-12 16 -16.5 38t-7.5 45.5t-6.5 46.5t-14 41t-30.5 29.5t-56 11.5h-13v137h49q32 0 51.5 19.5t24.5 64.5h-393v103h388q-9 38 -28.5 55t-46.5 19h-313v104
h678v-104h-138q19 -32 25 -74h113v-103h-114z" />
    <glyph glyph-name="uni20BA" unicode="&#x20ba;" horiz-adv-x="713" 
d="M355 149q55 0 99 22.5t69 68.5l142 -83q-45 -70 -122 -113.5t-181 -43.5h-265v246l-54 -18v103l54 18v114l-54 -18v104l54 18v147h174v-87l178 62v-104l-178 -62v-114l178 62v-103l-178 -62v-157h84z" />
    <glyph glyph-name="uni20BD" unicode="&#x20bd;" 
d="M108 0v89h-74v103h74v84h-74v104h74v334h348q59 0 102 -20.5t70.5 -53.5t41 -74t13.5 -81q0 -47 -16.5 -85t-47.5 -66t-74 -43t-96 -15h-164v-84h309v-103h-309v-89h-177zM282 566v-186h143q39 0 61.5 22.5t22.5 67.5q0 46 -24 71t-66 25h-137z" />
    <glyph glyph-name="uni2117" unicode="&#x2117;" horiz-adv-x="805" 
d="M404 -18q-84 0 -153 28.5t-118.5 79.5t-76.5 122t-27 156q0 83 30 150.5t82 115.5t120.5 74t146.5 26q81 0 148 -26.5t116 -74.5t76 -116t27 -151q0 -81 -28.5 -151.5t-78 -122t-117.5 -81t-147 -29.5zM402 52q64 0 119 23.5t95 65.5t62.5 99.5t22.5 124.5
q0 62 -20.5 116.5t-58.5 95t-92 64t-122 23.5q-72 0 -128.5 -24t-95.5 -65t-59 -95t-20 -114q0 -68 20.5 -125.5t59 -99.5t93.5 -65.5t124 -23.5zM278 196v316h185q25 0 44 -10t31 -25.5t18 -35.5t6 -40q0 -23 -8.5 -41.5t-23 -32t-33 -21t-39.5 -7.5h-100v-103h-80z
M358 446v-80h89q16 0 25.5 10t9.5 27q0 22 -10.5 32.5t-28.5 10.5h-85z" />
    <glyph glyph-name="trademark" unicode="&#x2122;" horiz-adv-x="890" 
d="M153 321v318h-95v75h284v-75h-91v-318h-98zM740 321v211l-73 -208h-99l-77 208v-211h-90v393h132l84 -259l87 259h127v-393h-91z" />
    <glyph glyph-name="uni2126" unicode="&#x2126;" horiz-adv-x="714" 
d="M47 0zM410 0v137q25 18 41 41t25 54t12 71t3 92q0 40 -5 75.5t-19.5 62t-40.5 42t-68 15.5t-68.5 -11.5t-41 -35.5t-19.5 -61t-5 -87q0 -41 3 -80t11.5 -72.5t24.5 -60.5t42 -45v-137h-245v155h129q-34 27 -60.5 54.5t-44.5 60.5t-27.5 73.5t-9.5 94.5q0 63 12.5 117
t47 93.5t95 62.5t156.5 23t156 -23t94.5 -62.5t47 -93.5t12.5 -117q0 -54 -9.5 -94.5t-27.5 -73.5t-44.5 -60.5t-60.5 -54.5h128v-155h-244z" />
    <glyph glyph-name="onethird" unicode="&#x2153;" horiz-adv-x="734" 
d="M30 0zM101 367v232h-63v77q18 0 31.5 6t23.5 13.5t16 15.5t9 13h82v-357h-99zM30 -20l485 754h114l-483 -754h-116zM514 143v62h36q23 0 39 6t16 31q0 20 -15 26t-32 6q-28 0 -40.5 -11t-13.5 -40h-81q-1 5 -1 9.5v10.5q0 54 38 84.5t103 30.5q27 0 52 -7t45 -20.5
t32 -33.5t12 -47q0 -26 -12.5 -46t-35.5 -31q24 -10 36.5 -34t12.5 -46q0 -24 -11.5 -44t-31.5 -35t-46 -23.5t-54 -8.5q-30 0 -58 7.5t-50 23t-35.5 38.5t-13.5 55q0 6 0.5 12t1.5 13h84q0 -9 2.5 -20t10 -21t20.5 -17t34 -7q19 0 34 8.5t15 28.5q0 15 -8.5 27.5
t-28.5 12.5h-56z" />
    <glyph glyph-name="twothirds" unicode="&#x2154;" horiz-adv-x="802" 
d="M28 0zM28 367v72q38 23 69.5 44.5l60.5 42.5l25 19.5t24 21.5t18 22.5t7 21.5q0 21 -14 28t-29 7q-55 0 -55 -55q0 -5 0.5 -10.5t1.5 -10.5h-89q-2 8 -3.5 18.5t-1.5 18.5q0 31 12 55t32 40t46.5 24t55.5 8q26 0 51.5 -7t46 -22t33 -37.5t12.5 -52.5t-14 -54t-36 -43
t-48 -34.5l-50 -28.5h143v-88h-298zM107 -20l485 754h114l-483 -754h-116zM582 143v62h36q23 0 39 6t16 31q0 20 -15 26t-32 6q-28 0 -40.5 -11t-13.5 -40h-81q-1 5 -1 9.5v10.5q0 54 38 84.5t103 30.5q27 0 52 -7t45 -20.5t32 -33.5t12 -47q0 -26 -12.5 -46t-35.5 -31
q24 -10 36.5 -34t12.5 -46q0 -24 -11.5 -44t-31.5 -35t-46 -23.5t-54 -8.5q-30 0 -58 7.5t-50 23t-35.5 38.5t-13.5 55q0 6 0.5 12t1.5 13h84q0 -9 2.5 -20t10 -21t20.5 -17t34 -7q19 0 34 8.5t15 28.5q0 15 -8.5 27.5t-28.5 12.5h-56z" />
    <glyph glyph-name="oneeighth" unicode="&#x215b;" horiz-adv-x="743" 
d="M30 0zM101 367v232h-63v77q18 0 31.5 6t23.5 13.5t16 15.5t9 13h82v-357h-99zM30 -20l485 754h114l-483 -754h-116zM646 190q29 -8 48.5 -30.5t19.5 -58.5q0 -33 -15 -55.5t-39 -36.5t-54.5 -20.5t-60.5 -6.5q-28 0 -53.5 5t-45 17t-31.5 31.5t-12 48.5t15 51.5t44 32.5
q-25 13 -39 31t-14 44q0 31 13.5 53t34.5 35.5t47.5 20t52.5 6.5t51 -5.5t44.5 -18t31.5 -31.5t12 -46q0 -22 -13.5 -38.5t-36.5 -28.5zM525 140q-17 -6 -23.5 -15.5t-6.5 -23.5q0 -21 17.5 -32t40.5 -11q25 0 43.5 8.5t18.5 24.5q0 9 -10.5 16.5t-25.5 14t-30 11.5t-24 7z
M579 216q12 5 20 13.5t8 20.5q0 11 -5.5 17.5t-14.5 10.5t-19 5t-19 1q-14 0 -27.5 -5t-13.5 -21q0 -21 22.5 -30t48.5 -12z" />
    <glyph glyph-name="threeeighths" unicode="&#x215c;" horiz-adv-x="799" 
d="M28 0zM137 519v62h36q23 0 39 6t16 31q0 20 -15 26t-32 6q-28 0 -40.5 -11t-13.5 -40h-81q-1 5 -1 9.5v10.5q0 54 38 84.5t103 30.5q27 0 52 -7t45 -20.5t32 -33.5t12 -47q0 -26 -12.5 -46t-35.5 -31q24 -10 36.5 -34t12.5 -46q0 -24 -11.5 -44t-31.5 -35t-46 -23.5
t-54 -8.5q-30 0 -58 7.5t-50 23t-35.5 38.5t-13.5 55q0 6 0.5 12t1.5 13h84q0 -9 2.5 -20t10 -21t20.5 -17t34 -7q19 0 34 8.5t15 28.5q0 15 -8.5 27.5t-28.5 12.5h-56zM95 -20l485 754h114l-483 -754h-116zM702 190q29 -8 48.5 -30.5t19.5 -58.5q0 -33 -15 -55.5t-39 -36.5
t-54.5 -20.5t-60.5 -6.5q-28 0 -53.5 5t-45 17t-31.5 31.5t-12 48.5t15 51.5t44 32.5q-25 13 -39 31t-14 44q0 31 13.5 53t34.5 35.5t47.5 20t52.5 6.5t51 -5.5t44.5 -18t31.5 -31.5t12 -46q0 -22 -13.5 -38.5t-36.5 -28.5zM581 140q-17 -6 -23.5 -15.5t-6.5 -23.5
q0 -21 17.5 -32t40.5 -11q25 0 43.5 8.5t18.5 24.5q0 9 -10.5 16.5t-25.5 14t-30 11.5t-24 7zM635 216q12 5 20 13.5t8 20.5q0 11 -5.5 17.5t-14.5 10.5t-19 5t-19 1q-14 0 -27.5 -5t-13.5 -21q0 -21 22.5 -30t48.5 -12z" />
    <glyph glyph-name="fiveeighths" unicode="&#x215d;" horiz-adv-x="788" 
d="M28 0zM143 636l-5 -52q16 6 30.5 9.5t31.5 3.5q55 0 91 -29t36 -87q0 -30 -12.5 -53t-32.5 -38.5t-46.5 -23.5t-54.5 -8q-45 0 -86 17.5t-67 57.5l69 46q20 -21 36.5 -30t43.5 -9q26 0 39 8t13 29q0 43 -55 43q-14 0 -31 -4.5t-23 -11.5l-70 41l13 179h241l-3 -88h-158z
M84 -20l485 754h114l-483 -754h-116zM691 190q29 -8 48.5 -30.5t19.5 -58.5q0 -33 -15 -55.5t-39 -36.5t-54.5 -20.5t-60.5 -6.5q-28 0 -53.5 5t-45 17t-31.5 31.5t-12 48.5t15 51.5t44 32.5q-25 13 -39 31t-14 44q0 31 13.5 53t34.5 35.5t47.5 20t52.5 6.5t51 -5.5
t44.5 -18t31.5 -31.5t12 -46q0 -22 -13.5 -38.5t-36.5 -28.5zM570 140q-17 -6 -23.5 -15.5t-6.5 -23.5q0 -21 17.5 -32t40.5 -11q25 0 43.5 8.5t18.5 24.5q0 9 -10.5 16.5t-25.5 14t-30 11.5t-24 7zM624 216q12 5 20 13.5t8 20.5q0 11 -5.5 17.5t-14.5 10.5t-19 5t-19 1
q-14 0 -27.5 -5t-13.5 -21q0 -21 22.5 -30t48.5 -12z" />
    <glyph glyph-name="seveneighths" unicode="&#x215e;" horiz-adv-x="771" 
d="M28 0zM91 367q1 33 13 69t30 72t39.5 69t42.5 59h-188v88h299v-81q-53 -57 -82 -127t-42 -149h-112zM58 -20l485 754h114l-483 -754h-116zM674 190q29 -8 48.5 -30.5t19.5 -58.5q0 -33 -15 -55.5t-39 -36.5t-54.5 -20.5t-60.5 -6.5q-28 0 -53.5 5t-45 17t-31.5 31.5
t-12 48.5t15 51.5t44 32.5q-25 13 -39 31t-14 44q0 31 13.5 53t34.5 35.5t47.5 20t52.5 6.5t51 -5.5t44.5 -18t31.5 -31.5t12 -46q0 -22 -13.5 -38.5t-36.5 -28.5zM553 140q-17 -6 -23.5 -15.5t-6.5 -23.5q0 -21 17.5 -32t40.5 -11q25 0 43.5 8.5t18.5 24.5q0 9 -10.5 16.5
t-25.5 14t-30 11.5t-24 7zM607 216q12 5 20 13.5t8 20.5q0 11 -5.5 17.5t-14.5 10.5t-19 5t-19 1q-14 0 -27.5 -5t-13.5 -21q0 -21 22.5 -30t48.5 -12z" />
    <glyph glyph-name="partialdiff" unicode="&#x2202;" horiz-adv-x="577" 
d="M29 190q0 45 17 85t46 70t69 48t86 18q51 0 103.5 -22t84.5 -66q5 25 8.5 49t3.5 46q0 42 -11 78t-31.5 62.5t-50 41t-67.5 14.5q-13 0 -25 -2t-26 -6v107q21 5 41.5 6.5t38.5 1.5q59 0 102.5 -21t72 -58.5t42.5 -89.5t14 -114q0 -41 -6 -90.5t-19.5 -100t-35 -97.5
t-54 -84t-75.5 -59t-99 -22t-99 15.5t-72 43.5t-43.5 65t-14.5 81zM254 107q25 0 46.5 6.5t40.5 21.5t35.5 40.5t31.5 63.5q-25 40 -65.5 58t-78.5 18q-55 0 -82 -30t-27 -82q0 -40 27 -68t72 -28z" />
    <glyph glyph-name="uni2206" unicode="&#x2206;" horiz-adv-x="767" 
d="M9 0zM343 714h97l317 -714h-748zM253 155h252l-126 311z" />
    <glyph glyph-name="product" unicode="&#x220f;" horiz-adv-x="611" 
d="M419 -173v771h-228v-771h-133v887h495v-887h-134z" />
    <glyph glyph-name="summation" unicode="&#x2211;" horiz-adv-x="555" 
d="M36 -121v92l206 326l-206 326v91h484v-127h-321l186 -290l-186 -292h321v-126h-484z" />
    <glyph glyph-name="minus" unicode="&#x2212;" horiz-adv-x="521" 
d="M58 297v103h406v-103h-406z" />
    <glyph glyph-name="radical" unicode="&#x221a;" horiz-adv-x="596" 
d="M186 0l-86 259h-76v102h172l72 -214l177 567h131l-227 -714h-163z" />
    <glyph glyph-name="infinity" unicode="&#x221e;" horiz-adv-x="642" 
d="M58 349q0 48 10 80.5t28 52.5t43 28.5t54 8.5q22 0 43 -3t37.5 -12.5t29 -26.5t18.5 -44q6 27 18.5 44t29.5 26.5t37.5 12.5t43.5 3q30 0 54.5 -8.5t42 -28.5t27.5 -52.5t10 -80.5t-10 -80.5t-27.5 -52.5t-42 -29t-54.5 -9q-23 0 -43.5 3.5t-37.5 12.5t-29.5 26t-18.5 44
q-6 -27 -18.5 -44t-29 -26t-37.5 -12.5t-43 -3.5q-29 0 -54 9t-43 29t-28 52.5t-10 80.5zM417 398q-13 0 -25 -1t-21 -6t-14.5 -14.5t-5.5 -27.5t5.5 -28t14.5 -15t21 -6t25 -1q27 0 46 8.5t19 41.5q0 17 -5 26.5t-14 14.5t-21 6.5t-25 1.5zM163 349q0 -33 18 -41.5t44 -8.5
q13 0 25 1t21 6t14.5 15t5.5 28t-5.5 27.5t-14.5 14.5t-21 6t-25 1t-24.5 -1.5t-19.5 -6.5t-13 -14.5t-5 -26.5z" />
    <glyph glyph-name="integral" unicode="&#x222b;" horiz-adv-x="429" 
d="M21 -213v139h62q30 0 41 13.5t11 45.5v552q0 48 15 81.5t40.5 54.5t60 31t73.5 10h84v-138h-65q-29 0 -39.5 -13t-10.5 -45v-553q0 -48 -15 -81.5t-40.5 -55t-60.5 -31.5t-74 -10h-82z" />
    <glyph glyph-name="approxequal" unicode="&#x2248;" horiz-adv-x="632" 
d="M58 143zM321 268q29 -11 60 -19t66 -8q27 0 52 14t31 49h43q0 -51 -12.5 -82.5t-32 -49t-43 -23t-45.5 -5.5q-32 0 -62.5 10.5t-66.5 24.5q-29 11 -60 19t-67 8q-28 0 -52 -13.5t-30 -49.5h-44q0 52 12.5 83.5t32 48.5t43 22.5t45.5 5.5q33 0 63.5 -10.5t66.5 -24.5z
M321 484q29 -11 60 -19t66 -8q27 0 52 14t31 49h43q0 -51 -12.5 -82.5t-32 -49t-43 -23t-45.5 -5.5q-32 0 -62.5 10.5t-66.5 24.5q-29 11 -60 19t-67 8q-28 0 -52 -13.5t-30 -49.5h-44q0 52 12.5 83.5t32 48.5t43 22.5t45.5 5.5q33 0 63.5 -10.5t66.5 -24.5z" />
    <glyph glyph-name="notequal" unicode="&#x2260;" horiz-adv-x="521" 
d="M-40 -20l133 208h-35v103h102l74 114h-176v104h242l146 225h114l-145 -225h49v-104h-115l-73 -114h188v-103h-255l-133 -208h-116z" />
    <glyph glyph-name="lessequal" unicode="&#x2264;" horiz-adv-x="521" 
d="M57 0zM58 308v86l406 225v-122l-294 -145l294 -146v-122zM57 -36v103h406v-103h-406z" />
    <glyph glyph-name="greaterequal" unicode="&#x2265;" horiz-adv-x="521" 
d="M57 0zM58 84v122l295 146l-295 145v122l406 -225v-86zM57 -36v103h406v-103h-406z" />
    <glyph glyph-name="lozenge" unicode="&#x25ca;" horiz-adv-x="548" 
d="M206 0l-174 357l174 357h145l165 -357l-165 -357h-145zM381 357l-104 214l-105 -214l105 -212z" />
    <glyph glyph-name="uni261C" unicode="&#x261c;" horiz-adv-x="1109" 
d="M925 0q-12 0 -19 10t-10.5 24t-5 30.5t-1.5 29.5q0 33 -4.5 72.5t-18.5 74t-39 57.5t-65 23q-14 0 -29 -6.5t-24 -17.5q-11 -14 -13.5 -38t-6.5 -42q-3 -20 -11.5 -31.5t-21.5 -18t-28.5 -8.5t-31.5 -2q-27 0 -53.5 5.5t-47.5 18t-34.5 32.5t-13.5 48q0 14 3.5 25t3.5 25
q0 9 -6 14.5t-12 14.5l7 7h-45q-35 0 -49 19t-14 39q0 16 6 27q-13 19 -54 19q-5 12 -18 22.5t-29 18.5t-32 12.5t-27 4.5h-161v77h9l1 29h18q0 7 6 12.5t13.5 9t15.5 5t14 1.5q36 0 49 -28h236q19 0 25 2t8 5h191q0 5 3.5 9t11.5 4q7 0 9.5 -4t2.5 -9h70q5 0 11.5 -5.5
t6.5 -17.5q0 -6 -2.5 -11t-11.5 -7q0 -6 11.5 -11.5t34.5 -5.5q8 0 14 4.5t12 9.5l11.5 9.5t13.5 4.5q16 0 16 -10q-12 -5 -17 -13.5t-10 -13.5q-10 -8 -18 -11t-14 -5t-9 -4t-3 -7q0 -7 9.5 -7.5t22 -2.5t25.5 -10t21 -29q60 -23 110 -73.5t99 -126.5q20 -32 35.5 -76
t15.5 -103q0 -12 -0.5 -29t-4 -32.5t-11.5 -27t-22 -11.5h-124zM676 233q0 6 -0.5 14.5t-4 16t-10.5 13t-20 5.5q-17 0 -23 -15.5t-12 -33.5t-18 -33.5t-40 -15.5q-9 0 -19 3q9 2 20.5 7t21.5 13t17 19t7 25q0 21 -8.5 34t-21 20.5t-27 10.5t-25.5 3q10 9 28 9q11 0 19.5 -3
t13.5 -7q5 3 13.5 7t18.5 6q-14 2 -31.5 4t-33.5 2q-36 0 -59 -17.5t-23 -55.5q0 -28 14 -46t35 -28.5t45 -14.5t45 -4q32 0 54 11.5t24 50.5z" />
    <glyph glyph-name="uni261D" unicode="&#x261d;" horiz-adv-x="1109" 
d="M58 0q-14 0 -22 11.5t-11.5 27t-4 32.5t-0.5 29q0 59 15.5 103t35.5 76q50 76 99.5 126.5t109.5 73.5q7 21 20.5 29t26 10t22 2.5t9.5 7.5q0 5 -3 7t-9 4t-14 5t-18 11q-5 5 -10 13.5t-17 13.5q0 5 5 7.5t11 2.5q7 0 13.5 -4.5t12.5 -9.5t12 -9.5t14 -4.5q23 0 34 5.5
t11 11.5q-9 2 -12 7t-3 11q0 12 7 17.5t12 5.5h70q0 5 2.5 9t9.5 4q8 0 11 -4t3 -9h193q2 -3 7.5 -5t24.5 -2h236q12 28 50 28q5 0 13 -1.5t15.5 -5t13.5 -9t6 -12.5h18l1 -29h9v-77h-161q-11 0 -27 -4.5t-31.5 -12.5t-29 -18.5t-18.5 -22.5q-41 0 -54 -19q7 -12 7 -27
q0 -20 -14.5 -39t-49.5 -19h-45l8 -7q-7 -9 -12.5 -14.5t-5.5 -14.5q0 -14 2.5 -25t2.5 -25q0 -28 -13 -48t-34 -32.5t-47.5 -18t-52.5 -5.5q-17 0 -32.5 2t-28.5 8.5t-21.5 18t-11.5 31.5q-3 18 -6 42t-14 38q-10 11 -24.5 17.5t-28.5 6.5q-41 0 -65.5 -23t-38.5 -57.5
t-18.5 -74t-4.5 -72.5q0 -13 -1 -29.5t-5 -30.5t-11.5 -24t-19.5 -10h-123zM432 233q2 -39 23.5 -50.5t53.5 -11.5q21 0 45 4t45 14.5t35 28.5t14 46q0 38 -22.5 55.5t-59.5 17.5q-17 0 -34 -2t-31 -4q11 -2 19.5 -6t13.5 -7q4 4 13 7t19 3q17 0 29 -9q-12 0 -26 -3
t-26.5 -10.5t-21 -20.5t-8.5 -34q0 -14 7 -25t16.5 -19t21 -13t20.5 -7q-11 -3 -19 -3q-29 0 -40.5 15.5t-17.5 33.5t-12 33.5t-23 15.5q-12 0 -19 -5.5t-10.5 -13t-4 -16t-0.5 -14.5z" />
    <glyph glyph-name="uni2766" unicode="&#x2766;" horiz-adv-x="756" 
d="M352 -23q-51 13 -79.5 55t-28.5 92q0 40 13.5 66t30 44.5l30.5 33t14 31.5q0 6 -4 11t-12 5q-13 0 -30 -12.5l-38.5 -28t-48.5 -28t-61 -12.5q-47 0 -79.5 21.5t-32.5 61.5q0 30 16.5 56t48.5 27q-13 -9 -21.5 -19.5t-8.5 -28.5q0 -9 4.5 -18.5t15.5 -9.5q10 0 15 7
t7 17.5t2.5 22t2.5 20.5q9 32 33 56t58 24q27 0 48.5 -11.5t37.5 -29.5t27.5 -40t19.5 -43q7 52 24 88t55 64q-10 -5 -29 -5q-45 0 -71 24.5t-26 59.5q0 24 9.5 43t25 31.5t35 19.5t39.5 7q7 0 21 -2t28 -7t24.5 -15t10.5 -25q0 -17 -9 -26.5t-22 -14.5q5 7 9 17t4 17
q0 18 -19.5 26.5t-37.5 8.5q-16 0 -31.5 -6t-27.5 -17.5t-19.5 -27t-7.5 -34.5q0 -26 20.5 -42.5t56.5 -16.5q26 0 47 9.5t47 14.5q34 7 66 7q15 0 31.5 -1.5t33.5 -1.5q10 0 21.5 2.5t21.5 9t16 17.5t6 29q0 14 -7.5 25t-20.5 21q20 -6 32.5 -20t12.5 -34
q0 -29 -18.5 -45.5t-43.5 -18.5q15 -4 30.5 -10.5t28 -16t21 -23t8.5 -31.5q0 -30 -17 -52t-45 -28q15 15 26.5 32t11.5 39q0 25 -18 41.5t-43 26.5t-52 14t-46 4q-36 0 -68.5 -10t-57 -32t-39 -57t-14.5 -84q29 28 66 51t79 23q24 0 46 -7.5t38.5 -20.5t26 -31t9.5 -40
q0 -17 -7.5 -32t-7.5 -32q0 -11 7.5 -18.5t21.5 -7.5q19 0 31.5 16.5t12.5 36.5q0 7 -1 11q8 -6 11.5 -15t3.5 -18q0 -24 -10.5 -41t-27 -28.5t-36 -16.5t-38.5 -5q-28 0 -52 9.5t-44.5 25t-36.5 36t-28 42.5q-3 6 -6.5 14.5t-8 15.5t-10.5 12t-14 5t-15.5 -7t-7.5 -18
q0 -15 16.5 -32l36 -38.5t36 -50t16.5 -66.5q0 -30 -6.5 -47t-16 -25t-21 -10.5l-21 -4.5t-16 -6t-6.5 -15q0 -7 6 -12t14 -5q5 0 10 2.5t10 5.5q-5 -14 -18 -19t-27 -5q-8 0 -15.5 1t-12.5 3z" />
    <glyph glyph-name="zero.lnum" unicode="&#xf762;" horiz-adv-x="676" 
d="M336 -18q-160 0 -231.5 97t-71.5 289q0 96 24 165.5t66 114t100 65.5t126 21q67 0 121.5 -24t93 -71t59 -115.5t20.5 -157.5t-18 -160.5t-55.5 -121t-95.5 -76t-138 -26.5zM338 123q31 0 57 13.5t44.5 41.5t28 71t8.5 102q-2 69 -10.5 115.5t-25.5 74.5t-42 39.5
t-59 11.5q-70 0 -105 -55t-35 -178t36.5 -179.5t102.5 -56.5z" />
    <glyph glyph-name="one.lnum" unicode="&#xf763;" horiz-adv-x="676" 
d="M114 0v148h140v334h-132v130q38 0 66 9t47 23.5t30.5 33t16.5 36.5h139v-566h143v-148h-450z" />
    <glyph glyph-name="two.lnum" unicode="&#xf764;" horiz-adv-x="676" 
d="M38 0zM38 0v121q48 26 94 55l94 59q36 23 78 53t78 63.5t60 68.5t24 70q0 25 -9 43t-24.5 29.5t-35.5 17t-42 5.5q-29 0 -54 -9t-43 -25.5t-28.5 -40t-10.5 -53.5q0 -14 2 -26l4 -24h-150q-4 17 -6.5 35.5t-2.5 37.5q0 62 23.5 109.5t62.5 79.5t91 48.5t109 16.5
q52 0 102.5 -15t90.5 -44t65 -73.5t25 -102.5q0 -44 -15.5 -82t-42 -71.5t-60.5 -62t-71.5 -53t-75 -45l-70.5 -37.5h324v-148h-586z" />
    <glyph glyph-name="three.lnum" unicode="&#xf765;" horiz-adv-x="676" 
d="M42 0zM255 314v104h84q28 0 50.5 4t38.5 14t25 27t9 42t-10 41.5t-27 26.5t-38.5 14.5t-43.5 4.5q-63 0 -96.5 -29t-33.5 -99h-136q-1 8 -1.5 18t-0.5 21q0 54 19.5 97t56 72.5t87.5 45.5t114 16q53 0 103 -14t88.5 -41t61.5 -67.5t23 -93.5q0 -52 -26 -93.5t-76 -60.5
q26 -9 46 -26.5t33.5 -39.5t20.5 -46t7 -45q0 -49 -20.5 -90.5t-58 -71.5t-90 -46.5t-115.5 -16.5q-58 0 -113.5 13t-98.5 42.5t-69 76t-26 113.5q0 14 1 26.5t3 26.5h140q0 -74 38 -114.5t111 -40.5q27 0 51 6t41.5 18t28 30.5t10.5 44.5q0 39 -23.5 64.5t-70.5 25.5h-117z
" />
    <glyph glyph-name="four.lnum" unicode="&#xf766;" horiz-adv-x="676" 
d="M25 0zM382 0v155h-357v120l326 439h194v-422h106v-137h-106v-155h-163zM385 544l-190 -252h190v252z" />
    <glyph glyph-name="five.lnum" unicode="&#xf767;" horiz-adv-x="676" 
d="M42 0zM247 565l-12 -143q35 20 69 29t76 9q54 0 100 -14.5t80 -43t53 -72t19 -101.5q0 -61 -24.5 -107t-64.5 -77t-92 -47t-107 -16q-45 0 -88 8.5t-82 26.5t-72.5 46.5t-59.5 68.5l118 78q19 -23 37.5 -40t39 -28t45 -16.5t56.5 -5.5q60 0 94 23t34 79q0 57 -34.5 82.5
t-94.5 25.5q-17 0 -36.5 -3t-37.5 -8.5t-33.5 -13.5t-25.5 -19l-119 70l27 358h474l-6 -149h-333z" />
    <glyph glyph-name="six.lnum" unicode="&#xf768;" horiz-adv-x="676" 
d="M34 0zM197 410q75 84 193 84q51 0 96.5 -19t80 -52.5t55 -79.5t20.5 -100q0 -63 -22 -111.5t-60 -82t-88.5 -50.5t-108.5 -17q-76 0 -137 26.5t-103.5 74t-65.5 112t-23 139.5q0 68 18 139t56.5 129t99 95t145.5 37q55 0 102 -11.5t83 -36t58.5 -63t30.5 -91.5h-149
q-13 39 -47.5 55t-75.5 16q-37 0 -65.5 -17t-48 -44t-31 -61.5t-13.5 -70.5zM350 366q-59 0 -98 -28t-47 -83q0 -26 9.5 -52t28 -46.5t45.5 -33t61 -12.5q26 0 49 8t40.5 24t27.5 41t10 60q0 26 -10.5 48.5t-28 39t-40 25.5t-47.5 9z" />
    <glyph glyph-name="seven.lnum" unicode="&#xf769;" horiz-adv-x="676" 
d="M42 0zM179 0q4 73 28.5 150t62 151t83 142t91.5 122h-402v149h588v-136q-112 -118 -175 -263.5t-89 -314.5h-187z" />
    <glyph glyph-name="eight.lnum" unicode="&#xf76a;" horiz-adv-x="676" 
d="M32 0zM503 393q28 -9 54 -24t45.5 -36.5t31.5 -50.5t12 -65q0 -65 -29.5 -109.5t-77 -72.5t-107.5 -40.5t-121 -12.5q-54 0 -104 10.5t-89 34.5t-62.5 62.5t-23.5 95.5q0 66 35 110.5t95 63.5q-56 26 -86.5 61t-30.5 89q0 61 26.5 103.5t68.5 69.5t94 39.5t103 12.5
t100 -11t87.5 -35.5t62 -62.5t23.5 -92q0 -50 -29.5 -83.5t-77.5 -56.5zM279 313q-92 -23 -92 -99q0 -27 12 -46t31.5 -32t44.5 -19t51 -6q29 0 56.5 5.5t49 16t34.5 27t13 39.5t-22.5 42t-54 33t-65.5 24t-58 15zM381 436q35 11 57 31.5t22 52.5q0 27 -13 44.5t-33 27
t-44 13.5t-46 4q-18 0 -38 -4t-36.5 -12.5t-27 -22.5t-10.5 -35q0 -26 15.5 -43t40 -28t54.5 -17.5t59 -10.5z" />
    <glyph glyph-name="nine.lnum" unicode="&#xf76b;" horiz-adv-x="676" 
d="M34 0zM479 306q-72 -84 -194 -84q-50 0 -95.5 19.5t-80 53.5t-55 80.5t-20.5 101.5q0 62 22 110t60 80.5t88.5 49.5t108.5 17q75 0 136 -26.5t104 -74t66 -112t23 -139.5q0 -68 -18 -139t-56.5 -129t-99 -95t-144.5 -37q-56 0 -102.5 11.5t-82 36t-58.5 63t-31 91.5h148
q13 -40 47.5 -54.5t74.5 -14.5q37 0 65.5 16.5t48.5 43.5t31 61t14 70zM326 350q59 0 98 27.5t47 83.5q0 26 -9.5 51.5t-28 46t-45.5 33t-61 12.5q-26 0 -49 -7.5t-40 -23.5t-27 -40.5t-10 -58.5q0 -27 10 -50t27.5 -39.5t40 -25.5t47.5 -9z" />
    <glyph glyph-name=".null" horiz-adv-x="0" 
 />
    <glyph glyph-name="nonmarkingreturn" horiz-adv-x="197" 
 />
    <glyph glyph-name=".ttfautohint" horiz-adv-x="197" 
d="M0 0z" />
    </font>
</defs>
</svg>
